<mxfile host="app.diagrams.net" agent="Mozilla/5.0 (Macintosh; Intel Mac OS X 10_15_7) AppleWebKit/605.1.15 (KHTML, like Gecko) Version/18.3 Safari/605.1.15" version="26.0.6">
  <diagram name="Page-1" id="MHv5Aa-xz4gnVUeMGLLa">
    <mxGraphModel dx="1158" dy="816" grid="1" gridSize="10" guides="1" tooltips="1" connect="1" arrows="1" fold="1" page="1" pageScale="1" pageWidth="827" pageHeight="1169" math="0" shadow="0">
      <root>
        <mxCell id="0" />
        <mxCell id="1" parent="0" />
        <mxCell id="DPlwqbx3vE0NRJoWce21-1" value="" style="shape=image;verticalLabelPosition=bottom;labelBackgroundColor=default;verticalAlign=top;aspect=fixed;imageAspect=0;editableCssRules=.*;image=data:image/svg+xml,PHN2ZyB4bWxuczp4bGluaz0iaHR0cDovL3d3dy53My5vcmcvMTk5OS94bGluayIgeG1sbnM9Imh0dHA6Ly93d3cudzMub3JnLzIwMDAvc3ZnIiBoZWlnaHQ9IjEwMjkuNzUiIHdpZHRoPSIyNTkwLjQ4IiB2aWV3Qm94PSIwIDAgMjU5MC40OCAxMDI5Ljc1Ij48ZyB0cmFuc2Zvcm09InRyYW5zbGF0ZSgtMjM5LjI1IDEwMCkiPjxwYXRoIGZpbGw9IiNkZmUzZTgiIGQ9Ik05NDAgMjM2LjQ3YTIgMiAwIDAgMSAyLTJoNDE2YTIgMiAwIDAgMSAyIDJWOTE4YTIgMiAwIDAgMS0yIDJIOTQyYTIgMiAwIDAgMS0yLTJ6Ii8+PHVzZSB0cmFuc2Zvcm09Im1hdHJpeCgxLDAsMCwxLDk1NiwyNTAuNDc1MjgwNTUxODk5OSkgdHJhbnNsYXRlKDAgMTYuNjk5MjE4NzUpIiB4bGluazpocmVmPSIjYSIvPjxwYXRoIGZpbGw9IiNlM2YyZmQiIGQ9Ik0xNTIwIDI0MmEyIDIgMCAwIDEgMi0yaDQxNmEyIDIgMCAwIDEgMiAydjY4MS41MmEyIDIgMCAwIDEtMiAyaC00MTZhMiAyIDAgMCAxLTItMnoiLz48dXNlIHRyYW5zZm9ybT0ibWF0cml4KDEsMCwwLDEsMTUzNiwyNTYpIHRyYW5zbGF0ZSgwIDE2LjY5OTIxODc1KSIgeGxpbms6aHJlZj0iI2IiLz48dXNlIHRyYW5zZm9ybT0ibWF0cml4KDEsMCwwLDEsMTUzNiwyNTYpIHRyYW5zbGF0ZSg2NS4zNzMwNDY4NzUgMTYuNjk5MjE4NzUpIiB4bGluazpocmVmPSIjYyIvPjxwYXRoIGZpbGw9IiNlM2YyZmQiIGQ9Ik0yMDIwIDI0NC40N2EyIDIgMCAwIDEgMi0yaDQxNmEyIDIgMCAwIDEgMiAyVjkyNmEyIDIgMCAwIDEtMiAyaC00MTZhMiAyIDAgMCAxLTItMnoiLz48dXNlIHRyYW5zZm9ybT0ibWF0cml4KDEsMCwwLDEsMjAzNiwyNTguNDc1MjgwNTUxODk5OSkgdHJhbnNsYXRlKDAgMTYuNjk5MjE4NzUpIiB4bGluazpocmVmPSIjZCIvPjx1c2UgdHJhbnNmb3JtPSJtYXRyaXgoMSwwLDAsMSwyMDM2LDI1OC40NzUyODA1NTE4OTk5KSB0cmFuc2xhdGUoNjIuNDU1MDc4MTI1IDE2LjY5OTIxODc1KSIgeGxpbms6aHJlZj0iI2UiLz48ZyBmaWx0ZXI9InVybCgjZikiPjxwYXRoIGZpbGw9IiNmZmYiIGQ9Ik0yNDAgMjYyYTIgMiAwIDAgMSAyLTJoODRhMiAyIDAgMCAxIDIgMnYxMjRhMiAyIDAgMCAxLTIgMmgtODRhMiAyIDAgMCAxLTItMnoiLz48cGF0aCBmaWxsPSIjNzU3NTc1IiBkPSJNMjU0IDMxNnYxMmg2MHYtMTJ6bTEyIDloLTZ2LTZoNnpNMjU0IDI4MHYxMmg2MHYtMTJ6bTEyIDloLTZ2LTZoNnpNMjU0IDI5OHYxMmg2MHYtMTJ6bTEyIDloLTZ2LTZoNnoiLz48dXNlIHRyYW5zZm9ybT0ibWF0cml4KDEsMCwwLDEsMjQwLDM0MSkgdHJhbnNsYXRlKDMwLjQ3NzE4ODQ3NjU2MjUgMjguMDU3NTE5NTMxMjUpIiB4bGluazpocmVmPSIjZyIvPjx1c2UgdHJhbnNmb3JtPSJtYXRyaXgoMSwwLDAsMSwyNDAsMzQxKSB0cmFuc2xhdGUoNDEuMjY1NDg4MjgxMjUgMjguMDU3NTE5NTMxMjUpIiB4bGluazpocmVmPSIjaCIvPjwvZz48ZyBmaWx0ZXI9InVybCgjZikiPjxwYXRoIGZpbGw9IiNmZmYiIGQ9Ik0yNDAgNDQyYTIgMiAwIDAgMSAyLTJoODRhMiAyIDAgMCAxIDIgMnYxMjRhMiAyIDAgMCAxLTIgMmgtODRhMiAyIDAgMCAxLTItMnoiLz48cGF0aCBmaWxsPSIjNzU3NTc1IiBkPSJNMjU0IDQ5NnYxMmg2MHYtMTJ6bTEyIDloLTZ2LTZoNnpNMjU0IDQ2MHYxMmg2MHYtMTJ6bTEyIDloLTZ2LTZoNnpNMjU0IDQ3OHYxMmg2MHYtMTJ6bTEyIDloLTZ2LTZoNnoiLz48dXNlIHRyYW5zZm9ybT0ibWF0cml4KDEsMCwwLDEsMjQwLDUyMSkgdHJhbnNsYXRlKDMwLjQ3NzE4ODQ3NjU2MjUgMjguMDU3NTE5NTMxMjUpIiB4bGluazpocmVmPSIjZyIvPjx1c2UgdHJhbnNmb3JtPSJtYXRyaXgoMSwwLDAsMSwyNDAsNTIxKSB0cmFuc2xhdGUoNDEuMjY1NDg4MjgxMjUgMjguMDU3NTE5NTMxMjUpIiB4bGluazpocmVmPSIjaCIvPjwvZz48ZyBmaWx0ZXI9InVybCgjZikiPjxwYXRoIGZpbGw9IiNmZmYiIGQ9Ik0yNDAgNjIyYTIgMiAwIDAgMSAyLTJoODRhMiAyIDAgMCAxIDIgMnYxMjRhMiAyIDAgMCAxLTIgMmgtODRhMiAyIDAgMCAxLTItMnoiLz48cGF0aCBmaWxsPSIjNzU3NTc1IiBkPSJNMjU0IDY3NnYxMmg2MHYtMTJ6bTEyIDloLTZ2LTZoNnpNMjU0IDY0MHYxMmg2MHYtMTJ6bTEyIDloLTZ2LTZoNnpNMjU0IDY1OHYxMmg2MHYtMTJ6bTEyIDloLTZ2LTZoNnoiLz48dXNlIHRyYW5zZm9ybT0ibWF0cml4KDEsMCwwLDEsMjQwLDcwMSkgdHJhbnNsYXRlKDI0Ljk3ODg2NjY5OTIxODc1IDI4LjA1NzUxOTUzMTI1KSIgeGxpbms6aHJlZj0iI2kiLz48dXNlIHRyYW5zZm9ybT0ibWF0cml4KDEsMCwwLDEsMjQwLDcwMSkgdHJhbnNsYXRlKDQ2Ljc2MzgxMDA1ODU5Mzc1IDI4LjA1NzUxOTUzMTI1KSIgeGxpbms6aHJlZj0iI2giLz48L2c+PGcgZmlsdGVyPSJ1cmwoI2YpIj48cGF0aCBmaWxsPSIjZmZmIiBkPSJNMjQwIDgwMmEyIDIgMCAwIDEgMi0yaDg0YTIgMiAwIDAgMSAyIDJ2MTI0YTIgMiAwIDAgMS0yIDJoLTg0YTIgMiAwIDAgMS0yLTJ6Ii8+PHBhdGggZmlsbD0iIzc1NzU3NSIgZD0iTTI1NCA4NTZ2MTJoNjB2LTEyem0xMiA5aC02di02aDZ6TTI1NCA4MjB2MTJoNjB2LTEyem0xMiA5aC02di02aDZ6TTI1NCA4Mzh2MTJoNjB2LTEyem0xMiA5aC02di02aDZ6Ii8+PHVzZSB0cmFuc2Zvcm09Im1hdHJpeCgxLDAsMCwxLDI0MCw4ODEpIHRyYW5zbGF0ZSgyNC45Nzg4NjY2OTkyMTg3NSAyOC4wNTc1MTk1MzEyNSkiIHhsaW5rOmhyZWY9IiNpIi8+PHVzZSB0cmFuc2Zvcm09Im1hdHJpeCgxLDAsMCwxLDI0MCw4ODEpIHRyYW5zbGF0ZSg0Ni43NjM4MTAwNTg1OTM3NSAyOC4wNTc1MTk1MzEyNSkiIHhsaW5rOmhyZWY9IiNoIi8+PC9nPjxnIGZpbHRlcj0idXJsKCNqKSI+PHBhdGggZmlsbD0iI2ZmZiIgZD0iTTY4MCA3NTJhMiAyIDAgMCAxIDItMmgyMzZhMiAyIDAgMCAxIDIgMnY1NmEyIDIgMCAwIDEtMiAySDY4MmEyIDIgMCAwIDEtMi0yeiIvPjxwYXRoIGZpbGw9IiM3NTc1NzUiIGQ9Ik03MDAgNzcxLjI1aDIuNXYyLjVINzAwek03MDAgNzgwYTEuMjUgMS4yNSAwIDAgMSAxLjI1LTEuMjUgMS4yNSAxLjI1IDAgMCAxIDEuMjUgMS4yNSAxLjI1IDEuMjUgMCAwIDEtMS4yNSAxLjI1QTEuMjUgMS4yNSAwIDAgMSA3MDAgNzgweiIvPjxwYXRoIGZpbGw9IiM3NTc1NzUiIGQ9Ik03MTAgNzYwYy01LjUyIDAtMTAuMjQgMS45NS0xNC4xNCA1Ljg2LTMuOSAzLjktNS44NiA4LjYyLTUuODYgMTQuMTQgMCA1LjUyIDEuOTUgMTAuMjQgNS44NiAxNC4xNCAzLjkgMy45IDguNjIgNS44NiAxNC4xNCA1Ljg2IDUuNTIgMCAxMC4yNC0xLjk1IDE0LjE0LTUuODYgMy45LTMuOSA1Ljg2LTguNjIgNS44Ni0xNC4xNCAwLTUuNTItMS45NS0xMC4yNC01Ljg2LTE0LjE0LTMuOS0zLjktOC42Mi01Ljg2LTE0LjE0LTUuODZ6bTEyLjUgMjhhMiAyIDAgMCAxLTIgMmgtMjN2LTNhMiAyIDAgMCAxIDItMmgyM3ptMC03LjVhMiAyIDAgMCAxLTIgMmgtMjN2LTNhMiAyIDAgMCAxIDItMmgyM3ptMC03LjVhMiAyIDAgMCAxLTIgMmgtMjN2LTNhMiAyIDAgMCAxIDItMmgyM3oiLz48cGF0aCBmaWxsPSIjNzU3NTc1IiBkPSJNNzAwIDc4Ny41YTEuMjUgMS4yNSAwIDAgMSAxLjI1LTEuMjUgMS4yNSAxLjI1IDAgMCAxIDEuMjUgMS4yNSAxLjI1IDEuMjUgMCAwIDEtMS4yNSAxLjI1IDEuMjUgMS4yNSAwIDAgMS0xLjI1LTEuMjV6Ii8+PHVzZSB0cmFuc2Zvcm09Im1hdHJpeCgxLDAsMCwxLDc0MCw3NzApIHRyYW5zbGF0ZSgwIDE2LjY5OTIxODc1KSIgeGxpbms6aHJlZj0iI2siLz48dXNlIHRyYW5zZm9ybT0ibWF0cml4KDEsMCwwLDEsNzQwLDc3MCkgdHJhbnNsYXRlKDc3LjExNTIzNDM3NSAxNi42OTkyMTg3NSkiIHhsaW5rOmhyZWY9IiNsIi8+PHVzZSB0cmFuc2Zvcm09Im1hdHJpeCgxLDAsMCwxLDc0MCw3NzApIHRyYW5zbGF0ZSg4Ny43MjM2MzI4MTI1IDE2LjY5OTIxODc1KSIgeGxpbms6aHJlZj0iI20iLz48dXNlIHRyYW5zZm9ybT0ibWF0cml4KDEsMCwwLDEsNzQwLDc3MCkgdHJhbnNsYXRlKDExNy4xMzE4MzU5Mzc1IDE2LjY5OTIxODc1KSIgeGxpbms6aHJlZj0iI24iLz48dXNlIHRyYW5zZm9ybT0ibWF0cml4KDEsMCwwLDEsNzQwLDc3MCkgdHJhbnNsYXRlKDE0My41MzQxNzk2ODc1IDE2LjY5OTIxODc1KSIgeGxpbms6aHJlZj0iI28iLz48L2c+PHBhdGggZmlsbD0idXJsKCNwKSIgZD0iTTUwMCA3NDFhNiA2IDAgMCAxIDYtNmg4OGE2IDYgMCAwIDEgNiA2djc4YTYgNiAwIDAgMS02IDZoLTg4YTYgNiAwIDAgMS02LTZ6Ii8+PHBhdGggZmlsbD0idXJsKCNxKSIgZD0iTTUwMCAzODZhNiA2IDAgMCAxIDYtNmg4OGE2IDYgMCAwIDEgNiA2djc4YTYgNiAwIDAgMS02IDZoLTg4YTYgNiAwIDAgMS02LTZ6Ii8+PGcgZmlsdGVyPSJ1cmwoI2opIj48cGF0aCBmaWxsPSIjZmZmIiBkPSJNNjgwIDM5N2EyIDIgMCAwIDEgMi0yaDIzNmEyIDIgMCAwIDEgMiAydjU2YTIgMiAwIDAgMS0yIDJINjgyYTIgMiAwIDAgMS0yLTJ6Ii8+PHBhdGggZmlsbD0iIzc1NzU3NSIgZD0iTTcwMCA0MTYuMjVoMi41djIuNUg3MDB6TTcwMCA0MjVhMS4yNSAxLjI1IDAgMCAxIDEuMjUtMS4yNSAxLjI1IDEuMjUgMCAwIDEgMS4yNSAxLjI1IDEuMjUgMS4yNSAwIDAgMS0xLjI1IDEuMjVBMS4yNSAxLjI1IDAgMCAxIDcwMCA0MjV6Ii8+PHBhdGggZmlsbD0iIzc1NzU3NSIgZD0iTTcxMCA0MDVjLTUuNTIgMC0xMC4yNCAxLjk1LTE0LjE0IDUuODYtMy45IDMuOS01Ljg2IDguNjItNS44NiAxNC4xNCAwIDUuNTIgMS45NSAxMC4yNCA1Ljg2IDE0LjE0IDMuOSAzLjkgOC42MiA1Ljg2IDE0LjE0IDUuODYgNS41MiAwIDEwLjI0LTEuOTUgMTQuMTQtNS44NiAzLjktMy45IDUuODYtOC42MiA1Ljg2LTE0LjE0IDAtNS41Mi0xLjk1LTEwLjI0LTUuODYtMTQuMTQtMy45LTMuOS04LjYyLTUuODYtMTQuMTQtNS44NnptMTIuNSAyOGEyIDIgMCAwIDEtMiAyaC0yM3YtM2EyIDIgMCAwIDEgMi0yaDIzem0wLTcuNWEyIDIgMCAwIDEtMiAyaC0yM3YtM2EyIDIgMCAwIDEgMi0yaDIzem0wLTcuNWEyIDIgMCAwIDEtMiAyaC0yM3YtM2EyIDIgMCAwIDEgMi0yaDIzeiIvPjxwYXRoIGZpbGw9IiM3NTc1NzUiIGQ9Ik03MDAgNDMyLjVhMS4yNSAxLjI1IDAgMCAxIDEuMjUtMS4yNSAxLjI1IDEuMjUgMCAwIDEgMS4yNSAxLjI1IDEuMjUgMS4yNSAwIDAgMS0xLjI1IDEuMjUgMS4yNSAxLjI1IDAgMCAxLTEuMjUtMS4yNXoiLz48dXNlIHRyYW5zZm9ybT0ibWF0cml4KDEsMCwwLDEsNzQwLDQxNSkgdHJhbnNsYXRlKDAgMTYuNjk5MjE4NzUpIiB4bGluazpocmVmPSIjciIvPjx1c2UgdHJhbnNmb3JtPSJtYXRyaXgoMSwwLDAsMSw3NDAsNDE1KSB0cmFuc2xhdGUoODEuMjYzNjcxODc1IDE2LjY5OTIxODc1KSIgeGxpbms6aHJlZj0iI2wiLz48dXNlIHRyYW5zZm9ybT0ibWF0cml4KDEsMCwwLDEsNzQwLDQxNSkgdHJhbnNsYXRlKDkxLjg3MjA3MDMxMjUgMTYuNjk5MjE4NzUpIiB4bGluazpocmVmPSIjcyIvPjx1c2UgdHJhbnNmb3JtPSJtYXRyaXgoMSwwLDAsMSw3NDAsNDE1KSB0cmFuc2xhdGUoMTA2LjQzNTU0Njg3NSAxNi42OTkyMTg3NSkiIHhsaW5rOmhyZWY9IiNuIi8+PHVzZSB0cmFuc2Zvcm09Im1hdHJpeCgxLDAsMCwxLDc0MCw0MTUpIHRyYW5zbGF0ZSgxMzIuODM3ODkwNjI1IDE2LjY5OTIxODc1KSIgeGxpbms6aHJlZj0iI28iLz48L2c+PHBhdGggZmlsbD0ibm9uZSIgc3Ryb2tlPSIjM2E0MTRhIiBkPSJNMzI4LjUgODY0SDQwOGE2IDYgMCAwIDAgNi02di03MmE2IDYgMCAwIDEgNi02aDYzLjYyIi8+PHBhdGggZmlsbD0iIzNhNDE0YSIgc3Ryb2tlLXdpZHRoPSIuMDUiIHN0cm9rZT0iIzNhNDE0YSIgZD0iTTMyOC41IDg2NC40OGgtLjV2LS45NmguNXoiLz48cGF0aCBmaWxsPSIjM2E0MTRhIiBzdHJva2U9IiMzYTQxNGEiIGQ9Ik00OTguMzggNzgwbC0xNC4yNiA0LjYzdi05LjI2eiIvPjxwYXRoIGZpbGw9Im5vbmUiIHN0cm9rZT0iIzNhNDE0YSIgZD0iTTMyOC41IDY4NEg0MDhhNiA2IDAgMCAxIDYgNnY4NGE2IDYgMCAwIDAgNiA2aDYzLjYyIi8+PHBhdGggZmlsbD0iIzNhNDE0YSIgc3Ryb2tlLXdpZHRoPSIuMDUiIHN0cm9rZT0iIzNhNDE0YSIgZD0iTTMyOC41IDY4NC40OGgtLjV2LS45NmguNXoiLz48cGF0aCBmaWxsPSIjM2E0MTRhIiBzdHJva2U9IiMzYTQxNGEiIGQ9Ik00OTguMzggNzgwbC0xNC4yNiA0LjYzdi05LjI2eiIvPjxwYXRoIGZpbGw9Im5vbmUiIHN0cm9rZT0iIzNhNDE0YSIgZD0iTTMyOC41IDUwNEg0MDhhNiA2IDAgMCAwIDYtNnYtNjdhNiA2IDAgMCAxIDYtNmg2My42MiIvPjxwYXRoIGZpbGw9IiMzYTQxNGEiIHN0cm9rZS13aWR0aD0iLjA1IiBzdHJva2U9IiMzYTQxNGEiIGQ9Ik0zMjguNSA1MDQuNDhoLS41di0uOTZoLjV6Ii8+PHBhdGggZmlsbD0iIzNhNDE0YSIgc3Ryb2tlPSIjM2E0MTRhIiBkPSJNNDk4LjM4IDQyNWwtMTQuMjYgNC42M3YtOS4yNnoiLz48cGF0aCBmaWxsPSJub25lIiBzdHJva2U9IiMzYTQxNGEiIGQ9Ik0zMjguNSAzMjRINDA4YTYgNiAwIDAgMSA2IDZ2ODlhNiA2IDAgMCAwIDYgNmg2My42MiIvPjxwYXRoIGZpbGw9IiMzYTQxNGEiIHN0cm9rZS13aWR0aD0iLjA1IiBzdHJva2U9IiMzYTQxNGEiIGQ9Ik0zMjguNSAzMjQuNDhoLS41di0uOTZoLjV6Ii8+PHBhdGggZmlsbD0iIzNhNDE0YSIgc3Ryb2tlPSIjM2E0MTRhIiBkPSJNNDk4LjM4IDQyNWwtMTQuMjYgNC42M3YtOS4yNnoiLz48cGF0aCBmaWxsPSJub25lIiBzdHJva2U9IiMzYTQxNGEiIGQ9Ik02MDAuNSA0MjVoNjMuMTIiLz48cGF0aCBmaWxsPSIjM2E0MTRhIiBzdHJva2Utd2lkdGg9Ii4wNSIgc3Ryb2tlPSIjM2E0MTRhIiBkPSJNNjAwLjUgNDI1LjQ4aC0uNXYtLjk2aC41eiIvPjxwYXRoIGZpbGw9IiMzYTQxNGEiIHN0cm9rZT0iIzNhNDE0YSIgZD0iTTY3OC4zOCA0MjVsLTE0LjI2IDQuNjN2LTkuMjZ6Ii8+PHBhdGggZmlsbD0ibm9uZSIgc3Ryb2tlPSIjM2E0MTRhIiBkPSJNNjAwLjUgNzgwaDYzLjEyIi8+PHBhdGggZmlsbD0iIzNhNDE0YSIgc3Ryb2tlLXdpZHRoPSIuMDUiIHN0cm9rZT0iIzNhNDE0YSIgZD0iTTYwMC41IDc4MC40OGgtLjV2LS45NmguNXoiLz48cGF0aCBmaWxsPSIjM2E0MTRhIiBzdHJva2U9IiMzYTQxNGEiIGQ9Ik02NzguMzggNzgwbC0xNC4yNiA0LjYzdi05LjI2eiIvPjxnIGZpbHRlcj0idXJsKCN0KSI+PHBhdGggZmlsbD0iI2ZmZiIgZD0iTTEwMDAgNjgyYTIgMiAwIDAgMSAyLTJoMzE2YTIgMiAwIDAgMSAyIDJ2NTZhMiAyIDAgMCAxLTIgMmgtMzE2YTIgMiAwIDAgMS0yLTJ6Ii8+PHBhdGggZmlsbD0iIzc1NzU3NSIgZD0iTTEwMjAgNzAxLjI1aDIuNXYyLjVoLTIuNXpNMTAyMCA3MTBhMS4yNSAxLjI1IDAgMCAxIDEuMjUtMS4yNSAxLjI1IDEuMjUgMCAwIDEgMS4yNSAxLjI1IDEuMjUgMS4yNSAwIDAgMS0xLjI1IDEuMjVBMS4yNSAxLjI1IDAgMCAxIDEwMjAgNzEweiIvPjxwYXRoIGZpbGw9IiM3NTc1NzUiIGQ9Ik0xMDMwIDY5MGMtNS41MiAwLTEwLjI0IDEuOTUtMTQuMTQgNS44Ni0zLjkgMy45LTUuODYgOC42Mi01Ljg2IDE0LjE0IDAgNS41MiAxLjk1IDEwLjI0IDUuODYgMTQuMTQgMy45IDMuOSA4LjYyIDUuODYgMTQuMTQgNS44NiA1LjUyIDAgMTAuMjQtMS45NSAxNC4xNC01Ljg2IDMuOS0zLjkgNS44Ni04LjYyIDUuODYtMTQuMTQgMC01LjUyLTEuOTUtMTAuMjQtNS44Ni0xNC4xNC0zLjktMy45LTguNjItNS44Ni0xNC4xNC01Ljg2em0xMi41IDI4YTIgMiAwIDAgMS0yIDJoLTIzdi0zYTIgMiAwIDAgMSAyLTJoMjN6bTAtNy41YTIgMiAwIDAgMS0yIDJoLTIzdi0zYTIgMiAwIDAgMSAyLTJoMjN6bTAtNy41YTIgMiAwIDAgMS0yIDJoLTIzdi0zYTIgMiAwIDAgMSAyLTJoMjN6Ii8+PHBhdGggZmlsbD0iIzc1NzU3NSIgZD0iTTEwMjAgNzE3LjVhMS4yNSAxLjI1IDAgMCAxIDEuMjUtMS4yNSAxLjI1IDEuMjUgMCAwIDEgMS4yNSAxLjI1IDEuMjUgMS4yNSAwIDAgMS0xLjI1IDEuMjUgMS4yNSAxLjI1IDAgMCAxLTEuMjUtMS4yNXoiLz48dXNlIHRyYW5zZm9ybT0ibWF0cml4KDEsMCwwLDEsMTA2MCw3MDApIHRyYW5zbGF0ZSgwIDE2LjY5OTIxODc1KSIgeGxpbms6aHJlZj0iI3UiLz48dXNlIHRyYW5zZm9ybT0ibWF0cml4KDEsMCwwLDEsMTA2MCw3MDApIHRyYW5zbGF0ZSg4Ny4yMjI2NTYyNSAxNi42OTkyMTg3NSkiIHhsaW5rOmhyZWY9IiNsIi8+PHVzZSB0cmFuc2Zvcm09Im1hdHJpeCgxLDAsMCwxLDEwNjAsNzAwKSB0cmFuc2xhdGUoOTcuODMxMDU0Njg3NSAxNi42OTkyMTg3NSkiIHhsaW5rOmhyZWY9IiN2Ii8+PHVzZSB0cmFuc2Zvcm09Im1hdHJpeCgxLDAsMCwxLDEwNjAsNzAwKSB0cmFuc2xhdGUoMTMyLjYwOTM3NSAxNi42OTkyMTg3NSkiIHhsaW5rOmhyZWY9IiN3Ii8+PHVzZSB0cmFuc2Zvcm09Im1hdHJpeCgxLDAsMCwxLDEwNjAsNzAwKSB0cmFuc2xhdGUoMTYwLjUzMjIyNjU2MjUgMTYuNjk5MjE4NzUpIiB4bGluazpocmVmPSIjbyIvPjwvZz48ZyBmaWx0ZXI9InVybCgjdCkiPjxwYXRoIGZpbGw9IiNmZmYiIGQ9Ik0xMDAwIDgwMmEyIDIgMCAwIDEgMi0yaDMxNmEyIDIgMCAwIDEgMiAydjU2YTIgMiAwIDAgMS0yIDJoLTMxNmEyIDIgMCAwIDEtMi0yeiIvPjxwYXRoIGZpbGw9IiM3NTc1NzUiIGQ9Ik0xMDIwIDgyMS4yNWgyLjV2Mi41aC0yLjV6TTEwMjAgODMwYTEuMjUgMS4yNSAwIDAgMSAxLjI1LTEuMjUgMS4yNSAxLjI1IDAgMCAxIDEuMjUgMS4yNSAxLjI1IDEuMjUgMCAwIDEtMS4yNSAxLjI1QTEuMjUgMS4yNSAwIDAgMSAxMDIwIDgzMHoiLz48cGF0aCBmaWxsPSIjNzU3NTc1IiBkPSJNMTAzMCA4MTBjLTUuNTIgMC0xMC4yNCAxLjk1LTE0LjE0IDUuODYtMy45IDMuOS01Ljg2IDguNjItNS44NiAxNC4xNCAwIDUuNTIgMS45NSAxMC4yNCA1Ljg2IDE0LjE0IDMuOSAzLjkgOC42MiA1Ljg2IDE0LjE0IDUuODYgNS41MiAwIDEwLjI0LTEuOTUgMTQuMTQtNS44NiAzLjktMy45IDUuODYtOC42MiA1Ljg2LTE0LjE0IDAtNS41Mi0xLjk1LTEwLjI0LTUuODYtMTQuMTQtMy45LTMuOS04LjYyLTUuODYtMTQuMTQtNS44NnptMTIuNSAyOGEyIDIgMCAwIDEtMiAyaC0yM3YtM2EyIDIgMCAwIDEgMi0yaDIzem0wLTcuNWEyIDIgMCAwIDEtMiAyaC0yM3YtM2EyIDIgMCAwIDEgMi0yaDIzem0wLTcuNWEyIDIgMCAwIDEtMiAyaC0yM3YtM2EyIDIgMCAwIDEgMi0yaDIzeiIvPjxwYXRoIGZpbGw9IiM3NTc1NzUiIGQ9Ik0xMDIwIDgzNy41YTEuMjUgMS4yNSAwIDAgMSAxLjI1LTEuMjUgMS4yNSAxLjI1IDAgMCAxIDEuMjUgMS4yNSAxLjI1IDEuMjUgMCAwIDEtMS4yNSAxLjI1IDEuMjUgMS4yNSAwIDAgMS0xLjI1LTEuMjV6Ii8+PHVzZSB0cmFuc2Zvcm09Im1hdHJpeCgxLDAsMCwxLDEwNjAsODIwKSB0cmFuc2xhdGUoMCAxNi42OTkyMTg3NSkiIHhsaW5rOmhyZWY9IiN4Ii8+PHVzZSB0cmFuc2Zvcm09Im1hdHJpeCgxLDAsMCwxLDEwNjAsODIwKSB0cmFuc2xhdGUoODcuMjIyNjU2MjUgMTYuNjk5MjE4NzUpIiB4bGluazpocmVmPSIjbCIvPjx1c2UgdHJhbnNmb3JtPSJtYXRyaXgoMSwwLDAsMSwxMDYwLDgyMCkgdHJhbnNsYXRlKDk3LjgzMTA1NDY4NzUgMTYuNjk5MjE4NzUpIiB4bGluazpocmVmPSIjeSIvPjx1c2UgdHJhbnNmb3JtPSJtYXRyaXgoMSwwLDAsMSwxMDYwLDgyMCkgdHJhbnNsYXRlKDEyNy4yMzkyNTc4MTI1IDE2LjY5OTIxODc1KSIgeGxpbms6aHJlZj0iI24iLz48dXNlIHRyYW5zZm9ybT0ibWF0cml4KDEsMCwwLDEsMTA2MCw4MjApIHRyYW5zbGF0ZSgxNTMuNjQxNjAxNTYyNSAxNi42OTkyMTg3NSkiIHhsaW5rOmhyZWY9IiNvIi8+PC9nPjxwYXRoIGZpbGw9Im5vbmUiIHN0cm9rZT0iIzNhNDE0YSIgZD0iTTkyMC41IDc4MEg5NTRhNiA2IDAgMCAxIDYgNnYzOGE2IDYgMCAwIDAgNiA2aDE3LjYyIi8+PHBhdGggZmlsbD0iIzNhNDE0YSIgc3Ryb2tlLXdpZHRoPSIuMDUiIHN0cm9rZT0iIzNhNDE0YSIgZD0iTTkyMC41IDc4MC40OGgtLjV2LS45NmguNXoiLz48cGF0aCBmaWxsPSIjM2E0MTRhIiBzdHJva2U9IiMzYTQxNGEiIGQ9Ik05OTguMzggODMwbC0xNC4yNiA0LjYzdi05LjI2eiIvPjxwYXRoIGZpbGw9Im5vbmUiIHN0cm9rZT0iIzNhNDE0YSIgZD0iTTkyMC41IDc4MEg5NTRhNiA2IDAgMCAwIDYtNnYtNThhNiA2IDAgMCAxIDYtNmgxNy42MiIvPjxwYXRoIGZpbGw9IiMzYTQxNGEiIHN0cm9rZS13aWR0aD0iLjA1IiBzdHJva2U9IiMzYTQxNGEiIGQ9Ik05MjAuNSA3ODAuNDhoLS41di0uOTZoLjV6Ii8+PHBhdGggZmlsbD0iIzNhNDE0YSIgc3Ryb2tlPSIjM2E0MTRhIiBkPSJNOTk4LjM4IDcxMGwtMTQuMjYgNC42M3YtOS4yNnoiLz48ZyBmaWx0ZXI9InVybCgjdCkiPjxwYXRoIGZpbGw9IiNmZmYiIGQ9Ik0xMDAwIDMyMmEyIDIgMCAwIDEgMi0yaDMxNmEyIDIgMCAwIDEgMiAydjU2YTIgMiAwIDAgMS0yIDJoLTMxNmEyIDIgMCAwIDEtMi0yeiIvPjxwYXRoIGZpbGw9IiM3NTc1NzUiIGQ9Ik0xMDIwIDM0MS4yNWgyLjV2Mi41aC0yLjV6TTEwMjAgMzUwYTEuMjUgMS4yNSAwIDAgMSAxLjI1LTEuMjUgMS4yNSAxLjI1IDAgMCAxIDEuMjUgMS4yNSAxLjI1IDEuMjUgMCAwIDEtMS4yNSAxLjI1QTEuMjUgMS4yNSAwIDAgMSAxMDIwIDM1MHoiLz48cGF0aCBmaWxsPSIjNzU3NTc1IiBkPSJNMTAzMCAzMzBjLTUuNTIgMC0xMC4yNCAxLjk1LTE0LjE0IDUuODYtMy45IDMuOS01Ljg2IDguNjItNS44NiAxNC4xNCAwIDUuNTIgMS45NSAxMC4yNCA1Ljg2IDE0LjE0IDMuOSAzLjkgOC42MiA1Ljg2IDE0LjE0IDUuODYgNS41MiAwIDEwLjI0LTEuOTUgMTQuMTQtNS44NiAzLjktMy45IDUuODYtOC42MiA1Ljg2LTE0LjE0IDAtNS41Mi0xLjk1LTEwLjI0LTUuODYtMTQuMTQtMy45LTMuOS04LjYyLTUuODYtMTQuMTQtNS44NnptMTIuNSAyOGEyIDIgMCAwIDEtMiAyaC0yM3YtM2EyIDIgMCAwIDEgMi0yaDIzem0wLTcuNWEyIDIgMCAwIDEtMiAyaC0yM3YtM2EyIDIgMCAwIDEgMi0yaDIzem0wLTcuNWEyIDIgMCAwIDEtMiAyaC0yM3YtM2EyIDIgMCAwIDEgMi0yaDIzeiIvPjxwYXRoIGZpbGw9IiM3NTc1NzUiIGQ9Ik0xMDIwIDM1Ny41YTEuMjUgMS4yNSAwIDAgMSAxLjI1LTEuMjUgMS4yNSAxLjI1IDAgMCAxIDEuMjUgMS4yNSAxLjI1IDEuMjUgMCAwIDEtMS4yNSAxLjI1IDEuMjUgMS4yNSAwIDAgMS0xLjI1LTEuMjV6Ii8+PHVzZSB0cmFuc2Zvcm09Im1hdHJpeCgxLDAsMCwxLDEwNjAsMzQwKSB0cmFuc2xhdGUoMCAxNi42OTkyMTg3NSkiIHhsaW5rOmhyZWY9IiN6Ii8+PHVzZSB0cmFuc2Zvcm09Im1hdHJpeCgxLDAsMCwxLDEwNjAsMzQwKSB0cmFuc2xhdGUoODYuOTE1MDM5MDYyNSAxNi42OTkyMTg3NSkiIHhsaW5rOmhyZWY9IiNBIi8+PHVzZSB0cmFuc2Zvcm09Im1hdHJpeCgxLDAsMCwxLDEwNjAsMzQwKSB0cmFuc2xhdGUoMTAxLjk3OTQ5MjE4NzUgMTYuNjk5MjE4NzUpIiB4bGluazpocmVmPSIjQiIvPjx1c2UgdHJhbnNmb3JtPSJtYXRyaXgoMSwwLDAsMSwxMDYwLDM0MCkgdHJhbnNsYXRlKDE0OS4wMDA5NzY1NjI1IDE2LjY5OTIxODc1KSIgeGxpbms6aHJlZj0iI3ciLz48dXNlIHRyYW5zZm9ybT0ibWF0cml4KDEsMCwwLDEsMTA2MCwzNDApIHRyYW5zbGF0ZSgxNzYuOTIzODI4MTI1IDE2LjY5OTIxODc1KSIgeGxpbms6aHJlZj0iI28iLz48L2c+PHBhdGggZmlsbD0ibm9uZSIgc3Ryb2tlPSIjM2E0MTRhIiBkPSJNOTIwLjUgNDI1SDk1NGE2IDYgMCAwIDAgNi02di02M2E2IDYgMCAwIDEgNi02aDE3LjYyIi8+PHBhdGggZmlsbD0iIzNhNDE0YSIgc3Ryb2tlLXdpZHRoPSIuMDUiIHN0cm9rZT0iIzNhNDE0YSIgZD0iTTkyMC41IDQyNS40OGgtLjV2LS45NmguNXoiLz48cGF0aCBmaWxsPSIjM2E0MTRhIiBzdHJva2U9IiMzYTQxNGEiIGQ9Ik05OTguMzggMzUwbC0xNC4yNiA0LjYzdi05LjI2eiIvPjxnIGZpbHRlcj0idXJsKCN0KSI+PHBhdGggZmlsbD0iI2ZmZiIgZD0iTTEwMDAgNDYyYTIgMiAwIDAgMSAyLTJoMzE2YTIgMiAwIDAgMSAyIDJ2NTZhMiAyIDAgMCAxLTIgMmgtMzE2YTIgMiAwIDAgMS0yLTJ6Ii8+PHBhdGggZmlsbD0iIzc1NzU3NSIgZD0iTTEwMjAgNDgxLjI1aDIuNXYyLjVoLTIuNXpNMTAyMCA0OTBhMS4yNSAxLjI1IDAgMCAxIDEuMjUtMS4yNSAxLjI1IDEuMjUgMCAwIDEgMS4yNSAxLjI1IDEuMjUgMS4yNSAwIDAgMS0xLjI1IDEuMjVBMS4yNSAxLjI1IDAgMCAxIDEwMjAgNDkweiIvPjxwYXRoIGZpbGw9IiM3NTc1NzUiIGQ9Ik0xMDMwIDQ3MGMtNS41MiAwLTEwLjI0IDEuOTUtMTQuMTQgNS44Ni0zLjkgMy45LTUuODYgOC42Mi01Ljg2IDE0LjE0IDAgNS41MiAxLjk1IDEwLjI0IDUuODYgMTQuMTQgMy45IDMuOSA4LjYyIDUuODYgMTQuMTQgNS44NiA1LjUyIDAgMTAuMjQtMS45NSAxNC4xNC01Ljg2IDMuOS0zLjkgNS44Ni04LjYyIDUuODYtMTQuMTQgMC01LjUyLTEuOTUtMTAuMjQtNS44Ni0xNC4xNC0zLjktMy45LTguNjItNS44Ni0xNC4xNC01Ljg2em0xMi41IDI4YTIgMiAwIDAgMS0yIDJoLTIzdi0zYTIgMiAwIDAgMSAyLTJoMjN6bTAtNy41YTIgMiAwIDAgMS0yIDJoLTIzdi0zYTIgMiAwIDAgMSAyLTJoMjN6bTAtNy41YTIgMiAwIDAgMS0yIDJoLTIzdi0zYTIgMiAwIDAgMSAyLTJoMjN6Ii8+PHBhdGggZmlsbD0iIzc1NzU3NSIgZD0iTTEwMjAgNDk3LjVhMS4yNSAxLjI1IDAgMCAxIDEuMjUtMS4yNSAxLjI1IDEuMjUgMCAwIDEgMS4yNSAxLjI1IDEuMjUgMS4yNSAwIDAgMS0xLjI1IDEuMjUgMS4yNSAxLjI1IDAgMCAxLTEuMjUtMS4yNXoiLz48dXNlIHRyYW5zZm9ybT0ibWF0cml4KDEsMCwwLDEsMTA2MCw0ODApIHRyYW5zbGF0ZSgwIDE2LjY5OTIxODc1KSIgeGxpbms6aHJlZj0iI0MiLz48L2c+PHBhdGggZmlsbD0ibm9uZSIgc3Ryb2tlPSIjM2E0MTRhIiBkPSJNOTIwLjUgNDI1SDk1NGE2IDYgMCAwIDEgNiA2djUzYTYgNiAwIDAgMCA2IDZoMTcuNjIiLz48cGF0aCBmaWxsPSIjM2E0MTRhIiBzdHJva2Utd2lkdGg9Ii4wNSIgc3Ryb2tlPSIjM2E0MTRhIiBkPSJNOTIwLjUgNDI1LjQ4aC0uNXYtLjk2aC41eiIvPjxwYXRoIGZpbGw9IiMzYTQxNGEiIHN0cm9rZT0iIzNhNDE0YSIgZD0iTTk5OC4zOCA0OTBsLTE0LjI2IDQuNjN2LTkuMjZ6Ii8+PGcgZmlsdGVyPSJ1cmwoI3QpIj48cGF0aCBmaWxsPSIjZmZmIiBkPSJNMTU4MCAzODJhMiAyIDAgMCAxIDItMmgzMTZhMiAyIDAgMCAxIDIgMnY1NmEyIDIgMCAwIDEtMiAyaC0zMTZhMiAyIDAgMCAxLTItMnoiLz48cGF0aCBmaWxsPSIjNzU3NTc1IiBkPSJNMTYwMCA0MDEuMjVoMi41djIuNWgtMi41ek0xNjAwIDQxMGExLjI1IDEuMjUgMCAwIDEgMS4yNS0xLjI1IDEuMjUgMS4yNSAwIDAgMSAxLjI1IDEuMjUgMS4yNSAxLjI1IDAgMCAxLTEuMjUgMS4yNUExLjI1IDEuMjUgMCAwIDEgMTYwMCA0MTB6Ii8+PHBhdGggZmlsbD0iIzc1NzU3NSIgZD0iTTE2MTAgMzkwYy01LjUyIDAtMTAuMjQgMS45NS0xNC4xNCA1Ljg2LTMuOSAzLjktNS44NiA4LjYyLTUuODYgMTQuMTQgMCA1LjUyIDEuOTUgMTAuMjQgNS44NiAxNC4xNCAzLjkgMy45IDguNjIgNS44NiAxNC4xNCA1Ljg2IDUuNTIgMCAxMC4yNC0xLjk1IDE0LjE0LTUuODYgMy45LTMuOSA1Ljg2LTguNjIgNS44Ni0xNC4xNCAwLTUuNTItMS45NS0xMC4yNC01Ljg2LTE0LjE0LTMuOS0zLjktOC42Mi01Ljg2LTE0LjE0LTUuODZ6bTEyLjUgMjhhMiAyIDAgMCAxLTIgMmgtMjN2LTNhMiAyIDAgMCAxIDItMmgyM3ptMC03LjVhMiAyIDAgMCAxLTIgMmgtMjN2LTNhMiAyIDAgMCAxIDItMmgyM3ptMC03LjVhMiAyIDAgMCAxLTIgMmgtMjN2LTNhMiAyIDAgMCAxIDItMmgyM3oiLz48cGF0aCBmaWxsPSIjNzU3NTc1IiBkPSJNMTYwMCA0MTcuNWExLjI1IDEuMjUgMCAwIDEgMS4yNS0xLjI1IDEuMjUgMS4yNSAwIDAgMSAxLjI1IDEuMjUgMS4yNSAxLjI1IDAgMCAxLTEuMjUgMS4yNSAxLjI1IDEuMjUgMCAwIDEtMS4yNS0xLjI1eiIvPjx1c2UgdHJhbnNmb3JtPSJtYXRyaXgoMSwwLDAsMSwxNjQwLDQwMCkgdHJhbnNsYXRlKDAgMTYuNjk5MjE4NzUpIiB4bGluazpocmVmPSIjRCIvPjx1c2UgdHJhbnNmb3JtPSJtYXRyaXgoMSwwLDAsMSwxNjQwLDQwMCkgdHJhbnNsYXRlKDQ1LjcyMDcwMzEyNSAxNi42OTkyMTg3NSkiIHhsaW5rOmhyZWY9IiNFIi8+PHVzZSB0cmFuc2Zvcm09Im1hdHJpeCgxLDAsMCwxLDE2NDAsNDAwKSB0cmFuc2xhdGUoNzMuNzc1MzkwNjI1IDE2LjY5OTIxODc1KSIgeGxpbms6aHJlZj0iI2wiLz48dXNlIHRyYW5zZm9ybT0ibWF0cml4KDEsMCwwLDEsMTY0MCw0MDApIHRyYW5zbGF0ZSg4NC4zODM3ODkwNjI1IDE2LjY5OTIxODc1KSIgeGxpbms6aHJlZj0iI0YiLz48dXNlIHRyYW5zZm9ybT0ibWF0cml4KDEsMCwwLDEsMTY0MCw0MDApIHRyYW5zbGF0ZSgxMzEuNDA1MjczNDM3NSAxNi42OTkyMTg3NSkiIHhsaW5rOmhyZWY9IiN3Ii8+PHVzZSB0cmFuc2Zvcm09Im1hdHJpeCgxLDAsMCwxLDE2NDAsNDAwKSB0cmFuc2xhdGUoMTU5LjMyODEyNSAxNi42OTkyMTg3NSkiIHhsaW5rOmhyZWY9IiNvIi8+PC9nPjxnIGZpbHRlcj0idXJsKCN0KSI+PHBhdGggZmlsbD0iI2ZmZiIgZD0iTTE1ODAgNzQyYTIgMiAwIDAgMSAyLTJoMzE2YTIgMiAwIDAgMSAyIDJ2NTZhMiAyIDAgMCAxLTIgMmgtMzE2YTIgMiAwIDAgMS0yLTJ6Ii8+PHBhdGggZmlsbD0iIzc1NzU3NSIgZD0iTTE2MDAgNzYxLjI1aDIuNXYyLjVoLTIuNXpNMTYwMCA3NzBhMS4yNSAxLjI1IDAgMCAxIDEuMjUtMS4yNSAxLjI1IDEuMjUgMCAwIDEgMS4yNSAxLjI1IDEuMjUgMS4yNSAwIDAgMS0xLjI1IDEuMjVBMS4yNSAxLjI1IDAgMCAxIDE2MDAgNzcweiIvPjxwYXRoIGZpbGw9IiM3NTc1NzUiIGQ9Ik0xNjEwIDc1MGMtNS41MiAwLTEwLjI0IDEuOTUtMTQuMTQgNS44Ni0zLjkgMy45LTUuODYgOC42Mi01Ljg2IDE0LjE0IDAgNS41MiAxLjk1IDEwLjI0IDUuODYgMTQuMTQgMy45IDMuOSA4LjYyIDUuODYgMTQuMTQgNS44NiA1LjUyIDAgMTAuMjQtMS45NSAxNC4xNC01Ljg2IDMuOS0zLjkgNS44Ni04LjYyIDUuODYtMTQuMTQgMC01LjUyLTEuOTUtMTAuMjQtNS44Ni0xNC4xNC0zLjktMy45LTguNjItNS44Ni0xNC4xNC01Ljg2em0xMi41IDI4YTIgMiAwIDAgMS0yIDJoLTIzdi0zYTIgMiAwIDAgMSAyLTJoMjN6bTAtNy41YTIgMiAwIDAgMS0yIDJoLTIzdi0zYTIgMiAwIDAgMSAyLTJoMjN6bTAtNy41YTIgMiAwIDAgMS0yIDJoLTIzdi0zYTIgMiAwIDAgMSAyLTJoMjN6Ii8+PHBhdGggZmlsbD0iIzc1NzU3NSIgZD0iTTE2MDAgNzc3LjVhMS4yNSAxLjI1IDAgMCAxIDEuMjUtMS4yNSAxLjI1IDEuMjUgMCAwIDEgMS4yNSAxLjI1IDEuMjUgMS4yNSAwIDAgMS0xLjI1IDEuMjUgMS4yNSAxLjI1IDAgMCAxLTEuMjUtMS4yNXoiLz48dXNlIHRyYW5zZm9ybT0ibWF0cml4KDEsMCwwLDEsMTY0MCw3NjApIHRyYW5zbGF0ZSgwIDE2LjY5OTIxODc1KSIgeGxpbms6aHJlZj0iI0ciLz48dXNlIHRyYW5zZm9ybT0ibWF0cml4KDEsMCwwLDEsMTY0MCw3NjApIHRyYW5zbGF0ZSg2MS44ODM3ODkwNjI1IDE2LjY5OTIxODc1KSIgeGxpbms6aHJlZj0iI0UiLz48dXNlIHRyYW5zZm9ybT0ibWF0cml4KDEsMCwwLDEsMTY0MCw3NjApIHRyYW5zbGF0ZSg4OS45Mzg0NzY1NjI1IDE2LjY5OTIxODc1KSIgeGxpbms6aHJlZj0iI2wiLz48dXNlIHRyYW5zZm9ybT0ibWF0cml4KDEsMCwwLDEsMTY0MCw3NjApIHRyYW5zbGF0ZSgxMDAuNTQ2ODc1IDE2LjY5OTIxODc1KSIgeGxpbms6aHJlZj0iI0giLz48dXNlIHRyYW5zZm9ybT0ibWF0cml4KDEsMCwwLDEsMTY0MCw3NjApIHRyYW5zbGF0ZSgxNDIuMTk4MjQyMTg3NSAxNi42OTkyMTg3NSkiIHhsaW5rOmhyZWY9IiNuIi8+PHVzZSB0cmFuc2Zvcm09Im1hdHJpeCgxLDAsMCwxLDE2NDAsNzYwKSB0cmFuc2xhdGUoMTY4LjYwMDU4NTkzNzUgMTYuNjk5MjE4NzUpIiB4bGluazpocmVmPSIjbyIvPjwvZz48cGF0aCBmaWxsPSJub25lIiBzdHJva2U9IiMxMDcxZTUiIGQ9Ik0xMzIwLjUgNzEwSDE0NDRhNiA2IDAgMCAwIDYtNlY0MTZhNiA2IDAgMCAxIDYtNmgxMDcuNjIiLz48cGF0aCBmaWxsPSIjMTA3MWU1IiBzdHJva2Utd2lkdGg9Ii4wNSIgc3Ryb2tlPSIjMTA3MWU1IiBkPSJNMTMyMC41IDcxMC40OGgtLjV2LS45NmguNXoiLz48cGF0aCBmaWxsPSIjMTA3MWU1IiBzdHJva2U9IiMxMDcxZTUiIGQ9Ik0xNTc4LjM4IDQxMGwtMTQuMjYgNC42M3YtOS4yNnoiLz48cGF0aCBmaWxsPSJub25lIiBzdHJva2U9IiNlODEzMTMiIGQ9Ik0xMzIwLjUgMzUwaDkzLjVhNiA2IDAgMCAxIDYgNnY0MDhhNiA2IDAgMCAwIDYgNmgxMzcuNjIiLz48cGF0aCBmaWxsPSIjZTgxMzEzIiBzdHJva2Utd2lkdGg9Ii4wNSIgc3Ryb2tlPSIjZTgxMzEzIiBkPSJNMTMyMC41IDM1MC40OGgtLjV2LS45NmguNXoiLz48cGF0aCBmaWxsPSIjZTgxMzEzIiBzdHJva2U9IiNlODEzMTMiIGQ9Ik0xNTc4LjM4IDc3MGwtMTQuMjYgNC42M3YtOS4yNnoiLz48cGF0aCBmaWxsPSJub25lIiBzdHJva2U9IiNlODEzMTMiIGQ9Ik0xMzIwLjUgODMwaDMzLjVhNiA2IDAgMCAwIDYtNnYtNDhhNiA2IDAgMCAxIDYtNmgxOTcuNjIiLz48cGF0aCBmaWxsPSIjZTgxMzEzIiBzdHJva2Utd2lkdGg9Ii4wNSIgc3Ryb2tlPSIjZTgxMzEzIiBkPSJNMTMyMC41IDgzMC40OGgtLjV2LS45NmguNXoiLz48cGF0aCBmaWxsPSIjZTgxMzEzIiBzdHJva2U9IiNlODEzMTMiIGQ9Ik0xNTc4LjM4IDc3MGwtMTQuMjYgNC42M3YtOS4yNnoiLz48ZyBmaWx0ZXI9InVybCgjdCkiPjxwYXRoIGZpbGw9IiNmZmYiIGQ9Ik0yMDgwIDM4MmEyIDIgMCAwIDEgMi0yaDMxNmEyIDIgMCAwIDEgMiAydjU2YTIgMiAwIDAgMS0yIDJoLTMxNmEyIDIgMCAwIDEtMi0yeiIvPjxwYXRoIGZpbGw9IiM3NTc1NzUiIGQ9Ik0yMTAwIDQwMS4yNWgyLjV2Mi41aC0yLjV6TTIxMDAgNDEwYTEuMjUgMS4yNSAwIDAgMSAxLjI1LTEuMjUgMS4yNSAxLjI1IDAgMCAxIDEuMjUgMS4yNSAxLjI1IDEuMjUgMCAwIDEtMS4yNSAxLjI1QTEuMjUgMS4yNSAwIDAgMSAyMTAwIDQxMHoiLz48cGF0aCBmaWxsPSIjNzU3NTc1IiBkPSJNMjExMCAzOTBjLTUuNTIgMC0xMC4yNCAxLjk1LTE0LjE0IDUuODYtMy45IDMuOS01Ljg2IDguNjItNS44NiAxNC4xNCAwIDUuNTIgMS45NSAxMC4yNCA1Ljg2IDE0LjE0IDMuOSAzLjkgOC42MiA1Ljg2IDE0LjE0IDUuODYgNS41MiAwIDEwLjI0LTEuOTUgMTQuMTQtNS44NiAzLjktMy45IDUuODYtOC42MiA1Ljg2LTE0LjE0IDAtNS41Mi0xLjk1LTEwLjI0LTUuODYtMTQuMTQtMy45LTMuOS04LjYyLTUuODYtMTQuMTQtNS44NnptMTIuNSAyOGEyIDIgMCAwIDEtMiAyaC0yM3YtM2EyIDIgMCAwIDEgMi0yaDIzem0wLTcuNWEyIDIgMCAwIDEtMiAyaC0yM3YtM2EyIDIgMCAwIDEgMi0yaDIzem0wLTcuNWEyIDIgMCAwIDEtMiAyaC0yM3YtM2EyIDIgMCAwIDEgMi0yaDIzeiIvPjxwYXRoIGZpbGw9IiM3NTc1NzUiIGQ9Ik0yMTAwIDQxNy41YTEuMjUgMS4yNSAwIDAgMSAxLjI1LTEuMjUgMS4yNSAxLjI1IDAgMCAxIDEuMjUgMS4yNSAxLjI1IDEuMjUgMCAwIDEtMS4yNSAxLjI1IDEuMjUgMS4yNSAwIDAgMS0xLjI1LTEuMjV6Ii8+PHVzZSB0cmFuc2Zvcm09Im1hdHJpeCgxLDAsMCwxLDIxNDAsNDAwKSB0cmFuc2xhdGUoMCAxNi42OTkyMTg3NSkiIHhsaW5rOmhyZWY9IiNJIi8+PHVzZSB0cmFuc2Zvcm09Im1hdHJpeCgxLDAsMCwxLDIxNDAsNDAwKSB0cmFuc2xhdGUoODAuNzE4NzUgMTYuNjk5MjE4NzUpIiB4bGluazpocmVmPSIjbCIvPjx1c2UgdHJhbnNmb3JtPSJtYXRyaXgoMSwwLDAsMSwyMTQwLDQwMCkgdHJhbnNsYXRlKDkxLjMyNzE0ODQzNzUgMTYuNjk5MjE4NzUpIiB4bGluazpocmVmPSIjRiIvPjx1c2UgdHJhbnNmb3JtPSJtYXRyaXgoMSwwLDAsMSwyMTQwLDQwMCkgdHJhbnNsYXRlKDEzOC4zNDg2MzI4MTI1IDE2LjY5OTIxODc1KSIgeGxpbms6aHJlZj0iI3ciLz48dXNlIHRyYW5zZm9ybT0ibWF0cml4KDEsMCwwLDEsMjE0MCw0MDApIHRyYW5zbGF0ZSgxNjYuMjcxNDg0Mzc1IDE2LjY5OTIxODc1KSIgeGxpbms6aHJlZj0iI28iLz48L2c+PGcgZmlsdGVyPSJ1cmwoI3QpIj48cGF0aCBmaWxsPSIjZmZmIiBkPSJNMjA4MCA3NDJhMiAyIDAgMCAxIDItMmgzMTZhMiAyIDAgMCAxIDIgMnY1NmEyIDIgMCAwIDEtMiAyaC0zMTZhMiAyIDAgMCAxLTItMnoiLz48cGF0aCBmaWxsPSIjNzU3NTc1IiBkPSJNMjEwMCA3NjEuMjVoMi41djIuNWgtMi41ek0yMTAwIDc3MGExLjI1IDEuMjUgMCAwIDEgMS4yNS0xLjI1IDEuMjUgMS4yNSAwIDAgMSAxLjI1IDEuMjUgMS4yNSAxLjI1IDAgMCAxLTEuMjUgMS4yNUExLjI1IDEuMjUgMCAwIDEgMjEwMCA3NzB6Ii8+PHBhdGggZmlsbD0iIzc1NzU3NSIgZD0iTTIxMTAgNzUwYy01LjUyIDAtMTAuMjQgMS45NS0xNC4xNCA1Ljg2LTMuOSAzLjktNS44NiA4LjYyLTUuODYgMTQuMTQgMCA1LjUyIDEuOTUgMTAuMjQgNS44NiAxNC4xNCAzLjkgMy45IDguNjIgNS44NiAxNC4xNCA1Ljg2IDUuNTIgMCAxMC4yNC0xLjk1IDE0LjE0LTUuODYgMy45LTMuOSA1Ljg2LTguNjIgNS44Ni0xNC4xNCAwLTUuNTItMS45NS0xMC4yNC01Ljg2LTE0LjE0LTMuOS0zLjktOC42Mi01Ljg2LTE0LjE0LTUuODZ6bTEyLjUgMjhhMiAyIDAgMCAxLTIgMmgtMjN2LTNhMiAyIDAgMCAxIDItMmgyM3ptMC03LjVhMiAyIDAgMCAxLTIgMmgtMjN2LTNhMiAyIDAgMCAxIDItMmgyM3ptMC03LjVhMiAyIDAgMCAxLTIgMmgtMjN2LTNhMiAyIDAgMCAxIDItMmgyM3oiLz48cGF0aCBmaWxsPSIjNzU3NTc1IiBkPSJNMjEwMCA3NzcuNWExLjI1IDEuMjUgMCAwIDEgMS4yNS0xLjI1IDEuMjUgMS4yNSAwIDAgMSAxLjI1IDEuMjUgMS4yNSAxLjI1IDAgMCAxLTEuMjUgMS4yNSAxLjI1IDEuMjUgMCAwIDEtMS4yNS0xLjI1eiIvPjx1c2UgdHJhbnNmb3JtPSJtYXRyaXgoMSwwLDAsMSwyMTQwLDc2MCkgdHJhbnNsYXRlKDAgMTYuNjk5MjE4NzUpIiB4bGluazpocmVmPSIjRyIvPjx1c2UgdHJhbnNmb3JtPSJtYXRyaXgoMSwwLDAsMSwyMTQwLDc2MCkgdHJhbnNsYXRlKDYxLjg4Mzc4OTA2MjUgMTYuNjk5MjE4NzUpIiB4bGluazpocmVmPSIjSiIvPjx1c2UgdHJhbnNmb3JtPSJtYXRyaXgoMSwwLDAsMSwyMTQwLDc2MCkgdHJhbnNsYXRlKDg1LjkzOTQ1MzEyNSAxNi42OTkyMTg3NSkiIHhsaW5rOmhyZWY9IiNsIi8+PHVzZSB0cmFuc2Zvcm09Im1hdHJpeCgxLDAsMCwxLDIxNDAsNzYwKSB0cmFuc2xhdGUoOTYuNTQ3ODUxNTYyNSAxNi42OTkyMTg3NSkiIHhsaW5rOmhyZWY9IiNLIi8+PHVzZSB0cmFuc2Zvcm09Im1hdHJpeCgxLDAsMCwxLDIxNDAsNzYwKSB0cmFuc2xhdGUoMTQzLjU2OTMzNTkzNzUgMTYuNjk5MjE4NzUpIiB4bGluazpocmVmPSIjdyIvPjx1c2UgdHJhbnNmb3JtPSJtYXRyaXgoMSwwLDAsMSwyMTQwLDc2MCkgdHJhbnNsYXRlKDE3MS40OTIxODc1IDE2LjY5OTIxODc1KSIgeGxpbms6aHJlZj0iI28iLz48L2c+PGcgZmlsdGVyPSJ1cmwoI3QpIj48cGF0aCBmaWxsPSIjZmZmIiBkPSJNMjA4MCA1NDJhMiAyIDAgMCAxIDItMmgzMTZhMiAyIDAgMCAxIDIgMnY1NmEyIDIgMCAwIDEtMiAyaC0zMTZhMiAyIDAgMCAxLTItMnoiLz48cGF0aCBmaWxsPSIjNzU3NTc1IiBkPSJNMjEwMCA1NjEuMjVoMi41djIuNWgtMi41ek0yMTAwIDU3MGExLjI1IDEuMjUgMCAwIDEgMS4yNS0xLjI1IDEuMjUgMS4yNSAwIDAgMSAxLjI1IDEuMjUgMS4yNSAxLjI1IDAgMCAxLTEuMjUgMS4yNUExLjI1IDEuMjUgMCAwIDEgMjEwMCA1NzB6Ii8+PHBhdGggZmlsbD0iIzc1NzU3NSIgZD0iTTIxMTAgNTUwYy01LjUyIDAtMTAuMjQgMS45NS0xNC4xNCA1Ljg2LTMuOSAzLjktNS44NiA4LjYyLTUuODYgMTQuMTQgMCA1LjUyIDEuOTUgMTAuMjQgNS44NiAxNC4xNCAzLjkgMy45IDguNjIgNS44NiAxNC4xNCA1Ljg2IDUuNTIgMCAxMC4yNC0xLjk1IDE0LjE0LTUuODYgMy45LTMuOSA1Ljg2LTguNjIgNS44Ni0xNC4xNCAwLTUuNTItMS45NS0xMC4yNC01Ljg2LTE0LjE0LTMuOS0zLjktOC42Mi01Ljg2LTE0LjE0LTUuODZ6bTEyLjUgMjhhMiAyIDAgMCAxLTIgMmgtMjN2LTNhMiAyIDAgMCAxIDItMmgyM3ptMC03LjVhMiAyIDAgMCAxLTIgMmgtMjN2LTNhMiAyIDAgMCAxIDItMmgyM3ptMC03LjVhMiAyIDAgMCAxLTIgMmgtMjN2LTNhMiAyIDAgMCAxIDItMmgyM3oiLz48cGF0aCBmaWxsPSIjNzU3NTc1IiBkPSJNMjEwMCA1NzcuNWExLjI1IDEuMjUgMCAwIDEgMS4yNS0xLjI1IDEuMjUgMS4yNSAwIDAgMSAxLjI1IDEuMjUgMS4yNSAxLjI1IDAgMCAxLTEuMjUgMS4yNSAxLjI1IDEuMjUgMCAwIDEtMS4yNS0xLjI1eiIvPjx1c2UgdHJhbnNmb3JtPSJtYXRyaXgoMSwwLDAsMSwyMTQwLDU2MCkgdHJhbnNsYXRlKDAgMTYuNjk5MjE4NzUpIiB4bGluazpocmVmPSIjTCIvPjx1c2UgdHJhbnNmb3JtPSJtYXRyaXgoMSwwLDAsMSwyMTQwLDU2MCkgdHJhbnNsYXRlKDc3LjE0MTYwMTU2MjUgMTYuNjk5MjE4NzUpIiB4bGluazpocmVmPSIjbCIvPjx1c2UgdHJhbnNmb3JtPSJtYXRyaXgoMSwwLDAsMSwyMTQwLDU2MCkgdHJhbnNsYXRlKDg3Ljc1IDE2LjY5OTIxODc1KSIgeGxpbms6aHJlZj0iI00iLz48dXNlIHRyYW5zZm9ybT0ibWF0cml4KDEsMCwwLDEsMjE0MCw1NjApIHRyYW5zbGF0ZSgxMzkuNTA4Nzg5MDYyNSAxNi42OTkyMTg3NSkiIHhsaW5rOmhyZWY9IiNuIi8+PHVzZSB0cmFuc2Zvcm09Im1hdHJpeCgxLDAsMCwxLDIxNDAsNTYwKSB0cmFuc2xhdGUoMTY1LjkxMTEzMjgxMjUgMTYuNjk5MjE4NzUpIiB4bGluazpocmVmPSIjbyIvPjwvZz48cGF0aCBmaWxsPSJub25lIiBzdHJva2U9IiMzYTQxNGEiIGQ9Ik0xOTAwLjUgNzcwaDgzLjVhNiA2IDAgMCAwIDYtNlY1NzZhNiA2IDAgMCAxIDYtNmg2Ny42MiIvPjxwYXRoIGZpbGw9IiMzYTQxNGEiIHN0cm9rZS13aWR0aD0iLjA1IiBzdHJva2U9IiMzYTQxNGEiIGQ9Ik0xOTAwLjUgNzcwLjQ4aC0uNXYtLjk2aC41eiIvPjxwYXRoIGZpbGw9IiMzYTQxNGEiIHN0cm9rZT0iIzNhNDE0YSIgZD0iTTIwNzguMzggNTcwbC0xNC4yNiA0LjYzdi05LjI2eiIvPjxwYXRoIGZpbGw9Im5vbmUiIHN0cm9rZT0iIzNhNDE0YSIgZD0iTTE5MDAuNSA3NzBoMTYzLjEyIi8+PHBhdGggZmlsbD0iIzNhNDE0YSIgc3Ryb2tlLXdpZHRoPSIuMDUiIHN0cm9rZT0iIzNhNDE0YSIgZD0iTTE5MDAuNSA3NzAuNDhoLS41di0uOTZoLjV6Ii8+PHBhdGggZmlsbD0iIzNhNDE0YSIgc3Ryb2tlPSIjM2E0MTRhIiBkPSJNMjA3OC4zOCA3NzBsLTE0LjI2IDQuNjN2LTkuMjZ6Ii8+PHBhdGggZmlsbD0ibm9uZSIgc3Ryb2tlPSIjM2E0MTRhIiBkPSJNMTkwMC41IDQxMGgxNjMuMTIiLz48cGF0aCBmaWxsPSIjM2E0MTRhIiBzdHJva2Utd2lkdGg9Ii4wNSIgc3Ryb2tlPSIjM2E0MTRhIiBkPSJNMTkwMC41IDQxMC40OGgtLjV2LS45NmguNXoiLz48cGF0aCBmaWxsPSIjM2E0MTRhIiBzdHJva2U9IiMzYTQxNGEiIGQ9Ik0yMDc4LjM4IDQxMGwtMTQuMjYgNC42M3YtOS4yNnoiLz48cGF0aCBmaWxsPSJ1cmwoI04pIiBkPSJNMjUzNC43NyA1MDBoMjk0Ljk2djE1MC40OGgtMjk0Ljk2eiIvPjxwYXRoIGZpbGw9InVybCgjTykiIGQ9Ik0yNTYwIDUwMGgyNDQuNXYxMzQuNDhIMjU2MHoiLz48dXNlIHRyYW5zZm9ybT0ibWF0cml4KDEsMCwwLDEsMjU3Mi4yMjUwMjU1MDQ3MTg0LDUwNi43MjM3NjQwMjc1OTUpIHRyYW5zbGF0ZSg1NC4wNDY0MzE4OTg2Mzk4NDUgNTEuOTgxMjc0NDU1MDAyODA0KSIgeGxpbms6aHJlZj0iI1AiLz48dXNlIHRyYW5zZm9ybT0ibWF0cml4KDEsMCwwLDEsMjU3Mi4yMjUwMjU1MDQ3MTg0LDUwNi43MjM3NjQwMjc1OTUpIHRyYW5zbGF0ZSgxMi40MzI2MTkwOTE5ODE4OCA3OC4xNjc5NzA5MzM0ODI0MSkiIHhsaW5rOmhyZWY9IiNRIi8+PHBhdGggZmlsbD0idXJsKCNSKSIgZD0iTTI1MzQuMzYgNzAwaDI5NC45NXYxNTAuNDhoLTI5NC45NHoiLz48cGF0aCBmaWxsPSJ1cmwoI1MpIiBkPSJNMjU1OS41OCA3MDBoMjQ0LjV2MTM0LjQ4aC0yNDQuNXoiLz48dXNlIHRyYW5zZm9ybT0ibWF0cml4KDEsMCwwLDEsMjU3MS44MDgzOTIzMDY3OTQsNzA2LjcyMzc2NDAyNzU5NSkgdHJhbnNsYXRlKDQ3Ljk4NDY5NjYwMjY5NTUgNjcuMzI1MDQxOTIyODYxOTQpIiB4bGluazpocmVmPSIjVCIvPjx1c2UgdHJhbnNmb3JtPSJtYXRyaXgoMSwwLDAsMSwyNTcxLjgwODM5MjMwNjc5NCw3MDYuNzIzNzY0MDI3NTk1KSB0cmFuc2xhdGUoMTY3Ljg4NTgyMDc1NjQ3NDc3IDY3LjMyNTA0MTkyMjg2MTk0KSIgeGxpbms6aHJlZj0iI1UiLz48cGF0aCBmaWxsPSIjM2E0MTRhIiBkPSJNMjQwMSA0MTBjMCAuMjgtLjIyLjUtLjUuNXMtLjUtLjIyLS41LS41LjIyLS41LjUtLjUuNS4yMi41LjV6bTIgMGMwIC4yOC0uMjIuNS0uNS41cy0uNS0uMjItLjUtLjUuMjItLjUuNS0uNS41LjIyLjUuNXptMiAwYzAgLjI4LS4yMi41LS41LjUtLjI3IDAtLjUtLjIyLS41LS41cy4yMy0uNS41LS41Yy4yOCAwIC41LjIyLjUuNXptMiAwYzAgLjI4LS4yMi41LS41LjUtLjI3IDAtLjUtLjIyLS41LS41cy4yMy0uNS41LS41Yy4yOCAwIC41LjIyLjUuNXptMiAwYzAgLjI4LS4yMi41LS41LjUtLjI3IDAtLjUtLjIyLS41LS41cy4yMy0uNS41LS41Yy4yOCAwIC41LjIyLjUuNXptMiAwYzAgLjI4LS4yMi41LS41LjUtLjI3IDAtLjUtLjIyLS41LS41cy4yMy0uNS41LS41Yy4yOCAwIC41LjIyLjUuNXptMiAwYzAgLjI4LS4yLjUtLjUuNS0uMjcgMC0uNS0uMjItLjUtLjVzLjIzLS41LjUtLjVjLjMgMCAuNS4yMi41LjV6bTIgMGMwIC4yOC0uMi41LS41LjUtLjI2IDAtLjUtLjIyLS41LS41cy4yNC0uNS41LS41Yy4zIDAgLjUuMjIuNS41em0yIDBjMCAuMjgtLjIuNS0uNS41LS4yNiAwLS41LS4yMi0uNS0uNXMuMjQtLjUuNS0uNWMuMyAwIC41LjIyLjUuNXptMiAwYzAgLjI4LS4yLjUtLjUuNS0uMjYgMC0uNS0uMjItLjUtLjVzLjI0LS41LjUtLjVjLjMgMCAuNS4yMi41LjV6bTIuMDIgMGMwIC4yOC0uMjMuNS0uNS41LS4yOCAwLS41LS4yMi0uNS0uNXMuMjItLjUuNS0uNWMuMjcgMCAuNS4yMi41LjV6bTIgMGMwIC4yOC0uMjMuNS0uNS41LS4yOCAwLS41LS4yMi0uNS0uNXMuMjItLjUuNS0uNWMuMjcgMCAuNS4yMi41LjV6bTIgMGMwIC4yOC0uMjIuNS0uNS41cy0uNS0uMjItLjUtLjUuMjItLjUuNS0uNS41LjIyLjUuNXptMiAwYzAgLjI4LS4yMi41LS41LjVzLS41LS4yMi0uNS0uNS4yMi0uNS41LS41LjUuMjIuNS41em0yIDBjMCAuMjgtLjIyLjUtLjUuNS0uMjcgMC0uNS0uMjItLjUtLjVzLjIzLS41LjUtLjVjLjI4IDAgLjUuMjIuNS41em0yIDBjMCAuMjgtLjIyLjUtLjUuNS0uMjcgMC0uNS0uMjItLjUtLjVzLjIzLS41LjUtLjVjLjI4IDAgLjUuMjIuNS41em0yIDBjMCAuMjgtLjIyLjUtLjUuNS0uMjcgMC0uNS0uMjItLjUtLjVzLjIzLS41LjUtLjVjLjI4IDAgLjUuMjIuNS41em0yIDBjMCAuMjgtLjIyLjUtLjUuNS0uMjcgMC0uNS0uMjItLjUtLjVzLjIzLS41LjUtLjVjLjI4IDAgLjUuMjIuNS41em0yIDBjMCAuMjgtLjIyLjUtLjUuNS0uMjcgMC0uNS0uMjItLjUtLjVzLjIzLS41LjUtLjVjLjI4IDAgLjUuMjIuNS41em0yIDBjMCAuMjgtLjIuNS0uNS41LS4yNyAwLS41LS4yMi0uNS0uNXMuMjMtLjUuNS0uNWMuMyAwIC41LjIyLjUuNXptMiAwYzAgLjI4LS4yLjUtLjUuNS0uMjYgMC0uNS0uMjItLjUtLjVzLjI0LS41LjUtLjVjLjMgMCAuNS4yMi41LjV6bTIgMGMwIC4yOC0uMi41LS41LjUtLjI2IDAtLjUtLjIyLS41LS41cy4yNC0uNS41LS41Yy4zIDAgLjUuMjIuNS41em0yIDBjMCAuMjgtLjIuNS0uNS41LS4yNiAwLS41LS4yMi0uNS0uNXMuMjQtLjUuNS0uNWMuMyAwIC41LjIyLjUuNXptMi4wMiAwYzAgLjI4LS4yMy41LS41LjUtLjI4IDAtLjUtLjIyLS41LS41cy4yMi0uNS41LS41Yy4yNyAwIC41LjIyLjUuNXptMiAwYzAgLjI4LS4yMy41LS41LjUtLjI4IDAtLjUtLjIyLS41LS41cy4yMi0uNS41LS41Yy4yNyAwIC41LjIyLjUuNXptMiAwYzAgLjI4LS4yMi41LS41LjVzLS41LS4yMi0uNS0uNS4yMi0uNS41LS41LjUuMjIuNS41em0yIDBjMCAuMjgtLjIyLjUtLjUuNXMtLjUtLjIyLS41LS41LjIyLS41LjUtLjUuNS4yMi41LjV6bTIgMGMwIC4yOC0uMjIuNS0uNS41LS4yNyAwLS41LS4yMi0uNS0uNXMuMjMtLjUuNS0uNWMuMjggMCAuNS4yMi41LjV6bTIgMGMwIC4yOC0uMjIuNS0uNS41LS4yNyAwLS41LS4yMi0uNS0uNXMuMjMtLjUuNS0uNWMuMjggMCAuNS4yMi41LjV6bTIgMGMwIC4yOC0uMjIuNS0uNS41LS4yNyAwLS41LS4yMi0uNS0uNXMuMjMtLjUuNS0uNWMuMjggMCAuNS4yMi41LjV6bTIgMGMwIC4yOC0uMjIuNS0uNS41LS4yNyAwLS41LS4yMi0uNS0uNXMuMjMtLjUuNS0uNWMuMjggMCAuNS4yMi41LjV6bTIgMGMwIC4yOC0uMjIuNS0uNS41LS4yNyAwLS41LS4yMi0uNS0uNXMuMjMtLjUuNS0uNWMuMjggMCAuNS4yMi41LjV6bTIgMGMwIC4yOC0uMi41LS41LjUtLjI3IDAtLjUtLjIyLS41LS41cy4yMy0uNS41LS41Yy4zIDAgLjUuMjIuNS41em0yIDBjMCAuMjgtLjIuNS0uNS41LS4yNiAwLS41LS4yMi0uNS0uNXMuMjQtLjUuNS0uNWMuMyAwIC41LjIyLjUuNXptMiAwYzAgLjI4LS4yLjUtLjUuNS0uMjYgMC0uNS0uMjItLjUtLjVzLjI0LS41LjUtLjVjLjMgMCAuNS4yMi41LjV6bTIgMGMwIC4yOC0uMi41LS41LjUtLjI2IDAtLjUtLjIyLS41LS41cy4yNC0uNS41LS41Yy4zIDAgLjUuMjIuNS41em0yLjAyIDBjMCAuMjgtLjIzLjUtLjUuNS0uMjggMC0uNS0uMjItLjUtLjVzLjIyLS41LjUtLjVjLjI3IDAgLjUuMjIuNS41em0yIDBjMCAuMjgtLjIzLjUtLjUuNS0uMjggMC0uNS0uMjItLjUtLjVzLjIyLS41LjUtLjVjLjI3IDAgLjUuMjIuNS41em0yIDBjMCAuMjgtLjIyLjUtLjUuNXMtLjUtLjIyLS41LS41LjIyLS41LjUtLjUuNS4yMi41LjV6bTIgMGMwIC4yOC0uMjIuNS0uNS41cy0uNS0uMjItLjUtLjUuMjItLjUuNS0uNS41LjIyLjUuNXptMS40NC0xLjQ0YzAgLjI4LS4yMi41LS41LjVzLS41LS4yMi0uNS0uNWMwLS4yNy4yMi0uNS41LS41cy41LjIzLjUuNXptMS40NC0xLjQ0YzAgLjI4LS4yMi41LS41LjVzLS41LS4yMi0uNS0uNWMwLS4yNy4yMi0uNS41LS41cy41LjIzLjUuNXptMiAwYzAgLjI4LS4yMi41LS41LjVzLS41LS4yMi0uNS0uNWMwLS4yNy4yMi0uNS41LS41cy41LjIzLjUuNXptMiAwYzAgLjI4LS4yMi41LS41LjVzLS41LS4yMi0uNS0uNWMwLS4yNy4yMi0uNS41LS41cy41LjIzLjUuNXptMiAwYzAgLjI4LS4yMi41LS41LjUtLjI3IDAtLjUtLjIyLS41LS41IDAtLjI3LjIzLS41LjUtLjUuMjggMCAuNS4yMy41LjV6bTIgMGMwIC4yOC0uMjIuNS0uNS41LS4yNyAwLS41LS4yMi0uNS0uNSAwLS4yNy4yMy0uNS41LS41LjI4IDAgLjUuMjMuNS41em0yIDBjMCAuMjgtLjIyLjUtLjUuNS0uMjcgMC0uNS0uMjItLjUtLjUgMC0uMjcuMjMtLjUuNS0uNS4yOCAwIC41LjIzLjUuNXptMiAwYzAgLjI4LS4yMi41LS41LjUtLjI3IDAtLjUtLjIyLS41LS41IDAtLjI3LjIzLS41LjUtLjUuMjggMCAuNS4yMy41LjV6bTIgMGMwIC4yOC0uMi41LS41LjUtLjI3IDAtLjUtLjIyLS41LS41IDAtLjI3LjIzLS41LjUtLjUuMyAwIC41LjIzLjUuNXptMiAwYzAgLjI4LS4yLjUtLjUuNS0uMjYgMC0uNS0uMjItLjUtLjUgMC0uMjcuMjQtLjUuNS0uNS4zIDAgLjUuMjMuNS41em0yIDBjMCAuMjgtLjIuNS0uNS41LS4yNiAwLS41LS4yMi0uNS0uNSAwLS4yNy4yNC0uNS41LS41LjMgMCAuNS4yMy41LjV6bTIgMGMwIC4yOC0uMi41LS41LjUtLjI2IDAtLjUtLjIyLS41LS41IDAtLjI3LjI0LS41LjUtLjUuMyAwIC41LjIzLjUuNXptMi4wMiAwYzAgLjI4LS4yMy41LS41LjUtLjI4IDAtLjUtLjIyLS41LS41IDAtLjI3LjIyLS41LjUtLjUuMjcgMCAuNS4yMy41LjV6bTIgMGMwIC4yOC0uMjMuNS0uNS41LS4yOCAwLS41LS4yMi0uNS0uNSAwLS4yNy4yMi0uNS41LS41LjI3IDAgLjUuMjMuNS41em0yIDBjMCAuMjgtLjIyLjUtLjUuNXMtLjUtLjIyLS41LS41YzAtLjI3LjIyLS41LjUtLjVzLjUuMjMuNS41em0yIDBjMCAuMjgtLjIyLjUtLjUuNXMtLjUtLjIyLS41LS41YzAtLjI3LjIyLS41LjUtLjVzLjUuMjMuNS41em0yIDBjMCAuMjgtLjIyLjUtLjUuNS0uMjcgMC0uNS0uMjItLjUtLjUgMC0uMjcuMjMtLjUuNS0uNS4yOCAwIC41LjIzLjUuNXptMiAwYzAgLjI4LS4yMi41LS41LjUtLjI3IDAtLjUtLjIyLS41LS41IDAtLjI3LjIzLS41LjUtLjUuMjggMCAuNS4yMy41LjV6bTIgMGMwIC4yOC0uMjIuNS0uNS41LS4yNyAwLS41LS4yMi0uNS0uNSAwLS4yNy4yMy0uNS41LS41LjI4IDAgLjUuMjMuNS41em0yIDBjMCAuMjgtLjIyLjUtLjUuNS0uMjcgMC0uNS0uMjItLjUtLjUgMC0uMjcuMjMtLjUuNS0uNS4yOCAwIC41LjIzLjUuNXptMiAwYzAgLjI4LS4yMi41LS41LjUtLjI3IDAtLjUtLjIyLS41LS41IDAtLjI3LjIzLS41LjUtLjUuMjggMCAuNS4yMy41LjV6bTIgMGMwIC4yOC0uMi41LS41LjUtLjI3IDAtLjUtLjIyLS41LS41IDAtLjI3LjIzLS41LjUtLjUuMyAwIC41LjIzLjUuNXptMiAwYzAgLjI4LS4yLjUtLjUuNS0uMjYgMC0uNS0uMjItLjUtLjUgMC0uMjcuMjQtLjUuNS0uNS4zIDAgLjUuMjMuNS41em0yIDBjMCAuMjgtLjIuNS0uNS41LS4yNiAwLS41LS4yMi0uNS0uNSAwLS4yNy4yNC0uNS41LS41LjMgMCAuNS4yMy41LjV6bTIgMGMwIC4yOC0uMi41LS41LjUtLjI2IDAtLjUtLjIyLS41LS41IDAtLjI3LjI0LS41LjUtLjUuMyAwIC41LjIzLjUuNXptMi4wMiAwYzAgLjI4LS4yMy41LS41LjUtLjI4IDAtLjUtLjIyLS41LS41IDAtLjI3LjIyLS41LjUtLjUuMjcgMCAuNS4yMy41LjV6bTIgMGMwIC4yOC0uMjMuNS0uNS41LS4yOCAwLS41LS4yMi0uNS0uNSAwLS4yNy4yMi0uNS41LS41LjI3IDAgLjUuMjMuNS41em0yIDBjMCAuMjgtLjIyLjUtLjUuNXMtLjUtLjIyLS41LS41YzAtLjI3LjIyLS41LjUtLjVzLjUuMjMuNS41em0yIDBjMCAuMjgtLjIyLjUtLjUuNXMtLjUtLjIyLS41LS41YzAtLjI3LjIyLS41LjUtLjVzLjUuMjMuNS41em0yIDBjMCAuMjgtLjIyLjUtLjUuNS0uMjcgMC0uNS0uMjItLjUtLjUgMC0uMjcuMjMtLjUuNS0uNS4yOCAwIC41LjIzLjUuNXptMiAwYzAgLjI4LS4yMi41LS41LjUtLjI3IDAtLjUtLjIyLS41LS41IDAtLjI3LjIzLS41LjUtLjUuMjggMCAuNS4yMy41LjV6bTIgMGMwIC4yOC0uMjIuNS0uNS41LS4yNyAwLS41LS4yMi0uNS0uNSAwLS4yNy4yMy0uNS41LS41LjI4IDAgLjUuMjMuNS41em0yIDBjMCAuMjgtLjIyLjUtLjUuNS0uMjcgMC0uNS0uMjItLjUtLjUgMC0uMjcuMjMtLjUuNS0uNS4yOCAwIC41LjIzLjUuNXptMiAwYzAgLjI4LS4yMi41LS41LjUtLjI3IDAtLjUtLjIyLS41LS41IDAtLjI3LjIzLS41LjUtLjUuMjggMCAuNS4yMy41LjV6bTIgMGMwIC4yOC0uMi41LS41LjUtLjI3IDAtLjUtLjIyLS41LS41IDAtLjI3LjIzLS41LjUtLjUuMyAwIC41LjIzLjUuNXptMiAwYzAgLjI4LS4yLjUtLjUuNS0uMjYgMC0uNS0uMjItLjUtLjUgMC0uMjcuMjQtLjUuNS0uNS4zIDAgLjUuMjMuNS41em0yIDBjMCAuMjgtLjIuNS0uNS41LS4yNiAwLS41LS4yMi0uNS0uNSAwLS4yNy4yNC0uNS41LS41LjMgMCAuNS4yMy41LjV6bTIgMGMwIC4yOC0uMi41LS41LjUtLjI2IDAtLjUtLjIyLS41LS41IDAtLjI3LjI0LS41LjUtLjUuMyAwIC41LjIzLjUuNXptMi4wMiAwYzAgLjI4LS4yMy41LS41LjUtLjI4IDAtLjUtLjIyLS41LS41IDAtLjI3LjIyLS41LjUtLjUuMjcgMCAuNS4yMy41LjV6bTIgMGMwIC4yOC0uMjIuNS0uNS41cy0uNS0uMjItLjUtLjVjMC0uMjcuMjItLjUuNS0uNXMuNS4yMy41LjV6Ii8+PHBhdGggZmlsbD0iIzNhNDE0YSIgc3Ryb2tlLXdpZHRoPSIuMDUiIHN0cm9rZT0iIzNhNDE0YSIgZD0iTTI0MDAuNSA0MTAuNDhoLS41di0uOTZoLjV6TTI1NjAgNDA3LjZoLS41di0uOTVoLjV6Ii8+PHBhdGggZmlsbD0iIzNhNDE0YSIgZD0iTTI0MDEgNTcwYzAgLjI4LS4yMi41LS41LjVzLS41LS4yMi0uNS0uNS4yMi0uNS41LS41LjUuMjIuNS41em0yIDBjMCAuMjgtLjI0LjUtLjUuNS0uMyAwLS41LS4yMi0uNS0uNXMuMi0uNS41LS41Yy4yNiAwIC41LjIyLjUuNXptMS45NyAwYzAgLjI4LS4yMi41LS41LjUtLjI3IDAtLjUtLjIyLS41LS41cy4yMy0uNS41LS41Yy4yOCAwIC41LjIyLjUuNXptMiAwYzAgLjI4LS4yMy41LS41LjUtLjI4IDAtLjUtLjIyLS41LS41cy4yMi0uNS41LS41Yy4yNyAwIC41LjIyLjUuNXptMS45OCAwYzAgLjI4LS4yMi41LS41LjVzLS41LS4yMi0uNS0uNS4yMi0uNS41LS41LjUuMjIuNS41em0yIDBjMCAuMjgtLjI0LjUtLjUuNS0uMyAwLS41LS4yMi0uNS0uNXMuMi0uNS41LS41Yy4yNiAwIC41LjIyLjUuNXptMS45OCAwYzAgLjI4LS4yMy41LS41LjUtLjI4IDAtLjUtLjIyLS41LS41cy4yMi0uNS41LS41Yy4yNyAwIC41LjIyLjUuNXptMS45OCAwYzAgLjI4LS4yLjUtLjUuNS0uMjYgMC0uNS0uMjItLjUtLjVzLjI0LS41LjUtLjVjLjMgMCAuNS4yMi41LjV6bTIgMGMwIC4yOC0uMjIuNS0uNS41cy0uNS0uMjItLjUtLjUuMjItLjUuNS0uNS41LjIyLjUuNXptMiAwYzAgLjI4LS4yNC41LS41LjUtLjMgMC0uNS0uMjItLjUtLjVzLjItLjUuNS0uNWMuMjYgMCAuNS4yMi41LjV6bTEuOTcgMGMwIC4yOC0uMjIuNS0uNS41LS4yNyAwLS41LS4yMi0uNS0uNXMuMjMtLjUuNS0uNWMuMjggMCAuNS4yMi41LjV6bTIgMGMwIC4yOC0uMjMuNS0uNS41LS4yOCAwLS41LS4yMi0uNS0uNXMuMjItLjUuNS0uNWMuMjcgMCAuNS4yMi41LjV6bTEuOTggMGMwIC4yOC0uMjIuNS0uNS41cy0uNS0uMjItLjUtLjUuMjItLjUuNS0uNS41LjIyLjUuNXptMiAwYzAgLjI4LS4yNC41LS41LjUtLjMgMC0uNS0uMjItLjUtLjVzLjItLjUuNS0uNWMuMjYgMCAuNS4yMi41LjV6bTEuOTcgMGMwIC4yOC0uMjIuNS0uNS41LS4yNyAwLS41LS4yMi0uNS0uNXMuMjMtLjUuNS0uNWMuMjggMCAuNS4yMi41LjV6bTIgMGMwIC4yOC0uMjMuNS0uNS41LS4yOCAwLS41LS4yMi0uNS0uNXMuMjItLjUuNS0uNWMuMjcgMCAuNS4yMi41LjV6bTEuOTggMGMwIC4yOC0uMjIuNS0uNS41cy0uNS0uMjItLjUtLjUuMjItLjUuNS0uNS41LjIyLjUuNXptMiAwYzAgLjI4LS4yNC41LS41LjUtLjMgMC0uNS0uMjItLjUtLjVzLjItLjUuNS0uNWMuMjYgMCAuNS4yMi41LjV6bTEuOTcgMGMwIC4yOC0uMjIuNS0uNS41LS4yNyAwLS41LS4yMi0uNS0uNXMuMjMtLjUuNS0uNWMuMjggMCAuNS4yMi41LjV6bTIgMGMwIC4yOC0uMjMuNS0uNS41LS4yOCAwLS41LS4yMi0uNS0uNXMuMjItLjUuNS0uNWMuMjcgMCAuNS4yMi41LjV6bTEuOTggMGMwIC4yOC0uMjIuNS0uNS41cy0uNS0uMjItLjUtLjUuMjItLjUuNS0uNS41LjIyLjUuNXptMiAwYzAgLjI4LS4yNC41LS41LjUtLjMgMC0uNS0uMjItLjUtLjVzLjItLjUuNS0uNWMuMjYgMCAuNS4yMi41LjV6bTEuOTcgMGMwIC4yOC0uMjIuNS0uNS41LS4yNyAwLS41LS4yMi0uNS0uNXMuMjMtLjUuNS0uNWMuMjggMCAuNS4yMi41LjV6bTIgMGMwIC4yOC0uMjMuNS0uNS41LS4yOCAwLS41LS4yMi0uNS0uNXMuMjItLjUuNS0uNWMuMjcgMCAuNS4yMi41LjV6bTEuOTggMGMwIC4yOC0uMjIuNS0uNS41cy0uNS0uMjItLjUtLjUuMjItLjUuNS0uNS41LjIyLjUuNXptMiAwYzAgLjI4LS4yNC41LS41LjUtLjMgMC0uNS0uMjItLjUtLjVzLjItLjUuNS0uNWMuMjYgMCAuNS4yMi41LjV6bTEuOTggMGMwIC4yOC0uMjMuNS0uNS41LS4yOCAwLS41LS4yMi0uNS0uNXMuMjItLjUuNS0uNWMuMjcgMCAuNS4yMi41LjV6bTEuOTggMGMwIC4yOC0uMjIuNS0uNS41LS4yNyAwLS41LS4yMi0uNS0uNXMuMjMtLjUuNS0uNWMuMjggMCAuNS4yMi41LjV6bTIgMGMwIC4yOC0uMjMuNS0uNS41LS4zIDAtLjUtLjIyLS41LS41cy4yLS41LjUtLjVjLjI3IDAgLjUuMjIuNS41em0xLjk4IDBjMCAuMjgtLjIzLjUtLjUuNS0uMjggMC0uNS0uMjItLjUtLjVzLjIyLS41LjUtLjVjLjI3IDAgLjUuMjIuNS41em0yIDBjMCAuMjgtLjI0LjUtLjUuNS0uMyAwLS41LS4yMi0uNS0uNXMuMi0uNS41LS41Yy4yNiAwIC41LjIyLjUuNXptMS45NyAwYzAgLjI4LS4yLjUtLjUuNS0uMjYgMC0uNS0uMjItLjUtLjVzLjI0LS41LjUtLjVjLjMgMCAuNS4yMi41LjV6bTIgMGMwIC4yOC0uMjIuNS0uNS41cy0uNS0uMjItLjUtLjUuMjItLjUuNS0uNS41LjIyLjUuNXptMiAwYzAgLjI4LS4yNC41LS41LjUtLjMgMC0uNS0uMjItLjUtLjVzLjItLjUuNS0uNWMuMjYgMCAuNS4yMi41LjV6bTEuOTcgMGMwIC4yOC0uMjIuNS0uNS41LS4yNyAwLS41LS4yMi0uNS0uNXMuMjMtLjUuNS0uNWMuMjggMCAuNS4yMi41LjV6bTIgMGMwIC4yOC0uMjMuNS0uNS41LS4yOCAwLS41LS4yMi0uNS0uNXMuMjItLjUuNS0uNWMuMjcgMCAuNS4yMi41LjV6bTEuOTggMGMwIC4yOC0uMjIuNS0uNS41cy0uNS0uMjItLjUtLjUuMjItLjUuNS0uNS41LjIyLjUuNXptMiAwYzAgLjI4LS4yNC41LS41LjUtLjMgMC0uNS0uMjItLjUtLjVzLjItLjUuNS0uNWMuMjYgMCAuNS4yMi41LjV6bTEuOTcgMGMwIC4yOC0uMjIuNS0uNS41LS4yNyAwLS41LS4yMi0uNS0uNXMuMjMtLjUuNS0uNWMuMjggMCAuNS4yMi41LjV6bTIgMGMwIC4yOC0uMjMuNS0uNS41LS4yOCAwLS41LS4yMi0uNS0uNXMuMjItLjUuNS0uNWMuMjcgMCAuNS4yMi41LjV6bTEuOTggMGMwIC4yOC0uMjIuNS0uNS41cy0uNS0uMjItLjUtLjUuMjItLjUuNS0uNS41LjIyLjUuNXptMiAwYzAgLjI4LS4yNC41LS41LjUtLjMgMC0uNS0uMjItLjUtLjVzLjItLjUuNS0uNWMuMjYgMCAuNS4yMi41LjV6bTEuOTcgMGMwIC4yOC0uMjIuNS0uNS41LS4yNyAwLS41LS4yMi0uNS0uNXMuMjMtLjUuNS0uNWMuMjggMCAuNS4yMi41LjV6bTIgMGMwIC4yOC0uMjMuNS0uNS41LS4yOCAwLS41LS4yMi0uNS0uNXMuMjItLjUuNS0uNWMuMjcgMCAuNS4yMi41LjV6bTEuOTggMGMwIC4yOC0uMjIuNS0uNS41cy0uNS0uMjItLjUtLjUuMjItLjUuNS0uNS41LjIyLjUuNXptMiAwYzAgLjI4LS4yNC41LS41LjUtLjMgMC0uNS0uMjItLjUtLjVzLjItLjUuNS0uNWMuMjYgMCAuNS4yMi41LjV6bTEuOTggMGMwIC4yOC0uMjMuNS0uNS41LS4yOCAwLS41LS4yMi0uNS0uNXMuMjItLjUuNS0uNWMuMjcgMCAuNS4yMi41LjV6bTEuOTggMGMwIC4yOC0uMi41LS41LjUtLjI2IDAtLjUtLjIyLS41LS41cy4yNC0uNS41LS41Yy4zIDAgLjUuMjIuNS41em0yIDBjMCAuMjgtLjIyLjUtLjUuNXMtLjUtLjIyLS41LS41LjIyLS41LjUtLjUuNS4yMi41LjV6bTIgMGMwIC4yOC0uMjQuNS0uNS41LS4zIDAtLjUtLjIyLS41LS41cy4yLS41LjUtLjVjLjI2IDAgLjUuMjIuNS41em0xLjk3IDBjMCAuMjgtLjIyLjUtLjUuNS0uMjcgMC0uNS0uMjItLjUtLjVzLjIzLS41LjUtLjVjLjI4IDAgLjUuMjIuNS41em0yIDBjMCAuMjgtLjIzLjUtLjUuNS0uMjggMC0uNS0uMjItLjUtLjVzLjIyLS41LjUtLjVjLjI3IDAgLjUuMjIuNS41em0xLjk4IDBjMCAuMjgtLjIyLjUtLjUuNXMtLjUtLjIyLS41LS41LjIyLS41LjUtLjUuNS4yMi41LjV6bTIgMGMwIC4yOC0uMjQuNS0uNS41LS4zIDAtLjUtLjIyLS41LS41cy4yLS41LjUtLjVjLjI2IDAgLjUuMjIuNS41em0xLjk3IDBjMCAuMjgtLjIyLjUtLjUuNS0uMjcgMC0uNS0uMjItLjUtLjVzLjIzLS41LjUtLjVjLjI4IDAgLjUuMjIuNS41em0yIDBjMCAuMjgtLjIzLjUtLjUuNS0uMjggMC0uNS0uMjItLjUtLjVzLjIyLS41LjUtLjVjLjI3IDAgLjUuMjIuNS41em0xLjk4IDBjMCAuMjgtLjIyLjUtLjUuNXMtLjUtLjIyLS41LS41LjIyLS41LjUtLjUuNS4yMi41LjV6bTIgMGMwIC4yOC0uMjQuNS0uNS41LS4zIDAtLjUtLjIyLS41LS41cy4yLS41LjUtLjVjLjI2IDAgLjUuMjIuNS41em0xLjk3IDBjMCAuMjgtLjIyLjUtLjUuNS0uMjcgMC0uNS0uMjItLjUtLjVzLjIzLS41LjUtLjVjLjI4IDAgLjUuMjIuNS41em0yIDBjMCAuMjgtLjIzLjUtLjUuNS0uMjggMC0uNS0uMjItLjUtLjVzLjIyLS41LjUtLjVjLjI3IDAgLjUuMjIuNS41em0xLjk4IDBjMCAuMjgtLjIyLjUtLjUuNXMtLjUtLjIyLS41LS41LjIyLS41LjUtLjUuNS4yMi41LjV6bTIgMGMwIC4yOC0uMjQuNS0uNS41LS4zIDAtLjUtLjIyLS41LS41cy4yLS41LjUtLjVjLjI2IDAgLjUuMjIuNS41em0xLjk3IDBjMCAuMjgtLjIyLjUtLjUuNS0uMjcgMC0uNS0uMjItLjUtLjVzLjIzLS41LjUtLjVjLjI4IDAgLjUuMjIuNS41em0yIDBjMCAuMjgtLjIzLjUtLjUuNS0uMjggMC0uNS0uMjItLjUtLjVzLjIyLS41LjUtLjVjLjI3IDAgLjUuMjIuNS41em0xLjk4IDBjMCAuMjgtLjIyLjUtLjUuNXMtLjUtLjIyLS41LS41LjIyLS41LjUtLjUuNS4yMi41LjV6bTIgMGMwIC4yOC0uMjQuNS0uNS41LS4zIDAtLjUtLjIyLS41LS41cy4yLS41LjUtLjVjLjI2IDAgLjUuMjIuNS41em0xLjk4IDBjMCAuMjgtLjIzLjUtLjUuNS0uMjggMC0uNS0uMjItLjUtLjVzLjIyLS41LjUtLjVjLjI3IDAgLjUuMjIuNS41em0xLjk4IDBjMCAuMjgtLjIyLjUtLjUuNS0uMjcgMC0uNS0uMjItLjUtLjVzLjIzLS41LjUtLjVjLjI4IDAgLjUuMjIuNS41em0yIDBjMCAuMjgtLjIzLjUtLjUuNS0uMyAwLS41LS4yMi0uNS0uNXMuMi0uNS41LS41Yy4yNyAwIC41LjIyLjUuNXptMS45OCAwYzAgLjI4LS4yMy41LS41LjUtLjI4IDAtLjUtLjIyLS41LS41cy4yMi0uNS41LS41Yy4yNyAwIC41LjIyLjUuNXptMiAwYzAgLjI4LS4yNC41LS41LjUtLjMgMC0uNS0uMjItLjUtLjVzLjItLjUuNS0uNWMuMjYgMCAuNS4yMi41LjV6bTEuOTcgMGMwIC4yOC0uMi41LS41LjUtLjI2IDAtLjUtLjIyLS41LS41cy4yNC0uNS41LS41Yy4zIDAgLjUuMjIuNS41em0yIDBjMCAuMjgtLjIyLjUtLjUuNXMtLjUtLjIyLS41LS41LjIyLS41LjUtLjUuNS4yMi41LjV6bTIgMGMwIC4yOC0uMjQuNS0uNS41LS4zIDAtLjUtLjIyLS41LS41cy4yLS41LjUtLjVjLjI2IDAgLjUuMjIuNS41em0xLjk3IDBjMCAuMjgtLjIyLjUtLjUuNS0uMjcgMC0uNS0uMjItLjUtLjVzLjIzLS41LjUtLjVjLjI4IDAgLjUuMjIuNS41em0yIDBjMCAuMjgtLjIzLjUtLjUuNS0uMjggMC0uNS0uMjItLjUtLjVzLjIyLS41LjUtLjVjLjI3IDAgLjUuMjIuNS41em0xLjk4IDBjMCAuMjgtLjIyLjUtLjUuNXMtLjUtLjIyLS41LS41LjIyLS41LjUtLjUuNS4yMi41LjV6bTIgMGMwIC4yOC0uMjQuNS0uNS41LS4zIDAtLjUtLjIyLS41LS41cy4yLS41LjUtLjVjLjI2IDAgLjUuMjIuNS41em0xLjk3IDBjMCAuMjgtLjIyLjUtLjUuNS0uMjcgMC0uNS0uMjItLjUtLjVzLjIzLS41LjUtLjVjLjI4IDAgLjUuMjIuNS41em0yIDBjMCAuMjgtLjIzLjUtLjUuNS0uMjggMC0uNS0uMjItLjUtLjVzLjIyLS41LjUtLjVjLjI3IDAgLjUuMjIuNS41em0xLjk4IDBjMCAuMjgtLjIyLjUtLjUuNXMtLjUtLjIyLS41LS41LjIyLS41LjUtLjUuNS4yMi41LjV6Ii8+PHBhdGggZmlsbD0iIzNhNDE0YSIgc3Ryb2tlLXdpZHRoPSIuMDUiIHN0cm9rZT0iIzNhNDE0YSIgZD0iTTI0MDAuNSA1NzAuNDhoLS41di0uOTZoLjV6TTI1NjAgNTcwLjQ4aC0uNXYtLjk2aC41eiIvPjxwYXRoIGZpbGw9InVybCgjVikiIGQ9Ik0yNTM0LjgyIDM0MGgyOTQuNDV2MTUwLjIzaC0yOTQuNDV6Ii8+PHBhdGggZmlsbD0idXJsKCNXKSIgZD0iTTI1NjAgMzQwaDI0NC4wOHYxMzQuMjVIMjU2MHoiLz48dXNlIHRyYW5zZm9ybT0ibWF0cml4KDEsMCwwLDEsMjU3Mi4yMDQxOTM4NDQ4MjIsMzQ2LjcxMjMwNjYxNDY1MjA1KSB0cmFuc2xhdGUoNTMuNzM4NjAwOTE1Mjg5MDU1IDUxLjQxMDU5MTIwMjAxNzM2NSkiIHhsaW5rOmhyZWY9IiNYIi8+PHVzZSB0cmFuc2Zvcm09Im1hdHJpeCgxLDAsMCwxLDI1NzIuMjA0MTkzODQ0ODIyLDM0Ni43MTIzMDY2MTQ2NTIwNSkgdHJhbnNsYXRlKDU5LjEzMjk1MzUxOTUwNDM2IDc3LjQ0ODEzNjczMjk3ODQxKSIgeGxpbms6aHJlZj0iI1kiLz48cGF0aCBmaWxsPSIjM2E0MTRhIiBkPSJNMjQwMSA3NzBjMCAuMjgtLjIyLjUtLjUuNXMtLjUtLjIyLS41LS41LjIyLS41LjUtLjUuNS4yMi41LjV6bTIgMGMwIC4yOC0uMjIuNS0uNS41LS4yNyAwLS41LS4yMi0uNS0uNXMuMjMtLjUuNS0uNWMuMjggMCAuNS4yMi41LjV6bTIgMGMwIC4yOC0uMi41LS41LjUtLjI2IDAtLjUtLjIyLS41LS41cy4yNC0uNS41LS41Yy4zIDAgLjUuMjIuNS41em0yLjAyIDBjMCAuMjgtLjIyLjUtLjUuNS0uMjcgMC0uNS0uMjItLjUtLjVzLjIzLS41LjUtLjVjLjI4IDAgLjUuMjIuNS41em0yIDBjMCAuMjgtLjIuNS0uNS41LS4yNyAwLS41LS4yMi0uNS0uNXMuMjMtLjUuNS0uNWMuMyAwIC41LjIyLjUuNXptMi4wMiAwYzAgLjI4LS4yMy41LS41LjUtLjI4IDAtLjUtLjIyLS41LS41cy4yMi0uNS41LS41Yy4yNyAwIC41LjIyLjUuNXptMiAwYzAgLjI4LS4yMi41LS41LjUtLjI3IDAtLjUtLjIyLS41LS41cy4yMy0uNS41LS41Yy4yOCAwIC41LjIyLjUuNXptMiAwYzAgLjI4LS4yLjUtLjUuNS0uMjYgMC0uNS0uMjItLjUtLjVzLjI0LS41LjUtLjVjLjMgMCAuNS4yMi41LjV6bTIuMDIgMGMwIC4yOC0uMjIuNS0uNS41cy0uNS0uMjItLjUtLjUuMjItLjUuNS0uNS41LjIyLjUuNXptMiAwYzAgLjI4LS4yMi41LS41LjUtLjI3IDAtLjUtLjIyLS41LS41cy4yMy0uNS41LS41Yy4yOCAwIC41LjIyLjUuNXptMiAwYzAgLjI4LS4yLjUtLjUuNS0uMjYgMC0uNS0uMjItLjUtLjVzLjI0LS41LjUtLjVjLjMgMCAuNS4yMi41LjV6bTIuMDIgMGMwIC4yOC0uMjIuNS0uNS41cy0uNS0uMjItLjUtLjUuMjItLjUuNS0uNS41LjIyLjUuNXptMiAwYzAgLjI4LS4yMi41LS41LjUtLjI3IDAtLjUtLjIyLS41LS41cy4yMy0uNS41LS41Yy4yOCAwIC41LjIyLjUuNXptMi4wMiAwYzAgLjI4LS4yMy41LS41LjUtLjI4IDAtLjUtLjIyLS41LS41cy4yMi0uNS41LS41Yy4yNyAwIC41LjIyLjUuNXptMiAwYzAgLjI4LS4yMi41LS41LjUtLjI3IDAtLjUtLjIyLS41LS41cy4yMy0uNS41LS41Yy4yOCAwIC41LjIyLjUuNXptMiAwYzAgLjI4LS4yLjUtLjUuNS0uMjYgMC0uNS0uMjItLjUtLjVzLjI0LS41LjUtLjVjLjMgMCAuNS4yMi41LjV6bTIuMDIgMGMwIC4yOC0uMjMuNS0uNS41LS4yOCAwLS41LS4yMi0uNS0uNXMuMjItLjUuNS0uNWMuMjcgMCAuNS4yMi41LjV6bTIgMGMwIC4yOC0uMjIuNS0uNS41LS4yNyAwLS41LS4yMi0uNS0uNXMuMjMtLjUuNS0uNWMuMjggMCAuNS4yMi41LjV6bTIgMGMwIC4yOC0uMi41LS41LjUtLjI2IDAtLjUtLjIyLS41LS41cy4yNC0uNS41LS41Yy4zIDAgLjUuMjIuNS41em0yLjAyIDBjMCAuMjgtLjIyLjUtLjUuNXMtLjUtLjIyLS41LS41LjIyLS41LjUtLjUuNS4yMi41LjV6bTIgMGMwIC4yOC0uMjIuNS0uNS41LS4yNyAwLS41LS4yMi0uNS0uNXMuMjMtLjUuNS0uNWMuMjggMCAuNS4yMi41LjV6bTIuMDIgMGMwIC4yOC0uMjMuNS0uNS41LS4yOCAwLS41LS4yMi0uNS0uNXMuMjItLjUuNS0uNWMuMjcgMCAuNS4yMi41LjV6bTIgMGMwIC4yOC0uMjIuNS0uNS41LS4yNyAwLS41LS4yMi0uNS0uNXMuMjMtLjUuNS0uNWMuMjggMCAuNS4yMi41LjV6bTIgMGMwIC4yOC0uMi41LS41LjUtLjI3IDAtLjUtLjIyLS41LS41cy4yMy0uNS41LS41Yy4zIDAgLjUuMjIuNS41em0yLjAyIDBjMCAuMjgtLjIzLjUtLjUuNS0uMjggMC0uNS0uMjItLjUtLjVzLjIyLS41LjUtLjVjLjI3IDAgLjUuMjIuNS41em0yIDBjMCAuMjgtLjIyLjUtLjUuNS0uMjcgMC0uNS0uMjItLjUtLjVzLjIzLS41LjUtLjVjLjI4IDAgLjUuMjIuNS41em0yIDBjMCAuMjgtLjIuNS0uNS41LS4yNiAwLS41LS4yMi0uNS0uNXMuMjQtLjUuNS0uNWMuMyAwIC41LjIyLjUuNXptMi4wMiAwYzAgLjI4LS4yMi41LS41LjVzLS41LS4yMi0uNS0uNS4yMi0uNS41LS41LjUuMjIuNS41em0yIDBjMCAuMjgtLjIyLjUtLjUuNS0uMjcgMC0uNS0uMjItLjUtLjVzLjIzLS41LjUtLjVjLjI4IDAgLjUuMjIuNS41em0yIDBjMCAuMjgtLjIuNS0uNS41LS4yNiAwLS41LS4yMi0uNS0uNXMuMjQtLjUuNS0uNWMuMyAwIC41LjIyLjUuNXptMi4wMiAwYzAgLjI4LS4yMi41LS41LjUtLjI3IDAtLjUtLjIyLS41LS41cy4yMy0uNS41LS41Yy4yOCAwIC41LjIyLjUuNXptMiAwYzAgLjI4LS4yLjUtLjUuNS0uMjcgMC0uNS0uMjItLjUtLjVzLjIzLS41LjUtLjVjLjMgMCAuNS4yMi41LjV6bTIuMDIgMGMwIC4yOC0uMjMuNS0uNS41LS4yOCAwLS41LS4yMi0uNS0uNXMuMjItLjUuNS0uNWMuMjcgMCAuNS4yMi41LjV6bTIgMGMwIC4yOC0uMjIuNS0uNS41LS4yNyAwLS41LS4yMi0uNS0uNXMuMjMtLjUuNS0uNWMuMjggMCAuNS4yMi41LjV6bTIgMGMwIC4yOC0uMi41LS41LjUtLjI2IDAtLjUtLjIyLS41LS41cy4yNC0uNS41LS41Yy4zIDAgLjUuMjIuNS41em0yLjAyIDBjMCAuMjgtLjIzLjUtLjUuNS0uMjggMC0uNS0uMjItLjUtLjVzLjIyLS41LjUtLjVjLjI3IDAgLjUuMjIuNS41em0yIDBjMCAuMjgtLjIyLjUtLjUuNS0uMjcgMC0uNS0uMjItLjUtLjVzLjIzLS41LjUtLjVjLjI4IDAgLjUuMjIuNS41em0yIDBjMCAuMjgtLjIuNS0uNS41LS4yNiAwLS41LS4yMi0uNS0uNXMuMjQtLjUuNS0uNWMuMyAwIC41LjIyLjUuNXptMi4wMiAwYzAgLjI4LS4yMi41LS41LjVzLS41LS4yMi0uNS0uNS4yMi0uNS41LS41LjUuMjIuNS41em0yIDBjMCAuMjgtLjIyLjUtLjUuNS0uMjcgMC0uNS0uMjItLjUtLjVzLjIzLS41LjUtLjVjLjI4IDAgLjUuMjIuNS41em0yIDBjMCAuMjgtLjIuNS0uNS41LS4yNiAwLS41LS4yMi0uNS0uNXMuMjQtLjUuNS0uNWMuMyAwIC41LjIyLjUuNXptMi4wMiAwYzAgLjI4LS4yMi41LS41LjUtLjI3IDAtLjUtLjIyLS41LS41cy4yMy0uNS41LS41Yy4yOCAwIC41LjIyLjUuNXptMiAwYzAgLjI4LS4yLjUtLjUuNS0uMjcgMC0uNS0uMjItLjUtLjVzLjIzLS41LjUtLjVjLjMgMCAuNS4yMi41LjV6bTIuMDIgMGMwIC4yOC0uMjMuNS0uNS41LS4yOCAwLS41LS4yMi0uNS0uNXMuMjItLjUuNS0uNWMuMjcgMCAuNS4yMi41LjV6bTIgMGMwIC4yOC0uMjIuNS0uNS41LS4yNyAwLS41LS4yMi0uNS0uNXMuMjMtLjUuNS0uNWMuMjggMCAuNS4yMi41LjV6bTIgMGMwIC4yOC0uMi41LS41LjUtLjI2IDAtLjUtLjIyLS41LS41cy4yNC0uNS41LS41Yy4zIDAgLjUuMjIuNS41em0yLjAyIDBjMCAuMjgtLjIyLjUtLjUuNXMtLjUtLjIyLS41LS41LjIyLS41LjUtLjUuNS4yMi41LjV6bTIgMGMwIC4yOC0uMjIuNS0uNS41LS4yNyAwLS41LS4yMi0uNS0uNXMuMjMtLjUuNS0uNWMuMjggMCAuNS4yMi41LjV6bTIgMGMwIC4yOC0uMi41LS41LjUtLjI2IDAtLjUtLjIyLS41LS41cy4yNC0uNS41LS41Yy4zIDAgLjUuMjIuNS41em0yLjAyIDBjMCAuMjgtLjIyLjUtLjUuNS0uMjcgMC0uNS0uMjItLjUtLjVzLjIzLS41LjUtLjVjLjI4IDAgLjUuMjIuNS41em0yIDBjMCAuMjgtLjIyLjUtLjUuNS0uMjcgMC0uNS0uMjItLjUtLjVzLjIzLS41LjUtLjVjLjI4IDAgLjUuMjIuNS41em0yLjAyIDBjMCAuMjgtLjIzLjUtLjUuNS0uMjggMC0uNS0uMjItLjUtLjVzLjIyLS41LjUtLjVjLjI3IDAgLjUuMjIuNS41em0yIDBjMCAuMjgtLjIyLjUtLjUuNS0uMjcgMC0uNS0uMjItLjUtLjVzLjIzLS41LjUtLjVjLjI4IDAgLjUuMjIuNS41em0yIDBjMCAuMjgtLjIuNS0uNS41LS4yNyAwLS41LS4yMi0uNS0uNXMuMjMtLjUuNS0uNWMuMyAwIC41LjIyLjUuNXptMi4wMiAwYzAgLjI4LS4yMi41LS41LjVzLS41LS4yMi0uNS0uNS4yMi0uNS41LS41LjUuMjIuNS41em0yIDBjMCAuMjgtLjIyLjUtLjUuNS0uMjcgMC0uNS0uMjItLjUtLjVzLjIzLS41LjUtLjVjLjI4IDAgLjUuMjIuNS41em0yIDBjMCAuMjgtLjIuNS0uNS41LS4yNiAwLS41LS4yMi0uNS0uNXMuMjQtLjUuNS0uNWMuMyAwIC41LjIyLjUuNXptMi4wMiAwYzAgLjI4LS4yMi41LS41LjVzLS41LS4yMi0uNS0uNS4yMi0uNS41LS41LjUuMjIuNS41em0yIDBjMCAuMjgtLjIyLjUtLjUuNS0uMjcgMC0uNS0uMjItLjUtLjVzLjIzLS41LjUtLjVjLjI4IDAgLjUuMjIuNS41em0yLjAyIDBjMCAuMjgtLjIzLjUtLjUuNS0uMjggMC0uNS0uMjItLjUtLjVzLjIyLS41LjUtLjVjLjI3IDAgLjUuMjIuNS41em0yIDBjMCAuMjgtLjIyLjUtLjUuNS0uMjcgMC0uNS0uMjItLjUtLjVzLjIzLS41LjUtLjVjLjI4IDAgLjUuMjIuNS41em0yIDBjMCAuMjgtLjIuNS0uNS41LS4yNyAwLS41LS4yMi0uNS0uNXMuMjMtLjUuNS0uNWMuMyAwIC41LjIyLjUuNXptMi4wMiAwYzAgLjI4LS4yMy41LS41LjUtLjI4IDAtLjUtLjIyLS41LS41cy4yMi0uNS41LS41Yy4yNyAwIC41LjIyLjUuNXptMiAwYzAgLjI4LS4yMi41LS41LjUtLjI3IDAtLjUtLjIyLS41LS41cy4yMy0uNS41LS41Yy4yOCAwIC41LjIyLjUuNXptMiAwYzAgLjI4LS4yLjUtLjUuNS0uMjYgMC0uNS0uMjItLjUtLjVzLjI0LS41LjUtLjVjLjMgMCAuNS4yMi41LjV6bTIuMDIgMGMwIC4yOC0uMjIuNS0uNS41cy0uNS0uMjItLjUtLjUuMjItLjUuNS0uNS41LjIyLjUuNXptMiAwYzAgLjI4LS4yMi41LS41LjUtLjI3IDAtLjUtLjIyLS41LS41cy4yMy0uNS41LS41Yy4yOCAwIC41LjIyLjUuNXptMiAwYzAgLjI4LS4yLjUtLjUuNS0uMjYgMC0uNS0uMjItLjUtLjVzLjI0LS41LjUtLjVjLjMgMCAuNS4yMi41LjV6bTIuMDIgMGMwIC4yOC0uMjIuNS0uNS41LS4yNyAwLS41LS4yMi0uNS0uNXMuMjMtLjUuNS0uNWMuMjggMCAuNS4yMi41LjV6bTIgMGMwIC4yOC0uMi41LS41LjUtLjI3IDAtLjUtLjIyLS41LS41cy4yMy0uNS41LS41Yy4zIDAgLjUuMjIuNS41em0yLjAyIDBjMCAuMjgtLjIzLjUtLjUuNS0uMjggMC0uNS0uMjItLjUtLjVzLjIyLS41LjUtLjVjLjI3IDAgLjUuMjIuNS41em0yIDBjMCAuMjgtLjIyLjUtLjUuNS0uMjcgMC0uNS0uMjItLjUtLjVzLjIzLS41LjUtLjVjLjI4IDAgLjUuMjIuNS41em0yIDBjMCAuMjgtLjIuNS0uNS41LS4yNiAwLS41LS4yMi0uNS0uNXMuMjQtLjUuNS0uNWMuMyAwIC41LjIyLjUuNXptMi4wMiAwYzAgLjI4LS4yMi41LS41LjVzLS41LS4yMi0uNS0uNS4yMi0uNS41LS41LjUuMjIuNS41em0yIDBjMCAuMjgtLjIyLjUtLjUuNS0uMjcgMC0uNS0uMjItLjUtLjVzLjIzLS41LjUtLjVjLjI4IDAgLjUuMjIuNS41em0yIDBjMCAuMjgtLjIuNS0uNS41LS4yNiAwLS41LS4yMi0uNS0uNXMuMjQtLjUuNS0uNWMuMyAwIC41LjIyLjUuNXptMi4wMiAwYzAgLjI4LS4yMi41LS41LjVzLS41LS4yMi0uNS0uNS4yMi0uNS41LS41LjUuMjIuNS41em0yIDBjMCAuMjgtLjIyLjUtLjUuNS0uMjcgMC0uNS0uMjItLjUtLjVzLjIzLS41LjUtLjVjLjI4IDAgLjUuMjIuNS41em0yLjAyIDBjMCAuMjgtLjIzLjUtLjUuNS0uMjggMC0uNS0uMjItLjUtLjVzLjIyLS41LjUtLjVjLjI3IDAgLjUuMjIuNS41eiIvPjxwYXRoIGZpbGw9IiMzYTQxNGEiIHN0cm9rZS13aWR0aD0iLjA1IiBzdHJva2U9IiMzYTQxNGEiIGQ9Ik0yNDAwLjUgNzcwLjQ4aC0uNXYtLjk2aC41ek0yNTU5LjU4IDc3MC40OGgtLjV2LS45NmguNXoiLz48cGF0aCBmaWxsPSJub25lIiBkPSJNMTA4MC05NGE2IDYgMCAwIDEgNi02aDgwOGE2IDYgMCAwIDEgNiA2VjM0YTYgNiAwIDAgMS02IDZoLTgwOGE2IDYgMCAwIDEtNi02eiIvPjxnPjx1c2UgdHJhbnNmb3JtPSJtYXRyaXgoMSwwLDAsMSwxMDgwLC0xMDApIHRyYW5zbGF0ZSgzMS44NTE4NTE4NTE4NTE4NDggNDguNjY2NjY2NjY2NjY2NjcpIiB4bGluazpocmVmPSIjWiIvPjx1c2UgdHJhbnNmb3JtPSJtYXRyaXgoMSwwLDAsMSwxMDgwLC0xMDApIHRyYW5zbGF0ZSgyMzMuMTg1MTg1MTg1MTg1MiA0OC42NjY2NjY2NjY2NjY2NykiIHhsaW5rOmhyZWY9IiNhYSIvPjx1c2UgdHJhbnNmb3JtPSJtYXRyaXgoMSwwLDAsMSwxMDgwLC0xMDApIHRyYW5zbGF0ZSg1NTEuNDA3NDA3NDA3NDA3NCA0OC42NjY2NjY2NjY2NjY2NykiIHhsaW5rOmhyZWY9IiNhYiIvPjx1c2UgdHJhbnNmb3JtPSJtYXRyaXgoMSwwLDAsMSwxMDgwLC0xMDApIHRyYW5zbGF0ZSg2MDcuNTU1NTU1NTU1NTU1NSA0OC42NjY2NjY2NjY2NjY2NykiIHhsaW5rOmhyZWY9IiNhYyIvPjx1c2UgdHJhbnNmb3JtPSJtYXRyaXgoMSwwLDAsMSwxMDgwLC0xMDApIHRyYW5zbGF0ZSgzNDYuMzcwMzcwMzcwMzcwNCAxMTIuNjY2NjY2NjY2NjY2NjcpIiB4bGluazpocmVmPSIjYWQiLz48L2c+PGRlZnM+PGltYWdlIHByZXNlcnZlQXNwZWN0UmF0aW89Im5vbmUiIHhsaW5rOmhyZWY9ImRhdGE6aW1hZ2UvcG5nO2Jhc2U2NCxpVkJPUncwS0dnb0FBQUFOU1VoRVVnQUFBS1FBQUFDcENBWUFBQUNsSzVhZkFBQUFBWE5TUjBJQXJzNGM2UUFBQUVSbFdFbG1UVTBBS2dBQUFBZ0FBWWRwQUFRQUFBQUJBQUFBR2dBQUFBQUFBNkFCQUFNQUFBQUJBQUVBQUtBQ0FBUUFBQUFCQUFBQXBLQURBQVFBQUFBQkFBQUFxUUFBQUFEWjlGdzNBQUJBQUVsRVFWUjRBZXk5QjRDZFYzbm5mYVkzbFZIdjBveDZseVZidG5IRE5zYkFCd1Q0Z0lRVUZrSVNrckM3bEd3cW14QkI5a3Y1Z0NSQXdySWhKQ1FiQWdHTUlUWXU0TGpoYmxrdXNxMnVVZTlscE9uMTd1LzNuUHVPeHNKSlNJTEJzQnhwN24zdlcwNTV6djg4N1R6bnZCWHBSK2xGUTRFLy9GOWZISC9nNE43Mkw5OXdReXFWS3RMLysyT3ZTdGVzVzFyOTR6Lys0ME12bWtxK3dCV3BmSUh6LzFIMjN3RUZ2djZ0alplc3V1NE5wYnNlZnJUOTdGQmRhbGw5ZVZxMi9xbzAxRFExL2ViSFBqdjRvVTk4cHZRZFpQTkRjVXZWRDBVcmZvQWJjY0cxcjI3YmY3cnZWNnVheHFmTzNxRjA2dVNKVkY4NW1Fb1ZGZW5nMFdPcHZtbGlHanQyUWpyZW16YTg5ZTF2dS9xUmUrLzhteC9nNXY2clZmOFJoL3hYU2ZUQzNQQ0gvK3R6cCtlc3U3cTA3ckpYdE93L2VEejFkdldscXRKd0FvbHBvRlNkQmdlSFUwMUZWYXFycmtxYnQrNUljeGF0U0dObUxicDZ5dG9yU3JmYzh0QzRGNlpXMy85Y2Z3VEk3M0VmdlBNMy9uQjhZK3U2VXNkUWJmT01oUmVrN2J2YlVtMXR6VWd0S2lwS3FRTHVPRndhUW8vTXgzRnhhRERkYy9lRGFlMkZMMDBmL29jYnpxeC8xZXRMZjN2NzdVMGpELzZRSEZUOGtMVGpCNklaMS8zNHo1WnFKODVPN1IxblUxVmxmU29ORFFDOFVxb0VnRU9EZzZtcXVucWtIY053eThwRTkzQ05qd0RuVUNtTDhqa3pacVJGQytha3YvdnNaOU9hMWN2ZWUvTm5QdjZ4a1FkL3dBOStCTWp2UVFlKzdNMC8yMU14WmxKOXc1Z0o2ZVR4RTJsd2VERFZWdGNBeWhSQUxDR2E1WXBpRDN3K2h6TldjZFBRa0tLOGxCYTJ6azR6cGsxTDgrY3ZTR1BxcXRBdHg2WS8rcE0vU1R0MzdVcnYrazl2dWZsMzN2TUxyLzBlTk9jRkxlSkhnSHdCeVh2RFhadE8vL0o3MzlmOG1qZTlKZTNZc1RkVnd1RUUxeEQ2WVhWOVBTQWJUc09EQXdGR3F4SEFRMlJYVldKclZpSEc0YUJEWEgvNTlTOVBUenl4S2IzcE5hOUtBLzM5bWFNQzBGb1k2dGk2MmxRNWJrcjYrWjk3SnpwblR6cjA1UDAvMEgzNkl5djdCUUNrZXVKVCs0NzFOczlhWE44UGN6dHg1TGhDTnppZnhWVldncG5ob2RRL01KaXE0WUNGcmxoQ2I2eXBxVTJseXVyVTE5T1JwazZjbEhwN3U5UDFWMStlV21mTkFLaHd5MkZFT2F4VVA5QXdIMzBEdzJtZ3R5UDl6RnZlbkJZdlc1V2UySDlxdy9VLzlyb05XemMrK01FWG9Ha3ZlSlkvMEtQcEJhZk92N0dBVzNic3FQdXJEMyt5dHlzMXBpRzRYTWVaemxRRmhSWEhjcm9Lem5sY0FMREl2bFJWblNvd1dvYmdpSlZWVmFtaHJpN05CWUNMRmk1TWt5YzJwMnFBT0J4QUxKNFFqQUNjbnpVMVZYRFo0VlRIZHdMSUU1dkhwWTkrNHMvU3c1dWZUUC85WGIvNHhHKzg4NmZYbm52cXhYLzBJMEIrbC9yb2tsZTkrYTdobXZxclo3WXNTMGVQSEFNbzFRQVBrUXdia3lNT0QvRU5PZ1dqU1E5UDhWdVE1cE45YWM2YzFyUmtZV3VhUDNOQ0dpelZCdkNxeWh6UmU0STdsdlB3OTVESHc5V3BxbW9vZE5CaE9HOVRZMU5xYkt4UGYvQ3hUNmI5TzdlbVQzN3NZM2UvOW9wVjEzai9pejM5U0dUL0Izdm9EejcxdWQvWXZQUEFmVzk2Nnp0YjJnNmRURDE5L2FrQ2JsWmIxUTlZRU1jQXNvUVJVNFUvVVRDS0g4K0puZ0FxMTJwcWF0S2w2eTlNWjA2ZlRLKysvcnJVcEY1WWhlZ2VIdUErOHFDT0FySGdIZ1dBL2ZZOFdtbmM0eDJWY0dGRi8wQlBlN3IrbW12UzJzdXVTZS84MWZlMDFFK2MvcnQ5eHc5KzhEL1kzQmY4OFI4Qjh0OUo0ZzEvL2RmTlczWWU3NW15Y1BsMXBicm0xTGE3TFZVQUJIVkRnVE00TERDd1Rhb3hwVG1vUU93S0lQOEVwT2NGYVBPRUNXa0lIZkNWcjNoRldqQnZYcW9ZN0VIeThpeEFUS1VhQU1hWC93Qm5CZWRnckNQQURMRnQzclYxcWE2eWxBYmd3cGtEb3lLa210VFYwNXRxSy9yVFQ3MytEV25hdExrVjIwOTBiWGpITDc5bnd5TjMzZnFoZjJlelgvREhpa0gzZ2hmMHcxVEE2OS81M3RLcFU1MXBWdXZpdFAvZ2taR21DWVlBWFBuYkM4TkRPcmdCWXBWOHJncU9KajVMcWFGMk1DMWZ1am8xanh1VDVzNmV4Ymw4dnNJYlNHRzJBTURnZ0Z3c3Z2TzFNc2NVM0Q0b1VORkQwMEJmUEZ2Y3F4Rmtxc1J5Ynh6VG5Cb2E2dE9IL3NjSDA3YTJYYW0xWmQ3Vmo5LzArWHZpaGhmUlIyNzlpNmhDTCthcXZQVjl2N3QveDc2anMyZE5uWklPblRxVHFtc2JBbkI0dUVObkhNQnFmaTRnQldFbWNUVmNiMkFBVVRyUW0xWXNYcEJhNTdXa0tUTW5ZU1pyTmV2bHFZSERsa0puTkQ4TkZPSGtuTFlBR3h3Y0NpczdBRXUydzNCTmM3YUVWSWxQRTVlU3FYQzB4dzgrSEF5Vmc1MnB2NkkrVklPR01VMzRNR3ZTYi85L3Y1OE9IVHlZM3YzV3Q4Lys3Vjk1MjhIaS91LzNkeDVDMys5YXZNakwvOFlEajdYVnoxcFJtcjlzeld3Y2lPbm8yVzZNQ0l3V3JHSTFPSFZCQWFNQm96Z1dsRG5sNzJFczZMNWVnTGgwVWFxSFUxNjBibTJhTm1WeXFrSEhMRFBFdUgxWWlQRnNCVDdJQURhQ2Q4aDg1WkM0aDBKRWM2ZGdOT1hQbEtxOWozdjhxNFFyK2owNENNY2tyeExjY2JDNk1WWFcxdlA4Y09ydDdFd25UcDVPSDN6ZmYwa2YvOGhIMDhjKyszY0hacTI5c3NncTh2MStmdnhJaC93WHFQLzEremZOZTNEYjN2YWhxdWJtSWJqaHZ2MkhVZ09jVHBkT05lNlpvUkRIY2pVZ290VU11dVJnaGVpdTRoN3RsL0hqR2xNRGp2Q1hYM2QxV3Jsc0djL0s5UkRsR0Q5aXQwSzNqK0FCdU9xSnduZ0lmVkM5VTZSa2tNTkZ6ZHZmQUs1RTJlR1h4TkVPRTR4VWlHcC9WRlE2OWFpNHBrNThvNVhHYzRMYTMycVpBdnVuM3Z5RzFOMWZTa2NIS3phODUxZC9jOE8zYnIvcGcxeit2cVZ5VTc1djViOW9DMzdEejc2N2RLWm5NRFZQbVpxT25UaFRCbzFXTStKMHFEOVY0L2NUa0lOd3VUQllRRXJNUHdPb0FwQUdUY3lZTWpFdFdiSWtUWmt3RVgvaVlCb1lWQjhFSU14YmgvNFg4TWhjTlg0RElMbGNITXR4UmF4SklBbjRNc0Q0S2FweUt2K0ljcjNIUzhWem8yOHIzKzVYUHlLK2huSXE1TktJOENsTVEzN3NVMytSbm5wOFU3cjJ1cXMrK1BkLy9EODJlTi8zT2hWTitsNlgrNkl0NzQ4LzgzZHRuL3JjMTFvdXVmeXlkR0Rmb2REN29xUExIZnljWXppTWZqOTZQOVZVMWFYcWF2Z09JTzN2T1p1dXZlYmFkUGJzMmJSMDZVS1FDa2VGMGxWd3h1RWh3VFlJNk9vQU1OT0E2SXJEUTlrWUNiQUJFaEJQbnFvRVdPeHlXUUl2S2dGd0JXeDRhSmlNMERFakVJTnlDNjVvY0laT2RaM296NWVHeUk4aEZNQldwQmUrVFovUHFTTFYxMkowMVRlbVgvM3QvNTd3NnFlLy9QT1B2dmY2eXk3Nm5nWnVGTFY1dmpiOFgzZHU0c0xWcFY5ODkvdlRmWTgrRGhEa2huQ293ZjducFlQejBlSFNLVit0cU1adk9OaVhWaXhibWg1OTlKSDA4Ny93QzhReVZrVEhEL1pud1BuTTZPVHpvL01SZUNiQlp5cUFPRFF3RUViUDZNRVFOM2lQRHZjS25zT3dNWVY0bHdXVGlxbkcrTUZIQWRaQlZJWG5PNjRtbno1bmZjWk1URDA5bmVuOUg5aVE1bUo0UFhiekY3NW5PUG1lRlZRUTVjWDIvZkZiYnFuN2k0OThxbmYxQld2UzNzT2RZWmdZWVdNU0xJcEpkY1BSU1dDVUpTMkFHOGFBU0ttdXZqYk5takU5WFhMaEJZaENSU3Uzd0xFR0FRd1Rodm4rVVpsVVZqZ0xVd2E3SEE4cmUzaklxY1hCUEx1am5zbjlCWVNIMFJVMWJFSVVVNzRTMjFUVVRKMVRnQmNjVXc0WVJsWnhRNzQ5QmtnODUzWHk4YkxmZ25kUUxncjM5cHgvNHlkTVNuLzU2VDlQVzdkdVNULzF4amNkK05Ddi9kSWNuMzBoMDNuVmZTR0xldkhsL2U0UC9FSHA0Y2UzcEJuekY2ZWpKOXJwYkxwL0lIY3NySVpPVng5aitrL1hDYnFoZ1EwQk5ENDBTQWpmU1RWd3htbVRKNmFXT1ROU3k5eDVBUmg0Szk5WXZZaHF6UkRuVWFycGJMdTVoREdUdFR3ZDU1a2pac3BvSVNPK1VRRmlTbEZyaU9jWUVTRm1IUmlDTW1aOHVFZDNqcFd4ZnQ2VERTUUFXUjQ4enRZd0loRHpQRDZxbDBORWM3OTFGSWdGZ0wxRlg2WnRycFQ3VnpudE9jdzBaRjJxSHpjcGZlU1BQNUwyYnQrYTN2MnVkMjc0YnovM2t4L01kZjd1ZjQ2cTZuYy84eGRyanUvNGI3LzkrWHNmM3ZpV3E2LzdzZlRNbG0xSXU5cFVNOXlOdU1LZkI1ZUpqaWZBb1VSQXhMY2xPck4vcUJldVY1V3V1dXlTZFBya3NiUjY1YXE0TFhQR1dvN2xrQUpKbHcyR0RMcGdEUnlQN2djKzZKdUlja1Z0VGpvNkFNL3pKWHBIZ0JYejRDSEM0Ym9hVVNaQkNLYUNpK2NUT1o4S2dDMFhEeTRaRi9KSG5PTlpnV2dTakFGUWprT01NMWdHUzlSbkdQR3ZCcUIrekwxMU5SWDgxY0hGYTlNdi85cHZwYnJlazJuL1V3KzlJTmpKTGJOMi94ZWt1eDV2YTI2WXQ2bzBZOEdxdDB5WnN5UnQzYjRUZ3RPaEVINHdRWERBYUZJMEZtRFU0aDJkN09SVkN4YWxNOGNQWWowdlNxdFdySXpMTmM2VXdKRUVYSUNSYjNpTTJBd3dCcmZpMldxQWFqK2ZTeG9vUmJuUDdXUDVYMmtvbnd0UXFsdVNoMGwxUWtBV1lqd2JSQmcrZ05Ia2J3MnNZcmFtT0RlSVBqbzZ5ZlZOb1ZOVzRQLzB1Sm9LTXNjdUY2MW1RSkJONnU3dFMrM3RaOUtuLy9TajZYM3YvOTAwODZMclNsZTk2WjNGcUlvOHZoc2Z6NlhBZHlQSEYyRWVEMjNlUGUxOXYvT0JJM1VONDFIWUo2UStBaUNNeE5HWlhhU1J5T3p5aWREVnlzZHlGaVhoRUFaT1MrdjhkT0dGSzFJdDdtaFQ1b1FJdXJLalhFdlhqcXdBbkFaVkZBQUpaR29sQjUvTW9sYU9LZC9rcHN5WkZkUE9nVE04d2hHT2lBYkM1QzFvRUxFaWcyY1U2WkdvbDl6Y2ErcWdna2lFUkpuTWZYTTJ4RzYydm5YZVcwK2U1YmxDNTNTQWpiYTZDNzFTem1sZS9oYXNXVzkyNERBTmliNWMzVGd1L2Rrbi9qenQyUFpFK3ZBZmZqajk1UFdYZkZldzlGM0poRnErYU5NcmYvcVgvdnBFWisvYmx5eFpsbmJqMks0Q0tPZW5Ja1JNRUtvMythMjFhbEx5cHRKQVdyeDRDUkhaS1YyQWVNNzZXVnoxanVpc0FEQ2RwL082a01ZQ1U3aFVxVCtxbnhyOXd6OTVKNFZ3UlZDckR3cGdEcmtTbjN4eEtpZEFYSWhvVDhSVUlFMDRkMTJRRnM4QmNFY09xa0lCZGtzclVnRXlMa1lTY25HZFc3d3IyaDExY2NDY1M5NWUvQmE4RlhEcXF1SCsxTmhRbDJwcW05THYvOUdIMDRIRGg5TFZWNjIvK3ZOLzhnZjNuSHZ5MzM1VWxQTnZmL0pGL3NRbi8vWkxULzdXUnorMSttMXZmVnQ2OUtIN1lDeU42RWNEb1FzSkFPZVdYVEpRV0srZVV5d0tqR3hBbEZML1lHKzY3dXFyMHI3REI5T2xhOWZJbTBaYUxlSGtIQU5sa2VlRkVOdDhxek9hbE1SMnVJQ3ZvUlA3dWJjMkJrUVprSlJaUm1MY0h5aWpBcUV5WUhFVHY1UFBQK2ZUa2pPaXNqYVI4eGVFdW9zS3QwOGVJQm9tUlh1NFhsWS9ZZ1pJWU9WUkVPMVFoK1JoYng0cFRlNXBra3RhWXVpazFoazZsaER2cWlHMVRJV09aMzFQZi9YWTlLNzN2anVOWTlUdWV1U08vR0E4L1cvNytIWjI4Vzk3L2tWNWQvUENDMHNMVmw4eXJaUDU0eFBIVHdPanFsVERiSVN6S2dWaEJ3ZDBTbXZwUW1pUW8wNFc2MXpnV0hhVVZ2UHBNMmNaOVM5SnM1bXR5VHdqMDdtaWpud0FyM201V011T2xyTjZScDB0R3cwY015Y2QrYU9URHVBYnFrV3NEOURwTWNVb3p5bDNlQkF4ck9JTWhoQ1BkUHBvY0JTRXJnUUk4dDJzZDhxZDg1VXFBb0lqVVE5RnRDbUwrUHpiT3ViaWRPSUw5bk1wMTVmZm8rcmpZQXRSem5kaC9Bd0IxbXJ1R2E2cTV4c2VYT3BsUUZhbTNzcGFRdWk2MHB2ZitNWlVNMkZLMm4raVk4TzFyN3grdzdZbk5uN3dYQ25mMmRHL0c4bmZXZmJmMjd2ZTlwOS9yZlRFN3VOcFRtdHI2dTd1UVZmc2V3N0hpSTR1VjZrRWR3eVFva2NXZ0tvak1MYTd1eU90WExJMHpaNDdKMDJhMEV3bndlMzRuM1hFMFc2YWNrYm9aTWJsaEhHZzNpaVg4VS9BQVhpc0kxZ25zeUFBYVhnUXJseGlRd0JtYVFhdzFBdU9Hamxwa2ZQTUlOelY4dzRLMTlzTU9iT0RUbmwrVW84TVEwY01sNEdrenBwRmVwblBpRllCNUN3TzNETTZXM0UrU20yUjZ3bk9rQkJsTUF0R09hWkE5Qm5yVXRCT2tOWTR3S0NmYy9MNldUVjhVR0pwNm1BYU43WStkUXhVcEYvL25RK2tpcTR6NlEydmYrMFZuL3E5WDcvLy9Qci9jNzkvS0Rqa2Y5M3cvN2QxVkkzNzA3bkwxckhtdVN2MTk3TmFqNDZWa0lyZjNDLzVXKzdrN3hDTEhOaXB3WEhnR2tzV0xVaU51SHZXcmwyYjZzdEdRb2hwRFFHTkI2azFtclhZV2Z3V1NISy9JWU1qdUtHYVo3MnRob3ZScFJvcVdxMXdHTThQT2hkT1JQZ0EwVUt4d3BCencxNERMREJmQmtnRHg4eWEwQWI0TFlVSUp2MHdxZ0xtUUgxb1d4d0NmZzlESCtVZ0FHWUQrY3Y2cE8zVnIxaHdSUXFJKzgyS2xnTzhtSXNQV21sa1pSRnRQaDRMd0lLRE9zeENEeVY3YVN1TnE1RXVESnZVdzVUbXJiZC9NeDA2ZWp6ZGZkK0RxWUd0WVdhM0xFd1RKMDk5eDRGVDdScysrckUvYjcvNXk1OS9tQ3oreGZRRERjZ2YrL1ZmSDN1a2ZiQnYrWVdYTjUvcUdNQW5lSklPMWRtU1JaOHRkMlJuRU9idjg2bWg2RnQvRWNzSGpoMU9WK0pYbkRsakdxSW9HeWZSMHhBK09qNHlPLy9wOG04NGlpRm1SZEtnQ0s1QlBscmhsUUJxaUh4VUUwNmVQSk8yN3RxVmR1N1prNDRkUHg3QkZoTlp5Q1d3NWJXV1dWR2hoV3hIWjFCa0ZpMFFTWEpmOHJSTzN1OXdraXRtenN5WWlib0FYTXJtZndZYjV3UzR3eU9lczAybUtFdE95K0RsSHMvbVVzeTFPUGJHbkFTajRPeGxLYTVEcGJhK0t0WGp1Zmo0bi8wSkZueGxPbkR3VURwMjhpenoveTdMWU1BeFpYcjgrS25VM0R3OTFUUTJ2UEpZZThjdnRSL2E4OUVpditmNy9vRUY1TFNMcmk1ZGVmSDF2OVdQOG4vbzhGR212SVpTTFNKWDF3ZjhZS1N0am1SVDhWMWNrR05KTkpuZk5WZGNscFl2V1FrVFpOVmZkSjdjUloycjNISEZROFgzK2FmdGVWSWxZc3ZvYkFlQkl0ek9xMUdVMFgwMTdGVHh3R01iVTJkM0YrS3dsTWF3N0tBYXJ0cUxXckgvMEJFa1htV3FKMFN0dWhEN2dJN3VwK0swUlFDYWYraVBsRVZiOHpuMVE4R1d5L2VlZk14dm5uT3cyUVJGdHJlb1d3NmpvampiVXdGQVhRV3BoUEIzUEV1OWd2TUJxQmpJWWJpTXlqdnVTcW1wcVlsQk81enVlV0FqWTZVcUhVQlBQM2prQ055VS9LQmI2Sjl3L3hxWWcvVW80V0U0ZXV4VXV2eXFhOFljUGQyeDRUVS8rZFB2M2Z6UXQvNm9uTjF6dnM3MTNITk92emgvUUtTS2dUR1RTd05qcG0xWXNmcVN0S050WDNDaWlEdGtsRXYwaUlhaEV6S1d6aUduNkRRSmJoOWZ0bjV0aElSZCtwSkwwbUJmTDJ1a3V3T0V0dHg3QnBpdHFOUlZBNXllQTB5ZVZZQ1d2VUxQSVpSY0Nyc0pCT1E4dktqdWR0OURqNlJEeDQ1bGNjcXpvWHNCV05DZlNvS0Q4am83dTlPZXZYdlRUSmEvYWp6SXBjK1ZTenY0bmQxTk5rNE9tWUZTL2pwWEQrcGdtVTVCa2tQOEMrN3BIZDVzKy8yamt2NE00SlVIb1pMRWdHQndDM2psMXBRNVZJMkhRTHBtbmRKc0hFUmZ1dm0yZFBaTWUzcDIyNDdJY3d6Z0g4WXBIeXFJZFBBUGI2MFJUdmdOS0dnNEhZWnhORTJaU1lEeSt2ck4yM2R2K01Tbi9tTHJUVi82L0RQbVdhUnpQVmFjZVpGK3YvS24zdkc3bTdmczJYRDlhMStmdHU5b0MySXFRa3dTMWU0cFJQTzVqb1JXZEl5RTRpN3VHNElUTGs1ZFhWM3BFZ0NwVDBSeStYUjBqSVFyVTBST0NmUGdUQVpHUlA2VWowZnlEMkFJMnVjbXhhYmM1NWxudHFXTzdyTUF3RUNLSVRyaUF2b1lZMHBPUloyUElyTDN3QjJiNmh2Q21Jbm5LTVAxMlN0WEVjanJYSGdBU0VDb0UrYzFPWFp1Z00zMmMxd2t5NHlCUjk1RnRKTFg4Z1pXVXNEN3BaUkpZT1pyd2NYTW4zK1pJcDdQZEpITHFUNDRuNitoYytzZGQ4QlJHMWpxZTRqQlY4Y1QwRTdPcW1GelhvcCtvVGlZT0hkWm90K2wxTHBvRVFOdUtCM2MwNWIyN253NmZmajNQdlNicjMvWlM0Smp2dWc1NU45ODhhWlozM3EyN2V5clh2ZVdxOXQ3QjlJcDFySlVFdENnR0NxU1FDdEVySVNVZTBuc0ljUnl6T3VpMzYxYnVUenRPM1F3dmV6S3k5S01xZXFKQWhpNGVUUC9RK2t2SDBjZUdERkYxRThHaFIyWS80cHlNNW5QL2ZMSVR1aGpldTd1K3gvQ3pZVFNqL0hpWGo2eW5ZTUhqeVUzaXFvaVZHeFF4M0pqQStGZDA5TXh1S2NjU1N0VmZGbW40NmQ3MCtFakI5T1VxWk9GUStyRFVLdFZ0Tm93NjJGaEhrZnlITDFPUTdMeG8zSGxuTG9pSGNpWVp6bkNRc01xREQzYmFpNzhMaGFpQlEyUU5MVkdIbEUvQjd3U3A3cXVQbjM2Yi84cWRlT0pPb3pSMHRuUlRVbHc4VElJcFVzTWFBY3g3clBNYVMzYnZEV0tCSFVwdmVRbGw2YXZmZlhHMU5IWm0rcFFXUjU3NHZGMDVYV3ZTSC8wOFU5ZXQyYmRSVXNQN1h6MmhoYzFJRnZZQzdHanN1cFhHaWZNWlBQT2s0Q3diSlhhUUFqYVVJTytxQVVLSWJJTEpIZFFnQlAvb05ac0pTTy9Ic3Y1ZGErOEpxMWVzUnhGVzJzWGE1VE96ZE51aWllZkwzTWFzN0N2L0tJTXIvMnppWHQxcml1ZUJMZEp2VTJ4MVRKM05wdVBuazY5aUVDWEx5anlhcmwyR1BDZE90dWVwa3laWWdHQnFVbVRKckZUeGJTMERmSFhTT1Iybm42RWt4SnhmZ3d4TjVWN2F4TXhsUVFCUndMb0FpbTNsc29HR0IxZ21kUDdXNGtiZzQyN3JGTSs1bWtqeEFGcHJxOE5SYlRiOU1pc0lyWjNFWkRkREg2Yi91U1dYUmhlQTJrWFVxbjlURGVUQlZTRGV3WGg2S1R6MzNOVnRlcnh1WC9rK0RVQXIyWHV6TFFiSSs3Z29VUE1lQzFsU2NkWTZrSElYa05UT3NTbUNyL3lYOStUYnIzNUt5cy8vTEgvZWM5emN4MWR3dmZ4K0UyLytPdC84dmd6Vzk3N3NwZS9LajJ4WlNzT0QyY0Y3RHhIck1ZSTBkYTZISmpKY0hQUGFCMFU5YnJjcUpJL1B0TTFsMStTOXFPWHJiLzRvaGlobFRoeFRTRks2THdLdUVhWjE4VDVNQkM4RStJT3F6L2ExL1pVZkF0T3dFOFpSVkxmTWhWR2djZTZVUXB3dW52RkFIdnZQTFR4TWJoaFV6akhmZHBvNzM0czBLVUxGN0FNdHRIK3N3Z0dTbFU2ZXZSRU9uTDBDT1ZnSEJENk5kVGJUeWZYcEZXb0dscktEa0J0YTlXQUVvNXBzYVFSaDlaSW04Tk9GeTJjdGU3ZWVVNlN4TW5pb3l4VmxPQktnbDQ0Y0QzMXpSSHcwSlNkckw1NjQ5ZEN2ZWtscHhxYzRSQ2RTb3AwdnN1aTMvNHdWWEZlVU9vRzRnc2E0c0ppYW5FV3U3WGRkTnV0YWRYeTFiaUN4dERHb2RUTDBoQU52Y1l4RGVuQkJ4NU12L0NPZDNDK090MzdUMThkWlk0V0ZmMCtmci8vano2eFljZUo3cnN1dk9TcVM4LzJvV094U1JPelVwQ2FrWWZJczlPY0laQ1pDWlRRRFNHTW5SZk9IcjZsMDZybFN6QjJVbHFCZzN2V0xOWThPM29CbjNxYitZd0dsZmtvVHVMYnZNcS9JMzZSZnZXMy82T1RMWmZPTHNxcVpHRHNiR3RMTzNidnBTNVZqUHp4d1gzbG1OWjJpSEt0ODh6cDA5TFlNV093Tkk4SFdBVnRmVjFqT25rYTYvVFEwVFI5MnRUbzRDckMwc2FNYVV4ejU4eEpPL2J1Qzk5bVhoNmIwcFRKVTZpL2VpUzNrcWZIY25wQlorc1RGbkgrdHJJNVJYd25oejREQlRueVNRZWxNR2FBSVhMVk96T3Y5Um9KcjhCdDMvaG1Pbm1xSXgwNGRvSUh1UTVYMVRvM1NWOUhVSHpIbWZ6aHJGY01hSzRKMHFYTGxxUjc3NzBYRURhbDZWTm1oS0hsa296WS9TMll5WEFhQTBEM1FiK1ZnSFV1WFBRck45MzY0Z0hrakJYclMyc3Z2ZjdxTHZTVUk4ZFBRaVRkRVh4S0VGai9JR3VhSmFDNml3VG1Zb3pDQUFnSVZhOWNzbVIrT282T2M5WGxseUlDWndmUjNBRWl1Z2lPS0RGaVBoYnVKNUVMOEVuU1VwbGpadktXUHlHKytsWUFNTXhuenBPWkFEOTQ1RVRhVHNDcUVUUWw2dGZKOHRLajdBayswY1ZjMXRzc0FqRHhTQnFEdmpoeitsVHFnSTdaMDRNVnIzN3A0RWo0Nms2eWtPeG9tajF6SnVkeG5CTlZkQXovbmFLeEQzRzVHRTRhNENxM21hb0NSb1N0OVlNKzFyQUFHZHRZVUVIV2Y2TTNDNUp6eVlGcmVKazJMNjZvY0U5bDNhK2ZNbEp0WmZxSEcyK0VjdytuM2ZzT3BCT25UOFc5MHRjLzJ5d250YjcrcmtZbFV0SmtQeXU2bzFJSnQ5blZWMTJWYnIvam02a0tkV25HekxrdzJpeFZuR29kUkVmV21lNXoxdDNCdDJQZm5uVEI2bFdwQ2U3OHlCTlBVdWIzT2IzMGpXOHZqWjB5TjdXZjdhSW1zdnphMUUvc1hhV3Jva2dCb2xGNlhPaUs5SlJXcC9mWDFUVkEzb0hVTkg1U3VoekwyU25Cc1UxWXJUUzZINFVIU2NCdDloeGZnM1lIaDNJR3Z2KzVWT2lVaXVJUTM0eDZqNE9ZbE9uVGl2U3paM3ZTcmoxN2MvNTBmcTBBQTV4ZG5lM3BaZGU4TFBWMGRVUVJ4VlJiVVY0OTR2dXVlNzZWeG93ZEY5YjFFTS9VMGNtcUliMjRvQ1pPbk1nQXBQUFlWR0FWYTNUcWFzZkVveTU1WUh4bEF3ZWE2TTlVWHhWOEp1ZlZxYkFOak4vODRQdTVMUldPS0NUa3laWi9vVS9YNHN3K25VNmRPWmJ1Zi9RSjdzNTVCbThuSzZvV0xTNW5PTklmOWtPRmc3aGMxdGl4WTlLQkEvdWovRG56NXFadU9RdkpoVyttWHZwMGRQTDVHVE1ucHp2dnZpZjl4RSs4TmMyWk9qWjkvQzgrUSsyK1Qra2puLzY3L2RNdXVyYTA1ckxyMGlrQ1ArME0weUFMcFdvSUVIVVVtUnlWNmlaRmtnaHlqdW9hRnI3ejd3TGNJeE1tVFVsWHZtUmR6TEZLUHYxa1RoOGFSK2pJREYweFZ2dGxFUXErSXYvUUpTbW4rQTY5a1lJS0E4ZXBQWUV2UUVOZnRCcitlUTZPT1hIODJMUnU5Y3JndWdZZDlETVRJeGRvWk5yczBVYzJwbDJJWGNHaGhXczB1VWFacVJmbitNWE1Ecmx4Z0ZacGZZMVRoWEFOZXIreG9UR2R3YiszZk9XQ3RHclY2bUNGUTBNOTFJTTI4YnpGNjFDWDgyZXF5QjF6Q2pKRmVjUUpjYS96NGdVZE9ZaGpuZFRHUkE1UWZ5T1YvdUhHejZkN2lZWjZaTlBtNEhybVZBR3doK1g4SER2OHN1R1duMWRLcVM0TVFHT0dUQmlPYTFjdVRRODg4bUNhaGdkaDZyUVpxYjh2TzliZHdFQWR1b28rTFR3V3RsZGFxbU1PY0t3bndycEZ1ZVE5bXFmSHlSZjY0MzkrNmRiZjNkeDIrTzVwODVhTUd4aW9Tc2RPbmFaQ1diZkl4b0FUOWxHOTZQd1FHWkJGVVNjeDFKdUFXVnJHZGlRQ1o5MnFsZXdDUVRRT2JmSjUzUlEyM2laaVR3YUhrNmlaVVNoK0ZIRVVRRDRTSXNRUjMxa2Y4em52enFNNnZuMFVRSm0zbmV2OVB1ZnZzQ3k1Zi9yMEtXbmFwTW5wK0ltVDRNL0FBd01rcWxJUDREeHc0Q0RUYTNCeE90bVF0MHg2QnhvUlNMUm54dlRKaUlHQmRCYVI3MXo0b3BiV05HYzJiaW00dVVhT1ZySFY2V082THFKMEtOdC82cWNDaTU5Ujkxei9QTzhjTTBTSVNzLzVjUDdLYmFjcHFJblY2UisvZmp0YzhVeXNPYmZGZ2puV25GTi9kMitMSHVCZTJ5dmQ4Ky84WFkxaFVzV3MyUEtsUzlPOTkzMkxDbFNsbHRselJ4aEhKZTFnYVpJWnhvQldEVEVaOFNRSDlwS2h5bVBRcXcvZ2k3em9vZ3ZTV0R3UmoyeDZBbzM0ZTVpYTU2OHJiZGwxT00xc1haNDJiZDRhRFIzcTc2RUc2bk9aV1JlZExoSENweFZFb1pNUlpaVzRQVnBtVHVQTkJic3hXQmFrSmZOYnNBS3hEbzFJNEQ3OWtVcHkvTWxDRVNMSHcrUVBFYUxqNkVnRWZPaVJVa1h5ZUlIVVN4UzVxYTZSVUNwQTdTeEQrNWtUcWExdER5Q2pkbkFsbWZqMHllUFR2RG16b3FPNkVhdE42SXREbEt0L2J4V0RReC9rczF1M0JTaXJHOFl4NG5uZnpQNkRhUStkdkdEKzNEUUd3bHNtMlkzWXYxTW5UY1Mxd3o0LzVUcDU0Rng0aFJhcHVpRC9WQmtVanlHY2JhUUowRHBWRjQxSGgxTW5qVEM0QUxLZ1JhOWpJTHVaYVQrRDErdGYvc3BYMDVwMUZ4SmExeEYvWWsrdWJwMEtHcm1rdHdKdUx4Z0xGVW1kVWRlVjdPQ2lpeTlObi83ci81MkdhZXY2ZGV1akt2MkJ1a3pQR0xUVXRRL09Na3dZbmIwN0tLTUllbWV1cUNwVXBDcnVOWWhENlU3WHZiQ0pobFk4dXZ0b2FjWEZWMjZZc1hodDJuc0FENzhpRDRLSEhoTEQxMEdtV01UWWtMdFJWNi9sdWRneXgwUFVMR21abDFwYlc5aU9aRFVkbHQwcnRUVUNqNGJBSXRXSmhHSld2dW5RNEtVRjBMMWl5aU0wRHVrZ3lNQjlUcGRWcC9wR1hERGs1WDBQTWUvY2h3NW9GelF5NTEzZDJJdzdDWkVNY1BmUWhzbjRCc2ZWc3hETWY0cEdCd0dkV3dOd1prNmJFdUtvaThYMlhxdkhvSkVMOWJBOW5nRUlNN0M2Qnhrc29Yb0lJaHQ4WHJJZWRwS0R3WEEwbmN0R0JCR3FMWHVKYzNHZG5PVkVoczZwU3pvWExpMGtZdEFVRU5YaUcrd0VNUGM4OEFCNjcrbDArblFuOWN1Z2x2eDVjMVhLNGtkVWhmeE1IZ3RVKzJxUW5kVW1zN3J5QUw3RUo1OTZLaVJURGZwN1lXd0tiQ1dYdEZURVd5ZUgvNURmMW9lcnVwUThhNTdja01hTkc1ZjJIVGdRVWZnTkRiWHAwWTJieW4xazZTOUFXbnJGYTY2ZXMrN2E0Wm1MMXFWam5ZekVqdE1FRy9lRldMTTRDV2FLK3ZFdEFCWERFcUFBby9xS2JweXBVeWVsMWF1VzR5cG9aTmN4bWtxSDlySnptSnVDeG9qaytYbzZSUUs3K01rT0ZVd2xkU0Z3bWtldHBlVkVFVnBNNklKdUdNVS9JcC9kMzNFcnp1bk5Uei9McHFGWWtRQmgvcnc1NklTTnFSdWxQMVFLT0ZJdE14YzdkcldsaDUvWUROZmdPZTZyRXBHa21HL20zR3pFK0FXclZnRFFpb2pMdEUzd0hEaHdVOXEyYXcvenVrZEN6MVhYTlZYSzVVbFc2L3lrTHFqZWFDZFhJQXVyeTRhTTlZbW9JaDV3blpCRFNlQTZWVGdBSWZwcGoxMy9kMS8rYXRyODVCTjRBWmhjU0EyRTZIV1VRWkZMR3IyMnFPQmMwc3M2eTdKcW9jVUZhMWFtK3g2OFArYmFsN09jdzNoSXQ2bFdFbVhybVZlYzhOdUpCNVBxREZYaGp6ckJhTlRsVFo3VEdGTkhMZlRLdU1CSFNJTGl4M2Z6KzUwZitMTzM3VGw1OW9sWHYrN05iei9iTjVST3RQTmVGbGkrd29jcTVZN2x5RWI3SnlDelBrWnQ3UklJeXRsMDJhVVhJemJQWURpc1NuTndpUVNYWUdBcnBXaHU3QXdSemVRamxIeStnNGpTRVdMUzd0Q1h6TStRZTRtbmVLVi9LVmN3NTNJVWhSb2U5ejI4a1cvcUFKY1poTnVzV2U0QWFFZ1Rtc2VuT1FROVFPL1VpVEp2R1ZGM2FudnlWRHNjNXd6dUhqaG8rVHluSTlHMDRDcVQ4U0cyNFVxcHg4SGRnMEd6b0hWZW1rTEltWUF5bjRoSlJLVDlTOG0yRnluMGFMa2w1MVJMcEZVdGVxRTBzVTEwTlJaL1Jicng1bTh3WDM0U0duYkVYMEh2bUJPbnJuS3E0cHg1eXd6Q0EwR2RiSXRoWkt0WExNT044dzMwWDlTbFdiUGdyQkNWcXJwNmNaRDdTd3lPekJFNVQzSktnZ3FFcWhDMGhONG1CNjV2SnpQWVFrK0lmVElCbXUxcDJ3Mmp1U0RXZnovNitBdWdRODVhYzJXcERrdHg0WXExNlduV1BQTnlsdUE4Z2tFbDM0VlNFbUYwQ2hEWlNwS2ZSbW9mUExBdnRSSzE3VFNUQk8vdDc2VkRXVlNFaUhiWTlyRmpGMzdwU0wwNDBaa2RqSHoxbzlWUWlBUXdSZENzbVNKdWh5VzBIUm5pbnFIdlNDWHZHdlZBUkZnOUlqajdCbkZRRTBEdzVEUFBwdlVYcklwcnppVlBtekU1ZGZWMUJUZXFvQzFPOFZuS0VNOXZ4em11YUp3N2V3YnRKVThBNGhZbzdsNmhNLyt5aTliQkVkblJsb0haVDEwc1Q3MXc5TXlPOWYxT1VxeC80Y2Jjd3Z6cEd4MU1EckZiNzd3enJVTlA3Q0ZpKzJ4bkYrMUQvd3QxS05OSURpcWxxU1kwNHhsQnpKOVRpaHBiZWd1V0wxdVJ2c0s4TTdaUnV2elN5d0o4QTlLVUFSQUpmNW9hYmVFNWNJYU00UkY1T2toS3VLak1QMnBFSWNhQ0VqY1UwcUlXWDJtdkhneUJ5VTBLeXNBRTRNMXlKaGZ4Ny83Y3dkc0hEZ3pVRE5iUG5MOWgrWnBMMHM3ZGU4SS9sZ3RoMU5FQmRveWdOQVZIS0lNeVJpbEs5QkFFaGJuVCtQVndwYVlJbXUxbFRZeUtyclpaRFNOUnNOREhJYzdkNHRnUWY4bGpYOVRoMkZVWEM2YzB4WGlmVHV1R09rVm1KclpjSnNMekJZTkU0STlDb1ltRXFXUi9wWTR3U3VRZy9aeFRmQjNGMFY0Tlo2dGdmOFdubjk1S1dRTTR0anZUSXJqbkVmU3BPa1pDQ2JER2JtYTA3d2h4ZndaRURPSElSNDREenN3QjVlcUZPd25tbkRrM3haL1BwWXJmWElwck1ZRDhVVTRoU1poTkVleTZ2bFFSZk1iNWVrWDc1bWUzcGdONzIxTGIza00wRUZVQ21tVXdpcnpjOGZhTDU1eHJEZ0tTdDZxUnFzNzRKdHJEd0hyazRZZlRVbUpFS3cwRVFkeXFJOHA5NWNwQkwvcEtRQm1ZWEpLN2MxNTh4WTNsT3NsQjlRY1A0aUd3b01LdEZxNGVhQ3ZqMll0amZPMmFDNWp2cjAwYm4zaks3dmlQcGJlODY5ZCs0dkkzdktOM3pzSTE2RWNUaVZ6SjAyUG1xbUZpS3JFSVNEM0Y5a2dNUlpWY1VVSUdGaGc5YTlZc2g4TkFrUEhqSTJwYnY2UUVpeXlnaG9Lb3R4ZG8raHkvemNmY3RZalpxVGgxOTlCNDlLditQb05zQVRBKzR0cGFDQTlSR3RBNTZ3aE9DQ3VWTXF2cU1CTG9LUHFFQktFVTRTamdpeGZOeHplNGhHZnc5M0hTUVRRTU9JOHlhM0pvLytGUUVhWk9ucHhXWDRDYmdqeldYYkE2M25aUUF4ajZJYnFBTXpCaDc5Nzk0UW5RYVYySVFEbWlicDh5S2l3NHVLUzBDT2M3SE5jVWd6aU9ySk5Bb1pMa1U2U2dHL1VMUnozK3ZaeG5TcC83NGczcDBjZWZUTnNJZ3Foa2FXcVJ2Ti9IQThnRnphVUJYRjJhNXBhektUOXRYVVh3eVFPUElUWVpuSXNYTGFVdTFKWjdEZHJnY2pDU1lxWWwralA2eFg1d2xvWjZrcDMzRHlPOXpGbHd1dUZDSFRwMythSm5zYzRCS0hXcElCSktWYXV3Slh6b1hFdmoxdS84NCs5dnZ1UHo5enl6Kzh1WFh2UGFONkZWTWU5OGhETFFZK2hjTFdEWkQzVUxxa3JrL0hjdWYxMElpVzNvbGpIbjJkbmRudGF0dUNDMXRyUmlQVW9GL25qR1E2V0UzNUU0WDFuZWM4WkdETEtZaURzQUVJdW9FTms1aWdYeEFHZEVZcElBRzU5eTJLR0toblR3OE9HdzhrK2NPTVU4OHBsMDRrd3Y5VDZLcUs0RjFBMVJSNW5HekJsVFdRemZrSTZmUEJYRWlxMldxYXZFNit3OG0yYkNBZTFnTzJjQ2xxSi9aem83NkdSR0FWUTFLcnhsOXF3QXAzV3drd0pvRHY5b0E5d2M4TnB0QWk0R3FEM3U1U0NhZmVtZzgweldFVDBxa25sNVh4VVQvVis1OFN2cFpFY1A3V2xQN2FjeFZ1Um1kSUlBSzJjVmdKY1Mra2dGditYRkFIR1BTd0J6MlV0ZWt1NjQ5U1k2cmk3Tm16MG42Rmkwenp5c2k0YUxHVnJ2ekJXbHZHWFpKQnBHbVY2enpoSERnbFh2ZEN5RnhUMHlpK2dQTzBTUThIUHE1QW1wYmM5dXBnN1h4UDduRy9GRC9yc0F1ZnlxMTNSVU5rMWVkNWFvalpQR0p6TDNtcFZyeTNmRUNFWWJub0VZb3pOVGw3MCtlWmtRSFRkdFVqT2V2b3EwN3NMVjdCbzJsMW1Edkh4QWhkMnE4Mmgwb3QxaG8zWFdPcDNvTlpvZC94ejU2a3lLREptUC9hY2lYczF5QUMyNW1MS1RtQkRxNlczYndxQ29SeWx5RTFDdHhGcmNGaVdBMW9XZXRSK3JkK1kwbk5Ua0kvSEc0TXllTVgxT090dlJqc3BKSjZBak1hVGhrdFdwZ3dEZkkwY09wOGs0dzUxclZ6K2FObmtTYmd4MHpLNno4Y0tqSmlKZDdIdzVwRW1PWnZKY2dJbmZHbGp1RVJUblBGKytYOEFKbWp5SWFWOFpXVW9HZTF4OTl2Rm5tRWRuT3E3dDhLbDBGcU5SSjdwVWNhREtWSXR5SXcvN2dmd2k1ZXJFZlVzWExTR2EvYjUwOG1oN21yOW9NWU9ZNlVTczlWcmE2a3lPK25kd1dKNVgwaWlxSFVRdUp4NTJsellaUjRDTDg5UmR0NU05NUY2VnRpM3FUZDJqM25Cenp0QjM1dW5lbUNsTnhQL2FkdkJnV3N2bUMyNDZzQkdqSmxNcFYvVmYvWHpYNzN5ay9WQnZ4UjljZWUzL1Uvdk1zOXRqYllXRmg5TlRwZXk4Vkl4a1R5dStyWFF0bk9jU1JGNDlML1padG1LRmlnbWNCQjBTMzR6NmttRGhQNTFNVzIwdno4b2hSd2pNNytDdTNzYy85VVkzUTNLcVZLNG9FWXhnOFVuNzhla3QyOU5wcGlickFXa0RSdEZpZHJDWU5ya1pia0lrQzQ1MmQvWFJCMGtKRVQxVXc5Yk56cURFd0dDeGxXL1NtanR6SGdFSGJZakhMR0tHRGZUZzMwRWl2cHV3d3V2Ukx6V3N4dU1lR2tNNG1ZRzJGaDQ2RTNXd25yYTk0SVkyeXQvQnhld1pVbUhnMkU1OWxGQWlBT2sxNlJqY0IwS29tdDcvOEtOcC83NEQ2YUE3dHVuYlk1RExCRnp0cUY4d3hMRjA0RG5MaVJraWlWRk8wbmRCYTB2NnB6dS9rZGJpMkpaQmlGZTBDcjZySW9aVHJtaVNuaktVT0k1emdCUG1ZYjVPcS9ydXhXcUE3QUIzUytwcVh1SmtwQlMrakhnMjUyRy9NbkNsQ3dhVkZycGduejU5UmpxMGUzZGF3MWFJK2lHL1kwRCs4bS85L2tzUG5PbmJzK2FTSytzN096cVplMFk4SVJLY3pyT2RoVC9KWXh0ckk2eXdiRTY5emVzdUNscXllSDQ2UVlEcUd0dzRqUmd1RmZqdUpKNkdncnFYOXcxUVdZbWlGQkNSNU1TQmlEVGZuTCtGOERPdWVGVU82VFozbmcrYThhd08rTFo5KzZPZTN1ajJ5bk5iV29LSVE0aVRhYnhKWWVLRXNlblFnUU5jUThmaEdYUGR1MjhmVTRCRTJqQndhbkFWVlNGMnRQQ25UcCtPeFk5b0J0eFZtUGZoM0ljR25SaENkUUN4cVVIbDM0NkNrMXRYYSsySWl2OThsSk8wQ2U3SGhhQ1I5d0dJME1HMGZxR1R2a1c5S3dLaGxvRVVNeVFnNXNaYnY0bGpmaUR0TzNnWThNRmw0R1RtWEltb2xXYm03YlFlVDhDSkpLQVh0WEFWa1ZDeWNpaGR5QkxmMjc1eEc5TjI0L0R0VG9lamQ0ZEh3RGxuYVY0WUxqNXErUU51V0lCS3BEdEhKN2ZxUUpHOFhpMFhRQ1VjMGxJak9jREQvYzIxUExPRElZb0VsUkNjSVZNcGsrZmpwekdCc0dQL1BqWjVYVVZBVEgzNmprVDJ6RldYbDFhdXUrTHR3M1ZqbUtFNEVxL0NNR3VUNEhNVW1pU0doZG9Wbm5Pa1YwSm8xNUFzYkoyYnp1Q01YYy9iQitiNWNpQ3VDV2dKSUlmejBYS081UTR0RTlQc1ZFaktQL005bkhNNFIzbjV1QUpkVHYweDJzb2xIY2Q3Q1d4UVRQVmp1VlFRMmVJck9VNndUTmJBMkVuNEZjT3FwSjRoN3NwMTZVZGMxV0ZoV3JjK1psVk84bVl0STU0OVp4VWNNTk9ZNGhNSTdtclJPbmRtbWpGakZwMVN6M1ZGR2pmQkNhUkZwZzIvUFdWbkFHei9CZVk0VjRTN0JaMEVFeEZMbFF3c3dTcW5NU2t4M0FMdnhxL2RITzA5Z0ZyaE1scTlEWEluU0Jza0Z4aTVQTXJoR2NGWWNNZFlXOE9aaTNoVDJMZnV2UmZnSjZZKzUxSkh4WEFHbDl3dzlxV2tYNXhaTXRrR0I1MWlPVGdpdjJNU3dHdDZNT0NTbG1FZXc5RGVPaGZQbUxmYkVBcklRWmlOYys3eS9DS0FKZ29nNyttRTQrM2R0VE5kdExac1pXL2E5TStMN04vNzJLZHY2bTZjK1BmekZxOUpwMWtSNXdpdU0yT29VSUlsWjJya2lnY0FxVnhCRk4wOGlrRWpkMllSZkxxY0VLbzgvNnQxRFpGajFCcEpJK0h0QkVjam9LSmp3czFCUm5LYmdsUEdvT1FlaWcvZzJuMzJmZndXQmR5Zng2Zm5lSmE2VHA0MlBjMWlpbTQvSExBQlFQVVJuMWRMVkxPdmZqdHlUS0RWUk9DRDl3OE05TVJ1c2NOd2d2d0NUR1pqdUQ2TVBxb29Pb3pobzNYTnJkRmg0NGpqbXpaakN1S1NnVVhsaTlKcEZrbHZBTkhTN05kTm8zaEdLRk5GT3NsLytRZDNnVXpQNllaU04zTVRyQUpFamxRZVpVK2h3K25NMlk3VXR2OEFkY2I5aExzbmN5aEtwRjVLRjhGWTZPbzVjOGtCUUlJdXBUUm4zdXkwWSt1VGFROSswcVhMbHRHZVRFUXdUVTNOSndQSlorWFlQcWQ2bFRtaUp6TkFIZGpGck5DQXRJU21FVTFFUlpVS0ZoZEJ2UFJiZjNoVUJMUzlsUE9OU1BUNGxUL3NRU2NNOXUwdHUzMXdsV3drSGxMbDZkdlN6N3ozL2E5K2N1ZWgxMHljTmorQ0drckR2UTRKM0pwRW5IQjNWL0FMT0JHSytlaHBKeFhmV2pqS1FIOUh1dktLeXdERFlWNG1PWWRPem5xYTg3ek9vVHJTL09mZU54b2UxdHR1ZFVRRllLR1pSbGtZRTNiNHY2THBCbEJ5MjhsTE1nTk1DQ21CZEVpMzdUdVlTbDBRbWRIcVdteXJmNUlvb3o1MG1qbXpaZ2JIN0tYdWM2Y2JXMWhLejJ6ZEdhOTRxMFd0OFBXL2pVU2xISE54RThaTUM5eGU0bGR5WHkxV0tsMUJhV1dnU1VtdlVXZmJHRG94WUpQTHhDczlyQnVWTGZ4eDBrQ0RxMGhEaUZ2WGNROGpnci84aFgrSUtQRjJOczdYYjFjVlN6WHluZVpSUjRnZTNoV1NvUElBZWdMUW1NVmhZQ3RKbHkxYWxHNGc2RlluZDZGaXhXQ21UbjNNb01GK2M0WStUZDFpRm90QlpwNHhtekp5VlpMWkRsUXFkTWE2Q3R4Y2NNWVJJTXJSWVZMT2JsVlI5MFNvbkRSNnZoUURoUXVGUTkzYllyK2c4djE1K0k1Njh1T2YvZUtyZCs0N2ZITW5pQmhBZDNLRTIwakYxUkJ4ZS8zNGpuVE5PRUpROGFtSUhDNTNpQVNlTVhNSzNLY1JxMmxNV3JwNFVSb0g4b05MY0t2eGI2WUFUSmtZY3FDWWRPZGtyS3FMKzNSYnVGc1lvT0pQSjY1SnVndmVvckVjUnZLY3lYdzl0UE56SXFBQkxqZG56cXpZak43Z2lTSXBwbHlRZEJReHVCY0R3UVgrb1hSVDNzb2xyV25lb2dXc2p1dGtDbzU2MHdtSzd0YldGdTdST0pGc0FFRUwyZnJFUU9LM3g0d2UvWi9CdFlKdkM4eGNMOHVtdFJGTHFYZ3VPT1l3UUN6aFJOZTVmc1BYL3pFOXUyVkxyTTAraWI0cXNPdGQzQlZOc2g4eUQrbERsYkhzME0vcGo4TGxaZjVybVhkKzlOR0gwK1A0SlZjVFU2bWpueXJDR0J3UWZOdDI2UTgzTXltTndqS21MQ2NjWEx0anY2aDd1aitTMXlTc2RUSDFNUXVqOUpBRERvTVJ6N3Fnam5ISHMvbWV1UEY1UGh4TVlTZGdJT29Sc0ZucXJSeEt2RzhYMmJ2TzltMmZPVzh4TnhPL3AyNGx5K1pZQWdzT002d1dLQUIxVUJGTGRjeDRIc3M1TzlxUHB3dXhvQmN1bkE4QjVYaFpFUTVxVXJMRWVMN0VnQ1dYREhvNVhGR1dJVStDMmVjRWpJUnhwRWVUdlk4TGRuWjBiVG4vNkh6T1M3dk1sUnlONW83UGNFSXppdnpFOEpuYUlkSmdnSHkwK2s0Y1B3RlIyVDNDeUJ6cTR5WVlrNXViMHppNG8vNnlCdHdTcGhpWTJSeU4zendlUkZWU0ZMdFdXTi9naEJCWWZjcmYrWU52N3JlTldxWlpYSnBuZGJybG0zZHhMNWI3NGVQb2lhZXB1KzMyV2ZJWWVUeHpXQ1dSZE5EeExvMWphSkRmS3VhZEg3ai9QaVlKK3RLQ2x2a01JcFlMUzFzeklBa2FRa1lDV1AwQXo4bzQ1VmZDdUpRN1JzUGpUbWpMdDhKYUo3a2hicGFqRG1oNzFCOEZqMTREbHhsYkh3ZTR6Und0bWd0RHk5a2FyeFVwYyt0QmxteE1KN3l2TFYwQVptS21oZ0ZrdVNOcHdxSjFwVFZyWDRLVHVSSFhSMTRMNFVJbVFTbkxOdHpJaElZWTdoc2JLOEZtNEVaWnNtUnhldTJyWDh2YUVWNWpWbjYyeUZnUkZuNDhUcWlqbWR5Wm9VZ3E5bmFhNHR3UkpxZHlGWnVwdUUzeDV5RHhQblZITzFXT2FmeWhjNjhDMEVaTHNFSjMwUmNaU1FjdFNRZjNFSnpGRnhrdGFOSFFPc1ByM2JSTTVXZzR2UWU2MklsaEc1MHRTSFA4b0ZadXp0ZUlHcnVJdXVNYUtsSndRdW92d0lxQllVMWlJSHN2MTRxNmpWU0hjeHBaNEIvbmZBZVI1UWZZZGEwM2JkdStJK2E2ZXp0N2dnN1B4MjA4NTZBd2VWek55Sms5YXhadXA5NzBEYXpucFlUbTFlRTE2TUVQVmkySUtOUTFPdjZKN0w0UTc5UlFFSlVObU9FeU9DTlA5SURnbGx4ekRsNHJHNUp5citXcEV5Tzk2Q2ZkZEZ6T3RPZGlUVXhqbW9QVXlxa0FwL1FWbEVVcXp2dTczL01qbC9KQWlQdCs3djEvK3ExZi9ZMFBvRmVCTWxJc2J1ZGJBTGdwZkFSdDhydUdhYUFZdVJ4UGJCNFRNeGRyVjYwRllPVnROSGdneEFnZExCY0swY0M5Z2pRbnVRYXMzb3pQU3lOZ1plUUxIaDNPbVpBWmZCSkVzYUhvdDZOTmNwZlliYXhvRkZRcVh6b3ZkKytIVDViRmozVmNTMER0T0xobWRDeUFjcWVJQnFZQmU4cWRadVMzWmVYUUxyZ21NeU9tU25UcVBnd1hEVHdqV0tScEg2Rnc4b2dLRERtUERZdVQwbklSOHkvRW5ieENzVzc1WC9qQ0RXbkwxdTBzbUNlTWpmdDA2aHYrWHdQSTFBdWxjNUdLNCtMYjg1VU1sdVVMRjZWNzc3OGZGV2xzbWpOM1lkU2xFZCtvOFpGZERLcHc0M0N2ZGJRZS9zbk5aVEZlMHpneU9jQzkxbWZnQjROZmZiQ2Z3VDZNYWhGVGZXemU2b0F5bkN5aHVqbFhYK1FkR1l4OEZCMXhyanp6OWExaHZodlNGQXhIcTRvMHFvWHhhOFJjT05KVDhWZkR2RmdTUFoxT01BUEZvWnhMSU9XZ2hLSW9WZmw1czZiRERldlN0VmRkRmhZaUdJb2tsd2dHYlNVZ2VoWVpXYnpLSmVWOEVsVkRoeXJ6ckVJL0oxbDhrVHluMjBiMkhxS0JaNExUMGxIWjhaczVZUUhNM0hlV3JBQTcxMUFiUEJxZ0hvZmlULzM4ZGpXZ0MvRVBIejBheTFqbnpwa0p4Y3FFaDdNcU9pMVhIUE9GYkFDRTdQdGovZXdneTY5aGZYUU1XdkpUcjhSQUIxdzY2aW1NL3hIWnc4TXhnd1JRYjd2akxoem9ZOU5oSE5zOXJFQTBoUUhrTi9uWmxpdzFPQ2dTOVJYeW9icHc3T0t2dSs2OUovcEtEc2twVWhsVXZhekJLUVBOQ3dGRXIzS1ArcU9XYzdpOUZKQU1CSzE5M1VpT1EzdERkNC8xOW41YkZETXkwWExPWXhpR3o5UWJJczhvZUVRQ2VpNXpRL3FDRE94REVSR09kcGlIQXlBYnc0TzR6R2Frb3dmMnBoVXJWK1BIclUrUFBmNTR0ckpYWGZQYWwxN0RLekwyc1VoZHpVR2lreE9OTWtOblVDU1MrcUt1bUlyVWpQOW9QakY5ZFZqTjdxUFlReU1iTU9zMDk2V0RFRFpPTHNEQ0R4dWtXQzI0cEpWVFAvUmJ6bEM0Um16TStVbGlTaFpGdlBrNFJTYW5OTUYzOG9pbGZyb2tETnFOK3dXR3hJUm1uUDYyRkNPZGdWR0NnMVJXWnhHMWN1blN6T1ZFRWkzMU1TT01UTEc5SENnYklMU3Rpa0RhRU1mUXA2WW0xNE85S2FnSnMwMkdseEYxWkkwTmdZdkFXaXFnamkwQUhubndrVFJaWnpUejNnOGFlMGs1MHRZNnl6Rkg5RkJLZDlCNmZvUWpVcDRjZVNXelcxKzc2UjlaYk4rYjFxd2lvQVdKcGY4MHUzL3NOMm5QaUdEd202U1ZCa3J3YStvZ1Y3UGRkdElRT21VTUt1NXhoaXo3SFRQQXVJMDhJN05vajNrNW9SQktDL21ZdktkSVlkZ0Y0Sml0QVlSaFJVTy9zQW5FRWh5MkFrbHJPL1VGNXdRdVlINjYzdXpOeU1NTDdlMGRkKy9GMTJiSnc0Z3RPUUk2UFErN1VBaFVVMnZMRm1CT3hoODd1Qy9XYVRTT2FVSUhjTFlGQW5MTlYydm91YmZRQUtQUFNFZ0tkTnJOZkQzMnV5QzJZQXlkWWxUanJON29GTStRSjNJZWdrTEVNdXNQaTFOQ2pxWk0rVGRmUVRIZEY0Nzg0bStrR0xrQXVxSUpIQU02TkdNSEh4eVoxa1JIR2NHalNJNDI5WjBKem1kUjFZTWRIUHNzVTVhOXdnb3hpQTVuZ0llZWdyNWVZekpSQVZCMis2bklhV2EzTnJIeDFBSDhpbzl2M2tJWkRBWXlxaW4xMFBheVNIY2trekkzb3I3UVdYVkg4R3RRU00rNnVxWjA4eTIzNERGWXlWTFpDZEZmdmV4c29hNnN1dU95WDZyTDFDVVdML24yY3k0YzEraUk5RHMwc0F4QXptQ0ozWVZ0RFBYemhVbmVaNTJHRmNta1dIRVpZcHR0bTFtT0s5MmpRRDVkZW54K2toTkdQMExMemk3QVI5MWxhcXBkd3p4di9jMTU5SjdzakJ4aVNibXZTREt4TDM3em0rT1hYM0JoZElRa0pxcU9Lc3NaL0dWQ1lZVTd5SDdyYVloeGgyOTYvUnNBb1Y1Si9IcE1HZFVpNmhIR0REck9vS21MQlN0UVlrL0VHT0hxVFB5V2l5bkdSeWVKZ0RDTGtTMVJneWdTNnJ6a0tIZnF5NlFCRVEvd0tSZ0V1SnRvT3RJb2dxcnp2RmxJYlA2S2xJMmhjeTN6dkZmbEVzVmRvZERUYnhyVk5YRC9rZFRRak54ZzBOR3pQYVV4bEVXN2g3dm9IQWRKSWpvb2cwa3A0WFliblozU29wUysrclZiQ0FuYmhYUDlFR0o5YkFBd2FFTEc3RG8ra3IwSG5pK3VTZCtnQmVldVpKT21UVS9BVVJsRXk1YXVnUE55TDZOSUFFak92RzFnem1vWU1BcGdnMVZzYVdFTGxOQU5uUjQwVHhkZkdjY1o5QUg0Nm9oUlZveUpBcFFTa0VFVGhLRXNFVjFPZlgxWnpRaHVXKzZyWVphbW1QdzVobW5BT0tZZStuMjd3WEl2YmtSRnZRWk9rYkk3TURPN2ZBNGpiY2VXdlZlc1JJYnYzbjg0MWNNaHRKekNKeWZiaUM2Z2dvd2UzUUx6NWkxazI0dWxpQWk0QVhPOWJ2bzU3QU1HUm5DOUVnVzBEa1FNc29sbG5rbmdXVUxFQkxPdUJVVmVKWnhGTGdJZEdBVHFZeFJqSG40Qkw0a3NWNVZZNXllSnBwNHBNK0ZPeUFVWWFLU2RhTU1sa0xxcEhFNXdPOXNTUkNkN09aR2kwMVFBczhqZmtweGlNMWtUM3pWTklGTlpsR1NRS0hvMFZ0UUxRMGRrNEhYMU4zQk0rUXdJaXVUUGR0cUpsWERFeDlMVUdYUGdUTVBzeEhFcU9KWmdWMzl5c0NwMWltVDllV3lreVFGS09QWGlCUXZZRitmcnNkUEZKZXN2NVJrNU9keU9mQ3FJTVRVTERZOTRtTXowTHVTOGxFQ2VIalVMdzI5cE5zaE1qZTlGNnNQNGlvVHFFbXRlcUtkcVJRWDAwK0JSdmRKTmxGbEFicGNWTEhyRmRscEl0RjNPaXdSVUR3MVdSdjJHZUY2VkR4NklLNDBnRmdhQktyVWJCc1JiY2Ftcjg5NDE5aDhWc1cwMnFPcFVmK1gycG9tc0Y3RWlGS0MyNFMxbVJSRUFUbDJTeW9JZ1g2TzJrSlYvZHFoM3FQQ0xiNGtnMnVWVXNmSU5ZbExkbkl1ZFJaSno2YndWZFBISjZhSFlTWUxmSE52aE9SOHp0NHArNWUvNGNkN3ZuSDl4andTVDRIWUsrVUVWUTZsaUZzU0JCY0Vrbk0rWWl1L0luWXI1WFpSa0o5cytPYnAxRXZZK0lZQ0thSFE1bGU2akFDWnRpQTFJdWNlcHhFMVBQaDNsYnQreGpVMUtuWGRXNVdIZ1VvSjUyaVRyYW9wT3pVZlIxakRneUhzbC9zVEhuM3lLTFZhT3BJWHpGekxZMkJTQkRvT3NBVVk1dDZDa3hCanNHbjNXMFNVR2RuTVlMbnlidjM5QlJ6aVVjODV3Q2daSkdXYlVROFpoWHpxTEZjWU92eHk4SVg2amJ2bkRQRWJ5NGxTQUw0Z0dBeklmNmlNVmJhdDZNU2VRYUE0TXJxUGpxa0xZYkkxbXY4MXY1a3gyUmR1M04xMjRlblVzSDNuc1NhWU9kK3hzUzNPWEk3SzV3Znd4TllpdFZsVFJBTVJHQlJrM29zaFBuenMvclYyeEZLTFFZRWFaWlpwQ1Z5aFhRdERtN1R4UThlRTRyZ1UyeFpvVmU5cmZQSmRQcXhOUkNnUlRCOUxKMjR1eVd4ZytMaW9QY2FUeHdXT0NlWFR5dVpGS1JNM3BMQnF0TG1zaHVsa2NyWW91RmZ0cTFuR2NEL0RvWlVjRFNiRnJsc3kreFgwRG9Oclg5ZnFNOVZQZHlJNWc3d2FNL0JiaTFlaWhHajJWY0w3N0hudVM2Si9UTEIvWXp6MXd3akFDOHdBTXY1OW5MYUNjem5VeXRFS2sxaE5FN001dS8vajFyN01JZnhtNU8xTUZpK0NSYWtSeFY1bXB5U1ZOU2k1bmVTb1lIRUpNS1NVWXBidlJWUVphRENHT1RhNWppZU55eDJtdzJGNzd1UTlqekJUcmZRUm1PY21nc3NHUlR4anE1bFdYNWRwZlNraEtqMzE4QmdDZXRERHlxdWgzS2hIOVVZTnkzWWV6WGpiVmc1K3pGajFBZ0twMnVLbUExUWkrUmY2VmJwcHBwRVpzSWN3UXhKMEs2QlNOTkE1UUtBQzFoUGJ0M2hrZDI4Y1d2Nk1UNHo4cWJUdmo5V2F5ZlNwcjBwRk5UOG1KbzJPTElGVTVoZGF0MzRaMzZlMjNjK3dNeGJtY0lvZWphWWt6OHREWEFvQ2pDdjQyY0hITmMzbUUwbG5STVRtc3pjVmhBU2pPZWI1NGY2QWpXTTVYaUUreFlsMEZZSWd1amlXNEtRWU5oQlRvV3BHOUdDN1lFOVMxTW4zcHExOWpqNS85NlRpaGRiNFRVRENxQTVxS2VndkU3SzdLWE10clRvazZXS2hCZXRXMTF4Sis5UkJ0WUZlT3BZdTlUSm1vSjR3VS9hQmRnYmhNZS9QVTZNbnJhYmdSbWp2bE4waUh5dFh0WVRtb0F5WWlycWpMUUdIQVVmOEFJb1lHK2hTRENhRGd6elFKUUxseGtVYURNZHBCdjhZU1hHaG93aFdKeFk3bkpaNmhub1N5TFZ5OExLMWN1WVk0VVRaSm9EK3F3Slk2cXFxT2VXRHJ4YmVNWS9Ua1NHUm8vajM0ck1hUEdVdjBibk5xMjc0RGhMS0hId1VKUkhsTUZRUnpDdW9sN0xWSVV3QU1uWjQ5TWh1dEp3QUFRQUJKUkVGVUNwRUhNSUNJakdBL1NCV0lFK2dCdTRZRGNzN29acTFoaVdWalRESHF3M0hzTHpnSW5hRDJVWU5PYVZCRlh1Z3V1M2VLVEZBQ0MvSUsvVERLb1RFeHBIeit1VWtPSzJpODMyZmxHR1FUSXpXRDJHdFkzblJvNGJTM3Z0WmVMams2eFRtNFh5MFQyaTUwY2tWakZSeXB0NDgySXpYMjdkNUhQVmcrMFZDZE5yTkNNUzh2cFkxbEpoZ0RCQzRXdVhPZlZmZWNIU09IR0liUWkxdm5wenZ2dlNkOTllYk9kUGxMTGcvYXllbUN4SFRtS0ZzQ3d0RzVZUTNicWNLTlBHZ2N0UUlZbEVObkQrdlNnWnJxNGFHeVVNNFFvS3VzZHg5S0J4UUFndnM3WmVvRVZvQmJvdnVVNENtRHpkK0NXOGtaZmtYcnpEa2xwcDRYK1ZwY28xaDNGZkVOWlZOYUZ6Q0gvaEIzbFFLUXRCaXVhYjRnU1hWTkFwRDBjNGZLYmdWR0ozNVdHKzE5NU9oaFVaSWFteWZHcmdvN2QrN0ExVUVRS29Yb0Jwa3lhVUpxWmdNbGx0ZVZkWVhuNXFMZW1ZME0ra0tDY3ptUElkazdjcG5xMTlDSUdDR0FrN0U4a29IS2JnM1BPSVVuaU1OSHhsVWJNSVJ4cElFVmZwbkkxUTRWcUtvTmxtSkRSM0ZzOG9oZUwrZWVtNS96a2pqU0F6Z3lTTERJZWM0Y1BPYzFrOHNrSExuZWszUDNHaDJ1bkdJQXFEVzRwZDJXdmR2VFdGNCsrZXpPN1hBaW5xbmlyUVJrTkxvekk4UElGSFJTTDhzcGt0YjM0dm56MG5ibzdHYW1xMWFzaWhjOXhacG5RVWVwNFVqd204SGo3Sm0wMHlnVE93NG8zVU9oNXpGWXczalJvS0tqTFNkbVh6aUlpQjN5RzZKTnJOK0F2a2dyeWg3azVVME1hV2pvWUhsdWtna0l3TXc2NU5Lb093NSs4cFByaG1NN05EckJDOGVEV2MyYlBTczkvZXhtUXFpcTBsaDJBSGF3aFo0THdPMG0rOUprKytwNUZ2dVdmTUNBL1ZVa0swNi94cTUzSjVsUGJUdDRKQ3B5eHgxM3BBNW1EMmF4ODBKL0w5RXU2RkVHcXlJTXFCT1ZpcG1iSXBmOExSaE5GaHVqSUZoN1poTmEwc0hNdUJqUFE4QllqVmNHa21KYzQwaGZuenVLdVorZ09vcmMxTkdsV1BjNGkvSXMyaTFMc1I2Z09yOVJYaXdubXl2WTVCUnlzb3hoalJQeUlkUmVSZDQveFpZcFJEajNGMlJTekZkaHpTb3l2Y2RBM2J2dWZTRHQycjBuUGY3b0E3VEhtU1FHaEoxUFBXeWZsdTdJTEFsNWh2c0wrc2lSbmMweGNIVTJzMXhmdi8xVzF1QzRUeENXdU9JVnNFU0NGajVUaTA0cDRHTFBIRHJLZ1RISXMzbzBZZzdhYjhwVWtrbkRBQXRsNjR5UHhEVitVZ0djMGJveUFCcVFMbDlEWDBTTjRXVCtYVDRLY2M5eEllMGNaSldLZFFEbVgrd0p5Zlhlbmk3MmVqOUZXTnN5VkpjT29xSlkwME4vU0lQVHAwNnlnblExNER1bml4YUZpSThlMUJ6cFZFUk1GWGQ1VGZVT3Bva280alZzYnE5MmlORDRNVVM0WE1ncXNLTk1hMDJiTXBGNTNTckM5azh5WW5KRHF5VEtxSFN1U1o2TWJNblV4cGQvTVd1Z3EwWmR5OHNWK0RHcEQvbnBRdkVZeU5BQmtmaVNDM2pkNXdXdUt3dWpvMm1zWXRxcFJrV3RqZGUxWTNKVUY4ZHhJcCtNdzRMSWZZamVPRjMrcU1KZG82dElJQlQ1V1kxNG56UjVtL1I5NmdKcVlPL0RXMjY3STdVUjMybDhZZzN4Z0ZWMTQzQ0E5MlV1VmI0L0hySXBaYUpZeDBoOEcvbTljc2tDdGpSNU1oMDVmQ2hkY3NubGNVbS9wbjhtQWVRY3VJdW9PbUNGV1Ura2JYQS9OemdOTVE4d3pIY1lGNVJHaFNwVitENTVYanJvNWJEWUtCdFFEQk44UEFEcEIyaWNEdTVpZXJid0pVYkJmSVQ3TFBMSWRkRzVMaGNiMGEvcEZHZmJiTnpzdWZQU2tvV0w4WTF1b282OHhhdmpMTkU2OWF3L21wem16MS9Jb3JGRFZpQ3lqbjVpTUllWUxyUGRvREZBTjFZNGE5cFpySnMzQVIzRURGcHhXSHJWZ0RNenBYVC9JNDh3RTFPZm10alhwcDlWZENjNzJiK1J4dXRQQ2RsUHcyTmFpVXFHcUNxTGJETzBHcmxQTXBBQ3lPWDdyQ0VsOEc0V25sY1g0cmdHcTEzbFBSb1FYMVJLaHpUS3NycGdRNzJqcVR5aTdBakdSZUFYY0NvK0k5R0JOQ21EZzlKRHZ4VFZwUGdzSHhjaTFYTVNXckVsZDg3aVh3NkVIZ3VuRGdPR0FXUEF5RVBNcjA1bGRhRXk0REhDbzZxSXBIRldSeTVHVFNJZkRnQzFYTklqeXVTYWVWY0NabHU1a2oxK3ZzNE1Td2NkZDZsNklqY09hdG5DR1F0cUZZSE8xaXZuemVXb3Q4Q1RQTkFXRmg4NnNlVndrdHJUMFRxMXZTNjkwU1k1Vm1lc1lFL3diTFRKdGRVcFJRTU9jNitWNmNFSkJnQ0RoZCsycGpnZmcxalZ5QjZDOHpFbnlvQkl2TWR3WE93VDNyYTNEWlZsVEVnTWRkaGFET054RXllbGZmdVp3VU9LdE5NRzg2amdPK3FHVkZYYTZiU1hvWVQrQ1pBaW5oS21ZKytGV09kbWVqVTdWM3Nna0ZhZm5kWkxLRlFYYi9mY3Z2MVpXQ3c3TlZDYjQ2Zk9NbWV0dGNmSWdldEpFOEZvS3ZUSCtGSCtzRG5GOWVLOHVvamlURjFHNjA5Um85dUkwd0VNZlljU3hVNUJzMFNzK0Z1T2FEVVJUUjdEVmNXQzk4a1ZvNk1FRDNuS0lmTDVjMXpjZXA2ZlBDZkJCbGdDRzBrOWxieXRzMGtDSFdUOTBMRlRKOWcvOFVSNkNvUEY3VWdpVVc0Qm1NS0ZJMkVsdk1ueXZlNXJQNXFaM2p0NzlneHoyUGVuMWF3L244eWlwcWd2TjZ0N3FnL2ExZ0tNMG9iSFEyZlVkUkxyVkJ5NGhMMHBNdTJiR0p6cVp2ekxpNmN5R0syNjZvY0dqaExhYlZ2TU4ySXVvNHdzVGF4ZmtRUzNiVlZQbEI0NjJhMWZKSURpblhwYXVsaFJ1Wmo2N3o5OGdNMVVUK01HeEQyRnBGVDFtZDh5UDk2a2RwcjkwdVcrVHJjYTFxYytHQXlBKzFTdk5KaXlvWnp6VjdVSW5keXlMY2ZCRm4zQWoxNjRvK0tocDZjanRveHo2elYzaWVqdnEyTGFwemRObWpRbE5UVTNwVS85MmFmU3lXUHROSklzaUJ5blBrRkFHMUEwMDdjRS9FdkpUWkdjamdwRm1SdnRUQTBmQ2VVLy9aZDEzRk1MRjFVY21MSFRqYkZ0Q3ZjNG1uVTJ1ejY2Z2NBQzh4UDRQcS9vdGFFY2hvNTRmajNPdDh3RnNSMVJZdFlsZ01MYldoMFU5ejl3UCt1ZGo2VkhOejFKWGVXaWxLR3VTRExBWWJTT0NQK0pRZUsxQ0NpT0dZdkJkQkZMTysrKzkyN1dlazlQay9pais0aXVoZ3NIU0FSaG5tZTJ3NHNrUjNMYXoybStITGt0V09BMldPTnVGNjJlQ01VWXhJQ2VnU2x4UXAvVWhXUDcwUmZsZ0xHS2t2c2NvR1Y0QlgwS0NXRjVBanhvem5QWlA4bEFGRVRNNEVoUG84amQ2R3ZSNHNWczJOK1FqckNLMC9zN0NReVIwOCtkdnhqYXMvMjJrZ3l3ZGJXZllMT0V6clJ5elpwWXUrTUFwM2I4dzRoRkpSbEcrbUM2TW95VWtoa3RTc0JTZWFETGlPWGhWYlhOMHpkVTFqZFJlZmdjbFhCR1F5TFlBWkJQVm9LRlhRdGhaNmFycjcyV0VYS0dmZndlWlpIOEpDb05jYmpmQnRod2k1RmIwbFFLUnNuVlN1ZFhjVzBJc0hwTlRpUUFGSmZ4a0J4S1dld1BHdUxvMHBjWm9xL0ltMi96NTR0dlFBRkJUWjRiK2VTaW9KT3J1Z1d5MzNIVlova2JHZjF4ZHRRSHJod0h3VzEzM2NYcjVwcXhHSGN6MGcxOHNQc3RNNWVpQlBHdzRKQkYzdVpyL0dFUFVtWE4ycFhwcnJ2dmlzSFJNbWN1OWJDdHVYeTVRUFlRMkZieWRqRHcxMDhRckxNOFF4aVFlYmtHZ09VNXVhZGNSTjJSV3dBbTN4NXpmaERKWmI3OHlIK3FWQXdjMjF3WWFibCswc0JXOEVsWnRrVXdGci90TzYxdDZSMmlteXpkRXR0SStVbFRwaE0wdklYdXdHVVhncllxdGN4ZmxNYU9INU0yYjM0cSt1ZHNlM3N3Z1FXTGw2Wm1MT3p0TzdiSHExamNwVmZHSWRCVTd5b056cUNmclRMVmp6Um45bHpXbDdQSWk1bWFCcHpuc1M2N1l1eTBEUlVvcE54S29SSWhBMGpsdUZpQTFEeGhRcnpveDdsSVIrcThsbFpBdVJFcnZEYzE0Y04wcVVNWkdkRjA5NExSZk1jamlJNGlBSE1TbkFGR2JvNE5BVGd0UWZMRFdyOUZQblFnaEpaQVJsV0xWeURHTTFsMGUzOU1ROGF6MUpwN3Fpakh2Z255azZVNlU3aU1lTWFPS0pUMkRFd0dEUjJvaUxGMnorS3k2R1FtNFREYndmaDZYZHVpN2xScmFKclJML3kybGtVcUFCb2hXeFpLYWlFQ2ZkZmUzY0ZKRmk5eUNZaGlDbHBLZlA0RXBwU04yWjU0d2pIb3M1eWpIUTVVZFQyYlpIMXRqNzViTTdBRGpkQVdpR1FLUU94WTdqZEhUbWw4Y1NxZTgxbi96aVYvVTMveURlNU0vMXBhUkdGeGs1YThpKy9NemRXRWpieXFZK2IwbVdrditxQXpiNEtLbStGY2Rld05PU3Z0M3JXVHdlRzJNdlFWYlo5SUxPbU02YlBTdmoyN0dBaFo1RGV4QjZiZUVRZFVnRkVnUW1lckh3YW9GZUxadVhQbjhscVFYYXo3V1V1QWNXMTZqSzFVaUllZ3BpcGxWTlFva0M1MGdENlV6ejRXcE90RVZaY2NadFAxVHJZYm1kbzhqdmZ5c2Z3Ulovb0ZvSG9LQ0wvcm5uc0lOTVVLMTE2WEdPcHkwTm5kekFhMXNLbUszZW1uUmxGODhVdkFGY25pMVRNRXA1MHRaNndrVXNqNzBUU0Q2N24wVmhHaEZSNld1RU9OUC9jUk1xRERlZVpZYmtEajQxM1hrZWM1OVVGdUxQY2NsSFB5VHpBcUF0djI3RTM3anB4Z0R2b3A4dk1jSFI2VnRhT3REM1dOU250c3gvcHN0c3dsdWp1ZDlhRHkzSHZmQTJ6M1BDdlVtd0NpOUlTR0Rtcm5mUlhSNm9UaHlrRWt1NngwZ0VFeEFCMUNWK1NjdWx4RWpkT3hzWktRNXh5RUF0V09OVFRNWUkzUXhxQU5NS0dUTTdlVnh1YnQzN2VuM0RlaHN5dTdCQmw5WEF3c1g4emtncllGQzVha2R0WVc5YUFDNkdicmh6N1d1eFdyMmpYdEhTekpOZktydDd3cDZTSXM3UU50YmJ4cTdpd2RDUHVCYnFvdEY3TUdYQnJTV2tvcjY3dGdLVlpKMGg0WmsyVWJBeUIxWTdaT0lqUDJLeU1raVp6Q2VSb3QwWEdzUTNNQVBUTFBjYnFibHVpLzc5Rk5ZUUZmZk1IeXRHRE9qRlF6MUptdWU4VzFMSjRhbXo3MW1iOEJtT3lRU3dGYWJyNUdyWkxHbU9RQWxsZWVWbzF6QlRIaUJ4L0ZiKzl6Yy9kS3JPOUszU3ZzQTZQN0ovWTRKSmZzTnFJUkVFeWp4eVVWUEp6ekJIQTZhazBTMUJFcENMTlNyYzlSVndZTHVkaGw0cFpiYmlZc2JHZmExYmFiNTJ1WTNHOE1YZEI2aEl1S1BLSk9aWEJLWVVlOFNiSGJoYjU5R1c4SXUrdk9mMkp6cXBscCtmS1ZQaEdjMGVkcTBNVWNKSTVPUVJMVGhOeGh0STMzUVJ5K1NRS1NyNWgvNWp0MjRxV3NBVVNjNTEwcWtHTVVIUkE4Vi80enlGWFJuSmZBY21QYzdiZjF5L1Ywc1pkSlI3ZC93UUxRY1QxMnJaUzA2V0pqckhtejVrWWJqdklHc1FFR1lDK2JJUGp5ZUYwN1U5Ri91L0ZMNitoMjR3UTNYSFg5MURTc2F0L1I2RGFGK2g1N3VXY3BRU0Z5UUhjaDFrMWxNbDdXcEhxbjJPK0w1Ynkwd3pwU29US3JpcmFwZ3JBbHRSd0J3NExyMFF5T2JmaVFPZ3JjcUl1Uk04QklkOHNOWStpZTNyRTNOYk5sWGllVytJVG1TYnk3N3hUYjhOV25uLzZadDdLQ2JDOWJGUjltUHJPRktyQWxuRG9FbmVjTWdocXJXTEVlSnIvc0d0UG80OUFyT2VkM0ZjcThYQ1BlSktWNFU4ekNLZVdRUmlmNW5MNDRJOWNMWDF5SVp1cGZnZ081SlhNdEJicWNOcmd2bk8yWnB6ZW5CZWhCRld4SWV2amdmam9ldll2OGNtMHlKK0ZIN256elY5eFloeER2cXVnVktPNnIwbWYrNW5NQWZKRFhlMXdLYmRqSEVoWEZ6bkJ4bUZ4MmtFSGx0eW5yaFlMU0dnUFE4bmxGc0hxbDdocDFQeTNVb3YwK2wya0YvUmpKSmRZN2Eyem1jK2J6L0Nrdk9jSElvSCthNkJmOXI2SHpRcE5CZEVPWC9ocTcyQWVISGNzNm5QbXpaNlJITmo2Y3BrNFl6NTQreElHeVNLOE92K3VDOGMzc0pjN1dmQURSMStLcFBybExod2JtSm55cERXekdwVUhsNitqbXRyYkV3SG1TemFJcVlHWUg5TlZpSE9wN3JVVS9sN1pHK2FnWDExYnJHK1djRFNrQXdCMTJieVhYbVl6UUNJQk1jaVRlQ20vZkJDZFFqaHJ0Z3VXcGd0cExJelJndXJ1NzAxMFBib3lLdUpWZWQwUUh3M1dxK3BoQ21rNUJLVDM0NEtiVXloS0gyVE9uc2d6QXJVanNuR0hXYUFQc2ZqdmYyK1NhbWJDajZoWFhpZzg3eVhsdGVVZ0YzTWEzcU1xa2ZDbzRKbzF5U3hLNWlCd3pvbTdJYk1RaVZvWllIQ052ZDl1ZTRDYUhjZVBzWjJRcmRzTU5RUjVHc1JRcHVGRHh3MGNCZk9ocmNOZTU4K2F6S0d0YnV2T3VlM2hiMkdXQUNhRUVKU0VMczZyUUI4OURMRXFqbm9xNldHSktCWEliMUFtaE9xQTFoWEZpMlJ5ak9YSlhwa1VZaXB4MHBpTzdzbWlqNGpEaUYrRnNESXpuaXVVOEVGekZxTVFZeHBWbC9JQ0ROdE9EWjZDamtkc21CNFAwYVpuWGdzSENCcXpEWXdCdVk4Ui9OZ0t5cWJ5YmNPdldMV2t5QUpVQjZZV1FrN2EydHFhZHUzWUZFQnNBV29sOHhxSENUWjQwTlczZDhpeCtTRjRDUllDMjA3Kys3cU8zRjgrTkRFUzFnaGI2eitNaFZCT1JhSjFzc2RMVXBMNC96TE9Ba2hFTFVZY0JYc2g4YWNZTkFSY0FXZ09YTXFUSVVIbDFDdldxUGh6Wlp4bUJHemMra1FuUHlGdXlmQmtidzd0M3prQzY5T0sxaE5oUFRWKys4UVowazNiRUVaVkIxK3ZxUHdjOXEyTXd3blBUdWV1ZWwrTjR6d2hJMEU4Y0ZFWHk2ZXB5QjN0TzVUdzJQNElFNm5kTktNcU1ORjZNdmc4bC9YRGFUdXlkNjAyS2hXWStrNVh2YzRCVVdtU081bFVTaFBNOWcwMWpKcVJ2M1hjdkcxUk5Rb21memozNFo4c3pOVHJLMVkvQ0lPVGJsOEVMVmpkVEZUekdLUVk0QmJlNkkvVFdCK21ieGFROXZDRFBFRkdjL1NNWVZWVnNHdjBVMXp6MldpR09vMjd4SVIyeG5Pa2J3V045NVlKNkRjZ2tqSkxDY0J4aVVMVzJ6TWN1NkFsZm9jYW9id3hUUlZ1OGNCSHZyVG1ObmdoM2d5dDJNc2VuK2FPQmRycjlORnZROU1LWURIU0JQVkRlNGtWTDBrbjJMei9ERktMdjRlbmpsY1AxUk1Rdlg3STh6WjR4QnlZaEkxR0taZFdrVXJjUDNhdktaTDRNczZoM3JwdTB5NDJ2cklab0tCVDhzdk5wQkUvUkplVTcySmsyUkZxT21ldEJwNnlNdVcwMnhpUUhnWGEyb3l0ZTFOalh6V3NqcHJSaS9IUUdhNjZxN0UrdmVlV1BVWjM2OUlVYnZvUUZ1ai9taEJXcEVzK2tMcVl2ODF5Q29LUjQvY1hJU1MxQ2pSY1hPbGhITEZDNXBYL0lBVHlYaUFHYzZCQmZ2WkVHeEcrM3lidm5vVWQ0NzNRN1FReTd3eTNUaEh2THRjWTY0MTNXYTdKRXVZNHBSM01EZUdkWUFFOGZVdUhxcTY1TTk5NTlKMFN2WjQ1MlRlaUZ4UURST0lnbjRZeGlRU2Uwa2ZVMWNraE1mN21yQlJqODRMZnVsZUFVb0N1V0RURFA3Ky9ZWVl6eTFSWFYzUlg3VHUycEl6cC9uZGV3WkQzUVFWcTRiWXB2UWFwNHRoS2hma0VyaFlQK1h0Zk9xRzlPbnpndHpabzlHNGYvSHJoNVAyQTZFU3FDaS9VTWxOMi9yNDM2bHRBVFR6RmdlSUhUZ29Yc1pzeHViemoyeVlaM2ZSOWl5K3YydEl6dERHZXdqZDR4Z3JYN0dJaEhUeDRIQTJjSk9WdVY2dkZLZFBkMXMvUEdNM2haakQrVnFueFVvMnJRN3hYVjlqdjBEWXd4R1BtbDBXcGliRkIvQm1mdGhCa2JoakZhSXNwQ0FrSTU3YUJCWkQ5dENwMWh6cXhaNlRCdkxaM0lQTGZnVUYrTFlGcktjb3NSalo5ZHU5dlFwWGdiRmRjYmNTTzVEMDRUdmprRjBySWxTOUpqVHowVEkzYXMyL0FoTGcxY01PVnB1RnlwT01GSEhqL1JGQUNOZ1JNMXlWY3RYMERvSEZEUW9XQmFaVHJDODlrSEtVRy9kTU1OYWV5NDVuZ1Bpck1iV25SOS9RNEFucUhqSEtmbmpCUmJDaWVpWFc3ajNJKzRXY0YwM3hPUGJZd1hsaTlwYVlrYXVJVEJ3V1RIYWVSUmpSaDhicXFWZ1VLOXlMdWY2d0ZHbnBJajJpZXVESFIvSGwvdFZnUkFaTGNRRjBuaEJ4NTByUW9qbEFGUnd6b2wyNlBqWEc1cktyaUorcHpKYjdtaXY1eDc5dlVrVmlwZTdDa29xWWVpc1Bkc0ovUG5lOWpjd1duUEFYUkhsbDR3MnpKejVxejBGUDVFRitDNUhGZU9PUWxqWlFwYkZUNkRHQ2JYMUkxM1JRNDRDY2t3RFFQbjZXYzJCMWZ0UVhXenJVdVdMbU56MTZhMGRmczJ5bU9CRndhUk15NCtpempDZ3dCREFYYnVlVG1NUk1pYmJBbkxFaThJbUJNK1N3ZDYrQ0hkL2F4Mi9MUU52TmdZdmNLMnlLN3NMQVYyL2llTG5rVkV5b01QUHNEV2FWdlNMQnB4OHRSeEd1UU9GZHd0eDZNaWlrb3ROSjJvR2tBR1dNemhyVnUra2FFZEx0ckNDeGtuQWVnNzcvMFdnTXp2OVBQNUREQWJjQzVsRWtjL2xrOWFsM01wSDBjM2xFK2l3eEtmcUhzRlNLU2JicjhkRWR2TUxKT2RsRUVxMkp3djlaOGhYZXJWY2poVmdqd1BuVG52QkF3Mk43Vi9adXQyOWlaYUVtdUhocmpIMlFiSFVBYWg1ZEIyT3FRUW9YSWs0SmxGR2x4U2tVVWZTS0RnbkE2aWlOYnh0bkxpY1M1alJmTmIwWjdqRjhtYjh4cHQwbjUwS3NyeXJIVHpkOHpVY0d5OUhIZ3hiMjM1RGpsRXYyVzRjVUFsYTZDRWdmNVIrM0Qvb1gzbHVzSjVLYXVSZDlHMHRDN0E2N0NMUEpDUi9qRVlKaENSWlAvdlA3Q2JnWkY3UmpvME5JN2xma0xvdG0rUGR2YWpCdGlMZzlvZGNqMVZ2YUFTSjVFRTJqYnErd2JuUlAzSmYvNkNCUmpDdS9LbTkrNmdxeDlTaFo3YnVCdE9aTzNMeVk3VG1CakMvSFlrVnBQUkFFQnJCbFNQM1BldGROdlh2c1JlUHFmei9DZWN0UXVSM1EybjdNSFZvRkxkaVdXdW5ybG4vLzdJU1pIcWJ2enJMMXFmWmt5ZGx2N3liLzkzT3NuR3A5bGl6bHpqM096TFNGTjQxdU5jTHp0QVFoY3BPQ1dvRGtuTlBYTEovUWYzd3hrblJPUzJBMHpPNVdpVU16cjlLS2MwREV3RFFDRDY1M2tqMUdmUG5KMGVlT0MrTkphNDBQbnpXbWtiSUVRZGlOZGhVSEpwc0N2RVdSRVJMN21BV3dZT0lDK2hyd29xZDdzWWh2amhWNlN6L1I3TmplTTUzVDhpbGg4VkFFY2pTQitlb2k2RDIxYWVBN3kvTkFDa3hDQWkyQ1E5NVBTQzAyMW9CRXA0R1ZBaCt0QUJnMk55bnhLdEF0OWl5L3pXbUJyV2pWTnIvZEFkaldGWXk0dXBPckVSMnVuUFd0eEJjcjl1UXNvTUx6dDY0amd1THRvTkxYVHR5SDBYTEZyT3R0YThjZ1FSN2tEd1BJUU02VGlJTFJLVEFNNW9DRUxiU01SV3VQNVFENHYrVTFPTS9odlZuM0k0ZW9nNWFSRHMzR21odThsV2l4MVJmUWxrTVNJVk8vV01qRUZDU2tyNDdVNTFkS2NiYi9wYXNPRStGUGxCd3RqVU00ZlFXd3huUDhqR0F5ZndUYmF6QjdadnJwTDd1RE9ZenR4ZmZQdmJVTHhyZUh2QUYybGNkN0NlRW9RMCtWYlV2SVo0Tkpjc0d1QXdvVFhsWkNmWk1FVmVBenZaOXNISjdGQkQ2QlZYbGZnWVZjWU5zNDgvOStWQlpUQ3BjL3JzK29zdlRnL2M4MDNxZXl5dFdMRWF6a0JuaFlzR1dqS3cxRlN6SzhkZGYxVXpzQ2QxYmdNK2lSOUxCelJXRUp0eUtQVnlKVVN1bDZCMm56aWhsRHZJbVE0dXhwK1dPWDJObnRoSUdhNER6OVp3M095SDk1V1RMaUc1cHJ1S0ZQcmpFS0xOY2dUMEpQYXdWRTlWRGZJcHB4ZUw0ZHU2WkRXdk5ka2MxdThod3QvSUJVZjR3dkJCYnQ2MkMxOWpOMzExZ25scTlNUmxTOU5TWG50eStPREJBUGpoZmZ0a3liekxjVTJhTVcwMmUxVWVRQ1hyNTUzaHh3SWIzWlNqbEVhUkthcEt2ZmxOdlZ4SFkxSzhPM2lMcE5xaXBhMTg2QlpqWHVJajFKSTN2dTRONVprVEhxWmpnK1htZkZqb3hRRkVyMkY3dlVwMHNyMzc5eEp1MUl3Q1c4VitpcE54amcvZ0p0aWVOaEdtZFJJZFV1dHMzWm9WNlcxdmVrVnFSN1EzQUFaOW1uMTAwRE83OXdET2JoenBrMklqVGwwMXIzMzE2M2l2NEtaMEVCM1ZkU3c2Q3FBcU9nQ2NJamhjdVNKRlMvaVdZM3BXL2ZJYzkwenBUei81OGJSbDU1NEFsTndqT0tJSUdrazhwNjdGNEpQWFZuQThtWjNOdm43VFRlbUthMThSRWlKbU1ianE1Z2R5VjcwUUJVajAzeWxhL1pNYnduYWlycFlWNEVRL2M1VDNNUnVVZGMzY0FRUG9wRzZHNnV1RlhaM1h6NGdwTVlCRFRGTUhuKy9ER0hpK0ZJdit1ZTQ5ZkFBMnl1ZmJJRnJmSVZPSGdkYkxma0NybGl4QzMyV0hZOGhYZ2FYSWhOcUk3ODh0cVUrd2dsSGY0Vmg4aW02bnZYREJvdlFRUWNhblR6SXpnd0UxdG1rczhZd1QwdW8xNjNtMThxT2M1NTJJQkZJMGNlK1U2WE40Kys3UzlQaGpENmRUSjQreU94c2J2cklPeDlhVk1GNWp4cVdNdGVwYWRXVit4RVg3azRHWmlEemk4L3prNERWNUJiSWhWWkJhRFZObWI1ZzJhMDY4dWkzMnVPSHRBZzVLdTF5Zmtxdmw1akVUY1pqejdydTlmLzkrUkF0K3lhNk8xSXkvcWNlb2NrQzNpMG55M1cwNzAwUjJzMWl5c0pXMUluUFRwZXZYY2QrcHRIUC9zZEEvM0c5UWZVVkxmTkdDK1ZqRzFieTV2ajIxenBrZERiL2w5dHR3d283aGoxbUU2QUJBQXdld3lnWnJLSHFGbHcyd2czUzIrc3NPc21sMWRXTjVjMVdIbFVja09mYUVLMktBUFBKeVZJQVVyaWJpTENIMHRtMWJnOE9OR3o4aE9BdGtvVnhIT3huRFpUSVhnZ3N5UU5TckxEUFVpbENJS0FhaWgyRUNkNVJEV0VQYjUyNjRRVCtlaWRvS1JHaXA3NjRRdTNMeEFEYVpPQWdFLytoa09UNXQzVFdRNHB2eTdVVDd4MFlhcGRYYU9qK2RPbkVrZGZUcWhrSjNCNkJrN1A4dzBLUlpMYjNkaFZnMTlsVzliZC9ldllHWHFEdDVOU0ZaRmhENzZyN3NocTBwWmZ0Y2V3K0FGeTVjbUhidlJuOUVxamtaRXB3TlJoS3FBUldKWlNiV0J0MXhtR0J1STZlc250d3c2a203amZRSjhGbC9HSVJ6OFpBcjZyNm5yUzFkZk9GYUpHY3QrMWsrbmlwNzBDTnV2L1B1TkIwTHl2ZjJYY0FVMkV4ZXd1MnlnU0dXTGd5Z1cwaThCb0l6WFhndjhZSlU2R0VuTVZiNkdKMWhtTUJaOVRVOVFxWTdkdS9DOTdlZnFPYnVkREg3aXV1VWxTQnltaDZPZXhEdHJzN2J1YWNOWXRURnlPM24yc3RmZGgxTzFhYjAyYzk5QVhjTm0zWENUYnFwUTlDZkJwZzhWZyt4VEFucXNZRDgwbzMvbUhaTGFEcWlDaXZWY0srQWlCd2o5eUNnWk05TENLUlQvWUg3N3llMHFpV21EUE4xaUVZK2NpOHRVUXpxK0cwSHhEL3lkRW10Nm9iZ0hLYmRja0U3cWdKdWFsM3pXeGRVR2VTaVFJRThyTStnaHBWd2hldkRucjhkZklXZWFZZnhaK0t4NkRSVmx4N2lJUVZJZUNUUWVkdHh4YlNnNDdwKzVjVHA0OHl3NkNycUQyOUhRU3VOK3pBNE1kQ04wRjY4WUdsTXErcnVzWVRUK0J3Rmg2OEdjZkgrQ1Y3dkl2ZDJ3Vll2ZWExQVpLc0dIQ0hnUlBlZW9XaEtOSFcvZUlzWWREUlY2K1VZUmwxREFzZ1dWS2VzNnpCUzBjMGhJRmpjRi81aiswRlZpRGI2dFAzbklIWm5DLzNCRG9TcWFzTFBHc2FPaDF0c3AzRW4wOHV2dlRaOGZLKysvdnEwZGZNVDdNOWRrNll3WmRSSmhTcmhqUHI4Skl3YnZaK0UzWGNBTGpuc1VYWVBjdzU2bURqR3M2ZlBwaXN1dnlJOS9OaGpzV2pza1kyUHhiNkVvVk5ZSHlvamVKMldQQXZnYmJnK01sOVUxTXcySEJlc1c0UEJjNXJBMkcxcHpGaDhod3dDS3h6NkJjL2FkQnNra0tBUmdHYUxZZlNRTHZMU2VCRXcza04xb3ZHTzV0aWtLblRsWWQ0aWNacE5uMmJBb1hubkhqMG5GeEdFQlpjcVl3SXdTV0RBaDd1bVdyRG9oU2h6TW9FWk16WGtMUWMxUGxFbnQwcTgrbXdrNm1kVWtRUEJ1c3A5eUc1a2dPU2I4bWNNTUE2RE5qNUhlV0F2dUxWUlV6a2NjRGg4aHMxWXZvOXZmcHg4Y3BuTzljK0JmbU5oR21kNXVZQjUxVE5JZXZIV082VjV0cnNUeWJZM0pKdXhqQTNZQUlzWHIwU3NWNloyeE84eERCZWxnbnJraFV5RnF1WDQydUJUekZGTHlmNEs1dVZwazlpU05nUDZFK0dHMHRpVHFsbGo2Sjl1OU8xTExsNmZqQTZ6SHRMSGRqczdKQ0JWTVd4SDZObWNiNFg3dGpGWnNaNDNvaG0rOXdSV2RnQ3lCT2hLckRIUmY3c1pwNllUOW9kUWFHc3hZQzdpTlJJOVdNZTZjcHpYdEdPMXdHTUJWSU1WcXNLWmVqWitPM3FFeXpoQTlMV2JiMDFYdi9TYTFFemM1TFlkZTJEMzdqa3psQ2F6RGQzTHI3a3FQZkhrNHc0dmdNRG94eEFTakhYVVkrYTBpYXh2UG9LdmJGeGFOTDhsd3R4S0lNdFlPemx6QU5GU2FKRFVjWlRkZVB1ZGpIQWlqaGd3K1hXLzFLdDhYUzZtTHRtUC91ZE16blRlMHJWbHl4YVcvbzZKVHRjb2NVTW45UmNqMEcyYmhNenVMRW9rSHpzaGkxZEJtUFVldVk2djgrQlMxQ05jSlJEZWNvUFRFazlwUG9KUngzU3g1a2VnUmQzak1VQ3VIc1V6bm90cE5KNEpXQUo4QWVmZzEwcFhGVmlNM3VlT0dLNEZrbk1iL1NScVo3S3QzZFBQUHNQTVZHTU1MSmN3K0VvODY2MXVKcU1ZaitRUkRHNkJZMHpqNDA5dWdoNTF6SjRSMEVzK3JvbHBhVjNJTW8xSEl2Qlp5N3JhL0trSHc1SHlaUGNPY25nOWd6L0FTT2FDRkZZUmZzMVZyTVhhdFBIUjFJWGtsRDV5ZWR1aUp3WDlnVG9oUmVnUDE2ekxCbHBiV3BpTzNKR1dyMXhML2VxUXJvYWZVV0FoKzdOSTBYV3lMMjNadm8wSDVxWERpUEZCT004eTlndHZvakU2VkZWMDVSd0RIVU1FV2pRSHVxc0pzSFNKZ1ZWZHNYd05BUmJ6WS91MTMvenRENlhiN3J3VDBGRkpnRzJENWs1clR1OTYyeHV4MktZRkdIdXAvQkNxUXpjYzgrbXR1d24xWjdUak96dkxybUdYWFhJcGIvcWF4bUw4cjZJckhTOTNqazBWbk9wV2pFNTBIWk52NEhMYXE0S1JxUFBkTzhLVlFvZjRMdTErd1ArbEwzK0YxMUhNQ2xIS0NHR2tvM2lya3dnRU1CNkJzZVpsWi9KYkF1cUJrTHFoUzNMTklBZ3ZocCtQUE9RQWhwQ0pBQUdtbzl4a2xGRS83aGEvaXlUM1VqZFZMeFNjYmx2b2R3d0d6Z3RDOVVYYkpYZTFZeGZPWDBEOTYzaDUra0diSFhUU2VGazB2elVONC84N2RlbzB4c3JZbU9LTGNvZ2NkMEFaMXFVcW9RVG9RdlZaZ21FU2c1K2xHYTQ2N01RSXRaemxLMWZEVFpsMWdSRlVFWGR3RW5kT0RGU2VkMmNNT2IvdkV6ZEl3Mk1hQkttb085aHhYbnN0cXd5VllBY1A3STlCMEttYkNGMDhXQzBWQ2hXSGdTVzlZNTBQRXRIMnUrZVRTNkJaMWg0SmNsTlhLb1RtRkE1dEYrR0U0aDZFcWt4MzMzVm5ldXJ4VGVIY25vNWhNNXVST0FFTzE4aGsvSVFKRTJHT2xlbU5iM2hEV2d4dzYyaGdEUjU3QVhEck4yOVBQLytPZDZaUGZ1S2o2RHVuNFhpSDB4MU12NTBoRUdNc3oyN2IxUllOdXY2S2k5QTFjQkZCTEEwZGxlWitsUE5PZG9YWXhRcS9zWEF4QTN5dDlKdmY4RHBDelJyVFp6LzdOOHk1bnFWc3VCUGhhY1pmanFOT0lkWnBtSTVpbWlTUytNaDZwUE8xdWxibXpaeUJ3YlhVbTdnSHNIQXZwNE9UT1ZVb0IzZnlmNFFib2tpT3JJZ0VVN0dFQUtSbS9kQU9vY1BsWHFEVnVFYm4rdTNJYW1aWlRITEkwZCtGZm1pdkNWekx0cXBhL1I3bENIa0IzeGRyY2R4MnVnbkpjQm9hbmlZeVd4WEhQSllzWFVIYzViUzBGeW1tbU94bURVc3ZITmw0Z25ENWtLbnI3V09FOGRuRmdKbkFNcFFEQnc5dzN0Y0JuZ3gvYXJ3bUJDQzJzNnAwb0tzbmRGUE1QMmFWM0JBS0R1c29oQnZLNFdMZW5iWnhKZ2FQYlYyN2VpM3FVajB2bnpyRTNQaFozaHVPWHhxd1hYYlo1ZUFCSnFINklnZ2RnTHI3WEVGYUJwOWdWV2MweVdWTk1oQ1dNTXpZZ01YQ29VWGx3Z3VSSXVQUXZUQ0hVUHlXdVhQUTU4WkdneSs5WkQwK0tFWVR1ZS9idlR2Tm1JTkJkSnpYdHlGeXlTSkc5UzIzM2M0TDJDOUwvL2tYM3BIdWZoQWRraEd5LzhCZUNETTV2ZVcxcjJEVHphOHpRYitJaUpObjBva09SZ3pQR2JLa1UxWWRxYlA5REEyRU8vUGNYTXIzUmVUNnJTNjY1R0tpbG5lRjBlUEwxWTFkM0xsblh4RFJ6cXFEZFRqeWh0RDdUTzVhbXdIS0d3NXV2amt0bWowZERnVVJBSVFMOEcxM3pEdVhPVUU4eElkdUhMY1lpVzJOb1VObEVCT3hLcEQ0bmZYRTRCUGNEUWdKS0s1eUhocmlGMEEwTHdkb01lTWlYZVVNTVVQRVFFSmtRRTgyVVNpdlpGVFVLczZVSEJNbVQySTNES1pidWU2TFBmWFpUbUd6MCtsSWk0MmJOdUxkd0ZXRGM5KzR4WG56TUhBUTF3YVJxQ0pFd0MvbVF1NW9PSkRTb1lmWG9BQmUrMkU1RW13eUl0SUlLSTNOYnFUZ01KelJVRVEzL3ZkMUo4Q0ZaaW54K0NZakp4S1VFUExHNWN4bno1dzVEOVhuYWR4MzdRRnViMXU4Y0hHYXpxQnZQOVBKM3VsZFBPZEE0d0lKVzA3TmhLYzVwNDRORVZ1Sm50cTN0NDIzNnZJQ2QvclNOVXhlZ1psWWVCU2R4YzlJTmo0TGExRExKWTFGRC9FVnRuSTBBaW5UK2d2WG9XYzI4V3FOVTJFcFMvd0dSVHJpNWFWWFhwVytjZjhENmVmZjl4dE1IWjZKa1dJZTM0VHJ2dWtkNzBsWFgvT3lORmpkbUNiL24vYk9BOURPcWtyVSsvYmtwdmVlM0pMZVNDVUpTVWlGU0c4S1kyOVAwWEhVWngxOVRna3FTSXVEZ3FDT091T29LSU9Jb2xpb0NlazlCQklJcE9lbXQ1dDIwMjU1MzdmK2V5RERNRDdualREQXNKTjd6N25uL1AvKzkxNTc3ZFhYMnAzTFl0RXQrQ2xsT1BlYzBXbkRjMDhuZkFJQUcyckpnbmh1akl2YWpwQW9mYXZseUVENjEzLzI4L3ZaOVR0VE94QllnN3dJcWUvWWplUzg0bStSRTRBT3hldlF2N3dzMVNDeXVWQis1elVac3NoMjNaQlpDem1SNzJWdktOY2hIeE9pUUwvS2tQYkxkZnd5K2x3V2xoMmZnYVlweEtQbFhzRTVLRWJPUytOWHluWTFlTFdNVndUalFTQndEa29xUlhMNU5MK3MzN0ErTmxnSmNsMXBTK3kvTEdPL2Z2M1RYdktkamRwdWhSSXFuTFZ5RE1ZcW9oKzVBU1JTMFRKSnF3NkYwUndXakZCc1lzYU1NbVdKRlpYU3dmMEhwNmVmV2tIOWNYM3Uxb25FM29zWTVYdzAyVVFaRzhjSlZaWGJxSXlja3RMelhtd1pQSFJZZW03RDg3RWhUUGpTczZNTWF2V045UnZYc3o0MUtNaHIwK21hNnFDTWdEaFI1eEgwUXZRaEtEazhOM3lVVVhEZU5EYlhRYUplVU55eUk4RVZlREdnTkFWNkZCaGtpS3l3SVAzQVVxNXVSSGQwSmVRcWRqZ0QxdzVaam0vYS9CcmxvUmJrMVp4Q1E0dUR6cG1jYXYrd1lVT0NkRXRocW1FM01XRkc1N0ZtcmJBek9xQUhmdk5nbkp0NG1FQU1OYXEyQ0JQblQ1MllKb3dlU3NybFRzNGNaRkpBd1hBc1EvY1AwVStuRHUyUmZZNEVGVHhyMk9DZ2tFK3VmWVpwRmNTUkg0ZHhhU2xEQmxYa1UrVWVOZWcvUFA0d1lXU2RXRFNRa0ovTTd5MXl1aGdnTWZNQWN4Z1hFQVN4TklnWHFGbXl0U1BRbHUrNHpVdjRnZVh6dVFwWlRqTVhybjcvMGhaeW9yT2dUNS9oSmNwYlV1WWNKM0tEOTBIalBBblZPNHJ5R0p1TFlaM0NIRk5SVVpFT005OFRzTlFUdUdWUGkzVEkyMzM2OU1aMGRoeGw4MWpJdEo1Qm1XMHVDRXRHaW53Q1krSjZuamxnOEpDSThENkJPZVkwSHJmRDVOczdCeW05Y2wyZUc0MzdES3J4QnRtbmRNaU5Ld3dIZ1hBMVBNdm5xYWtmeEt2amhqa0xCSzJHU2hwTVk1aWFKaW1HSG5aRk4ySUVVd1RRZUU1UVJyN2xjeFZKUFVWYk4yK2lqeXk0WWdWV0dVWUMyck5yODdRbkJiZ2NoRlBnVmY0dmxCbXd3bThPSWYzT0JaV0ZxN0wzNnQ0MURjVzRhWVJ3NnhhdFUrdjJIUWhnblpEKzllNjcwNml6aGlPUUk1bmdhblFDVzdkdVMxZGRkVlg2OW5lL25YYmp5MzdnRno4UGFsQ0RGdDY4VlVkWU9GRWo3TTd6Sms2SWdaL1VyNHBNNHhIQ3g1QXZ0WnNlWTNITUZ6K09UT29rODBDNGlyTHVhYzNhZFJGV1paNlFRUjR1dXErbFVPekQrd216cDg2MTJxS0ZPRlVZUW1tSTk3amJvTTZSMGlueXc5YVVlNkF0WEpQQkpkeURiS0pNNmNBYnd6TnpDQ1U4em14blVrUVJrZldNNXZ1c0hyZ3lMUFNMWi9Vb0t5ZTdyeDN1dUYxaEt2RTRqMkxNVXhXd3ZrNzQvUGN5Ymt2WnlWcVBRLzM2d3haYllsYlpUWkN4RzFUcmh3Wnl5L2VaY0pmNXpkVndRUVorcTdrYkhsYUZHZWM0SWVIbXpoamtJRU93bkVuSTNJVlFmNjcyV2dQcVJHVGpQWFdGRHNlTzNLdEhHV2RIYm9tRFIvZnMyVTA5bEdOcDFNaVJlTGs2NFREWmdWZkg4OGRoM2NCdDlPaXpVMy9HVWd2N1o3b1NWWWdydG12WENRdzMxeXBrU3A2VnE2WXNlTHhXVUFNajN6RWdoRmNyM0w3US9Kd21Vb1lXU1FjNWs0ZWZhL3NTV1kvQ05sb1JjTkVDRmxLS25IUGUrVE9RNDRyU0hkLytYcGdZVEFvckttb0dpMEcrTEc2Qmd0UWtmZm1tVzlQN1AvaVI5T0VQdmpmMUh6VXF6Wm43T01iWUU4aEtoOUt3NGVTcHpGc1kzb1dCL1NwQkhuTEVZVzhDWGtwNVdrUUVHVFNZTTM4V0ExY2NMR3Joc3RXeEdDTkhqUW1OMnBKMkoxbEVOMWxacjI2cFY4K3lRS0FzTmxFa3kxcmtoOE9SdENNcXcrYWFyajZiQ0MzU3k1YU5UelE5VnFUTXRWd29tSDhYSThnckl3YUphTHhBZVRLMGN2NTJ3VHdtV2ZiY25HaWtua1RSUExsaWFUcEFES0xHYWMwNWJUZ091Ykwzb0RTUHJFNlI1ekFMN2JrenBvMzA2OU1mTitzeWZNNTd3Z2plRkxteE84aWlqM25COHZtUkJScElRUDlJZ2pGZktYNXpFTFVhUlZEc2tQRGtGUUU0bWxUUXVwYW5UMkdWNE85QUhxa2ozRXBIeVFBUWE5SGk1V0dQbENyYWhnNFprUWFQR01QbkN4RTdqbENVZFUvNDF2dEN5Y2RndzN6eXlWWHBxZFZVK0toSDRRUnVvQWljbCtmQmlTeExrMDlGalhnV1kvUk5QVnhaSEpSVCtWcFEzTHpkekRvQXFUOVNLZElKMllrM1piOWdzNlFpZENFMU1yNzA4ek9hU1ZVaXBnR3pGUURZS0JFMVprUGhqeUJQckVkdzFtWnBoRTBKUmxxUmU4Ulp3OUtqRC84dS9lcUJYeE4wVVJVc1kwdlZGcHovYTBtRnlFL25USndjR3ZhR3pWVnBIWWRHU3JIMUV2U3ZMQ2RjYVRPSUNaSkF3VnhneWM4MmR2OVJBamlFNkE2Q09GeUFEUnMyb0ROa3JOQmowTFpxTWdtUU03K2dlckJFV0pkdkk5U2VoWkM2T0hkYkpoK3FOVXRyc01WUnpDQ25yT1JldmM3THRVNW9XRlkwVUh1WDBrZ05iUUk1aTR6UDVOVlRqS1YzSmNKODFiWmczU0lNU3hPWm52MzY5RW1iTjIrT1ByUXpPa2VWaU1wK2ZlS2dVTm1mN0RxUzBPaTNzcndDZWUxcHJBOGViaVdCNEhsUVhxbGVYUjdWenRoVWlnY3hEajZYUlNzRFowWnRDRTFReVJEeFlzeFdmMnNDQVJtQ1hMb2RWM0VKcHJ3amVIVGtoaFpsR0RKNGNOcTQvcmw0amxxMW9vYnBDZ01HREVKQjJnZ3M2OWtzSEJKS2ZDM1FEV0lXcmxwczFSN081RjdGRkpyQm4vSDNRcW5adG5VenAwa01Kc0M0aEZwQklISitpODR6OHdpY0tDalNNQ3NIejBpOTJKZ2haVDd4Y3ozaVRCR0JLNnNKTmg3VEZIbXpGZFQrcHppbWh1WVJ4RTJZekZIc1diNVhSb3hqNmx3Yy9yVnBCYVhFcTlBTGdPN2M2MUVreWpyaytMYnBrTlkrdlFwNVpYQzY3eGUvU0Z0Mjc0ZFZrWVlMNEpxWEZLWjNYRElOZVdOUVJBL3R3ZlptbUZzUjJ0OW1vcG1yaVZKaEhlaXFBWS9UQWVTclUyaWxIWWxzcnNhNHZpUTFBVWtOUjVQS0M3aGdHOHlGTjR6Yk9UVWlJNi9CY3BtTC9la0kwUGd1NnVYbTJqajFGMTVrdmZaejZwUXhseXc4MzlpSGJqOFIwL2ZIaUxIc1c5RVhtUmtXekVhUTJxcGhhMzhzcjZ4RVcyVkRBVW81d0NtQ0hVVElmaHhWc25mWGR0NG5JcUtPUkdsa0QxVXlIMmJYM3YzTTFjaHlYSWJBMTN2NzlEYkFZbmRzWHF2cXFrVHdpL2thSzVyTjJmSElub01pT1U3K29paGpiTTZ6TU9Qc2gvb3ExaHdnRXR6VVo1MEpBL3NQakFJUnVoVDM3TjJMaWFjR1NsK1FocUlkSDBDV0ZBWDA5aWhEdGlYeGJ3eFdtRTBiTnlFSnNxNklPV0ZaSUVnblBHaHlGMjRRL3IyWnQ2S0VoUUthZ1BCTEF5RmJkcDdaQUpWam5JR0E1andJVUJNOThrUlFBR3h3clNWQjlCYUlsQzZxaUhsbVU2RDJPOW1BUFJsd1VWWldGdHAzKzlidGtZWDJnYVFjek1UWGc5aUJ5MkE5QTN0WHBGM2J0aUpJVyt1SFlBRmt3azk5L3EvVHpKbC9ud1lpUk0rZDgzaHEycEpqZ1pIek5IbVVVcTI5QjU0V3o2bGV1WG9sTVpmMVlSVGZ1ZzA3R0s1TlZlSVlJODkzZkNkWUxObTJaK250M0pFRmpXaExkSEZDQVJBSlFSWVJLcU5vSWcrTHBQbEcyNUNBNHhyYnYwVkc1NWg5cGhLb3FVWXZDSjJBM0h3SGtoM0gxNjBHYm1SOUg5aVpBTiswYlJOalFuTW5tRm56VmovOHlMTE1hdkxhajBGeGxHSDFpZzFGM0ZBYjMwczQzQW1RVnZuVzhLMEJIQWRpWkxleTNUNXFldXFGc3YvUm84WXhhUHpOOUhFQ1pIYXh3MmdBVXByLzdneU13SkZhU2ZtQmRzdzV3dG5vWXhTc3RubHBpMGhIVUVZTXV5M0lOMmIwYU5sSEtGcFYyN2NoSnBFT0MwSk5uREFocVBoaE50RzJyVnY0bnJRVmNHTEN4SW04WjN4d3BrT0ljZ0xUZU51QUZvaXBjcFJUSmczOWF3NVJzbUJZLzc2VkVURytWTmRoUGl3N0gwK0hOajZqTXJJbU1zSXM2TW5KOWVyWms2RGFqbnlmZVVKZURpRkZScHNhdU8wRmhBVVEyZ0szYkt0S2s4YVBRNm1wQ2hhclZuNlFNLzFNZURLWHhjUXJ0YjE1OCthbjk3emptblF1YnNmOTJMSm16M2tzaEgzbHJVc3V1akNNOWIzS3lrQ0M1dlM1blIxY0hQNVFnMHVERlVPbU5YOUlpUzAzRE1uQ2I5MCtmTzBNbithT2ZSSEpISGNlaTlJQVlMUU9tR0lRbGQwa09iVHdLTGlyZlU4SFhtOFltc0d2RVk0R2l4YVo0M091a2UyWkphanREMGRlNnRhdFYxcjl6Rk9Ca0hhcGljUXhEOEVNdFhUVmN1eUxCTk9DZENWNHdVUmFiYTdMVnl4UHpiRUxIc1hzWkQ4dDhZWjE3VkdPZkxZOGlNRVJFS0JaTXlwTWRPZ1lsU09lSXVhZ2hySHJpODRSQnVoSVJtRVltK04ybzBRRUZadGZqcUI5MlpPME9uWG9sSjdFK2NHT0NuWmJ4RGg2ZEN0TFplV1ZhZFZUVDlJdkZCajVzNUI0Z1I1ZHUxUEJwR080bDVXcDllemtjOHljaHpuMXhGejE1SXFWb1F2c3dVTGlCdm0zbTFnSTVvYVVSMUdGVHZqWWo2U1JaNDBNcjF6TGxpMUpHa1RManZyZVNDcHhNd0RMTDJBUjJVazJGMUQ1eVRSVHRVeGRleUdnTjA0eUxuckpyMkNKTElxdkxxa3lsZjdUUzJaY2dKWmJHMEcwbWpnNmcyQU9yeFVrM21EYXBpWmdZWmNiTVh4RStwZTc3MDN2KzlDSDArLys4SHQyY2kxRzhQM3BYKy85VWJyc3lyZWxNcUpXOU40WUwzbFlFNGxJQk5MWDFCNE9GbWdCZHlzcnFDUzRvQ2NJL29pd0wwWVRpTWc4Yk03WFhXMVVTampYNkNNKzV5VkhGYzAxRVQ0MmsrdWRUMUJXeG1scjRIdE55RkpZKzdKUGJaNEc5WnFrZjVpc1RaSEgwS3FqVU1TNms4ZFNaUVZSMndRN2JOK3hnL2xDS2JIbE9lWktxS2hwQUVldzJUWkJManVNcmRJTjFxdXNNdTJyUG9Ebkp2UFZLd2JvZCs3WHYxL2FCWnRVNFRNbVFFcVRlWHBnMVd6eTdLZ1B4c2g3Qis3b0RheUc3TVNZaDZNbFZ4ODR3R2JBbHNxNEQrQk9iQW1TajVZTkg5aURzcXJCbXlRelJLWTh4S0t6Y0MvS2xzMmZNblBnSUVncUVnMGQzRC9ZN3A2OUI0TmExOVFjeHJaSlRYZVZscGRweXNFV1FSakVFY3JIRVRXNmQrc1lZOUtFZUtybUFQVlZ0ZnhxQW9HcW1LcGFYOGZFaWhsK2FEMGdGTWlaVmRxU2VqTXpjRUZTbnkwUEUyVXlMOWVrR0NLQXIycVZIbW5iQ2lQNitaT254K21sYlVrVGtPcVZraTFYaXJ4WlNreGVxeFpOZzFvcGg1cnFZSUs2aVVsS0IrMDdkQXZLOC9TNjU5T1VHWmVtYS8veVErbkIzL3dxclZuM0RLeUx4VHRGOUJBTGVwd1RYV3ZSaEFXMG9mdm1NNHRFR3N5VmplSXpjSktQWEsxQVJ1Mkt5blEyNStPWWJibkFYTjlMVWZ4VVNwT2hkT051ajgvUW5JTXFDeHU4R3BodGpGWXZBUUZFTU9IV3U2SU10MWtKQjhIdkVUOXdCNUlNQlNMM3dldGgvT1RCZlR2RGxSbnVOOWgyLzRGRDJIUEZRYlVZT0dGZ3Uxa2JFK1k4QWcrV3ZXOWZJTkx1QTNJSnlRYitZK1lZRkZLQVFTSnpTMlA4Z01mazFZUGtnd2xrS01KTEkycytSaitPUnkvUUtOaXpIaVNmWXptOURaczNnTGg1YVNoeXBXdTljOGV1TUladjM3bWRJQTRJeDlBaEFZOXFyQUNIdVg3N2pxMnhoaU1KOE8zZHUxKzIrWE1EWUw2NUppY3NFZVhjSjZ5SHlxcVFGRWJDdDZDNGJkZVorb1VMc0JYV1UrWll5NzZWSmlUckttaktrTjI3ZFUrZEtTcWtFRzVNcFBLYXpua1hKMXM2cm10Y3hOeUR6M3gxQVhKczB1UE8zT0dkRVFGYVV1YXRHeXpnRUw1VnJFNU0rRlNqRjRKcWExMUpMRUl6ZGh3K1JZUHNsNis3THYyZkwzNGhmZkh2WmdJd3dxT083VTl0VzdSbFVpemNRWlVqaEhmSERoVngxNE5SSVV0VjRtdXZ3dThiT1RhT0JlUlJtRGYzMmI3VnNzOXNHUUsvbUpNaWtwb3paT20vbUl2OSt6VG00cXZ5V1Iwd3RQd3gyeEMyeFdmeVRCQ2pGY24wdWtLM2J0MktmSWNKQzRvdTFSK0labW1GTVdzTDZRWThCa1dWNVk0WU5qTEd0UTE1VXphc0IwdUZaeFJwRnMyZ1ZBYWNITUJuckphcnFKQVptOW53YXRTQk9qZ1M1SExvQW1HVWRzUThyNktpTXVwVjdzTGJzNS9VQTg5S05CVjM5T2d4RWNWVnRXMGJtNlE2K2hVV28wZU1qbE5wajhCV3JmaXJNOEppRDJOR25aMmFObStaOXFDRlcwcmw4RkUyUG9FelkwYWZnK2hGOFZ2NmZZYUlNVGxHVG13VDJ1eFBmdk1MV0o1enpxUzBqbXVtVHA2TXU1bVNpbXlFelZWVjZhS3A0eWxXNFlYc3NGb1VoSHFPM2RYdUpzV3d1YWJoUW9KbHd3LzREak5MWXd0c0JpQTc5K3hsUVVWM0ZnMmtxV1BYL2J0bVJ6VGxTNEVZdTVoWFV4bEtrRTFxNlhzaUFHaFB3SWFKNmdybVI0bCtEamNraUYrTWJOVUVtOXNYWm40bGZmenpuMHR0MjdkTTUwK1pCS0RSZ0ZsMHZTbjFzSUZwWTBlbXFSTTNwTE9IczZnODhqQ0JvMGNZdStZWUJnaENBaGhkYXdEVzFFempFNld1TDIwNXM0NHlvcDRvMmJWbUNWOFYrQTFlemdjV0puK3BnZnZxNHRKdFVOdzRCWmJucVl3WWlXTWlsWDUrNVQ2UlVQUEp3bm56WU9mQUMwWFIwTEJXQ1BobkRSMlJGbFBXNUJBRkYyd2x6SzFqVjV3T3NORmxUenlXOXVvanhvSmd3U2ZqVWtXUXJPbExaMnVoOU1rcGk0Q0xQQ3pMWThHa3hQd3RuOWNBWEkvaHR5NHBiUjRIMVE4Z2Yyaitncm1ZNTQ2RjZPUDZkT3ZTTGN3K2k1Y3RTc2R3VTI0alRzRDZTVjJSSDg4YU1pUXRRKzdkaVl5NEd6SENsT0dCQS91a0VYQ3paU3ZuczNHT1lyYmFHT3NzSVpNb3VKbkpHc3BFT0dCbEliRDJiVnFIZzZNVi9ub0RaenBUei82M3hCbU1HRGx1UW40YmF2Mjk3WXFyaWVKcHlhU1FsN2hBbjdRSXBya2dXREtmcVUwQzkyaStxTTM2WFRPb25jYmgvUUJlbzNjK3dBcnFsRjBhdjNQVU02SmxHaitYamR0SzhPQk1uVHlKdUVuU0xiRjFtclJlZ0Ixcjg0YU5hT2g0ZDRnTzhoa0szWlU5eTlLMy92RWYwNmMrL2ZuMG83dC9IREpUSVNjSzVETlJvZ000elB3QjZ1N3NTNWRmK1dnYTJhOGlsVFl3SHI5Q0JIQnpocHduRFlPaTVWaTBSVTdQYkRrRHRYbkV3a0xxQjhlTG5jOU9RakhJdE42VCtJSzE4Y2xvM0p6R1hHcWVVVjdOTmVYbnFOUE5KbFU1Nk5lM1g0Z1Nza1huZndpWWFXVDNDTG1HVXlSWm9TUm9xTThNOEVadEQwbTdDV0k1aWZYQjQxcU9IcWNLQ0J0TStPdk5rZ2hERFdLeDFlanJrRm5yOVVZaE10Z2FwZmhzVFl0TENWL2JCZkhKVCtOR2pjeThWNGNPeEhmN3lIMVNYaDErMWdnOFlnY2k5c0RGTnVOUWI5d29OcmphdllaNnJSYjdrRGM5VjN6c21ESGtWVytOOGpybVhPL2JtNGtqUGx1KzVqaHRlTXdacTM3eWxLYWpyTTVmT0Q5U2pJdkJMMDhWazk0VjgrWDVvM3ZQTHpoZDFHYm1TTHdsVW85eDR5ZVFaL3Q4STJsbHRxNEpDOUlEbG0wRWl1cTg5VitrRWdiVENuRGxtVUpZaWF6YzA2MHN5NkY2THhKcTcxTjdmMm5MSVdneGd2Z3BCdVRDV3NlbURTNHh0VXFmYTRrNHI5TWpwSExoZ3Zmb2dvdU54ZXplcFRzNUpMQlU1SSsyYmJyRXh0QU9XZEpBVG5XTFo5S21QZHV4ZnhLQnZBUmc1SjFJdlh0VjRsSFlSYmRRRlRaU3JoVWkwM2xFcjg5eGM4WHpRQlFwZnRoVjJZUWFta1A1QVVGNXl6V3lSL04zVEZlVlRiTDQzT1BKRVlvQ1lUNmlQOWFkUlNIMEN6WnQyWkhqdkI1QjFERjQxWVBoTlg5SUtUV2xhSjdhYjRRMXNxTmkwTUIrZ3dqVlEwbGpyTHJrd281YkFvR29SYlBIdHFpUFhkdGh6cHNVWW9lN2dzL2hBY0VlNlNZMlMxUUhBWWFuRVF0R25UMGU1RUV4aFdKV1VTRzRCb1hLdWsyakVCUDBuNTlFOXQ0Rk96K0FBbFZNVE9YSUVTTVJENGl5QXJQMllKYzh3RmhLbWZjSThNVm9MR00xeldBTWt4dlhpSURLbXphSDg4SmZ3TlA4TEgzV0I0OGNEOUhndktsVEF0N2R1blZOdDk3K3pYVHgxRW5EbHM5L1pIZEJVeXBYTEZ1TnRWOWxzcUI1S3UvU1BrMmRQQzB0V2I2WXp6S0syYk5uQlg1Vmdocnd2RVFkRjRBckM5TDJkZ0laUTNZcWdOM2R1OGxXYTJWOEl2ZTYrRGt6VUl6dmpGOGlnTEY1RGx3cUlSdG5OU05QcENXN1VoUElPYU5IRVVHeUVSSkhwUXdRMEpDM1VsSW51dll3RlpPQ1VRWEZxVXQ3VG1tbGZ1VVI3RjhkdS9STDExelJDYlBKaG5UeCtlUFNxaldkV0ZqeVNmcVVwejFWR0pqcEo5ZUsxZllhLzVZdGkwaVdMQWs3cHVOaUVRM2owaHlwVFZVV1pKSzdaVmlpd0NmeTRrbGNyU1dZWjJTN3dicVJmOXlNTnFtQm05V2dXTStqcWNaSlVBL0NPWUlodU9SYXdMYldQYnNPeWxPRFVacDhkbUE2QkxsU3pWdDNuTFk5VDhjUVFZV1ZRZFJ1Q0RBeUNBYUdzdUJFRVkyTmN0UU1KdENydkRKU0V1SWVCOUhZSlBZamNQYzl2V1lWV3YzUkNNQ3R4VlU3Zk5nSTVQbW0rS2szaCt3b1lubUd6ZmpSRThsTmJ4bmVvYU5vM1B2NFhEUWJUWHBDVVZGcE9vSk5lU2NHOG4yTVU3Z0l1eHlSY1hPSWxJR2NVRm1qZk56RW5rNDBaT2hvMGxKV3BmZTk0eDF3dFFZSVVPdW9ETEp1NWFMMCtIMC8rS2pEelZlNnlpZktadHVPUFdudWdvZFNFMEtibmxpd2tKeVlpZGlLT3JBcjJZa2V2czExN2pvZkhFSS9EN0daVnh6Q0t1OE5ndlVpWmJObm4zdk9yNE9kR0NuK3g1QXprSkZyZzcxeEwyWkxxR0ZYRE1PN29oU2RhUlJkb2REZE1JNjNhTjBtVFprNEtaU2ZKdGpBQ3MzM0pGRDNGTlRXVkltSDd1MlhyangvV2xxKzlIamF2WGtUdVNCWldrTE9UUzlWdEoxaWxXS2hXZXljUDlwNk9pSitKaGNxbHpJemtDM2IrNTZ4b2trbmt6bHJ6RmRCVURVRk5YZC9veFFTL1Zvb25pMmF0dUFhVTl4cHpxYTFwLzVveVF1WExJSmRWN09CeVgzQngyK002SmlSWjVNbnN3cmxxU1pzbVNvQkoxbFE4VnUzcnVtbEx6Uyt5N2tjdFh1MklHdXk5d0NvRDdiWUxIVkJhb3FJQlNWMnZheDBmSGcvdFhnSXJrRFFTbTI1Zmd3K2Y4dWk3Tis3TzZoV1B2MTBhTnMyalJnd0pNcno2ZjdkbzUyeHRDVXBFc2lWT0NxV0wxMEtOVHdBNjRkSUFMZEMyTFljekJZKy8wRER4bEh5dlEzZXlVYktUOVBmY2xsYVF0cnRsVys1QVB3d1lMb2hOdVc5UC85SnFucHlydWdWcmFEQThEUFlwV3hYWS9pR1RSdkRtVDRXc3F4djk3enBrd2twT2dxYjdCeEtpeFJQVjVndU96VkpxWURzT2hRRkVFazdsYjVrazN6YUlxaGJsZGNXNFcxU0hRYmlUMjVIK1YzdXZRUFg2eUYxY2djMFJRdnZVOWszS0pRYXJzQ1UzU3dCTU0xUUJQVDZ0TUpvck5CKzRDQ3B0bEMyNXhDNFY2MW9uWjU2bWdnWnNGQWpUZS9lZmZBb2JBdkF2S2l3WlFBVEVqRW1OR1kzVTFCQ01Pc1VpR2JDbUpVclRxQTJ1ekVkWC9pS2VZNHBFVzRrL250Ykk1VndVMlg5T2dFVkxXSGxaaHlLUXFDR3JhWXRlelN5MmtVY01HQW9aYVRKN0VNcE9zUUJWb29IbXF5a2FrYkhTSDBVa1YwYkgyYndNZWdXVmdzdEYycmxVbE1qZXRTRzlmd0VUTUhrU0d6ajZnS0lob2NiMmQvb0ViQmJxTFhSK1FkaHg0b1BKdklOUTY0OEFISWE3T0NoU0dyeFRURzdqU0M4YkFkZUlUZUdic09hR2p3d2JINWJqSVR4eEhzQlNST1dCb253SmtTV2pvUXVUaVEyZHQ0VFQ2U0o0OGVITzFkNGRldmVJOTM2RDdQU3RERm56VnU5ZVA0L1pYZkRXUXBCU0ZRZkpnZzJ1U0Q4aUdqcm5uOCs3ZHUrTFExQ29EME5BSzBicmRLaTRoT2xPSHZ1VDkwQUFEYUhTVVJCVkZnUTJZdW5PamtBV1pTblRvbWd6ZENjcXpGUGVLNkozZytONU1xSngyQkJJWnZ4ZEdBY3dNNE5KUGZxaEd3Sy9ZQzBVV3pJcDRSTEt4QmRRelZCclM2SnNpa0kwaGJOdkFiS1puUzVkMHBad3IwR011cDFBY1B3OFZhbTdkc3crM0I5YmpONHJVbjRpaDBCUzZpaHVyZVBWMGJPblZqS0JWSGh3dUt0SHRydWZVeUhtL1ZtQVhRbXpvYVBWMjdqZVlJeFF5TGx5SzdkdXpOWktDc2FzYUZhcGdmSUxvZWc0UnJvVUlPc3VKL0FFRGRBYUtWY1cxREVBL2lmS1V3eVFkUVRwcUk0b0hJZy9JY05HUnFtTitNUDl5TGZtVE1qUlhkRDVleS8zcVN5NGhoSEVpWm9mOTY3QytYRDQwcWNqSEtpVmdoaHVKUEFsT29qKzdFWTFLZXhVTkNqcERFNzNoMjdNUWtCMzBpRFpmS3hXUVFCUDVueXdqc0JKNmI1d3pQTnhaa3hmUWJhZkdua1c4K1lQajFNZlVZUzlhSkU5RS92K1ZFNmUwQkYrdkh0Ti9XaW14ZGFvV1E5NjlqbFVERFBBT0h1MTdaMnowL3ZDYU9wTzRuYysxUk1IcldSNDRJcDVDMFdMRHdFQU13RlU0N1VCUmk3bWQxYUFtS2RaSXVmd0hzUmZjSytKUE9CQkF4RHo0UEpZYlpnNnlCSXJvbklXY3VvVExzMm5WQ3FXcVlWSVB2MEdST29jUGFMUU5oNkFPcW9HekJmNVNQNFp6VEVFVXFSTXlReWVEanFQakpCNTZ2aWNoSzJXMnB4UnY4R2NmMWNaUFJOY0EyR3BXeHNYblFtVHZ1RjJyVjNRQUY5b1QvbGIrc0FlV01tVHdrTEVJeG5hRG81UU55aXZ1dW0zRmRSMFlkbjFhZm5NT2piak1aV1JwVXEyaSszc0ZHUVN4MEUveU5Hc1FRRC9razJJcy9xRG1YUit2RGs2dFhCaVV5b2NneEQwY2lkMlpwMTY4UVM5a3VNTHA0aFFWbXlkSGxFOGg4RndVVFlvWVNzT2JjZDI3WWk5Mk5rNThvNmtHajg4SFBDSi83aytxZlQ2Y1BrYTlkaEVjRGRXSUJvWVN5akhOSTFFNnBDMk9iNnlYbEUxQUxtTVc3cWVha1UrK0tDUll2Q2UvT1hIL3hmS01SNHM0QmRXYzh1NmE3dmZwZkV3YVBweDcvOFlRNE5vaDkvRmViRDl6d0xyMEdJMDd4Q0pMV1Y4TmxKYkdteUs3VnJjejVNTlBkSVkwdjUyaHBnZFM2Q2h5c1pCbFhYY0l6UEJBMHlCbFFFVVNyNks0RUtXODVPWWRiUTkxS1FXaW9vY1BDN0J6dVU0dVphRGhsOWxWV1dFUDVsY084ZVBBVldyN1dTcjhYdSsxWVNvR0dFQzZ0UUQydXR3NVpxR2xzQlFhR0svem1VRmlCZ0pONGV1QUVBRFZzaW5BVVk4VG5mOFhrQnI4TEIvV1M5eTFQTXEya1RXYUFYc1FGZlhPTkFRSW1Cck16cnN3YVMrZ3l1NHdrc1hrTXNyaVduRzFqTVN1U3d0VSt2d2JmZWdTUDdnQkFYbHBBQ1lFaWFRY1VleWluOGZZN3lwYVljaXpRVjFlR0VnTndPR2p3d1BiMzZ5WWlTa3RPY0JCbGJNdGVLeWtFWTJEZFJKSmJFTzhRSkVkUW03T3l2Q05PYXRZWjBVUnFOVTE1WlRockQwNVRYNjVxMm81aEkrVG9nK25UdjBTc3RlM3BaK0xKUFV2TEdEU1hzYlZKS0VkQjFEUVNrYjhldkxWSnpubXRwTnVjb0FucVhMVjhlUWNOVEprMUZMc1htQ0ZWdVNUeG5oL1p0MDFldXZ5RzFiOTI4WWRPQzM3NEF0WGhBNDYrQ2d1WWRaNTVHYmxER2szMVpGUXU0UkJQK3NwOGU3TW91blRvR3k5TXZxNHdYbG42dUU3RmNWTTB5a21zanU4MUtWS1pwalh0UXU1NUFVUXhRV1pCOWhOeUp1M0FUM29zMnNPSXpUVU9CcEkwQXpVWWhmRjA4VGxmZ25rR0RoNlNGQ3hiZy9XaUJlMjBRaTNtS29GWnFuU003NmtueWZrbUVzNVd0YTg0eUxHdEhsU3hiT1F5RThYTjI5QW5ZdXZZdmF3aEYvVVp1MG4yV3ozZDI0REJjRkdWSmkwOTUzSWxTcVlpb0NLSk1KdExBNCtqVERaQkZrVVB6dzE0WjFCVXRlZ2p5bzVYaGFubC9DUGdZRHhESHp2RVlYYmEyRUpWRXdrYlluNGJDdWdrYVlPL0RrUHVNbk5jejRva0hSelM1UUk2R1kwWTV4VzdXaXlMYjFrUWpndFRodGRGMUdheWJPZXNDTFViRUdvWGlaRVNRdFpaMjRUbzhpZ21vQ2VzNSt1d3gzR3NsTzEySnlJbXcvNGd3WW5QbVJCelhNRVFVRU5SK2cyM1R0MktDQnYrcFVFV0oxSkxGaS9GT3RVcVhYbnd4aW1lektGN1FFLzFqK2NxVjZTYy8vV242d0x2ZU9lK0I3OTVZUm5jdjI4alZVbWJCbU0zQ3FiR2RvY3RsRHc1a1lLZnlZQkVuNGhyNVRJTjE1SFFjemNpNHB5N29KdzZaV213QXNDNUlqbVhtbmw2STV5WFBnQUNhWmhUTG1oalVhVnB0N0hyWXI1T1g2dHFVcTNMdi9YdnRNOC9nWHgyYTVvR1VVc3BXN0R3UjBRanhGczFiY1dqUlF5QUpDOG50dWtBTjljckdnakdjZUVXUnkwUEY4NkJNVER1OEw0NDVud1VUc2VKOGJ4RERjc3lPWGNUMHBBcmRZb0Nuc1M4UlZ4R0RWK0FXMVNvb1BDVnF4VDJnYlNSWGNiMTF5YXZZTFBxdUQzT1R4UXhrWFNJYmo2RjdxQ0xJazhjekZPT1ZFZVZLdWprSERld2JFZmxWVzZ1aVNvaEpXdEpRSzdTNTRUZHNzUUFENWlFNGp3WHRSNVBEdnBJRE1hVnFicWJJVDZkdkpvUFpyak5Cd1Z1QjlaNjBXeExNQlNQeFU2dFFxUXdkMkkxWmpHZHE2b3ZUdk9qRGsydVY0NE1neElpWk05U1E4bTdnU2laMktTZGFyR3JSNGdVNFYxcW5kMXg5ZGF5am9Db25BdWl4dWZQVDl6R0VUeU41YjgveVArVGR2UHdQZlBNZnQ4SWlBSTlVRWZLaGhncDMySmxOSUtpdEtTTVlaUEZpZHA0Rm0wcTVGRUVaWmVVb0JrOVROeDJ3ZHNXZ1JuWWtZa0hlZFo1TEpZUE1pN0NOelYxcEhra2hXcm5SSTRHSHdEQzNNek9aVE9Sb1NBc1hMNDB6VU16aDZJWmdyQVo4bk5OT1Y2OWVScW1RWFdURURTZDRZRmpxZ3ozdW4rLzVJVlV5V3BGZHgvUGpQM1pHeEpONnFTUUlXUS9sa1l2cjV0TlVrcXNzb1lsRis2SktqVUVKRmhFUWYrb1VYZkpRNU1CdmF5WDZXWUZhTk5UUUJEU0Yrek9iVk5kZzU2MWJOMEdkTUk4dzkreWtOQzJJZ2lXYmt5ZTlHa2ViaHoxVHMweXpFaVBCSzZNYTJRckN6U3pFRUJGQllHdGZiTVROZ2RFSzJHMnIwbUpzckNpVTlET1lQTzFpWEp2UGJsb0huTnpNakZjak9VWi9aVDdsdXQwb0xDZUozamtGTVJnTDRwcFh2WVlVNUJvaWtLemZhS3hrYmdaRzVOdU1oNVVhV3VRMFpFUStrd05oZGFWa3lnUlliMmw2Zk80OGZPR0ZtSE11NUpVb0gzWjVlVm5QNEpRMzNIeFRhZ0VjYi96U1g3ZDUveFZUeVBUN2Y3ZjgwNWdUdEZuWlhvcU1Ja0hZSVVPakZCbXo2OVF3YmNkcllIK29tTExTcHRUa09XVGVCdFBTN2xZa3hYV0tRb2ltZkNqTHRqVyt4QTVXd1pHNmVsU3hXdmh1Zk9QWk5RanlJSTQveWtJQ1lzeW9ZU0hNZStLVUhnZGJBZFR3T0lqbEdkOVB6SHVDUWdRdDA3UFByeWROWWpScEZEMjVnam1nd1Fwc1N3MHJIeXVTV0N0U1pBeU5HSVRTNEIyS0NlTVZHVzBuR2hFdi9vSmlpSXloOUdSZnh5S3FmRmlETXE5QjM3akJ2NWltR25QQzdVTnFwWVl0NHJDbFE5bVFRQ2t2U2lram1JRHJoSzJWMXdZUEdvejlkU2ZQeGlqT1dJNGdiK3V2bnpSK0RONmNHbXB5WXFjRkpUd20yYlBGTlhodjNMb3h3dXdPRTZSaTRRUlRPNlRRQlJTYkRlaVRFYURTcEVGZmI5enE5V3ZaazFRencydmt1ZUV4emtiNTNXY3FJN3JCcEpBMnpWTjVqcFhQMjJPYnZ2ekNxNkRZdTlKaWxKYkpFeWVtOTE3ejl0UU1FYXBkdTNZRTRxQzBmR3RXK3VhZGQ2UXZmdVI5WDFpLzhQZDVmeW95K3F5Q3BxMDd6S3dEc3hsRlBGQU5xaEhlc1ZoZTFCTmh0M09IOXJ4ekpSMHFKSTZMbEV0TUJaWGdtVFBUbERRRDdXZ2FsNk1lT1pPVTFXdUxVeFp6OGVQNFg0Q2g3Zkl3K1JwdEtLeHU2cWV5YVlnRGRPd1J0L3VoZ25FNnZRQUNHZXVnb2dhUGRpWVRieVArMCs0WXpvdlIvS1RHSGxkaGRwNWoyb1FoZXNlTzdkUVBtaGIrMnVGREI2TVFjQklEbjZzdE9vWXdqNGljam9rTjRlTHdLZDg1MjVpbFJCMzJtY2xoU0pCQkNabEc0L2Q4S2F2bWV1L0pvckt4VS9vZStpY05jV0VOZDNOOE5wR3ZJY0xTcERwY0I1blVKQk45Y3MwUXRHU1ZpMzNNK3dnbW1YM0lkRUo2SlBLajQ5eUQ0cVl5ZUpBVUNKOXlObDRUeDI1NTdiM0lnd2U1cHhBS3JweHIzeEdIUU9jU2hUeW83bWlTNTNUMTFtQ2gyTHN6cS9Fb0xDUVlUa3ZDazNsNC9KdFBHdStOR2tiQVh5bzQ0L3kzSUhPV1lNWWhzQmhZWG5ycFpTSExPKzZlRkpKWXZucFZ1dWRuUDBvOWV2V2N2ZWFoZnkzLy9RUDN6WGZ1LzVrV2RwNmM4T3RBY2lZWU94R29OaGVRM3dDWHkxVUtBTGxSMVZiNHQ0SldYTVZ1MGg2blRiSzBGRnNsQnRSOHFKdklhNm1UVE8xbklXV0JmSjVyUmhzSnR1eEpBSWptODFxakxNa3E5UGowNjlzM3ZuYzgydGxHblRWRTRRSkVOZWM2ODBqaytuTVhOMkMwdis5WDl3V2lYZlBXcTlPOFIvNkFJZzF6MWZRanB0R2t2RGFwZWZaVVA1T1N4NmVNQVJUMWI3RE0rZVp4bjNjaWdmSTN5Q2JWNDJMenk2MEQ2d0FiOEhzRmtna3VXaUgrNWpyWm9mZjd0ekYyL0JWSXdpMG1vUTBlalBrRkkvbTY5YVQvOHJlSXEwTml5TUQrYkd5UzA5aElsajZ4Um8vUEhRRmk2Uk8zU3NVQjBvak55cFN6RFVIQk16MTQvY1lOUElJeFljNktjbmlzV3kzVkVYYVFkMlNOejBDd3hrMGlQbnE4WGN6SjNVVC9JcWk3TEdSdzNsdnZhZnEwcVh5VGp4bG5NUXBNaTNUbDVWY0FHL0NCNzd2MzZKNmVmMjVkdXVsbjk2UUpIQWZ6ZzY5OHA4bUZGL2I1OXlGVTlQNm5OT2cxNElGRktUOHFDVG1nSEZLNmc0S0U0MjZMdUR0MnZyblhXVFF5QzRUaHRMNklCREZuSmlMWUF3Z1RFVFBjNDg0NVRFU0xnUFg0dWVPdzlKS1dIUFFwUlpKdit5eDJyVXVrbk9wQzJOekp4MEdBZk9TMk9DQ0p4WkFDZENBbTAwcGVYdWV6ckRjVDE2c1pBemlOcmxKanFaMXlvTzBlYkpVWFhEQUR6WHdSL1VKenVEL2NnVHc3MXlJNGxLNGdBb0dVYXRDeWJXVk1GNHdPV2FNaXhxdml3ZGhoencza3BsajV6V05HY2lrUGVmV1dUUkYrWEUrcWFjTnBjNVV3ZjVFR3FxdXlnTy9WTVNRQU9ocUdJUE11WDc0b3ZCZHVFR1czbnQxN3B1YjRrZGVzWFV0TUFJWDdNZTE0TmxBUGdwbmJ0K21RVmtHRkxQYWxNVnV6ejhCQncraXpOcTFldFlvQTJlYU1TVVRrSVU0ZktpNk1qZDdhVkxVZVZvOUN5VnI1SXlkMFBtNG41WFR0blMvYUxublAzeU1KQ2V3QndqMHhueEExUklSM1gvMzI0Qm9uaVY4WU1IQXdCS2t1M2ZBUDM0RFluRWdmZThjMXJXLzZ3cldIZm43SFYzTmcvZjk2TFR5dDRJcXN4Q21jbURzQUxvdmhZR1VYamY5QlFHSUluUmhJbzl3WUFyKzdySWxLQ0lQbkhxNE9CTXlpZCtnTG1kREZMeVZRUXVCRU9UOFExT3VPd0g2YjBWOW9nUzQ0NkdYVHFCNTBxeEdvcGs1a1VVV3dlb0RxUVVXS0NYRXQ4bE9PMnJtZFRFVzFTVUZ6cjVvMzZoR3ljK0Z3bG1ySk5RSHV5UW9xTVVnYUlTOW1jWXhPbSszSnRjSWdUbXJsV3M1TUE5bFl3TkMreitnbk5nZEl5Rnh6OWxzVkllMmd5cGR1dDFRSFlrcVJvYjY2T2NlTUhaTzJrTzY2ajJCWmtlRVFYaEF0RW1QSGpLT2V6MVBBcnBCb0dvSXg2RnVFR2tsWW1LVzBxd3VvMFFuY0Q2TkE1aUZ2cXB5c1djdkpHTjI2QVF1VHNZNEdzdVhtNkwwMlpVQ1JNZDd6bWRzNWF4bXNHb2pzeVVObTVlWlFTdklwbGpWajJwVDAvSWJuMCt4NWM5SUlUbXZ0aDdmck5LYW5MbDE2UlR6cUQrOGhLM1RUYytsN3Q5eFFmZFdVNFcxdVd2MVlZNS8vdFJlVW9rWWtzQitNejJnQU1lbEFFbloxYnVpdXN3bnR1dXFValdSWFRXQkpDdXp1UUtmbW9kK1M4VHlSZ004MW1yc2I4OUVnRmZ4UG9Fa2ZPbndjQTJvbk5GUjZCcmk2endSODdHcWVwbnRNR2llVjhtQ2tyQThVQThTRFlwUW5NOTE4WGhPTTgrNXdyM1V4ZWNtR2pBeVZqNkF1eFE4V0RRTDRxS0FJWENKeWVpbmRNNGRNaStaUEtLL2o1enNVTm0yTzV0SklTYlBOeHNWMm9pY0x4RVFvWmVFd0ZyTlJwYm9pcnNadDltRFd1RndicU95N2x2SEFiN21ITW9Ra3l6blBaOVk5aVVJQmtrRDVSY2loaEtHcEVENzF6R29Ld0I1TlI3WWVwYVpQU3hTejRaR3FzSzFxQyt6NVlQd29yNTVEZFloZGVGYzhtN29HRytUeno2OExZcURaWjlIQ0JZaFJXYkZTWVo4MUtWN3VuV0pIOW5ub0MvRUZkaGJoelRWdk9lLzhNSUkvL3RnanFSWDIzU3N2dXh4T3BlVWtML1VtTFhmcHltWHBzZS8vUGswWU91TEUwcVcvYTNyVmxOODFQdVBQODFJbzhJRXpqVUh6MngyWS9mWENHak1CQlNzaXZJbTBjV0FIY2NLM0lmVkFsaXhpT2o5bENnTWpKUHNHR0RqbERNbXkxOU5NU2lEN3hSRW9ncld3ZTNicGtoVXlBaWg2R0FyWUVMSTgyVTdzVnE2Vjh5cm5uV0loV3ZLM0ZGUTRhNGcvUU02MUhnQTdWWGtJa3hLaCsvVkVUanNmdzQ4Q1llamZNc1FSTUV0L1VrVlpKRjF5SDBoUC8vRllrRmdFZ1FqU1FIWVd5YmZSTC8yYkY2VEtBZzdHcHZSYlRTT0cwYm1CREcrVGdpcTgxQ0hERlNOenExeFVWRmFFRXZmYytnMThBL0pLcVVIR0hwVjlmQkJLMlVhUUc3Yk9wcXZIVmpwODJQRFk2QnMza2NaZ0dCcGFzNUh1QTRhT0pKN3lVTnE2YlN0MWovWkdEbzZZWmhxcjlaUDJFcDRIcTR2emVYSmlWeWh3UERQYnV2RzRvS2F1SGJ1VWphY1Y0SFNhTm0xYXdHTCtFM01qaVBmcXE2NE9PSHZpUTlmeVhpUjRIVWpmL09hdEdPT3hBaXlablhmL2t0bFpaMy9tM3pBSEJPKzhVa0VJVzlFaXlTSUpjUmRHbHVHclpoNVdMd3pvVUQ1TjEwYjc1RXdnWVhjVUlVREdhTzQ2c2FheG1USlpESlYwa1ZVdVBBWEFNUHlEKzhpa1E2TzJBbXc5UVJrbmZCNU5UNG9JN2w3UlQ2NmswMFJaVXd4aWhDbzdGb0RTeGhaSXovTlVTSlRkZ20zNlhsa1hPMkhPSGhySUtCSmk1akxYcEJhN1hyRTJTQlpEaHViQ21vL05yb2crbGZOc0ViQ2xyQWlscy8rTVowQk5lRy9xZ2tmdENiTXdka01GQTFsNUxmUWdVNlk4RUJ1aGRzT3lIckpWZW1PZ3hnS1U5eXdqM0d4TmZHNDZxTEF6aGFOSGp6SmNiNHRTZVVWdjhsWElkd2JlbFdVVllYR3dUSW5sa2kyMUxBd01DOU9oc0dUWlF0SlpPeE5jaXdqQUFITEk2UGl6TkxhZ09ObmFNbWJGQ3ltMkJ2MUJLRU1XcGwyNGNDR2VxOVBweWtzdmplUTY1OSt6Vzlmd3hOMTA0L1VSTUh6TnV5NXQvZDB2ZklHb2pGZXVNWG9XUXhrRG9BdFlxVUpFblRRaVZZNjhJNXlCVE5ydzNGVVp4ZEhkWkZTUENHbmtjVTRwZVpGVlpBTlhHeGJCdk4rRnQ2bDFONE5pbWk5ajdOMGh2QTJlSjNnRXRzNWFCMEtIT1pEclFjOTBIQUNGc1pkUmlvUlNzbWkrTW1ZOUpqYUdHV2FPa0NuNVNtTzB2RlJrMERVcUg1QktxVnhvNE5iK1NEdzF6emdWbVhuUmliODRuODlXZ0tnaEZ4QUI4a2tLRTZGTkk3RHBINWF5NWxnMVNhMkJtSkgwQlV6b0hybU92Qm1RY09PV2JWRU1ZTnpJMFdFNk1YSExIQ2ExYVAzY1kwWmxacGtqUnc2R3dySjUwMGJFbE9OVUVCNU55aWt5SmhUVnN0UkdlUmRCcVNkUEdJazhhazRROWtydU4zWXhCM2ZoSXp2T2RJRU1HUjJ2bitma2FjRjJ5U1VYaFJ2M0NaQ3hjNGRPNmUxdmZWdm9FWVlSbDVWWHBGLy8rcGZwdXV1K25MNzA2YitxUHZUMGdyeFhHaGtkWTJFTGNsa21qVDRYQktuQnNEd1BLc255d3c0Wk9zdm1hNFpBRWo4RFo1a1RnODUybHgzVXdVNjBqeWt2RlRkQjQwWVFZZU94ZVB5aTVkaWRHckJtbzVEaFdDeDkycnJScEl6NUlHVTlDMWQ5NERneWF1dTRwNW9vR1N0ZFNHbEZvRndMSnRwSXZSeUwyOGdSQmlXRkJWblBCbmdHRlZEUUQ5YkVoVGxSeE41VWh1TDBBUG85TFNYak0yY2JrZU84WjNpUVBPUnBuODI4WlhmK2hpbkh1M3c0aG9YdzQ1bStsMDF6TFlrZFhHTmZYTThHVUo3ZXNPRTU1TTBDNGdxSGhxMTAzY1lOeUlXN1VkWTRNSjdOY0JhK2VXMm9tN2Z1Z0EzdklSU05KQzQ4T3lPSDQyckRyYmNKeE5TMWF2cUE1MG9PSlZpNXFtbzdWWWh4UnhLM3VJZVVqa1piVllBbzQyYkF3UDhNUTI0UWpNWGtJaFpHKys5NWs2ZEZPYjRGOCthR29mdWRWNzIxMFRKU2xQb01MRXZ6RnM5UDk5Nzl6OWd1Ujh6ZXMrcmhLZGRlODNEMC9XcjhLdlIwQlcyR2h6RzREaDJHRTU4Z2dHY1JrcDJFN3JRSXRtUWt3WnFnRG14VTF6dFlRelpBa2NWbGNOR1FENUZ4bXBKWkYybTBmS2FNbHJWR1d4d0tqK3pBeEN6THdubnlWaFBpc2txNXB3bXNYQXFnNHRNRmg3ek5UU0Jpd0YwWkEwZ0J0bWltc2RYS2V1bEhCR2pBbHl6Q20xTmVkd0tLVEJGL1VjU3FiZzdOalZFYlppSTJBak93OHF4VXo2TSt3SXhRU3FUa0lWTXhieTBLaWl6T0xxaUtMSTUvc21vM1JUWUdFSkcrdmNxdDYxQmpMQTZPUC9TSGR5YlN2UVdWenRZKyt5eUJIUG5wRUxCMlEvVHQxenZFaTYyYk5rWDJvYWl1dURGaUJBRVFPQXcyYkZnZlFiV080VFRCRG1QUEliQVdoV2NuUnYrZGU3WUJGNnVJd2IrQWpkY0liNVU3b2F4UDNCYjJZOVpSMnFEWnpwTXhtamN2VFF2bkwyQU5Ha2lHdXpMRzRtR2phdEVicW5hbkcyZk5TajA2dDA1M3picTkrOVhUaG0zUGVucjFmaGNhZ1QxdjhhSlVmL2hBK3R5WFpuS1V4N0wwd1hIdlNkLzUvdmZZVFlhVGlRUlNnSXowRnhCU3hRZE1FTW9BQUlNQ3VTVEtMbHppOFhHMXlIdDdVWHc2NG1ZS3lnZ2xDSk9ZOCtJZVErbzl0OXIweUtiNFpEMEN6WGpGdlZWVnFRTXlsTnJlNGFPZUNIVXFaQ3ByMlBnakZlS3J6S1RFKzJKSkdVZ1pWRk16QzJKSFBqS2hBUW80Nkdrc0Q1MUp5YkxtbFpoN3BKaktVYlFDVHJobk1NelZVRHRvSExlS2pMYlRPSmxMc0RreXZWQ0VmRklvYjhRbjJqOFE0UGxjQ3l4Q3VZblJ4YTNaNXNCaVlRVzRJdHlVSXZNSjVtN1FzbWRRTDVnL0x3MURpejVDQUxQbXNUWkUyUS9zWFo3bWtkN1FHWVhSSXFYUTkxUldWaDZKYjB1ZlhKakt1cFZ6M052T0dDOGxxV0pqRitnSVo5N09NZVJrbnBNejM1a2NaNjNMaW9wdUJHUndRaGRoWWFld1hVNlpNZ1hLMkQ0aTE4c3JLcUw0MS9WZnZRNWRvajdkZHZQMTVXK2ZNbTd6MWIvK2FUYVJWL2wzUVg1cGg1bUZHRlR6WVJQelFjeTlLQnFXYVc2SnZXL2lsTW5wR1F5MG5vSFNDU0NKRExMSlUyaCtoaHlaLzJHNGxrWWY3WFdlRkdEdXNvdG0vS1NJWVFSUVR0N0wyRFZJd1NLNnVOYjNNVW5jZm0wR0lYaXFnQWhqSE9JcGtLSEdBMzc0VHZadGdwbWxUL3hBZG4vYU1DNzZrcTBkaE5JSHVrTEpzdlJkeCtwR1NvRUFtemR2UWduaXVXakVqaWVMUkhJVUtrYWtZbXJxRVc5NU5weGY4aGFpaVVnWENPN2hRQ0ZuY3k4WDFCTHh3czFCYWJpYXE1aTNtaFdkcUtERVhnRXVSc3dmZytvYkU2ajdUZzdrajBuNW5rMnRiT3RaaXdkd0dhb2s3ZDVSaGVtSEU3bndRMDg0K3h6T3FkNFdkWDhPY21hazhuV09FNFU4eVBQRFlzekRmTDcrWnNXRVF0aXpITTdxWStkTm04Rm1hcExXUEwyYXpkQTh2V1hHV3pJekhadGdBTm1ROS8zOGwrazNEejZRM25yRjVac2YrOUVkYmU3NzRmZi9wQ0FJNS94S3RNS0prODVPK3cvWHBiVVlRY1BoanJCdDFiSEpFOGFuM2R1cjBqbmp4ck5HbWR3VmVTVW9Md1JhWjRzRzFiVGNXaTFTdmZhN2lCYUhDbWg3TTUxQlRmcm9nU09oVmFwUXFOM1psOFpyV2JiSHV3bGdCWFpvVU13dkltY0FzQ3lsR2VRcXJ4aHZoZUg5QU5qaVVmWnBRWHIrQXZHNUQyMWExaCt1UHNhaXV5NG9CT3phMXRDZ0laMm44TnlUbUZha2tiV0lIbGxpbHFacldScUJGcGhwTk4vWTNDNmVqY05OSVNxSWdCeUFEQ3VVK3NnV29VaFdobURPOXAxcllaVG56NUF0b1RhYXNKVGhCZzhjRWhIanp5RlBIc2JlS05kUjdyVHM0R0UyMHZybnlVcjBwQVVRdElUU01rTW9kN0szZW5kYXYyVjkyQjZQZ2J6YVhrVmU1MkY3OGFtdWhRakl4Z0hHYXRtbktVQjc3cVJKWEpTUEJyNGtOWWQ0bkQ5MUdvanB5QnRTZVdVNUJiRFdwYS9lOU5WMCtWdk9TMHQrZVdmZTdVdC9uNXZHZit0cjRUVlhYajUwL29vTnE5ZXVYeDhURWtGa1o0WVZrWG1jTHJueUw2QkFtMEF3V0NFVFZsRVE0TnJkTW5ZbGtHREpzR2xOSHk0MEw2NWx1QXd0eEtTOFZZMUkwSXcwMDZhWVBBVHFhZHlPdFlWVVhhT2ZpTUZENmVGdTdzOEVJQkZTKzZCZUM2T3BCZm9oS2pjMFVGeTFGYmsxK05NWUV3bEtwVHhQV2FwQU82YlBsZnBKaFRrdmtZZ1g3WnQ2b3JRQUtGYWNZcEdLTk5Yd2R6N0JDUFd3VmM5VVVUN05sMzFUMnloa1pKL04yQ0lDbk0waXBUUUdVRVFJVmkwSmFteXh5WUs4K2dFYlRxTTY4RktrTVRqaW1lZWVoWFdxMVZOd2lzMDNrc1NzZWhEMW1UVlA4MXpIbjUwOU0yN3N1TWlOMmNWQm1VZFI2ZzRkUFFoRWl0SXhOb1J3eWFSbE5wQUFsanhub0lxM2JqVDdubmd1R1puWWkrYytNVHNvKytVWFg0cXdqU3dOekN1b3dIc0U1TDd0anR0U0tmUDkzRWV1YmYyRmE2OStSYzA0UXVRLzB3cXZ2ZnJ5cHpvTkhHdFllZHBMMEdjOU9RY0JXMlN2V2hiMS9nZnVUK054YVVuZFpMV1dIbW5icmpPMUhBbi9ZakdWZnd4ZU5mbzY3Z09COGpGRDJJclZTRVN3eHNWU3NWREwyNDZqdnkweWpBVE95cXBTUjRWdWtWekFHVHNvVmhmcUp1UnZqYlB0MnJWSDNrSVdBMUdzTGliTE5YL2Jna3dpVkgxdDVsTFV4K3c0Q3hyTEZoZmlQNmFpVm94SFdkaE5aZ2xBY0p4SFlPQmdiVDE1QUhNZkgzQXR6K09yYU9adGgxSUdKUlFGR0NWMDEzZGNxaWdTSWdBYlJ3cVZmUnpmTlJTRDBzek5qYjJWdVlxWUJnWVhzUUVHNEFaY3RueEpuREVZRmRYNHJsM2I5aUR1Q0x3Z0t5S3RvSm9VV1ZtOTBUczJJQit2S2pId2duRHYrb0h4QUZHZGpmRzF3Mnd6YnR6WlVkSk9sdTlSRytWZHUzTk5YZXFBeUVVRVRycjE1cStudzNzM3A0OSs2b050WnI3Ly9kVmZXUGhROVB0YStoVXJ0WHZ0SWpEcVdMcnMvT25JWmk2bVNKUnRRQU1oM0pCU0M0Z2dDQUdMclQrZVNtQzNiZHAyak9QTUZLYTFlMXNoVEFVbFRzWmlsZ1k0QkNoZExmNHJHMXBldVRsQnA4VmNLMEtveGZ1MXBoRmJzTktnQUdqc0JHYndWY2luVlZXYjAyWVNvL1pqQWpFV1VIbFVEMFlONHpZTlFadWVsZ0NHeVRpMWVSSTFTTzFzcVdWZEJGbzRCdThCV2V5VUZ1elBqL21uTGRFZjhkS2dXV01uMWNlelErM2RqTG9RTXFyb2ZZR01EcHlyd3BGZ0JsZGphemllWGFmZGRBLys2dU5vMXFOQnVGYWtkSmc2NFAzUGJ0b2FWSFRpT1JPWk84VUJyQzZHNld2YjV2V0JqTkZWSUxvSXozaDRYd3U4bklNakM0OFlZM1R2WG5EaGhkVFlHWlJtUHpHUG9BMUs0MXg2ZWFybzFpUHlod1lQd3QyM2ZHVzY3bTgvbndiMTZiSjU5K3A1ZVNKamJxeXZ0ZGRNY0dOVU8xY3Z6T3Q0eGR1T0R4c3dzRWtUNUppRlM1YXg2S2lTR283VldtbnVkRXVJYUdZNGdhQnVLNllTbG9XV2FtQkg1aHViaHFCeUFYRUk2dWxpaDFJajFRSUpUMElXWFhpcFppbjJSM0ZGMDRtdUZrMDZ1ZVlpS0dPZTV2eHRBelZzRTZlZmo5Qy9nd1dqL2lOYXFOOTdWRVg3bGgxVDd3c0dVRS95UVo1Rm9BRFgwajFyQi9LQm9RYUFpRGlhV3p3Y0NOOFlpT3BuOGJGckhKVFpjVFpFTVNDcFpIYVBxQVU2TUVidUJ5RTk0dGNidkVlMm53ZEhpT2NRbXhCbGtqVVI4QWliWWtBRld1d3B4QWFESUl5WWlmcm9mRGVhK29pZTMvUE1zMnVRRTBuaHBmcUdpaG9QaUNlSHlFSlhiakFWRmxzQnNxL3ZRaUhqM2NUeFk0RnpNYlZ5Rm9hTTZZR3BCcUY0ellBQi9kS1dIVHZUVjc5Mk03NXZjcitYUEpMM3l5V1AyTTFydXIyQWtJN3lydXMrM1JSRXlMdnczUityUDMvNmVZUWRMYURJS0VsSjJPV01uQ2xCKzVaVnkwcno4YXA0aUxsNXhScWRSYTU2cUlpTGlnV1A5eUlSTGtNb3J0VE1mUzA3dGs1aFRhTk1Vd1NpRjRHTkIvY2Z3cEhmbW1lUjVRZDFZNTJoY3FJVlRXVGl2a0lLbWg0aUdIVXV4dnRoK0hwWHJsbkxPY3NjM01RRzZOS3RHK1hkVnFZaEZiMVQxNTdsNmVIWmo3T0tDdms4RytVRDhoNTkySjJIQXprYXZTbFN1Y2owODMxOHllZUJ6bzdjWmMwUVQrUVdLVVJHMlQ1WVRiL3daSUlZakpqMzJMUTQ1MFZrRlpXNVZjK1JUenBDeWNDajVCMkZQNXB2SzN2M29UcHVmbHFMWEZuQ2hxbG13eG1Vb2tkSURSa3RTT2dGRlhRbzRZdm04emdqME40WjYyaEVxQzZ3Nk1VVVROQm1lZVhsMTVDY2x5bVZ2Y29xbUc5RHV1R1dXOW40cDlQWHYvcmxzbmRlTkg0THQ3NHVXcXpEbVNNRjRBMi8rL0dkZVovNnE0L01iamh4SkgzK0U1K2pLbGxIRXR2N3ArUEltQTBsemJFZUttZEtRMm9wTDBjQmU1UVZrNmxxWVorYWYxQ3dvNmwxbjFJNDR6TStqVEQrVTJKYjQvMWdVMXhuaUw0NzQ5RCtuY0cyUklVY1lxZzEycXloTSsveEo4Z25IaGllanFDNmZLNEV1cHJVMEhVYnF0TFU4eTRnMHJvNlhZUG5RUTFYYjRwUjM0SFVqb0VmRVNaY24yeVlMRzBnKzk0TkpBWE1maHhCMXJ4Rnp1QzF3U1o1MWY4ZFdLZTVnWmJucTBvVktVWWlqT2QxMnpSLzdkOUh4VEE0Q01YWjhMNE01NERLcmVrd1NIZ003ZnBnbkxQREJvN055dzBnbmlPc0R5Ty83OXhMdWkzeGFQRlp5OVl0MG1XWFhrSFc0ZUUwZis2YzFLZFhSYnJtc2l0SU56NFZrZHNEcUtwNzUvZStrNzRPTXQ1eDAxZXFkeXg5Tk8vMWhJd3gzNWoxeS93NmIwaVBLY2ZXTDh1clBiWi82Mk9QL282alkxZHdCczNVMUpud1JuT3JNN2NjU01oaUJSUkZLVlpQdHEzRzdhbFV5cFNLaHVacGc0TWhRNFprSm9CRG1YRU5OSzBvSDBFRllMY2hMMkdleWJSYnRIR3cyNlh4OC81REJsTklhbVVxci9Ud0lBcVZzZ2tzc1lKL0pyNi8vYTV2VVVKbGRlUnBqd0J4UC83UkQ0VVNWQWlyczRuMDRyZlVURCswNkdRY2VGQnd0UHpjSnZCYW04OE1iVHprRHo3SWNDUyt5NzZQYWNGQ1FXYVVxZ2E0U0l3ZnVkVm04SWRsa2NkUjVMTzhYYmUwY2VQR3FCaXhZY1B6SWM1NFZCMVJ4c0Nua2NjRHI2RE1ERXhrbGpsRVhTVGNxeGZPdUN3Tkh6d3lQZjdJb3lEa2dYUTVjbUxQc2g0QjYwR0VyeDBrTmZhR0c2NVBZd2IxM2JYM3lZZnpycDQrdWswTTRuWDI2eVVnZnZuUnoxKzdzZGROdDkrMWVmSENSZWs5YjM5N0duL3U5RFI3OWx3V2drVmxoYVZpWmh0YVVzOWdCc1BrSStxRVlsQkdQRGNuZGxFZnJma1lubXVpOTBCN29nWGZsYWtzMDlHUzNCcDl0aTBSQ3dySm5USFNwVlBiTm1FazlxUlphWWZlRk0xSWdhQ04yQ0hTLy83eHh3Z21YWjhwRjFCRXkvejFoVnIwNk5vMXN0KzZkdXVhN3IzLy9uaG1HTXRCaEFZc0ErRldoQ3ErWEZPR3k5QU5QTVNyWkxCR3ZYTmx6c3FLK1pxYmF1UVUzQSs3TkhvZEhBclpXWHR1Z2I1T0tQU0FBWDJwbTdndk1qTXRkNktWUUZFaXp0aUI5WU9OekUydEgvbVFSNnF4aTRneWJaOXA4WCtUNkZhUjE2d01Qblh5NUpBWCtZUFRIVGhXQTVuNjUvZmRBN1hzbHViOS9KLytwUFY4dWZtK1ZqNzdUMDNnQjcrYzArTnJYNzk1NnpGT1Q1ZzE2N2FRd1g3NzBHTng5SWZhcU9ZYUtTY3JGRUN1Sjc0djNIYllEbzlTTlV0dDFOcmlnWkRJb1paWk9jN2lXV3V3SmNubEhwZldDa1dsQ0srTTJYYWRDQkN0WXhGa21ZcG5JcjJMSnVYSnNXd3Awa05Qek9aQW4vVUJVNStoZGlzRHRwRDZzT0VqSW41d0g4OHc0RmJqdFpSUU5NZ1FMZ05CWnNhUlFpTWJOaUpHWEpKYktTNno3OU1vVkpwd0NBa0hDVUVpbFJDZXB4RTZuMVFGQ2I4STVYNkpISFJzb2Q3andPTWZpTzVjWHJaeFRkekxhLytCZzFNbEN0R2lKWXNweW5BOFRRY1JTOUdnaGUvQXZoWEF2Q1RkUE92V2VOaGZmdmg5WlgvenY5NjU1V1g3ZkoxOStCK0I1bzlPNC9aZlB6NzU5bHR1ZWR3aW16LzV3VCtSdkwrUldvZlBaZmVnWk1RUnVleDg4MUJPRzJFdDI4VUlYb0lmWE9hWmVTb01xR2dTTXVOeHFqbTBJQlJ0VjlXMmlGSldVL2RzN2RiSVRGSlN2VHFlNEtEaDE0eEVjQmh0TWh1Ni9UMDQ5L2RweThhZFVCU29ORWdZZGorb2lxMkFlMmRnRm5ub3Q3L2xEN1JyRU56Tm82ejQ4azNLaEpKQkpxYWxZODVzSW5vQnNtSmRMWmFISWt0RGc4QlFQRTNXc1ZQT3ZQaU05ODczQlRteDhYTS9PN1BKbWcxS2FjcmN4NDZkRUs3RTlaaUErdlh1UzU1NWVWemFsTGtQSVBucnpoLzhJRlh2ckVvZi84Z0haMy94dysrWWNtWS9yL2YzYk8zL2ZQdjRKVk5tUC9mRWIvUEdEaCs2K2RxUC9sWGFzUDY1ZEFFdUtNMUZ6ZmlSM2RRUmpXTHQ4RUxrS1k5bFUwR3lWTjl4dEZ4THFTaTk1V0dUaklEWm9CMTRka1JneFFDKzFaV25Vc1NLdzliNVRPckJQNCttMEJTaWpWUDNwTGJOQm15T0lxTk5aRlNXclNYLzVnU0lmdHlnWTlrdnlLZ2RrY3RmUU1hUUVmM0ErOEJ5S1Znb0xLU05lbnBEZk82bktDUWlvd05UbjVHaGlvejFadnhoKzVSeXZ0QjQ5a3RiRGhtRDBqcy9uaG1mK1d4Ky9GdmxaZUxZOFZGZWI5SHlPZWs1a1BHeVN5N2h1T0plSWY3MHJlaURWNHB6SXIvMjVWUmNYN3QxeDRwSDg5NW95Q2pjbFBQL3Y5dURQL2hXK2NNYk5yUzY5U3YvVUgzM1IrOVBuL3ZrSitNY3YwWFVkemxCSnBybUVlVWwyVXh4MDh4bFdIc2NUWjFGeTJPM1d6KzdEWm1FTlh6dm9waGFFRVpmM21OTmlSYWVFclJXWXpBOVZrMDVLbktQd1F5TjZyb0U5ZEVHV25GZmFOSzgyaUtpSEVJVXhuYk5OTEJyMUtjSVFoQnBiZG8rbGR1aXFZeEljcTJReFRPVk4vTmd6dzBndjdWNEhDUHFyaGVBNU5wYmxmdEFUaEJlVzYwS0VCL0VkWmxHeitXT3ljN3RHdm5XVFJxSE1kRlA5bXlTdUJBclBQNTV5ZEpsWE5lUXBrNDRuN3JxQkpLUTM5NlB5Q0FqZjc1eDU2MnBmYnRPNmE2YmJpbTdhdHFJTFhiNVJtei9KWVFVSU9kVlZ1b0x6ZnZTMTMvWTdadXp2bGFWVjlJcXpicmwrbkRQTFZxME5KMkNlQ2pMR1JoUXA5RWFTaUNpYXRBdUlYb25qa2RENjIwQ3RkTkJKUFhMa0F2OWx3V1c5cmlnWWJUbTFiQTFUVG9XYnpxRkdhbzlpazltdjh1UU1XSUE0L3FNYW5tdmNwbWxCVlVTbENFenhPSjZFVlNLMm9qQXN0L0d0eUF0OTNOZnBPelNRVDJaZy9WMUowS3pSMjhMK2Rsc3pFSnNrTFdrZ3hwa2ttc2lZNDRsK3l5cFlXanlLdE1henAwVkV6VUZ3VUttQzRteTJvRElNKzdjQ2FSM05NVThWcEQ2VlJKMmhqdzlDem14K3NpQjlMWUxMaTc3L3F5LzJYTFY3MytTZTh3Yjh2Vy9qSkE1cUZ6LzZmY2F6Sm4za2EvZFZmYXBULzN2VGVWOUt0UEhQLzVwb3FGM3BlZWUzUklLRDlaMU1oSmg2YXlvUjZuVjRhODFhS00xZWNoU0c4c2tvMlJMbk5ESXMyQmdpR0NHb0xrSGlTUlNIUllkTTN1SUIySlJqaUpwcEFkblE3bkkzU0tWTGpTU0I3a3dGNThwMjlVZFdBZmJ0UmxMV2FDMnJOMVBjMHcwSGdieWMxbDhWMERIYXNkUnhwaTUyRHhPSldzdkltVGpCL0VpNWN5UWtldllBRzRPQzlkZlNvbmp3OWdURnkyWWx6cDF0bVR5V2NDZ2dhSlE3VGdraW1NeUhuNG9yVnU3T24zMWIvOHVmZWl5Yy9PK3YzYlJtZDIrWWQ5blpPVFBPTDF2Zi9HaitFdm41clVvS2FuOXhGOS9Ba1B3ampSdHlnUm9Bbmt4YU4yaVYrUzU4SzZBK01kQ1hGOTFmRzRCeTY2ZDJxWFdVQVVSem1NM0xDSWExU0dnb05JVlB5OHlJSldXN1NUOVB5N3dpOGhnV2J4R0UyZGNwOWVEMEF2Y2QzcUFlQWUyS3ljcU05WVZaRWhGdDRpWXNHRmU4MEJjWGFPNUpsdXRaNk1vby9xVHlZT09obnZZRkc0RXhZeGN5MnlhMmZlT04weGpqTjdDQUJHTk0zNUN1bkQ2SmVRN3owdFBybjA2emJqb1F2S3V6NkxBWndQRjVqa05BMDd5emR0bnBVTjdkdFR2WHZaSW5zaVk2L3Qvd3V1ZmpVSytGRmdQMy8yZGNNTXM3Vm5aY1BjOTk2VFBmUEl6cVh2N3R0Ui9XWnRxUUtBNG94cktaY3FzeGROZFNBTWhqbUhpOEtDZXB0ajNTZ2xTbGFWYnppVE1TWEI3cXpnRVV2dEFLUmwveWdWRmdWZzVQQm81dTRwOVNqRkY1MEFSNVVPUTZ3VzU4VVNHT0ZqbW9aNE1GOVlyTythQ2tCazloaVBQZ0FhYVlYQTV4U25yTEQ0T1pFUzZ6T1RIb05xOGJ4eE1OaDZvTHdFZFBmdjB4S0JmbVZaalQ2emhvUHB6eDArS09wb05pQ3I5S3Z0Z3NxUUt4S3diVTRjMkJFZTg2NUltdDMvaUUvOVd4YzhlOTRiLy9Zb2haQTV5cysvOWZ0NW5icjJqMTVmLzdtODJ0MnpkTVgzbjlsczRrT2NnS2FCclpacjR4NHVKSFBlVUI5NVRRc0xhamhibnRPcXJYcHFEamJuWFJ2UkVWSnZtSlA2SmJDS2thYVZ4M0ljSUxXSWdFeGFpcmRzQ0lYaDEwWDJ2elZEL2M4aUFYa0N6bTh3UERUS0NnUExVZkV3NzNxMFdIVlF3UklDTU1tZEludlVzQmN6K3NTbFVhdXpNTzBGTWtkVE4wRms1a1ZwRXo2eDVCdmE4Z05xV3d5aVVRUFE5NCs3Y3FVUHExYjFidXZHMmIzREV4clkwN2R3cFpiLzkvcXd0SzMvN3Mram5mK0t2Vnh3aEJlcXN6LzdWRmw3eTducndrWVlQZnZSanlFc0Qwa2MrOW9tMFl1WHFPTDJxcUlRTVBCYjBKTFk0Nnd0YTVheVdBRjVMdGJUQkZxbjJhdFd1SnBabEFWRmkyYVZHc0ZkZWtFOUI1T3hUS05hTFU4ckpsV3JLUWZVd09kWEJ0aHNJd2cxZTcrQU01dUFNbUFiTU9JWEZhczhncVk1bjdLZEZUVUFzNkJUaGxpKzBuRUhlRHdMeEdwRXdwOFQ0ZlVUSEh6K1NwbDE4WlNodkMrYlBwMDVQbXpSMThubVlzNUNUOGYzMzZOZVRZNEZYcHJ0Ly9NUDA3dmU4TjkzMHlYZm4vZlo1amduK0g5NWVYTDFYQVJCdnYyaDZrSmJLWGwwUFh2dmhqN2IrUDUvL05NZVpFVlUwWng3VWo0Z2lXR3BCYUxxNENhblFlNW9FK3BPa2k5Wmp3MnpacGhVZUN3cHVOdW9iR25vaU1odUUwTytySEJlc2s4K05Lcks5S052SlJwVURNWWRIUFVUa1NwUXB6VUlJcW8xM2duZ1dtMGRzS0VDMlBIM2kzeHV6dVNJb2FsQm5abUwvL2hETHcydEdsWlVUeitYSXRmd21MZEtTUlF0RDJ6NXZ5aFNlaFJHZE9RNGFORHdPbS9yR3JiTlM2OUw4MmgzTEh5bTZhZmtqcndMMFh4K1BlRlVSTWdlU3ViLzRselp6MW03NzVLYysvYm5iOWxRZlRWLzQ3S2NqNzJQWktnNklGTkZndnZxWkM2Q2NLaTBOeUpSUlhCT0ZwVVA3ZGlBaXNxV0lpZEtqUE1nTjNPV0wvOVNmN1FNS0NyblQ0RnlJVVZzcWk4V1NiMjNJcGNpdjBZSWtjcjN5S0o5NWxxR2Q1WXpaWHBOajArSTVhSjA5VXdTUEo3a1p0RWxTUjdPc0xBMGVRS1dLWllzcG9scWJSZ3dlR29Yb0pkQmxaZVhVNEM1SjMvM2VYWGllYXRNLzN2SDE2eTZiT0dTbS9iL1pYb1JBYm9WZS9PUlZlamRwWUk5djhLaHYzSFhmUStPL05QUEw4MXBRZnZtN3Q5MmF0dTNkVHhqK1NuQUdpWkJ3THBFZ0F0aEJSdDk3K0hreExMMVZ5K2F3UTNKc05Fd0hBbVlENTVKb2daaXd6NUR6dURHTTF1SnVNUWhGY1lDSXNJRTlLMjdtV0hJdTZrYmN6TFVjTXI3QWtrRS9BMzNEMk01ek5aNTM2ZHFaZ3ZLajA3UFBQcHZtelo5TEZkd2h4Q3VTb3NIenVuVWlmYUJIbHpUcjl0dVJsUStsejM3c1k3ZDk1bjFYZk9xeWliL0tQZUxOMXpNZzRMcTlKdHJuYnIxejA5MC8vMlZaL3dIRDA4Yy85SUcwWnVYQ3RPVUl3aHVrME5MRlJrSmJjamt2Z2hYNFhMc2lDT2ZCUEhQbXo0dUExNGdqQkFzMHZwOUo0YTY4NVBKMC8yOStGVjZkZkZKQ1RYWEFVMDJlTkd4WE8rRVpaaDZCa1VQQ0hHQkV4bHgvQm5pSWtJN0pzM3N1cHhhT1pWSFdQUFVVZFlwSzB0UnpwK0JleEV0RjJaWEJnL3VscDFhdlNYTWUvd01tbldIcDNydHVmczNBT3plMzE5cnJmeHVGZkNrZ2J2bnNYNWI3V2ZPU29tM3YrL0MxM1cvNHluV3BQeWNIUFBiNFkySHlnVWszVWp1UVRXczVoblJQSGppQnltd3lWbVJFY2s1TlJCZnhiVTdqVlFTUTBmcDNQajcxdkh5dEtTaFFvZ1lJbWFVczhQNk01bWtVc3UrTXVtWTJTYjA0WUM4Zkd5dEVKVnRLNHFrbHo2Y1FxdDZoaWVkTUlKeU9GR0VDTWtZUXQ2bkNjek55WXF2bTVNc3NleWp2M21VUG5mR0VOOS8rUnhCNHpTQmtib0RyNWp6WTQzc1BQdHJydGxtM2JUNUVNYXRQZk9hTHVOZzZwM256NWhQa1FHZ2F5VnlvSGtodmVHbEFrSHdDTDlvU0pkUHYvUFBTSTQ4K0dwVVpsT3B5V3JlV250T3dUcHZJMkFDN3h2b3Rqa1pUWkJTaE5OR0Vja0lNb3dLaCtPcm5CbVpZTDBkamsxRkNaNUUxMkt0SFYzS09sa1lwNDNPb3llaVowaUp4ZWUvZXFaVFF1Vy9lOFMycTI1NUlILy9ZdFdQLzd0cTNMczZlOU9idlB3VUN3djAxMnk1LzMvOXVQWGZKd29QdFdyZE50MzN6em1UMWlUVWJ0aUplUXFsSVFHdEdnSVkxZXVZc25FOHkvbUFxTzFTbmZwUy9tL1gxV3lJOTFwUURLZHFWRkdmLzVXOGVnT0s5L0ZTbGhEa0VWdFhKaVpCUkNZSzhHMDFSQnVsT256U1JtanViMHc3T2xPNkRyN21zRXdjQllBWG8zSzROeVZ3OTB4M2YrMkU2dXJjcVRSNC9ZZWhQN3ZqS1V5Ly90RGMvL1dNUWVFMGpaRzdnbjczeFd3ZnZ2ditYcldkTW01RXV2ZWlpdEdMRnNsUk5hZWxUMklueUNIaDRaUGFqSU1tdTFCK1BoNlljaUI2S3krbTA1dG5zUE1ITHJyd3kvZnBYdndxa3kvVHdyT2RnNXlCcERobjlWSUFFZ3VLaTlNaU1CbVRZaXptVnlzODhCcU9ZTS96R2pCc1QrVUUxK09JblVnWmwzYnIxNlRjUC9TcjE3ZDYxZXZaOVAzeGRwZzVrRVBudi8vMjZRTWdjbUVaYy9PNkdyWnMzcEs5ZU56T09wRnU0N0tsSThGLys1Sk5weGZKbHlJTzYvUExUdS8vaW5XbkQ1bzJwckh2MzlJZEhIMG1ldVhmZnIrNkg1UkxSRGFzWHVjNXNFU0dFekJja1ZBUU5WczBCbFJTbDc0YTRzSFRGY3VzM1V4dDhMRUVoeFNnMFJaVFhHMExoZ3RQcHJqdHZ4OTNYTGozOXlFOWZWN0E4Yy82dnBmZXZPUm55andGbnhXOStsSGYzUTBzbS9jM012NTB0Tzc2ZW5HUDl4SlpJWHJsa1FmaTVMU3Y5enovK0Z4Q25KUFV1THllblpYQTZZTUVxa1BDMHJCNmViTUNEbmlISlllQW15Q2g3enAzVDBvOWEybjJJUTN4cTFaT3BhdHRXanVvOW0wUFNXNlBZSCtjQTluNlVEV3lSYnYvV3R6SGM3MDhmZU04N0ozL3QweCtlODhmRy9lWjNmem9FWHJlN3VtTDYyMXFkT0hLb3VuV0wxdFRBcmt4ejU4N04yRzJZY0pBSlFiQWlESXlGVFZ1a01lUXh6eWZNS3p3c3dFWXRXVGxScEVaRE1rY3JJb1pNSnJ2d3ZQUFRwdTFWbkk3MVRPclN0aUlOSFRTUUcrbzVTTElsaDNoV3BKL2RlMS9hOU96S2RQdk5ONmEvdUdqeTZ4WitmenFLdkxwWE51cWZyKzVEL3h4UDIvakl2WWQyTEg0b2IveW9JVWVmZjNwVit1d25Qa0hSZUVvYzgxTm5kTGZsOG1qNnhGdTFhUm5VTC9kY1BTem1zS0JhZzJ6Vzlha0RFZCtTcHVQaSs4T2NPWEhZKy9SSmIwbERCdlNCVlIrbjBQdklPUFhoeGh0dkp2MjY1c1RlTll2eTNrVEdIRFQvdksrdks1YjljbFAveHh2LzFvaUxkRTl4d2VuMy9jVTFoUTg4OGpDMUZ3K2k3SkJxaW9KVFFHbTZBcndwSGl0aWdLd3lwdUZwb1RselgxbXYzbWxBdi80b1NzdmpFTkN6U2VadlEvbTZBaUtFZWxmMEpvNnhhZnI2UDl3U0tiaDdWajJVdDJmVnk0M2l6Yy8rWEJCNDNWTElsd0pnL1p6ZkZFMFlOM0p5S1liRjk3ejlIVVR3aG5hQ3ZFaDFYRklsaWpBUkJYK0ZsWnMzM2FOYlQ4N3V1d0JGSjFFRllsNGEwTGRmbWo1K2ZHckRHYzk5K3cva2tNcHowcy92LzlkMHl6ZHVTKys2K3EyVHR5eDQ0RTMyL0ZLZ3Z3Si92MkVRVXRoODROS3BjN1l1ZXl4dmFGbTNlYzFCdjQ5KzRQMFI3cldQWXpSSTUwR2hLVXd0cUoxNDhTV1hFcE5JVXRVaUZhSDZOR255WktoaWR0ajQ2TkhqcVptek9OMXcvWmZUMnk0NWYrdStWUS9uM2ZMNUQ4eDVCV0QvWnBjdkE0RTM5SzZmOGQ1cnF3L1YxTGJhdW4wditTdlZhZXlFaVJqUGF6ajU2aGxZZWwyYU1uVjZZeFI0SHBXQ3h4R3NjVHg5Zy9TQmJtMmFIVjM5K0FNaENyd016Tjc4NkJXRXdCc2FJWVhiSTh1ZWVlKzdQdmlSZjU1eDBXWHAwU2ZtRXI3V1BsV1dVU0tQTkYwamhzcDdsYVZtbUhUdXVQT3VWRS9OOCt1dm0zbmIreTRlKzZsWEVPWnZkdjFISVBDR1I4amMzRDkrd3pjbi9lVEhQNTdkb2szbmRNa1ZWNmFPc081bjEyOU1TeGZPU1ljNUgyYktlVE11L3RsdGYvOWc3dm8zWDkrRXdLc0NnYisrNVRzWERUbi9tb2JPb3k5b21QTDJqelg4YnZHemMxK1ZCNy81a0Q4SkF2OFg2ZXE0TFZVbGlMOEFBQUFBU1VWT1JLNUNZSUk9IiBpZD0iYUkiIGhlaWdodD0iMTAiIHdpZHRoPSIxMCIvPjxpbWFnZSBwcmVzZXJ2ZUFzcGVjdFJhdGlvPSJub25lIiB4bGluazpocmVmPSJkYXRhOmltYWdlL3BuZztiYXNlNjQsaVZCT1J3MEtHZ29BQUFBTlNVaEVVZ0FBQUpvQUFBQ09DQVlBQUFESnVCR2FBQUFBQVhOU1IwSUFyczRjNlFBQUFFUmxXRWxtVFUwQUtnQUFBQWdBQVlkcEFBUUFBQUFCQUFBQUdnQUFBQUFBQTZBQkFBTUFBQUFCQUFFQUFLQUNBQVFBQUFBQkFBQUFtcUFEQUFRQUFBQUJBQUFBamdBQUFBRFN3L3d5QUFBTTlrbEVRVlI0QWUxZDNYTGJ1QlVHUU9vbmRwUjRtMmk2NlhSM1BKblppNjZuZDMyQXZlMER1TS9EUG84dit3SjlnVTZ2M0Y1MEorUEpacnJkVmR4a0l6c1N4YitlQXhJVXBUZ1djQktwSkhnd2tRQUNPSDhmdmdEZ2p5a2hhRW5TeEZqS0F3UVVKUWFTME5uNStZQmlqR1c2ajhEWjJYbElpWUpFdEs5dmJuaEdvNkR0Z1V3YzA4YWVSTFIvZVFBWWgzQllCRWhFTzZ5TGJNMEhCSmhvUG94aUIySmdvblZna0h4d2tZbm13eWgySUFZbVdnY0d5UWNYbVdnK2pHSUhZaUFSN1pzT0JNWXU3Z2tCNHVDVGlNYlgwZlkwaUYxUVN4eDhFdEc2Z0FmNzJDNEVtR2p0R2c5dnZXR2llVHUwN1FxTVJEVGlmckJka2JNM0IwV0FSRFRpZnZDZ2diR3hkaUZBSWhyUGFPMGF4QzU0UXlJYXoyaGRHTnAyK1VnaVdydENZRys2Z0FBVHJRdWo1SUdQVERRUEJyRUxJVERSdWpCS2JmS1JlQ1pJSWhyUlZwdmdZbCtvQ0JEUEJFbEVJOXFpaHNaeUhpQkFJaHJQYUI2TVBEVUU0dUNUaUViMWtlVThRSUM0bkpHSVJyVGxBY29jZ2pqa2pFYTB4YVBVWXdSSU0xcVA4ZUxRaVFndzBZakE5VmFNdUc5aW92V1dNWWNObkVRMElxa1BHeGxiYXhVQ0pLSzFLZ0oyNXJBSUVNOEVTVVFqMmpvc0lHeHRQd2dRbHpNUzBZaTI5aE00YSswRUFpU2lkU0l5ZG5JL0NCQ1hNeWJhZm9hRHRXNGg0RW8wZkhldFRCY0xmb2Z0RnBCOU9Vei9xY2ZlZWZ4ZGlhYnhmQmJIem9iNk1oRGV4M2xhUitqRUFSZWlhY1ZSRk1uVmF1VmtwSGFOQzUxSG9KeGtDdWM0WElpbWxWOWVYc29rZWNKRWM0YmFENEhWNnFtTW9qK2I4VGY1enVBY2lSYkoyV3dtczEveGpMWVRXVTg3SkVrc2NiTEJsYzBsUkNlaW5aOWZ5dmw4TGg4dUZrNXlMZzV4MzNZakVFOXVGVTQyVWVUbXB6Tmhsc3Vsak9NSHpuSnVibkh2dGlLUUxKY0tKeHVjZEVSaHYxZHpJWXhlTm1NNDQ4d2VwazdUWmx0Qlk3L2NFWGlVVFNST05scFMydFBBbG1pZ01kSzYwL1MzTXM4eWV3dnVzYkJFaXhISXNoUld0RmhQT3VDbU5ROXNpYllPL1ZTSWpJbTJ4cU9YSmZmN1VFNUV3N1ZaWFBVU1dRNjZRaURQYWF1WkU5SFExck5uTVMrZGZhZWQrNFFtbkluV2Q0dzVma0JnL1p5WTlXa25FNDJaNDRTQVVvRW0xM1E2dFNZWkdtQ2lPY0hNblJHQjBlaWxFOGxRaGthME9ZcHlZZ1RzRVhBbTJnK29lMkp2Z0h2NmhjQThDR0UyKzlZNUtHdWltWHRiWHptYllBSC9FUGlIYzBpaHN3UUw5QnFCRTRnK0dJOTVqOVpyRnJRNGVPZWxVOGN5NFUxYWk4ZDByNjY5MDNzMGR4UFdSTnRRUGVmVHpnMDhlblh3UmtkN2NYSG10SHpTaU1hbm5iMmkxdWNJMXBwbytrRzN6MkdSZFhRYUFSWGk1UTMzWkUyMHM3UEdWRG5ocGRNZGFrOGtydUV5Nm1RQ1pJc3dJR3ZTV1JQTkU1ZzRqRTlGNEFsTmdUWFI4QzlmMEFUL1RTY042TDVMV1JOdEV5aSt2TEdKQngvdFFzQ0phT2FQRW82SlQxbnVjb2JiMjQ5QThIYlBKd1B0aDRBOVBEQUMxaWNDNkpmVGpIYmdRTmhjU3hGd2ZlZ1J3MkNpdFhRd2ZYT0xSRFMraXVZYkRmWWZqeVBSM0I5NDIzOEliT0dRQ0lUaHdHbHZabnh6SkpyN0EyL0dFT2VlSWVEdzNnMk0zSkZvbm9IRjRkQVJjSGp2QmhwaG90R2g3cTNreFlWNzZFdzBkOHg2TFJFRXcwUHMwWHFOTVFkZkk5QjRrcWV1dTc5QW10SDRUdWY5b1ByZkdqbUhTQ0lhWDBkenh0bEhBYWNsbEVRMEgxSGptUGFMQUJOdHYvaDZxajF5am90RXRDTis0Nk16MEw0SURBYlhUa3VtaVp0RU5DUE1PU05naTRBajBmaGVweTJ3L3ZiN0RTazA1M2R2bEQvUGMwTXl4a0krSVBCdkNPSXZ6c3VuNDR5R1FQM0hCN1E0aGdNalFDRGFsd2Qya2MzNWdBQ0JhRHlqK1REd2g0NkJRTFJEdThqMjJvVEFjSGlRbStyODRHT2JCcjFMdmpqT2FIeDVvMHVEMnlaZkhZbkdNMXFiQnUvLzRZdCtXVGJCc0NQUmVFWWpZT3lWQ1BWbDJZNUV3eG1OTDI5NHhSekhZQTQ0by9IbERjZXg0ZTZBQUdGR0U0TDZVM3FNZUg4UmNDSmFISDl0L1l1ei9ZWFU3OGpESDBkNG4vTVE5enI5QnBLajJ3OEMxalBhYkRiVHN4bi96UFYrQnFJeldrOXBubG9UVGF2WHZ6dzdGVVdSOHhKS3c3dTNVbTVFTTc4OGU5UmJ2RGh3SWdKdVJDUDhsamJSTHhackt3SlhOTWRzaWNaTEpRMWYvNlJPYVNIWkVxM1VYaTJkZWM1N05CcmNIa2hkMFdKd0kxcTlkUEltalFaMzk2WEMzejF3dm9hR1Vic1JqV2UwN2pQbFV5TXdKNFNPZXR5SVZzOW9qbGE0ZSs4UmNDTmF4V1plT0h2UEcyY0E3SWdXUlJ1SytXUmdBdzQrc0VDQVJMUmJ2ak5nQWEyblhZamJKenVpTlRCTDAwVHkwdGtBcEcvRlE1d01wT2xDWDdqTlIzd2RyVy84K3RSNDNXYTBVelQzV2hSOHdmWlRjZStkdkNYUm9qVXdUNS9DRTdZanZpVzFSb1JMRmdqWUVHMlRWSzlSNjhKQ05YZGhCTllJMkJDdDduMEtwZXdrbGFPQ1o3UWFGQzVZSVdCRE5IMXZhejZmMXpOYk5zaHM1S3djNEU0ZFEyQ1BsemMwd1NhVFNYRUZtRHhPVThrbkF4MGp4K2QwZDUrWE43WnVESWhpT2F4bnQ4OFpBK3Z5RndHYkpiQm9FdTBOWU1HM29Qd2x4TDRpc3lHYWFCTHRFYno2dlJnV1BLUHRhMFRhcm5lUGU3U2FhS2NWQ0VPKzE5bDJPdXpQdjMzdTBacGU0OTkxRmdYUGFFMU11THdiQVp1bHMxNG1yN1MreC9CM25VeTAzZEJ5anlZQ05rU3JUd2JDVitYejRyRVlOblZ3bVJIWWlZQU4wV1R6WktEVXVOcXBtRHN3QWswRXd1YkJ4OHVSbUU3UGkxZXYvZzVYYkw4VTZwM0t2LzM5SC82WVNYR3NNaEhtU2daS0ZnRzhLa0hCYlFRSmE2dENCdWZ3K1pESkFYVElpZ3o2QmZCV0d0My9Uc1BRS3FBWEpLUEg1RUtzMjNRSC9OSUd5M29wd0JVQjNtMGtJMVBtcUF2VHBuL2JiVVptN1FQS3JQM0FJMHdCMUdXMUx0TnU4cktQK2FiRkQ1NW96TkJmakEreFFld2dTTWd3b2ErWUVMTzEzN3BLTzJMYTEzMHltZU1lcUpCUzRSV3JYS2tpaGE0cGJJMVNzSkNvUW1XNXdtUHhYdVhpbDFpSmQ2UGk1VTlhcCtPWERkR3FRSVFjalVaRmNCTVdnN3dBNCtwMUVHUTN1VlJCQUpIbk9SQk5CUXFHV0lMM2VwQVJGQk4yMDY4Q2dNQTJvN2padGxrdXdURmtNRGxnQWQzUWRaTkRzWUN5dGhxQTNrYTlMcVBXc2c2QkJmc1M4SVB1c2g0a0tNQ2daZnA0UFNRbDBWRjZYYmRaeGpZSndRTU1FZ2RPOXpWN1dBazNVWm9BUUZrS1ZlUUNuK2REY3FKOTlLdEJEWkRSRlJxZE1tSU1DN21pd3dPWnNrUHBVZFc1Rk1GdkdSWWFHdndxVllOeUxGVFNNQTBZN0VMUWxjSzVuVkRnZUpCbmNNY0hQbUU2RURMSmd5S1ZlWkFCcDlOaExoYnZ3dmdtdkxsWlhINy92ZEc2dG1sUnNpR2FWbk4yZGxhOGVQRUNuU3lXWXBDSkxGbkNRR1Y1Q0xOWkRyd1BWUkFtaFV6Z1A4akFjQUFrYTNLWU9wMURjSVBTdXpSWmV4bGlIUnpMQVFDd3JxNDZyaXRDNkFpaldpUzRWelI2Ti9hTjRKbkUvL1dvdlBZQXlubEZicERYa3luWXdvRUZZMmh2RURicEJCVnd0dzM5bEpoRFFtMlZpM1V1WlFvRGhhMGxiYW9TWnBwR01paGx0UjMwTlRIekhLb3NLai9MM3RvNlJOVk1XZzRxTU1lV29vcmdZMzJFZ0cwTm1zQ2tjQytOMjV3aHhBQit3cUhXdDhMNlRLeEFKOFkyR3NzaWd4RU53MUdXQS9SSmttYmo0Vkc2V01YNU9EektjdkhmNUVrd1dQMnRKSm5HQWhRNHBaTG11MFdnWHlTLysrNnZhaWJFV056ZVBreGorVUNwVlpqbm9jS3owQUdRclFqRGUvVkptSnVydUxWRm1TUUZubGlNYXZzckVVTVp3UmhCL1VvbWR3WUZVMzFkTDFlcnVxd1ZvWUxSU0NqUURRWFFWYll2b1hwYzIwRWJDbXdiVzJYRFNxMWc5UjlDVTZrZis4ZHhaV3NNajBZdEgwRE5RcWlxWFNzRXhVMS9TazJiMzB2by83SEgzMUhXUEhSbDdHTGY5NVVLSTdkVXl5ck9xdlU5NUVmUXE4clZFdnhzQ202NmNLZVBDdGFmVzNFalRnYUQvUFkyS01iam93d21yZnpvYUpFZEh4L25zNU9UL1BIUFArZlBuei9QTHk0dWtMNXJyTGYwN3pxOGx4Z040YXJmdVRvN2d6bC9PaHNPM29vd1NXWUtQSkpwTWxMNFk3SGJyeHpGUUVvZCtHdDREK0ZUNWtHd2dIbzhGbUkraDdvSkZ1QUR1UmxFck1LRUFKU2xyZTlIY1B3T1ZvWGdJKzNRcU5RWGQ4dFdxb0xncG1vL3FaVy9oZEw2Q0t2TG1pQ1lmMVFYM3BacnBpK2FCMVVaKzZoZnd1TEpFeUd1cjJHcit6aVZiNkJTVFdHcGd3VFZBcXAxd3ZKMlFobE1XaDRMY0d4MFlXNlM2V2VPUDhpYmhxQXhDRUtZSHdaRkVBd0wvTkhYNjhra1A1N044dkY0WEZRRVEvOU03Q2IvUU8ydUNsdWlvUjdvVzRqejh6OHBmQ25mYkRaVmNYd2p4VGV3d2l3V01vMWpyZXNyNkxoYXJlN1YreFA4ek11dnF6NHVQL255QStoRy9adytId0kvd3I1YlhNRU9CRjUxTUhyNUVtYTFjWUZQNmt5bjB3SzNTMUVVTmNuVkxEczVjUzhodGpRMSswSTVBdEpkQXVIS04wRmkzK1l6YTF1eWZOaGlCSkJZeHIwR3dXQmVnZk1PUEs5ZHoyaW1tM1BlSkkrdDhMYU1KcDBXanVBN2l1QWZGc29VUVlhZlpzTDJacDltRzVaTmU0UmwrTnlWNmo0TlhjMjZXZ2JhTVpYZnVsaC9tZjZtQXZ2b2o1R3BjbXczZlUyT2RaandlRHMzZGJvZXZpSXNOTksyamthVExwcjJDSTd3YzFlcSs0QjlMR05xMXVtS3NsSVhvN3BpWGRCeUtGczM2a0pOdXFybjluRlY3Wlp0azhaTldpK245ZnJkMUlYT05ZOWQ5WnIrYmROai9OcVZ0ODF2RjMrd0x5ZEdnQkZnQkJnQlJvQVJZQVFZQVVhQUVXQUVHQUZHZ0JGZ0JCaUJUUVQrQjlkQm16WjRORDg3QUFBQUFFbEZUa1N1UW1DQyIgaWQ9ImFWIiBoZWlnaHQ9IjEwIiB3aWR0aD0iMTAiLz48cGF0aCBpZD0iYWUiIGQ9Ik0xMjE2LTEwMTFjLTEgMjk3LTIwMiA0NDEtNTEyIDQ0MUgzNjFWMEgxNjl2LTE0NTZoNTM3YzI5Ny02IDUxMCAxNjQgNTEwIDQ0NXptLTE5MiAyYzEtMTc4LTEyNi0yODgtMzA3LTI4OUgzNjF2NTcxaDM0NWMxOTYgMSAzMTgtOTIgMzE4LTI4MiIvPjxwYXRoIGlkPSJhZiIgZD0iTTY2My05MTZjLTE2My0yNy0yODggMTgtMzM4IDE0OFYwSDE0MHYtMTA4MmgxODBsMyAxMjVjNjEtOTcgMTQ3LTE0NSAyNTgtMTQ1IDM2IDAgNjMgNSA4MiAxNHYxNzIiLz48cGF0aCBpZD0iYWciIGQ9Ik01NjEtMTEwMmMyMzgtNCA0MDMgMTI2IDQwMyAzNTF2NDk4YzAgOTkgMTMgMTc4IDM4IDIzN1YwSDgwOGMtMTEtMjEtMTktNTktMjYtMTE0QzY5Ni0yNSA1OTMgMjAgNDc0IDIwYy0xOTkgMC0zNjgtMTMwLTM2NS0zMjAgNC0yNTEgMjE0LTM1OSA0OTAtMzU2aDE4MHYtODVjLTEtMTM1LTg2LTIxMi0yMjktMjEyLTExNSAwLTIzMiA2Ny0yMzMgMTcxSDEzMWMyMC0yMDUgMjA2LTMxNiA0MzAtMzIwek0yOTQtMzI2YzAgMTE3IDkwIDE4NSAyMDcgMTg1IDEyMiAwIDIzOS03NSAyNzgtMTYydi0yMjJINjM0Yy0yMjcgMC0zNDAgNjYtMzQwIDE5OSIvPjxwYXRoIGlkPSJhaCIgZD0iTTQ1NiAyMEMyODUgMjAgMjA1LTkyIDIwNi0yNjh2LTY3MUg5di0xNDNoMTk3di0yNjJoMTg1djI2MmgyMDJ2MTQzSDM5MXY2NzFjLTkgMTI1IDkyIDE0OSAyMDcgMTE4VjBjLTQ5IDEzLTk2IDIwLTE0MiAyMCIvPjxwYXRoIGlkPSJhaSIgZD0iTTM0MSAwSDE1NnYtMTA4MmgxODVWMHptLTkxLTEyNjRjLTY4IDAtMTA4LTQyLTEwOS0xMDUgMC02MiA0MS0xMDcgMTA5LTEwN3MxMTAgNDQgMTEwIDEwNy00MiAxMDUtMTEwIDEwNSIvPjxwYXRoIGlkPSJhaiIgZD0iTTU4NCAyMEMyNzggMjYgODEtMjI3IDkxLTU1MWMxMC0zMjAgMTc1LTU0NSA0OTEtNTUxIDMwOC01IDUwMyAyNDcgNDk0IDU3My05IDMyMi0xNzUgNTQzLTQ5MiA1NDl6bS0yLTk3MGMtMjA4IDAtMzA1IDE4NS0zMDUgNDIxIDAgMjE2IDEwNiAzOTggMzA3IDM5OCAyMTEgMCAzMDctMTg2IDMwNy00MjAgMC0yMTQtMTA5LTM5OS0zMDktMzk5Ii8+PHBhdGggaWQ9ImFrIiBkPSJNNTg5LTk0NWMtMTMxIDAtMjE5IDgxLTI2NCAxNzRWMEgxNDB2LTEwODJoMTc1bDYgMTM2YzgzLTEwNCAxOTEtMTU2IDMyNC0xNTYgMjI5IDAgMzQ2IDEyOSAzNDYgMzg3VjBIODA2di03MTZjLTItMTUzLTY1LTIyOS0yMTctMjI5Ii8+PHBhdGggaWQ9ImFsIiBkPSJNNTM4LTEzMWMxMjEgMCAyMzItNDkgMjMyLTE1NiAwLTUwLTIwLTg4LTU2LTExNy03My02MC0zMzQtOTItNDIwLTE0My05Mi01NS0xNjItMTEwLTE2Mi0yMzggMC0xOTAgMTkyLTMxNyA0MDAtMzE3IDIyMyAwIDQxNCAxMjkgNDEzIDMzOEg3NTljMC0xMDgtMTEwLTE4Ni0yMjctMTg2LTExOSAwLTIxNSA1My0yMTUgMTU5IDAgNDUgMTggNzggNTMgMTAxIDc2IDUyIDMzMSA5MCA0MTYgMTM5IDk4IDU3IDE2OSAxMTUgMTY5IDI1MUM5NTUtOTIgNzYwIDIwIDUzOCAyMGMtMTc2IDAtMzE0LTY4LTM4Ni0xNzQtMzgtNTUtNTctMTE1LTU3LTE3OWgxODVjNiAxMjkgMTE2IDIwMiAyNTggMjAyIi8+PGcgaWQ9ImEiPjx1c2UgeGxpbms6aHJlZj0iI2FlIiB0cmFuc2Zvcm09Im1hdHJpeCgwLjAwODc4OTA2MjUsMCwwLDAuMDA4Nzg5MDYyNSwwLDApIi8+PHVzZSB4bGluazpocmVmPSIjYWYiIHRyYW5zZm9ybT0ibWF0cml4KDAuMDA4Nzg5MDYyNSwwLDAsMC4wMDg3ODkwNjI1LDExLjM1NTQ2ODc1LDApIi8+PHVzZSB4bGluazpocmVmPSIjYWciIHRyYW5zZm9ybT0ibWF0cml4KDAuMDA4Nzg5MDYyNSwwLDAsMC4wMDg3ODkwNjI1LDE3LjA5NDcyNjU2MjUsMCkiLz48dXNlIHhsaW5rOmhyZWY9IiNhZiIgdHJhbnNmb3JtPSJtYXRyaXgoMC4wMDg3ODkwNjI1LDAsMCwwLjAwODc4OTA2MjUsMjYuODg1NzQyMTg3NSwwKSIvPjx1c2UgeGxpbms6aHJlZj0iI2FoIiB0cmFuc2Zvcm09Im1hdHJpeCgwLjAwODc4OTA2MjUsMCwwLDAuMDA4Nzg5MDYyNSwzMy40MTYwMTU2MjUsMCkiLz48dXNlIHhsaW5rOmhyZWY9IiNhaSIgdHJhbnNmb3JtPSJtYXRyaXgoMC4wMDg3ODkwNjI1LDAsMCwwLjAwODc4OTA2MjUsMzkuMjk1ODk4NDM3NSwwKSIvPjx1c2UgeGxpbms6aHJlZj0iI2FoIiB0cmFuc2Zvcm09Im1hdHJpeCgwLjAwODc4OTA2MjUsMCwwLDAuMDA4Nzg5MDYyNSw0My42NjQwNjI1LDApIi8+PHVzZSB4bGluazpocmVmPSIjYWkiIHRyYW5zZm9ybT0ibWF0cml4KDAuMDA4Nzg5MDYyNSwwLDAsMC4wMDg3ODkwNjI1LDQ5LjU0Mzk0NTMxMjUsMCkiLz48dXNlIHhsaW5rOmhyZWY9IiNhaiIgdHJhbnNmb3JtPSJtYXRyaXgoMC4wMDg3ODkwNjI1LDAsMCwwLjAwODc4OTA2MjUsNTMuOTEyMTA5Mzc1LDApIi8+PHVzZSB4bGluazpocmVmPSIjYWsiIHRyYW5zZm9ybT0ibWF0cml4KDAuMDA4Nzg5MDYyNSwwLDAsMC4wMDg3ODkwNjI1LDY0LjE3NzczNDM3NSwwKSIvPjx1c2UgeGxpbms6aHJlZj0iI2FsIiB0cmFuc2Zvcm09Im1hdHJpeCgwLjAwODc4OTA2MjUsMCwwLDAuMDA4Nzg5MDYyNSw3NC4xMDkzNzUsMCkiLz48L2c+PHBhdGggaWQ9ImFtIiBkPSJNNjUxLTI1NWw0MTYtMTIwMWgyMTBMNzM3IDBINTY3TDI4LTE0NTZoMjA5Ii8+PHBhdGggaWQ9ImFuIiBkPSJNMzQxIDBIMTU2di0xNTM2aDE4NVYwIi8+PHBhdGggaWQ9ImFvIiBkPSJNNDkxIDIwYy0yNDEtMS0zNTUtMTQ4LTM1NS0zOTh2LTcwNGgxODV2Njk5YzAgMTY0IDY3IDI0NiAyMDAgMjQ2IDE0MSAwIDIzNS01MyAyODItMTU4di03ODdoMTg1VjBIODEybC00LTEwN0M3MzYtMjIgNjMwIDIwIDQ5MSAyMCIvPjxwYXRoIGlkPSJhcCIgZD0iTTEyNDAtOTQ1Yy0xNDEgMC0yNTAgOTUtMjUwIDIyN1YwSDgwNHYtNzA5YzAtMTU3LTc3LTIzNi0yMzEtMjM2LTEyMSAwLTIwNCA1Mi0yNDkgMTU1VjBIMTM5di0xMDgyaDE3NWw1IDEyMGM3OS05MyAxODYtMTQwIDMyMS0xNDAgMTUxIDAgMjU0IDU4IDMwOSAxNzQgNjktOTggMTgxLTE3NCAzNDUtMTc0IDIzNyAwIDM2MiAxMjYgMzYyIDM3N1YwaC0xODV2LTcxNGMtMi0xNTktNjctMjMxLTIzMS0yMzEiLz48cGF0aCBpZD0iYXEiIGQ9Ik01OTktMTMxYzE0MSAwIDIyMC02NSAyODUtMTQ2bDExMyA4OEM5MDYtNTAgNzcwIDIwIDU4OSAyMCAyODEgMjEgOTMtMjE0IDkzLTU0NWMwLTIyMyA5My0zOTcgMjMzLTQ4NSA3NC00OCAxNTQtNzIgMjQwLTcyIDMwMCAyIDQ0OSAyMTggNDQ1IDUzN3Y3N0gyNzhjMCAxOTcgMTI5IDM1NyAzMjEgMzU3em0yMjctNTA5Yy0zLTE4MC04OC0zMTAtMjYwLTMxMC0xNzAgMC0yNjQgMTQwLTI4MiAzMTBoNTQyIi8+PGcgaWQ9ImIiPjx1c2UgeGxpbms6aHJlZj0iI2FtIiB0cmFuc2Zvcm09Im1hdHJpeCgwLjAwODc4OTA2MjUsMCwwLDAuMDA4Nzg5MDYyNSwwLDApIi8+PHVzZSB4bGluazpocmVmPSIjYWoiIHRyYW5zZm9ybT0ibWF0cml4KDAuMDA4Nzg5MDYyNSwwLDAsMC4wMDg3ODkwNjI1LDExLjA0Nzg1MTU2MjUsMCkiLz48dXNlIHhsaW5rOmhyZWY9IiNhbiIgdHJhbnNmb3JtPSJtYXRyaXgoMC4wMDg3ODkwNjI1LDAsMCwwLjAwODc4OTA2MjUsMjEuMzEzNDc2NTYyNSwwKSIvPjx1c2UgeGxpbms6aHJlZj0iI2FvIiB0cmFuc2Zvcm09Im1hdHJpeCgwLjAwODc4OTA2MjUsMCwwLDAuMDA4Nzg5MDYyNSwyNS42ODE2NDA2MjUsMCkiLz48dXNlIHhsaW5rOmhyZWY9IiNhcCIgdHJhbnNmb3JtPSJtYXRyaXgoMC4wMDg3ODkwNjI1LDAsMCwwLjAwODc4OTA2MjUsMzUuNjA0NDkyMTg3NSwwKSIvPjx1c2UgeGxpbms6aHJlZj0iI2FxIiB0cmFuc2Zvcm09Im1hdHJpeCgwLjAwODc4OTA2MjUsMCwwLDAuMDA4Nzg5MDYyNSw1MS4zODA4NTkzNzUsMCkiLz48L2c+PHBhdGggaWQ9ImFyIiBkPSJNNzMwLTEzN2MxNDUgMCAyNTMtMjkgMzIzLTEwNXYtMzI3SDcxNnYtMTU2aDUyOHY1MzRDMTE0OC01MSA5NjQgMjAgNzI5IDIwYy0zOTQgMC01OTgtMjc5LTYwNy02Nzh2LTEyN2MtNS00MTAgMTk0LTY5MCA1ODUtNjkxIDMxMC0xIDQ5OSAxNzEgNTM3IDQ0N2gtMTkyYy0zNi0xOTMtMTUxLTI4OS0zNDQtMjg5LTI4NSAwLTM5MyAyMjAtMzkzIDUyOHYxMTljLTUgMjk2IDE0MCA1MzQgNDE1IDUzNCIvPjxwYXRoIGlkPSJhcyIgZD0iTTYzMi0xMTAyYzI5MSAwIDQyMiAyNTEgNDIyIDU3MyAwIDI5Ny0xNDEgNTQ4LTQxOSA1NDktMTMxIDAtMjM1LTQyLTMxMC0xMjV2NTIxSDE0MHYtMTQ5OGgxNjlsOSAxMjBjNzUtOTMgMTgwLTE0MCAzMTQtMTQwem0tNTMgOTcxYzIwNyAwIDI5MC0xODAgMjkwLTQxOSAwLTIxOC05Mi0zOTUtMjkyLTM5NS0xMTIgMC0xOTYgNTAtMjUyIDE0OXY1MTdjNTUgOTkgMTQwIDE0OCAyNTQgMTQ4Ii8+PGcgaWQ9ImMiPjx1c2UgeGxpbms6aHJlZj0iI2FyIiB0cmFuc2Zvcm09Im1hdHJpeCgwLjAwODc4OTA2MjUsMCwwLDAuMDA4Nzg5MDYyNSwwLDApIi8+PHVzZSB4bGluazpocmVmPSIjYWYiIHRyYW5zZm9ybT0ibWF0cml4KDAuMDA4Nzg5MDYyNSwwLDAsMC4wMDg3ODkwNjI1LDEyLjI2MDc0MjE4NzUsMCkiLz48dXNlIHhsaW5rOmhyZWY9IiNhaiIgdHJhbnNmb3JtPSJtYXRyaXgoMC4wMDg3ODkwNjI1LDAsMCwwLjAwODc4OTA2MjUsMTguMTc1NzgxMjUsMCkiLz48dXNlIHhsaW5rOmhyZWY9IiNhbyIgdHJhbnNmb3JtPSJtYXRyaXgoMC4wMDg3ODkwNjI1LDAsMCwwLjAwODc4OTA2MjUsMjguNDQxNDA2MjUsMCkiLz48dXNlIHhsaW5rOmhyZWY9IiNhcyIgdHJhbnNmb3JtPSJtYXRyaXgoMC4wMDg3ODkwNjI1LDAsMCwwLjAwODc4OTA2MjUsMzguMzY0MjU3ODEyNSwwKSIvPjx1c2UgeGxpbms6aHJlZj0iI2FsIiB0cmFuc2Zvcm09Im1hdHJpeCgwLjAwODc4OTA2MjUsMCwwLDAuMDA4Nzg5MDYyNSw0OC40NjI4OTA2MjUsMCkiLz48L2c+PHBhdGggaWQ9ImF0IiBkPSJNMzYyLTE1N2g2OTBWMEgxNjl2LTE0NTZoMTkzdjEyOTkiLz48cGF0aCBpZD0iYXUiIGQ9Ik01MjEgMjBDMjQwIDIwIDk2LTIzOSA5Ni01NTBjMC0zMDMgMTQ3LTU1MiA0MjctNTUyIDEzMiAwIDIzNSA0NyAzMDkgMTQwbDktMTIwaDE2OVYtMjZjNCAyNzctMTgzIDQ1NC00NTkgNDUyLTE2NS0xLTMzNC04MS00MDAtMTg3bDk2LTExMWM3OSA5OCAxNzYgMTQ3IDI5MSAxNDcgMTgwIDEgMjg4LTEwOSAyODYtMjkwdi05M0M3NTAtMjMgNjQ5IDIwIDUyMSAyMHptNDgtOTY1Yy0yMDkgMC0yODcgMTc4LTI4NyA0MTYgMCAyMTcgODYgMzkyIDI4NSAzOTIgMTE3IDAgMjAyLTUzIDI1Ny0xNTl2LTQ5NGMtNTctMTAzLTE0Mi0xNTUtMjU1LTE1NSIvPjxwYXRoIGlkPSJhdiIgZD0iTTI3Ny01NTVjMCAyNDQgNzcgNDIwIDI5NyA0MjQgMTI3IDIgMjQ5LTkzIDI1NS0yMTBoMTc1Qzk4MC0xMjcgODA1IDIwIDU3NCAyMCAyNTggMjAgODEtMjIyIDkyLTU2MmMxMS0zMTkgMTY0LTUzMyA0ODEtNTQwIDIzNy01IDQyNiAxNjUgNDMxIDM5Mkg4MjljLTctMTMzLTExNS0yNDItMjU2LTI0MC0yMDkgNC0yOTYgMTY2LTI5NiAzOTUiLz48ZyBpZD0iZCI+PHVzZSB4bGluazpocmVmPSIjYXQiIHRyYW5zZm9ybT0ibWF0cml4KDAuMDA4Nzg5MDYyNSwwLDAsMC4wMDg3ODkwNjI1LDAsMCkiLz48dXNlIHhsaW5rOmhyZWY9IiNhaiIgdHJhbnNmb3JtPSJtYXRyaXgoMC4wMDg3ODkwNjI1LDAsMCwwLjAwODc4OTA2MjUsOS42ODU1NDY4NzUsMCkiLz48dXNlIHhsaW5rOmhyZWY9IiNhdSIgdHJhbnNmb3JtPSJtYXRyaXgoMC4wMDg3ODkwNjI1LDAsMCwwLjAwODc4OTA2MjUsMTkuOTUxMTcxODc1LDApIi8+PHVzZSB4bGluazpocmVmPSIjYWkiIHRyYW5zZm9ybT0ibWF0cml4KDAuMDA4Nzg5MDYyNSwwLDAsMC4wMDg3ODkwNjI1LDMwLjA0OTgwNDY4NzUsMCkiLz48dXNlIHhsaW5rOmhyZWY9IiNhdiIgdHJhbnNmb3JtPSJtYXRyaXgoMC4wMDg3ODkwNjI1LDAsMCwwLjAwODc4OTA2MjUsMzQuNDE3OTY4NzUsMCkiLz48dXNlIHhsaW5rOmhyZWY9IiNhZyIgdHJhbnNmb3JtPSJtYXRyaXgoMC4wMDg3ODkwNjI1LDAsMCwwLjAwODc4OTA2MjUsNDMuODM5ODQzNzUsMCkiLz48dXNlIHhsaW5rOmhyZWY9IiNhbiIgdHJhbnNmb3JtPSJtYXRyaXgoMC4wMDg3ODkwNjI1LDAsMCwwLjAwODc4OTA2MjUsNTMuNjMwODU5Mzc1LDApIi8+PC9nPjxnIGlkPSJlIj48dXNlIHhsaW5rOmhyZWY9IiNhbSIgdHJhbnNmb3JtPSJtYXRyaXgoMC4wMDg3ODkwNjI1LDAsMCwwLjAwODc4OTA2MjUsMCwwKSIvPjx1c2UgeGxpbms6aHJlZj0iI2FqIiB0cmFuc2Zvcm09Im1hdHJpeCgwLjAwODc4OTA2MjUsMCwwLDAuMDA4Nzg5MDYyNSwxMS4wNDc4NTE1NjI1LDApIi8+PHVzZSB4bGluazpocmVmPSIjYW4iIHRyYW5zZm9ybT0ibWF0cml4KDAuMDA4Nzg5MDYyNSwwLDAsMC4wMDg3ODkwNjI1LDIxLjMxMzQ3NjU2MjUsMCkiLz48dXNlIHhsaW5rOmhyZWY9IiNhbyIgdHJhbnNmb3JtPSJtYXRyaXgoMC4wMDg3ODkwNjI1LDAsMCwwLjAwODc4OTA2MjUsMjUuNjgxNjQwNjI1LDApIi8+PHVzZSB4bGluazpocmVmPSIjYXAiIHRyYW5zZm9ybT0ibWF0cml4KDAuMDA4Nzg5MDYyNSwwLDAsMC4wMDg3ODkwNjI1LDM1LjYwNDQ5MjE4NzUsMCkiLz48dXNlIHhsaW5rOmhyZWY9IiNhcSIgdHJhbnNmb3JtPSJtYXRyaXgoMC4wMDg3ODkwNjI1LDAsMCwwLjAwODc4OTA2MjUsNTEuMzgwODU5Mzc1LDApIi8+PHVzZSB4bGluazpocmVmPSIjYWwiIHRyYW5zZm9ybT0ibWF0cml4KDAuMDA4Nzg5MDYyNSwwLDAsMC4wMDg3ODkwNjI1LDYwLjkxNjk5MjE4NzUsMCkiLz48L2c+PHBhdGggaWQ9ImF3IiBkPSJNNzI5IDBINTQzdi0xMjMzbC0zNzMgMTM3di0xNjhsNTMwLTE5OWgyOVYwIi8+PHVzZSBpZD0iZyIgeGxpbms6aHJlZj0iI2F3IiB0cmFuc2Zvcm09Im1hdHJpeCgwLjAwNjUxMDc0MjE4NzUsMCwwLDAuMDA2NTEwNzQyMTg3NSwwLDApIi8+PHBhdGggaWQ9ImF4IiBkPSJNMTE3NS0xMjk4SDcwN1YwSDUxNnYtMTI5OEg0OXYtMTU4aDExMjZ2MTU4Ii8+PHBhdGggaWQ9ImF5IiBkPSJNMTE2MC00MjBDMTE1OS0xNDUgOTYzIDAgNjc0IDBIMTY5di0xNDU2aDQ3NmMyOTQtMSA0NzYgMTEyIDQ3NiAzODggMCAxNTMtOTkgMjUzLTIxNiAzMDIgMTQ2IDM4IDI1NSAxNjcgMjU1IDM0NnpNNjc4LTE1N2MxNzEgMiAyODktOTUgMjg5LTI2MSAwLTE3NS05NS0yNjMtMjg2LTI2M0gzNjF2NTI0aDMxN3ptMjUwLTkxMmMtMi0xNzItMTA0LTIyOS0yODMtMjI5SDM2MXY0NjNoMjkwYzE1NyAzIDI3OC04NCAyNzctMjM0Ii8+PGcgaWQ9ImgiPjx1c2UgeGxpbms6aHJlZj0iI2F4IiB0cmFuc2Zvcm09Im1hdHJpeCgwLjAwNjUxMDc0MjE4NzUsMCwwLDAuMDA2NTEwNzQyMTg3NSwwLDApIi8+PHVzZSB4bGluazpocmVmPSIjYXkiIHRyYW5zZm9ybT0ibWF0cml4KDAuMDA2NTEwNzQyMTg3NSwwLDAsMC4wMDY1MTA3NDIxODc1LDcuOTU2MTI2OTUzMTI1LDApIi8+PC9nPjxmaWx0ZXIgaGVpZ2h0PSIxLjAyIiB3aWR0aD0iMS4wMyIgeT0iMCIgeD0iLS4wMiIgZmlsdGVyVW5pdHM9Im9iamVjdEJvdW5kaW5nQm94IiBpZD0iZiI+PGZlT2Zmc2V0IGR5PSIxIiBpbj0iU291cmNlQWxwaGEiIHJlc3VsdD0ib2ZmT3V0Ii8+PGZlR2F1c3NpYW5CbHVyIHN0ZERldmlhdGlvbj0iLjc1IiBpbj0ib2ZmT3V0IiByZXN1bHQ9ImJsdXJPdXQiLz48ZmVDb2xvck1hdHJpeCB2YWx1ZXM9IjAgMCAwIDAgMCAwIDAgMCAwIDAgMCAwIDAgMCAwIDAgMCAwIDAuNCAwIiBpbj0iYmx1ck91dCIgcmVzdWx0PSJjb2xvck91dCIvPjxmZUJsZW5kIGluMj0iY29sb3JPdXQiIGluPSJTb3VyY2VHcmFwaGljIi8+PC9maWx0ZXI+PHBhdGggaWQ9ImF6IiBkPSJNNTY5LTE0NzZjMjU1IDAgNDQwIDE0NiA0MzkgMzkwIDAgMTQzLTkxIDMxNC0yNzQgNTEyTDM0NC0xNTFoNzMxVjBIMTIxdi0xMzNsNTA0LTU2MGM3NS04NSAxMjUtMTU1IDE1NS0yMDcgMTA1LTE4NCA2LTQyNC0yMTEtNDI0LTE4MyAwLTI5MyAxMTMtMjkxIDI5N0g5M2MtMy0yNzAgMTk5LTQ0OSA0NzYtNDQ5Ii8+PHBhdGggaWQ9ImFBIiBkPSJNMjU4IDExYy03MSAwLTExNC00My0xMTQtMTA4IDAtNjcgNDItMTEyIDExNC0xMTJzMTE2IDQ1IDExNiAxMTJjLTEgNjUtNDUgMTA4LTExNiAxMDgiLz48cGF0aCBpZD0iYUIiIGQ9Ik05MDItNDg5aDIwMnYxNTFIOTAyVjBINzE2di0zMzhINTN2LTEwOWw2NTItMTAwOWgxOTd2OTY3em0tNjM5IDBoNDUzdi03MTRsLTIyIDQwIi8+PGcgaWQ9ImkiPjx1c2UgeGxpbms6aHJlZj0iI2F6IiB0cmFuc2Zvcm09Im1hdHJpeCgwLjAwNjUxMDc0MjE4NzUsMCwwLDAuMDA2NTEwNzQyMTg3NSwwLDApIi8+PHVzZSB4bGluazpocmVmPSIjYUEiIHRyYW5zZm9ybT0ibWF0cml4KDAuMDA2NTEwNzQyMTg3NSwwLDAsMC4wMDY1MTA3NDIxODc1LDcuNDg3MzUzNTE1NjI1LDApIi8+PHVzZSB4bGluazpocmVmPSIjYUIiIHRyYW5zZm9ybT0ibWF0cml4KDAuMDA2NTEwNzQyMTg3NSwwLDAsMC4wMDY1MTA3NDIxODc1LDEwLjk5NjY0MzU1NDY4NzUsMCkiLz48L2c+PHBhdGggaWQ9ImFDIiBkPSJNMTc3IDEyNUgxOGw2MDgtMTU4MWgxNTgiLz48cGF0aCBpZD0iYUQiIGQ9Ik01MjAgMjBDMjQ0IDIwIDk1LTI0NyA5NS01NTBjMC0yOTggMTUxLTU1MCA0MjctNTUyIDEyNyAwIDIyNyA0MyAzMDEgMTMwdi01NjRoMTg1VjBIODM4bC05LTExNkM3NTUtMjUgNjUyIDIwIDUyMCAyMHptNDgtOTY1Yy0yMTAgMC0yODggMTc3LTI4OCA0MTYgMCAyMTggODcgMzkyIDI4NiAzOTIgMTE3IDAgMjAzLTUzIDI1Ny0xNTh2LTQ5N2MtNTUtMTAyLTE0MC0xNTMtMjU1LTE1MyIvPjxwYXRoIGlkPSJhRSIgZD0iTTQ5Ny0yNTFsMjY4LTgzMWgxODlMNTY2IDBINDI1TDMzLTEwODJoMTg5Ii8+PHBhdGggaWQ9ImFGIiBkPSJNNjM0LTExMDJjMjkyIDAgNDIyIDI1NCA0MjIgNTczIDAgMjk4LTE0MyA1NDctNDIwIDU0OS0xMzcgMC0yNDItNDgtMzE3LTE0NUwzMTAgMEgxNDB2LTE1MzZoMTg1djU3M2M3NS05MyAxNzgtMTM5IDMwOS0xMzl6bS00NCA5NjVjMjA3IDAgMjgxLTE3NSAyODEtNDEzIDAtMjI0LTc5LTM5NS0yODMtMzk1LTEyMiAwLTIxMCA1Ny0yNjMgMTcwdjQ2OGM1NyAxMTMgMTQ1IDE3MCAyNjUgMTcwIi8+PGcgaWQ9ImsiPjx1c2UgeGxpbms6aHJlZj0iI2FDIiB0cmFuc2Zvcm09Im1hdHJpeCgwLjAwODc4OTA2MjUsMCwwLDAuMDA4Nzg5MDYyNSwwLDApIi8+PHVzZSB4bGluazpocmVmPSIjYUQiIHRyYW5zZm9ybT0ibWF0cml4KDAuMDA4Nzg5MDYyNSwwLDAsMC4wMDg3ODkwNjI1LDcuNDE3OTY4NzUsMCkiLz48dXNlIHhsaW5rOmhyZWY9IiNhcSIgdHJhbnNmb3JtPSJtYXRyaXgoMC4wMDg3ODkwNjI1LDAsMCwwLjAwODc4OTA2MjUsMTcuNTY5MzM1OTM3NSwwKSIvPjx1c2UgeGxpbms6aHJlZj0iI2FFIiB0cmFuc2Zvcm09Im1hdHJpeCgwLjAwODc4OTA2MjUsMCwwLDAuMDA4Nzg5MDYyNSwyNi45OTEyMTA5Mzc1LDApIi8+PHVzZSB4bGluazpocmVmPSIjYUMiIHRyYW5zZm9ybT0ibWF0cml4KDAuMDA4Nzg5MDYyNSwwLDAsMC4wMDg3ODkwNjI1LDM1LjcwOTk2MDkzNzUsMCkiLz48dXNlIHhsaW5rOmhyZWY9IiNhbCIgdHJhbnNmb3JtPSJtYXRyaXgoMC4wMDg3ODkwNjI1LDAsMCwwLjAwODc4OTA2MjUsNDMuMTI3OTI5Njg3NSwwKSIvPjx1c2UgeGxpbms6aHJlZj0iI2FEIiB0cmFuc2Zvcm09Im1hdHJpeCgwLjAwODc4OTA2MjUsMCwwLDAuMDA4Nzg5MDYyNSw1Mi40MDkxNzk2ODc1LDApIi8+PHVzZSB4bGluazpocmVmPSIjYUYiIHRyYW5zZm9ybT0ibWF0cml4KDAuMDA4Nzg5MDYyNSwwLDAsMC4wMDg3ODkwNjI1LDYyLjU2MDU0Njg3NSwwKSIvPjwvZz48cGF0aCBpZD0iYUciIGQ9Ik0zMTktNjY0QzMwNC0yMjYgNDI4IDE1OCA2NjEgMzU3bC0zOCAxMTNjLTg5LTQ5LTE3Mi0xMzMtMjU0LTI0OEMxNDItOTcgNzEtNTc4IDE5NC0xMDI1YzY3LTI0NCAyNDAtNTEzIDQyOS02MThsMzggMTIyYy0yMDEgMTUzLTMzMCA1MDItMzQyIDg1NyIvPjx1c2UgaWQ9ImwiIHhsaW5rOmhyZWY9IiNhRyIgdHJhbnNmb3JtPSJtYXRyaXgoMC4wMDg3ODkwNjI1LDAsMCwwLjAwODc4OTA2MjUsMCwwKSIvPjxnIGlkPSJtIj48dXNlIHhsaW5rOmhyZWY9IiNheiIgdHJhbnNmb3JtPSJtYXRyaXgoMC4wMDg3ODkwNjI1LDAsMCwwLjAwODc4OTA2MjUsMCwwKSIvPjx1c2UgeGxpbms6aHJlZj0iI2FBIiB0cmFuc2Zvcm09Im1hdHJpeCgwLjAwODc4OTA2MjUsMCwwLDAuMDA4Nzg5MDYyNSwxMC4xMDc0MjE4NzUsMCkiLz48dXNlIHhsaW5rOmhyZWY9IiNhQiIgdHJhbnNmb3JtPSJtYXRyaXgoMC4wMDg3ODkwNjI1LDAsMCwwLjAwODc4OTA2MjUsMTQuODQ0NzI2NTYyNSwwKSIvPjwvZz48ZyBpZD0ibiI+PHVzZSB4bGluazpocmVmPSIjYXgiIHRyYW5zZm9ybT0ibWF0cml4KDAuMDA4Nzg5MDYyNSwwLDAsMC4wMDg3ODkwNjI1LDAsMCkiLz48dXNlIHhsaW5rOmhyZWY9IiNheSIgdHJhbnNmb3JtPSJtYXRyaXgoMC4wMDg3ODkwNjI1LDAsMCwwLjAwODc4OTA2MjUsMTAuNzQwMjM0Mzc1LDApIi8+PC9nPjxwYXRoIGlkPSJhSCIgZD0iTTM4IDM1N0MzMzEgMTQxIDQ1Ny00ODcgMzM3LTk4NGMtNTMtMjE5LTE1Ny00MjktMjk5LTU0NmwzOS0xMTNjMTkwIDEwNiAzNjIgMzc4IDQzMSA2MjEgNzUgMjY4IDc2IDU5NyAwIDg2OEM0NDAgODggMjY2IDM2NSA3NyA0NzAiLz48dXNlIGlkPSJvIiB4bGluazpocmVmPSIjYUgiIHRyYW5zZm9ybT0ibWF0cml4KDAuMDA4Nzg5MDYyNSwwLDAsMC4wMDg3ODkwNjI1LDAsMCkiLz48ZmlsdGVyIGhlaWdodD0iMS4wNSIgd2lkdGg9IjEuMDEiIHk9Ii0uMDEiIHg9Ii0uMDEiIGZpbHRlclVuaXRzPSJvYmplY3RCb3VuZGluZ0JveCIgaWQ9ImoiPjxmZU9mZnNldCBkeT0iMSIgaW49IlNvdXJjZUFscGhhIiByZXN1bHQ9Im9mZk91dCIvPjxmZUdhdXNzaWFuQmx1ciBzdGREZXZpYXRpb249Ii43NSIgaW49Im9mZk91dCIgcmVzdWx0PSJibHVyT3V0Ii8+PGZlQ29sb3JNYXRyaXggdmFsdWVzPSIwIDAgMCAwIDAgMCAwIDAgMCAwIDAgMCAwIDAgMCAwIDAgMCAwLjQgMCIgaW49ImJsdXJPdXQiIHJlc3VsdD0iY29sb3JPdXQiLz48ZmVCbGVuZCBpbjI9ImNvbG9yT3V0IiBpbj0iU291cmNlR3JhcGhpYyIvPjwvZmlsdGVyPjxwYXR0ZXJuIGhlaWdodD0iOTAiIHdpZHRoPSIxMDAiIHk9IjczNSIgeD0iNTAwIiBwYXR0ZXJuVW5pdHM9InVzZXJTcGFjZU9uVXNlIiBpZD0icCI+PHVzZSB0cmFuc2Zvcm09InRyYW5zbGF0ZSg2LjIyNzI3MjcyNzI3Mjc0OCwgMCkgc2NhbGUoOC43NTQ1NDU0NTQ1NDU0NTQsOSkiIHhsaW5rOmhyZWY9IiNhSSIvPjwvcGF0dGVybj48cGF0dGVybiBoZWlnaHQ9IjkwIiB3aWR0aD0iMTAwIiB5PSIzODAiIHg9IjUwMCIgcGF0dGVyblVuaXRzPSJ1c2VyU3BhY2VPblVzZSIgaWQ9InEiPjx1c2UgdHJhbnNmb3JtPSJ0cmFuc2xhdGUoNi4yMjcyNzI3MjcyNzI3NDgsIDApIHNjYWxlKDguNzU0NTQ1NDU0NTQ1NDU0LDkpIiB4bGluazpocmVmPSIjYUkiLz48L3BhdHRlcm4+PGcgaWQ9InIiPjx1c2UgeGxpbms6aHJlZj0iI2FDIiB0cmFuc2Zvcm09Im1hdHJpeCgwLjAwODc4OTA2MjUsMCwwLDAuMDA4Nzg5MDYyNSwwLDApIi8+PHVzZSB4bGluazpocmVmPSIjYUQiIHRyYW5zZm9ybT0ibWF0cml4KDAuMDA4Nzg5MDYyNSwwLDAsMC4wMDg3ODkwNjI1LDcuNDE3OTY4NzUsMCkiLz48dXNlIHhsaW5rOmhyZWY9IiNhcSIgdHJhbnNmb3JtPSJtYXRyaXgoMC4wMDg3ODkwNjI1LDAsMCwwLjAwODc4OTA2MjUsMTcuNTY5MzM1OTM3NSwwKSIvPjx1c2UgeGxpbms6aHJlZj0iI2FFIiB0cmFuc2Zvcm09Im1hdHJpeCgwLjAwODc4OTA2MjUsMCwwLDAuMDA4Nzg5MDYyNSwyNi45OTEyMTA5Mzc1LDApIi8+PHVzZSB4bGluazpocmVmPSIjYUMiIHRyYW5zZm9ybT0ibWF0cml4KDAuMDA4Nzg5MDYyNSwwLDAsMC4wMDg3ODkwNjI1LDM1LjcwOTk2MDkzNzUsMCkiLz48dXNlIHhsaW5rOmhyZWY9IiNhbCIgdHJhbnNmb3JtPSJtYXRyaXgoMC4wMDg3ODkwNjI1LDAsMCwwLjAwODc4OTA2MjUsNDMuMTI3OTI5Njg3NSwwKSIvPjx1c2UgeGxpbms6aHJlZj0iI2FEIiB0cmFuc2Zvcm09Im1hdHJpeCgwLjAwODc4OTA2MjUsMCwwLDAuMDA4Nzg5MDYyNSw1Mi40MDkxNzk2ODc1LDApIi8+PHVzZSB4bGluazpocmVmPSIjYWciIHRyYW5zZm9ybT0ibWF0cml4KDAuMDA4Nzg5MDYyNSwwLDAsMC4wMDg3ODkwNjI1LDYyLjU2MDU0Njg3NSwwKSIvPjwvZz48dXNlIGlkPSJzIiB4bGluazpocmVmPSIjYXciIHRyYW5zZm9ybT0ibWF0cml4KDAuMDA4Nzg5MDYyNSwwLDAsMC4wMDg3ODkwNjI1LDAsMCkiLz48ZyBpZD0idSI+PHVzZSB4bGluazpocmVmPSIjYUMiIHRyYW5zZm9ybT0ibWF0cml4KDAuMDA4Nzg5MDYyNSwwLDAsMC4wMDg3ODkwNjI1LDAsMCkiLz48dXNlIHhsaW5rOmhyZWY9IiNhRCIgdHJhbnNmb3JtPSJtYXRyaXgoMC4wMDg3ODkwNjI1LDAsMCwwLjAwODc4OTA2MjUsNy40MTc5Njg3NSwwKSIvPjx1c2UgeGxpbms6aHJlZj0iI2FxIiB0cmFuc2Zvcm09Im1hdHJpeCgwLjAwODc4OTA2MjUsMCwwLDAuMDA4Nzg5MDYyNSwxNy41NjkzMzU5Mzc1LDApIi8+PHVzZSB4bGluazpocmVmPSIjYUUiIHRyYW5zZm9ybT0ibWF0cml4KDAuMDA4Nzg5MDYyNSwwLDAsMC4wMDg3ODkwNjI1LDI2Ljk5MTIxMDkzNzUsMCkiLz48dXNlIHhsaW5rOmhyZWY9IiNhQyIgdHJhbnNmb3JtPSJtYXRyaXgoMC4wMDg3ODkwNjI1LDAsMCwwLjAwODc4OTA2MjUsMzUuNzA5OTYwOTM3NSwwKSIvPjx1c2UgeGxpbms6aHJlZj0iI2FsIiB0cmFuc2Zvcm09Im1hdHJpeCgwLjAwODc4OTA2MjUsMCwwLDAuMDA4Nzg5MDYyNSw0My4xMjc5Mjk2ODc1LDApIi8+PHVzZSB4bGluazpocmVmPSIjYUQiIHRyYW5zZm9ybT0ibWF0cml4KDAuMDA4Nzg5MDYyNSwwLDAsMC4wMDg3ODkwNjI1LDUyLjQwOTE3OTY4NzUsMCkiLz48dXNlIHhsaW5rOmhyZWY9IiNhRiIgdHJhbnNmb3JtPSJtYXRyaXgoMC4wMDg3ODkwNjI1LDAsMCwwLjAwODc4OTA2MjUsNjIuNTYwNTQ2ODc1LDApIi8+PHVzZSB4bGluazpocmVmPSIjYXciIHRyYW5zZm9ybT0ibWF0cml4KDAuMDA4Nzg5MDYyNSwwLDAsMC4wMDg3ODkwNjI1LDcyLjY1OTE3OTY4NzUsMCkiLz48L2c+PHBhdGggaWQ9ImFKIiBkPSJNODMyLTQwMmMtMS0xNzktMTE5LTI2NC0zMDMtMjY1SDM5MHYtMTUxaDEzOWMxNjQgMCAyODEtOTEgMjgxLTI1MCAwLTE3MS04NS0yNTYtMjU1LTI1Ni0xNTQgMC0yNjUgOTktMjYzIDI1MEgxMDdjLTQtMjM1IDIwNS00MDIgNDQ4LTQwMiAyNjYgMCA0NDQgMTUwIDQ0MCA0MTItMiAxNDgtMTA5IDI3Mi0yMjkgMzE3IDE0NyA0NSAyNDkgMTU4IDI1MSAzNDEgMyAyNjItMTk3IDQyNi00NjEgNDI2QzI5OSAyMCA5MS0xMzUgOTQtMzg0aDE4NmMtMiAxNTYgMTE2IDI1MyAyNzYgMjUzIDE3NiAwIDI3Ny05NiAyNzYtMjcxIi8+PHBhdGggaWQ9ImFLIiBkPSJNMTMyLTU1NGMwLTU1NSAxODctOTA4IDcxNS05MDN2MTU3Yy0zMjAtOC01MDEgMTc5LTUyNiA0NzcgNzctODggMTgxLTEzMiAzMTQtMTMyIDI1OSAwIDQxNyAyMTQgNDE3IDQ4MCAwIDI4Ni0xNzIgNDk1LTQ1MSA0OTUtMjkzIDAtNDY5LTI2Ni00NjktNTc0em03MzcgODhjMC0xODEtOTUtMzM1LTI2NS0zMzUtMTMzIDAtMjUyIDk2LTI4NiAyMDB2NjhjLTYgMjA3IDEwMSAzOTcgMjgzIDQwMCAxNzUgMyAyNjgtMTUwIDI2OC0zMzMiLz48cGF0aCBpZD0iYUwiIGQ9Ik01NzQtMTQ3NmMzNTEgMCA0NTQgMjM3IDQ2MCA2MTV2MjQwYzAgMjE3LTM3IDM3OC0xMTEgNDgzUzczMyAyMCA1NzYgMjBjLTM0NiAwLTQ1NC0yNDYtNDYxLTYxNnYtMjQ3YzAtMjE0IDM3LTM3MyAxMTEtNDc3czE5MC0xNTYgMzQ4LTE1NnptMjc1IDkwNWMwLTMzNyA1OS03NTItMjc1LTc1My05NSAwLTE2MCAzOC0yMDcgMTA3LTgwIDExOC02NiA0MDktNjcgNjI1IDAgMTU3IDIyIDI3MyA2OCAzNDhzMTE1IDExMyAyMDggMTEzYzkxIDAgMTYwLTM1IDIwNC0xMDZzNjktMTgyIDY5LTMzNCIvPjxnIGlkPSJ2Ij48dXNlIHhsaW5rOmhyZWY9IiNhSiIgdHJhbnNmb3JtPSJtYXRyaXgoMC4wMDg3ODkwNjI1LDAsMCwwLjAwODc4OTA2MjUsMCwwKSIvPjx1c2UgeGxpbms6aHJlZj0iI2FLIiB0cmFuc2Zvcm09Im1hdHJpeCgwLjAwODc4OTA2MjUsMCwwLDAuMDA4Nzg5MDYyNSwxMC4xMDc0MjE4NzUsMCkiLz48dXNlIHhsaW5rOmhyZWY9IiNhTCIgdHJhbnNmb3JtPSJtYXRyaXgoMC4wMDg3ODkwNjI1LDAsMCwwLjAwODc4OTA2MjUsMjAuMjE0ODQzNzUsMCkiLz48L2c+PGcgaWQ9InciPjx1c2UgeGxpbms6aHJlZj0iI2FyIiB0cmFuc2Zvcm09Im1hdHJpeCgwLjAwODc4OTA2MjUsMCwwLDAuMDA4Nzg5MDYyNSwwLDApIi8+PHVzZSB4bGluazpocmVmPSIjYXkiIHRyYW5zZm9ybT0ibWF0cml4KDAuMDA4Nzg5MDYyNSwwLDAsMC4wMDg3ODkwNjI1LDEyLjI2MDc0MjE4NzUsMCkiLz48L2c+PGZpbHRlciBoZWlnaHQ9IjEuMDUiIHdpZHRoPSIxLjAxIiB5PSItLjAxIiB4PSIwIiBmaWx0ZXJVbml0cz0ib2JqZWN0Qm91bmRpbmdCb3giIGlkPSJ0Ij48ZmVPZmZzZXQgZHk9IjEiIGluPSJTb3VyY2VBbHBoYSIgcmVzdWx0PSJvZmZPdXQiLz48ZmVHYXVzc2lhbkJsdXIgc3RkRGV2aWF0aW9uPSIuNzUiIGluPSJvZmZPdXQiIHJlc3VsdD0iYmx1ck91dCIvPjxmZUNvbG9yTWF0cml4IHZhbHVlcz0iMCAwIDAgMCAwIDAgMCAwIDAgMCAwIDAgMCAwIDAgMCAwIDAgMC40IDAiIGluPSJibHVyT3V0IiByZXN1bHQ9ImNvbG9yT3V0Ii8+PGZlQmxlbmQgaW4yPSJjb2xvck91dCIgaW49IlNvdXJjZUdyYXBoaWMiLz48L2ZpbHRlcj48ZyBpZD0ieCI+PHVzZSB4bGluazpocmVmPSIjYUMiIHRyYW5zZm9ybT0ibWF0cml4KDAuMDA4Nzg5MDYyNSwwLDAsMC4wMDg3ODkwNjI1LDAsMCkiLz48dXNlIHhsaW5rOmhyZWY9IiNhRCIgdHJhbnNmb3JtPSJtYXRyaXgoMC4wMDg3ODkwNjI1LDAsMCwwLjAwODc4OTA2MjUsNy40MTc5Njg3NSwwKSIvPjx1c2UgeGxpbms6aHJlZj0iI2FxIiB0cmFuc2Zvcm09Im1hdHJpeCgwLjAwODc4OTA2MjUsMCwwLDAuMDA4Nzg5MDYyNSwxNy41NjkzMzU5Mzc1LDApIi8+PHVzZSB4bGluazpocmVmPSIjYUUiIHRyYW5zZm9ybT0ibWF0cml4KDAuMDA4Nzg5MDYyNSwwLDAsMC4wMDg3ODkwNjI1LDI2Ljk5MTIxMDkzNzUsMCkiLz48dXNlIHhsaW5rOmhyZWY9IiNhQyIgdHJhbnNmb3JtPSJtYXRyaXgoMC4wMDg3ODkwNjI1LDAsMCwwLjAwODc4OTA2MjUsMzUuNzA5OTYwOTM3NSwwKSIvPjx1c2UgeGxpbms6aHJlZj0iI2FsIiB0cmFuc2Zvcm09Im1hdHJpeCgwLjAwODc4OTA2MjUsMCwwLDAuMDA4Nzg5MDYyNSw0My4xMjc5Mjk2ODc1LDApIi8+PHVzZSB4bGluazpocmVmPSIjYUQiIHRyYW5zZm9ybT0ibWF0cml4KDAuMDA4Nzg5MDYyNSwwLDAsMC4wMDg3ODkwNjI1LDUyLjQwOTE3OTY4NzUsMCkiLz48dXNlIHhsaW5rOmhyZWY9IiNhRiIgdHJhbnNmb3JtPSJtYXRyaXgoMC4wMDg3ODkwNjI1LDAsMCwwLjAwODc4OTA2MjUsNjIuNTYwNTQ2ODc1LDApIi8+PHVzZSB4bGluazpocmVmPSIjYXoiIHRyYW5zZm9ybT0ibWF0cml4KDAuMDA4Nzg5MDYyNSwwLDAsMC4wMDg3ODkwNjI1LDcyLjY1OTE3OTY4NzUsMCkiLz48L2c+PHBhdGggaWQ9ImFNIiBkPSJNNTc1LTE0NzZjMjQ3IDAgNDMyIDE1NCA0MjkgNDAwLTIgMTYxLTk3IDI3MS0yMTMgMzI3IDEzNSA1NiAyNDUgMTc5IDI0NyAzNTYgMyAyNTctMjAwIDQxMy00NjMgNDEzLTI2NSAwLTQ2Ni0xNTYtNDYzLTQxMyAyLTE3NiAxMDgtMzAyIDI0My0zNTctMTE1LTU2LTIwNy0xNjYtMjA5LTMyNi00LTI0NiAxODEtNDAwIDQyOS00MDB6bTAgMTM0NWMxNjggMCAyNzgtMTAxIDI3OC0yNjYgMC0xNjEtMTE4LTI3Ni0yODAtMjc2LTE2MyAwLTI3NiAxMTMtMjc2IDI3NiAwIDE2NyAxMDggMjY2IDI3OCAyNjZ6bTI0NC05NDJjMC0xNDMtMTA0LTI1MS0yNDQtMjUxLTE0NiAwLTI0NCAxMDItMjQ0IDI1MSAwIDE0NSA5OCAyNDggMjQ0IDI0OHMyNDQtMTAzIDI0NC0yNDgiLz48ZyBpZD0ieSI+PHVzZSB4bGluazpocmVmPSIjYXciIHRyYW5zZm9ybT0ibWF0cml4KDAuMDA4Nzg5MDYyNSwwLDAsMC4wMDg3ODkwNjI1LDAsMCkiLz48dXNlIHhsaW5rOmhyZWY9IiNhQSIgdHJhbnNmb3JtPSJtYXRyaXgoMC4wMDg3ODkwNjI1LDAsMCwwLjAwODc4OTA2MjUsMTAuMTA3NDIxODc1LDApIi8+PHVzZSB4bGluazpocmVmPSIjYU0iIHRyYW5zZm9ybT0ibWF0cml4KDAuMDA4Nzg5MDYyNSwwLDAsMC4wMDg3ODkwNjI1LDE0Ljg0NDcyNjU2MjUsMCkiLz48L2c+PGcgaWQ9InoiPjx1c2UgeGxpbms6aHJlZj0iI2FDIiB0cmFuc2Zvcm09Im1hdHJpeCgwLjAwODc4OTA2MjUsMCwwLDAuMDA4Nzg5MDYyNSwwLDApIi8+PHVzZSB4bGluazpocmVmPSIjYUQiIHRyYW5zZm9ybT0ibWF0cml4KDAuMDA4Nzg5MDYyNSwwLDAsMC4wMDg3ODkwNjI1LDcuNDE3OTY4NzUsMCkiLz48dXNlIHhsaW5rOmhyZWY9IiNhcSIgdHJhbnNmb3JtPSJtYXRyaXgoMC4wMDg3ODkwNjI1LDAsMCwwLjAwODc4OTA2MjUsMTcuNTY5MzM1OTM3NSwwKSIvPjx1c2UgeGxpbms6aHJlZj0iI2FFIiB0cmFuc2Zvcm09Im1hdHJpeCgwLjAwODc4OTA2MjUsMCwwLDAuMDA4Nzg5MDYyNSwyNi45OTEyMTA5Mzc1LDApIi8+PHVzZSB4bGluazpocmVmPSIjYUMiIHRyYW5zZm9ybT0ibWF0cml4KDAuMDA4Nzg5MDYyNSwwLDAsMC4wMDg3ODkwNjI1LDM1LjcwOTk2MDkzNzUsMCkiLz48dXNlIHhsaW5rOmhyZWY9IiNhbCIgdHJhbnNmb3JtPSJtYXRyaXgoMC4wMDg3ODkwNjI1LDAsMCwwLjAwODc4OTA2MjUsNDMuMTI3OTI5Njg3NSwwKSIvPjx1c2UgeGxpbms6aHJlZj0iI2FEIiB0cmFuc2Zvcm09Im1hdHJpeCgwLjAwODc4OTA2MjUsMCwwLDAuMDA4Nzg5MDYyNSw1Mi40MDkxNzk2ODc1LDApIi8+PHVzZSB4bGluazpocmVmPSIjYWciIHRyYW5zZm9ybT0ibWF0cml4KDAuMDA4Nzg5MDYyNSwwLDAsMC4wMDg3ODkwNjI1LDYyLjU2MDU0Njg3NSwwKSIvPjx1c2UgeGxpbms6aHJlZj0iI2FKIiB0cmFuc2Zvcm09Im1hdHJpeCgwLjAwODc4OTA2MjUsMCwwLDAuMDA4Nzg5MDYyNSw3Mi4zNTE1NjI1LDApIi8+PC9nPjx1c2UgaWQ9IkEiIHhsaW5rOmhyZWY9IiNhRyIgdHJhbnNmb3JtPSJtYXRyaXgoMC4wMDg3ODkwNjI1LDAsMCwwLjAwODc4OTA2MjUsMCwwKSIvPjxwYXRoIGlkPSJhTiIgZD0iTTkxMC01NjdjMTI4IDE4IDIwMi04NSAyMDAtMjA5bDE1My0xYzkgMjQzLTIwOCA0NDYtNDYwIDM0OS02NC0yNS0yMTYtMTY4LTI3MC0xOTMtMjUtMTEtNTEtMTgtNzktMTgtMTEwIDAtMTYzIDg1LTE2MiAyMDFsLTE2MSAyYy0xMi0yNTIgMjIzLTQ0NyA0NjktMzM0IDQ3IDIxIDk5IDU4IDE1OCAxMTJzMTA5IDg0IDE1MiA5MSIvPjxwYXRoIGlkPSJhTyIgZD0iTTEwMTYtODc0QzEwMTYtMzAzIDg0MSAyIDMwNSAxdi0xNTZjMzQyIDQgNTEyLTE0OCA1MjUtNDg1LTY5IDgyLTE3MyAxNTMtMzE1IDE1My0yNzUgMC00MTUtMjA5LTQxNS00ODUgMC0yOTYgMTU1LTUwNCA0NTEtNTA0IDMxMiAwIDQ2NSAyNjYgNDY1IDYwMnpNMjgyLTk4MmMwIDE4MCA5MyAzNDIgMjYzIDM0MiAxMzQgMCAyNDYtOTkgMjg2LTE5OHYtNzRjNS0yMDgtOTYtNDEwLTI3OS00MTAtMTc0IDAtMjcwIDE1NS0yNzAgMzQwIi8+PGcgaWQ9IkIiPjx1c2UgeGxpbms6aHJlZj0iI2FOIiB0cmFuc2Zvcm09Im1hdHJpeCgwLjAwODc4OTA2MjUsMCwwLDAuMDA4Nzg5MDYyNSwwLDApIi8+PHVzZSB4bGluazpocmVmPSIjYU8iIHRyYW5zZm9ybT0ibWF0cml4KDAuMDA4Nzg5MDYyNSwwLDAsMC4wMDg3ODkwNjI1LDEyLjI0MzE2NDA2MjUsMCkiLz48dXNlIHhsaW5rOmhyZWY9IiNhSiIgdHJhbnNmb3JtPSJtYXRyaXgoMC4wMDg3ODkwNjI1LDAsMCwwLjAwODc4OTA2MjUsMjIuMzUwNTg1OTM3NSwwKSIvPjx1c2UgeGxpbms6aHJlZj0iI2FMIiB0cmFuc2Zvcm09Im1hdHJpeCgwLjAwODc4OTA2MjUsMCwwLDAuMDA4Nzg5MDYyNSwzMi40NTgwMDc4MTI1LDApIi8+PC9nPjxwYXRoIGlkPSJhUCIgZD0iTTMzMC05ODNsLTMwMi05MCA0Ni0xNTEgMzAyIDExMi05LTM0NGgxNTNsLTEwIDM0OSAyOTctMTEwIDQ2IDE1Mi0zMDcgOTEgMTk4IDI3MS0xMjQgOTQtMTg2LTI4OC0xODAgMjgxLTEyNS05MSIvPjxnIGlkPSJDIj48dXNlIHhsaW5rOmhyZWY9IiNhQyIgdHJhbnNmb3JtPSJtYXRyaXgoMC4wMDg3ODkwNjI1LDAsMCwwLjAwODc4OTA2MjUsMCwwKSIvPjx1c2UgeGxpbms6aHJlZj0iI2FEIiB0cmFuc2Zvcm09Im1hdHJpeCgwLjAwODc4OTA2MjUsMCwwLDAuMDA4Nzg5MDYyNSw3LjQxNzk2ODc1LDApIi8+PHVzZSB4bGluazpocmVmPSIjYXEiIHRyYW5zZm9ybT0ibWF0cml4KDAuMDA4Nzg5MDYyNSwwLDAsMC4wMDg3ODkwNjI1LDE3LjU2OTMzNTkzNzUsMCkiLz48dXNlIHhsaW5rOmhyZWY9IiNhRSIgdHJhbnNmb3JtPSJtYXRyaXgoMC4wMDg3ODkwNjI1LDAsMCwwLjAwODc4OTA2MjUsMjYuOTkxMjEwOTM3NSwwKSIvPjx1c2UgeGxpbms6aHJlZj0iI2FDIiB0cmFuc2Zvcm09Im1hdHJpeCgwLjAwODc4OTA2MjUsMCwwLDAuMDA4Nzg5MDYyNSwzNS43MDk5NjA5Mzc1LDApIi8+PHVzZSB4bGluazpocmVmPSIjYWwiIHRyYW5zZm9ybT0ibWF0cml4KDAuMDA4Nzg5MDYyNSwwLDAsMC4wMDg3ODkwNjI1LDQzLjEyNzkyOTY4NzUsMCkiLz48dXNlIHhsaW5rOmhyZWY9IiNhRCIgdHJhbnNmb3JtPSJtYXRyaXgoMC4wMDg3ODkwNjI1LDAsMCwwLjAwODc4OTA2MjUsNTIuNDA5MTc5Njg3NSwwKSIvPjx1c2UgeGxpbms6aHJlZj0iI2FnIiB0cmFuc2Zvcm09Im1hdHJpeCgwLjAwODc4OTA2MjUsMCwwLDAuMDA4Nzg5MDYyNSw2Mi41NjA1NDY4NzUsMCkiLz48dXNlIHhsaW5rOmhyZWY9IiNhUCIgdHJhbnNmb3JtPSJtYXRyaXgoMC4wMDg3ODkwNjI1LDAsMCwwLjAwODc4OTA2MjUsNzIuMzUxNTYyNSwwKSIvPjwvZz48cGF0aCBpZD0iYVEiIGQ9Ik02ODgtMTM3YzIzOCAwIDMyMy0xMDIgMzU5LTMyNWgxOTNjLTMyIDI5Ny0yMjggNDgyLTU1MiA0ODItMzYxIDAtNTY5LTI5OS01NjktNjgwIDAtMTk3IDgtMzYwIDczLTQ5NyA4OC0xODYgMjU3LTMxNyA1MTMtMzE5IDMxNi0yIDUwOSAxOTUgNTM1IDQ4OGgtMTkzYy0zMS0yMTItMTE4LTMzMC0zNDItMzMwLTI3MiAwLTM5NyAyMjQtMzkzIDUyM3YxNDFjLTMgMjgyIDExNSA1MTcgMzc2IDUxNyIvPjxwYXRoIGlkPSJhUiIgZD0iTTU4OS05NDVjLTEzMSAwLTIxOSA4MS0yNjQgMTc0VjBIMTQwdi0xNTM2aDE4NXY1ODVjODItMTAxIDE4OS0xNTEgMzIwLTE1MSAyMjkgMCAzNDYgMTI5IDM0NiAzODdWMEg4MDZ2LTcxNmMtMi0xNTMtNjUtMjI5LTIxNy0yMjkiLz48ZyBpZD0iRCI+PHVzZSB4bGluazpocmVmPSIjYVEiIHRyYW5zZm9ybT0ibWF0cml4KDAuMDA4Nzg5MDYyNSwwLDAsMC4wMDg3ODkwNjI1LDAsMCkiLz48dXNlIHhsaW5rOmhyZWY9IiNhcSIgdHJhbnNmb3JtPSJtYXRyaXgoMC4wMDg3ODkwNjI1LDAsMCwwLjAwODc4OTA2MjUsMTEuNzE1ODIwMzEyNSwwKSIvPjx1c2UgeGxpbms6aHJlZj0iI2FzIiB0cmFuc2Zvcm09Im1hdHJpeCgwLjAwODc4OTA2MjUsMCwwLDAuMDA4Nzg5MDYyNSwyMS4yNTE5NTMxMjUsMCkiLz48dXNlIHhsaW5rOmhyZWY9IiNhUiIgdHJhbnNmb3JtPSJtYXRyaXgoMC4wMDg3ODkwNjI1LDAsMCwwLjAwODc4OTA2MjUsMzEuMzUwNTg1OTM3NSwwKSIvPjwvZz48ZyBpZD0iRSI+PHVzZSB4bGluazpocmVmPSIjYW0iIHRyYW5zZm9ybT0ibWF0cml4KDAuMDA4Nzg5MDYyNSwwLDAsMC4wMDg3ODkwNjI1LDAsMCkiLz48dXNlIHhsaW5rOmhyZWY9IiNhciIgdHJhbnNmb3JtPSJtYXRyaXgoMC4wMDg3ODkwNjI1LDAsMCwwLjAwODc4OTA2MjUsMTEuMzM3ODkwNjI1LDApIi8+PC9nPjxnIGlkPSJGIj48dXNlIHhsaW5rOmhyZWY9IiNhTiIgdHJhbnNmb3JtPSJtYXRyaXgoMC4wMDg3ODkwNjI1LDAsMCwwLjAwODc4OTA2MjUsMCwwKSIvPjx1c2UgeGxpbms6aHJlZj0iI2FKIiB0cmFuc2Zvcm09Im1hdHJpeCgwLjAwODc4OTA2MjUsMCwwLDAuMDA4Nzg5MDYyNSwxMi4yNDMxNjQwNjI1LDApIi8+PHVzZSB4bGluazpocmVmPSIjYUsiIHRyYW5zZm9ybT0ibWF0cml4KDAuMDA4Nzg5MDYyNSwwLDAsMC4wMDg3ODkwNjI1LDIyLjM1MDU4NTkzNzUsMCkiLz48dXNlIHhsaW5rOmhyZWY9IiNhTCIgdHJhbnNmb3JtPSJtYXRyaXgoMC4wMDg3ODkwNjI1LDAsMCwwLjAwODc4OTA2MjUsMzIuNDU4MDA3ODEyNSwwKSIvPjwvZz48cGF0aCBpZD0iYVMiIGQ9Ik02NjUtMTM3YzIxNCAwIDMzNy0xMjEgMzM2LTMzMnYtOTg3aDE5M3Y5OTBjLTMgMzAwLTIxOCA0ODYtNTI5IDQ4Ni0zMDkgMC01MjYtMTgxLTUyNS00ODR2LTk5MmgxOTB2OTg2Yy0xIDIxMCAxMjMgMzMzIDMzNSAzMzMiLz48ZyBpZD0iRyI+PHVzZSB4bGluazpocmVmPSIjYVMiIHRyYW5zZm9ybT0ibWF0cml4KDAuMDA4Nzg5MDYyNSwwLDAsMC4wMDg3ODkwNjI1LDAsMCkiLz48dXNlIHhsaW5rOmhyZWY9IiNhRiIgdHJhbnNmb3JtPSJtYXRyaXgoMC4wMDg3ODkwNjI1LDAsMCwwLjAwODc4OTA2MjUsMTEuNjcxODc1LDApIi8+PHVzZSB4bGluazpocmVmPSIjYW8iIHRyYW5zZm9ybT0ibWF0cml4KDAuMDA4Nzg5MDYyNSwwLDAsMC4wMDg3ODkwNjI1LDIxLjc3MDUwNzgxMjUsMCkiLz48dXNlIHhsaW5rOmhyZWY9IiNhayIgdHJhbnNmb3JtPSJtYXRyaXgoMC4wMDg3ODkwNjI1LDAsMCwwLjAwODc4OTA2MjUsMzEuNjkzMzU5Mzc1LDApIi8+PHVzZSB4bGluazpocmVmPSIjYWgiIHRyYW5zZm9ybT0ibWF0cml4KDAuMDA4Nzg5MDYyNSwwLDAsMC4wMDg3ODkwNjI1LDQxLjYyNSwwKSIvPjx1c2UgeGxpbms6aHJlZj0iI2FvIiB0cmFuc2Zvcm09Im1hdHJpeCgwLjAwODc4OTA2MjUsMCwwLDAuMDA4Nzg5MDYyNSw0Ny41MDQ4ODI4MTI1LDApIi8+PC9nPjxwYXRoIGlkPSJhVCIgZD0iTTEwNjEtMTM1Mkw0NTggMEgyNjRsNjAxLTEzMDRINzd2LTE1Mmg5ODR2MTA0Ii8+PGcgaWQ9IkgiPjx1c2UgeGxpbms6aHJlZj0iI2FOIiB0cmFuc2Zvcm09Im1hdHJpeCgwLjAwODc4OTA2MjUsMCwwLDAuMDA4Nzg5MDYyNSwwLDApIi8+PHVzZSB4bGluazpocmVmPSIjYXoiIHRyYW5zZm9ybT0ibWF0cml4KDAuMDA4Nzg5MDYyNSwwLDAsMC4wMDg3ODkwNjI1LDEyLjI0MzE2NDA2MjUsMCkiLz48dXNlIHhsaW5rOmhyZWY9IiNhQSIgdHJhbnNmb3JtPSJtYXRyaXgoMC4wMDg3ODkwNjI1LDAsMCwwLjAwODc4OTA2MjUsMjIuMzUwNTg1OTM3NSwwKSIvPjx1c2UgeGxpbms6aHJlZj0iI2FUIiB0cmFuc2Zvcm09Im1hdHJpeCgwLjAwODc4OTA2MjUsMCwwLDAuMDA4Nzg5MDYyNSwyNy4wODc4OTA2MjUsMCkiLz48L2c+PGcgaWQ9IkkiPjx1c2UgeGxpbms6aHJlZj0iI2FRIiB0cmFuc2Zvcm09Im1hdHJpeCgwLjAwODc4OTA2MjUsMCwwLDAuMDA4Nzg5MDYyNSwwLDApIi8+PHVzZSB4bGluazpocmVmPSIjYXEiIHRyYW5zZm9ybT0ibWF0cml4KDAuMDA4Nzg5MDYyNSwwLDAsMC4wMDg3ODkwNjI1LDExLjcxNTgyMDMxMjUsMCkiLz48dXNlIHhsaW5rOmhyZWY9IiNhcyIgdHJhbnNmb3JtPSJtYXRyaXgoMC4wMDg3ODkwNjI1LDAsMCwwLjAwODc4OTA2MjUsMjEuMjUxOTUzMTI1LDApIi8+PHVzZSB4bGluazpocmVmPSIjYVIiIHRyYW5zZm9ybT0ibWF0cml4KDAuMDA4Nzg5MDYyNSwwLDAsMC4wMDg3ODkwNjI1LDMxLjM1MDU4NTkzNzUsMCkiLz48dXNlIHhsaW5rOmhyZWY9IiNhcyIgdHJhbnNmb3JtPSJtYXRyaXgoMC4wMDg3ODkwNjI1LDAsMCwwLjAwODc4OTA2MjUsNDEuMjY0NjQ4NDM3NSwwKSIvPjx1c2UgeGxpbms6aHJlZj0iI2FqIiB0cmFuc2Zvcm09Im1hdHJpeCgwLjAwODc4OTA2MjUsMCwwLDAuMDA4Nzg5MDYyNSw1MS4zNjMyODEyNSwwKSIvPjx1c2UgeGxpbms6aHJlZj0iI2FqIiB0cmFuc2Zvcm09Im1hdHJpeCgwLjAwODc4OTA2MjUsMCwwLDAuMDA4Nzg5MDYyNSw2MS42Mjg5MDYyNSwwKSIvPjx1c2UgeGxpbms6aHJlZj0iI2FuIiB0cmFuc2Zvcm09Im1hdHJpeCgwLjAwODc4OTA2MjUsMCwwLDAuMDA4Nzg5MDYyNSw3MS44OTQ1MzEyNSwwKSIvPjwvZz48ZyBpZD0iSiI+PHVzZSB4bGluazpocmVmPSIjYXQiIHRyYW5zZm9ybT0ibWF0cml4KDAuMDA4Nzg5MDYyNSwwLDAsMC4wMDg3ODkwNjI1LDAsMCkiLz48dXNlIHhsaW5rOmhyZWY9IiNhbSIgdHJhbnNmb3JtPSJtYXRyaXgoMC4wMDg3ODkwNjI1LDAsMCwwLjAwODc4OTA2MjUsOC4xNDc0NjA5Mzc1LDApIi8+PC9nPjxnIGlkPSJLIj48dXNlIHhsaW5rOmhyZWY9IiNhTiIgdHJhbnNmb3JtPSJtYXRyaXgoMC4wMDg3ODkwNjI1LDAsMCwwLjAwODc4OTA2MjUsMCwwKSIvPjx1c2UgeGxpbms6aHJlZj0iI2F3IiB0cmFuc2Zvcm09Im1hdHJpeCgwLjAwODc4OTA2MjUsMCwwLDAuMDA4Nzg5MDYyNSwxMi4yNDMxNjQwNjI1LDApIi8+PHVzZSB4bGluazpocmVmPSIjYUwiIHRyYW5zZm9ybT0ibWF0cml4KDAuMDA4Nzg5MDYyNSwwLDAsMC4wMDg3ODkwNjI1LDIyLjM1MDU4NTkzNzUsMCkiLz48dXNlIHhsaW5rOmhyZWY9IiNhTCIgdHJhbnNmb3JtPSJtYXRyaXgoMC4wMDg3ODkwNjI1LDAsMCwwLjAwODc4OTA2MjUsMzIuNDU4MDA3ODEyNSwwKSIvPjwvZz48ZyBpZD0iTCI+PHVzZSB4bGluazpocmVmPSIjYWUiIHRyYW5zZm9ybT0ibWF0cml4KDAuMDA4Nzg5MDYyNSwwLDAsMC4wMDg3ODkwNjI1LDAsMCkiLz48dXNlIHhsaW5rOmhyZWY9IiNhZiIgdHJhbnNmb3JtPSJtYXRyaXgoMC4wMDg3ODkwNjI1LDAsMCwwLjAwODc4OTA2MjUsMTEuMzU1NDY4NzUsMCkiLz48dXNlIHhsaW5rOmhyZWY9IiNhaiIgdHJhbnNmb3JtPSJtYXRyaXgoMC4wMDg3ODkwNjI1LDAsMCwwLjAwODc4OTA2MjUsMTcuMjcwNTA3ODEyNSwwKSIvPjx1c2UgeGxpbms6aHJlZj0iI2FEIiB0cmFuc2Zvcm09Im1hdHJpeCgwLjAwODc4OTA2MjUsMCwwLDAuMDA4Nzg5MDYyNSwyNy41MzYxMzI4MTI1LDApIi8+PHVzZSB4bGluazpocmVmPSIjYXMiIHRyYW5zZm9ybT0ibWF0cml4KDAuMDA4Nzg5MDYyNSwwLDAsMC4wMDg3ODkwNjI1LDM3LjY4NzUsMCkiLz48dXNlIHhsaW5rOmhyZWY9IiNhaiIgdHJhbnNmb3JtPSJtYXRyaXgoMC4wMDg3ODkwNjI1LDAsMCwwLjAwODc4OTA2MjUsNDcuNzg2MTMyODEyNSwwKSIvPjx1c2UgeGxpbms6aHJlZj0iI2FqIiB0cmFuc2Zvcm09Im1hdHJpeCgwLjAwODc4OTA2MjUsMCwwLDAuMDA4Nzg5MDYyNSw1OC4wNTE3NTc4MTI1LDApIi8+PHVzZSB4bGluazpocmVmPSIjYW4iIHRyYW5zZm9ybT0ibWF0cml4KDAuMDA4Nzg5MDYyNSwwLDAsMC4wMDg3ODkwNjI1LDY4LjMxNzM4MjgxMjUsMCkiLz48L2c+PHBhdGggaWQ9ImFVIiBkPSJNODg0LTQ2MmMwLTE4NS0xMTEtMzIzLTI5MS0zMjMtMTEzIDAtMTgzIDM5LTIzOSA5M2wtMTQ4LTM4IDc0LTcyNmg3NDZ2MTcxSDQzN2wtNDQgMzk3YzcxLTQyIDE1Mi02MyAyNDMtNjMgMjczLTIgNDMzIDIwNSA0MzMgNDg3IDAgMjkzLTE3MCA0ODQtNDYxIDQ4NC0yNjAgMC00MzYtMTU5LTQ1NC00MDNoMTc1YzIwIDE1NiAxMTEgMjUyIDI3OSAyNTIgMTgyIDAgMjc2LTE0MCAyNzYtMzMxIi8+PGcgaWQ9Ik0iPjx1c2UgeGxpbms6aHJlZj0iI2FOIiB0cmFuc2Zvcm09Im1hdHJpeCgwLjAwODc4OTA2MjUsMCwwLDAuMDA4Nzg5MDYyNSwwLDApIi8+PHVzZSB4bGluazpocmVmPSIjYXoiIHRyYW5zZm9ybT0ibWF0cml4KDAuMDA4Nzg5MDYyNSwwLDAsMC4wMDg3ODkwNjI1LDEyLjI0MzE2NDA2MjUsMCkiLz48dXNlIHhsaW5rOmhyZWY9IiNhQSIgdHJhbnNmb3JtPSJtYXRyaXgoMC4wMDg3ODkwNjI1LDAsMCwwLjAwODc4OTA2MjUsMjIuMzUwNTg1OTM3NSwwKSIvPjx1c2UgeGxpbms6aHJlZj0iI2FLIiB0cmFuc2Zvcm09Im1hdHJpeCgwLjAwODc4OTA2MjUsMCwwLDAuMDA4Nzg5MDYyNSwyNy4wODc4OTA2MjUsMCkiLz48dXNlIHhsaW5rOmhyZWY9IiNhVSIgdHJhbnNmb3JtPSJtYXRyaXgoMC4wMDg3ODkwNjI1LDAsMCwwLjAwODc4OTA2MjUsMzcuMTk1MzEyNSwwKSIvPjwvZz48cGF0dGVybiBoZWlnaHQ9IjE1MC40OCIgd2lkdGg9IjI5NC45NSIgeT0iNTAwIiB4PSIyNTM0Ljc3IiBwYXR0ZXJuVW5pdHM9InVzZXJTcGFjZU9uVXNlIiBpZD0iTiI+PHVzZSB0cmFuc2Zvcm09InRyYW5zbGF0ZSgwLCAwKSBzY2FsZSgyOS40OTUyOTk2MzA0MzExNTUsMTUuMDQ4NDI0MjUyMjM2NDI2KSIgeGxpbms6aHJlZj0iI2FWIi8+PC9wYXR0ZXJuPjxsaW5lYXJHcmFkaWVudCB5Mj0iNjM0LjQ4IiB4Mj0iMjU2MCIgeTE9IjUwMCIgeDE9IjI1NjAiIGlkPSJPIiBncmFkaWVudFVuaXRzPSJ1c2VyU3BhY2VPblVzZSI+PHN0b3Agc3RvcC1jb2xvcj0iI2Y5ZTZhNSIgb2Zmc2V0PSIwJSIvPjxzdG9wIHN0b3AtY29sb3I9IiNmZmVjYTkiIG9mZnNldD0iMzAlIi8+PHN0b3Agc3RvcC1jb2xvcj0iI2ZmZWNhOSIgb2Zmc2V0PSIxMDAlIi8+PC9saW5lYXJHcmFkaWVudD48cGF0aCBpZD0iYVciIGQ9Ik0yNDAgMGwyLTIxOGMtMjMgNzYtNTQgMTQ1LTgwIDIxOGgtMjNMNTgtMjE4IDU5IDBIMzB2LTI0OGg0NGw3NyAyMTFjMjEtNzUgNTEtMTQwIDc2LTIxMWg0M1YwaC0zMCIvPjxwYXRoIGlkPSJhWCIgZD0iTTEwMC0xOTRjNjItMSA4NSAzNyA4NSA5OSAxIDYzLTI3IDk5LTg2IDk5UzE2LTM1IDE1LTk1YzAtNjYgMjgtOTkgODUtOTl6TTk5LTIwYzQ0IDEgNTMtMzEgNTMtNzUgMC00My04LTc1LTUxLTc1cy01MyAzMi01MyA3NSAxMCA3NCA1MSA3NSIvPjxwYXRoIGlkPSJhWSIgZD0iTTg0IDRDLTUgOCAzMC0xMTIgMjMtMTkwaDMydjEyMGMwIDMxIDcgNTAgMzkgNDkgNzItMiA0NS0xMDEgNTAtMTY5aDMxbDEgMTkwaC0zMGMtMS0xMCAxLTI1LTItMzMtMTEgMjItMjggMzYtNjAgMzciLz48cGF0aCBpZD0iYVoiIGQ9Ik0xMTctMTk0Yzg5LTQgNTMgMTE2IDYwIDE5NGgtMzJ2LTEyMWMwLTMxLTgtNDktMzktNDhDMzQtMTY3IDYyLTY3IDU3IDBIMjVsLTEtMTkwaDMwYzEgMTAtMSAyNCAyIDMyIDExLTIyIDI5LTM1IDYxLTM2Ii8+PHBhdGggaWQ9ImJhIiBkPSJNNTktNDdjLTIgMjQgMTggMjkgMzggMjJ2MjRDNjQgOSAyNyA0IDI3LTQwdi0xMjdINXYtMjNoMjRsOS00M2gyMXY0M2gzNXYyM0g1OXYxMjAiLz48cGF0aCBpZD0iYmIiIGQ9Ik0xMTUtMTk0YzU1IDEgNzAgNDEgNzAgOThTMTY5IDIgMTE1IDRDODQgNCA2Ni05IDU1LTMwbDEgMTA1SDI0bC0xLTI2NWgzMWwyIDMwYzEwLTIxIDI4LTM0IDU5LTM0em0tOCAxNzRjNDAgMCA0NS0zNCA0NS03NXMtNi03My00NS03NGMtNDIgMC01MSAzMi01MSA3NiAwIDQzIDEwIDczIDUxIDczIi8+PHBhdGggaWQ9ImJjIiBkPSJNMjQtMjMxdi0zMGgzMnYzMEgyNHpNMjQgMHYtMTkwaDMyVjBIMjQiLz48cGF0aCBpZD0iYmQiIGQ9Ik0zMy0xNTR2LTM2aDM0djM2SDMzek0zMyAwdi0zNmgzNFYwSDMzIi8+PGcgaWQ9IlAiPjx1c2UgeGxpbms6aHJlZj0iI2FXIiB0cmFuc2Zvcm09Im1hdHJpeCgwLjA2MDYxNzM1Mjk1OTQ0MzUyNCwwLDAsMC4wNjA2MTczNTI5NTk0NDM1MjQsMCwwKSIvPjx1c2UgeGxpbms6aHJlZj0iI2FYIiB0cmFuc2Zvcm09Im1hdHJpeCgwLjA2MDYxNzM1Mjk1OTQ0MzUyNCwwLDAsMC4wNjA2MTczNTI5NTk0NDM1MjQsMTguMTI0NTg4NTM0ODczNjEsMCkiLz48dXNlIHhsaW5rOmhyZWY9IiNhWSIgdHJhbnNmb3JtPSJtYXRyaXgoMC4wNjA2MTczNTI5NTk0NDM1MjQsMCwwLDAuMDYwNjE3MzUyOTU5NDQzNTI0LDMwLjI0ODA1OTEyNjc2MjMxOCwwKSIvPjx1c2UgeGxpbms6aHJlZj0iI2FaIiB0cmFuc2Zvcm09Im1hdHJpeCgwLjA2MDYxNzM1Mjk1OTQ0MzUyNCwwLDAsMC4wNjA2MTczNTI5NTk0NDM1MjQsNDIuMzcxNTI5NzE4NjUxMDIsMCkiLz48dXNlIHhsaW5rOmhyZWY9IiNiYSIgdHJhbnNmb3JtPSJtYXRyaXgoMC4wNjA2MTczNTI5NTk0NDM1MjQsMCwwLDAuMDYwNjE3MzUyOTU5NDQzNTI0LDU0LjQ5NTAwMDMxMDUzOTcyLDApIi8+PHVzZSB4bGluazpocmVmPSIjYmIiIHRyYW5zZm9ybT0ibWF0cml4KDAuMDYwNjE3MzUyOTU5NDQzNTI0LDAsMCwwLjA2MDYxNzM1Mjk1OTQ0MzUyNCw2MC41NTY3MzU2MDY0ODQwNzUsMCkiLz48dXNlIHhsaW5rOmhyZWY9IiNhWCIgdHJhbnNmb3JtPSJtYXRyaXgoMC4wNjA2MTczNTI5NTk0NDM1MjQsMCwwLDAuMDYwNjE3MzUyOTU5NDQzNTI0LDcyLjY4MDIwNjE5ODM3Mjc3LDApIi8+PHVzZSB4bGluazpocmVmPSIjYmMiIHRyYW5zZm9ybT0ibWF0cml4KDAuMDYwNjE3MzUyOTU5NDQzNTI0LDAsMCwwLjA2MDYxNzM1Mjk1OTQ0MzUyNCw4NC44MDM2NzY3OTAyNjE0OSwwKSIvPjx1c2UgeGxpbms6aHJlZj0iI2FaIiB0cmFuc2Zvcm09Im1hdHJpeCgwLjA2MDYxNzM1Mjk1OTQ0MzUyNCwwLDAsMC4wNjA2MTczNTI5NTk0NDM1MjQsODkuNTkyNDQ3Njc0MDU3NTIsMCkiLz48dXNlIHhsaW5rOmhyZWY9IiNiYSIgdHJhbnNmb3JtPSJtYXRyaXgoMC4wNjA2MTczNTI5NTk0NDM1MjQsMCwwLDAuMDYwNjE3MzUyOTU5NDQzNTI0LDEwMS43MTU5MTgyNjU5NDYyNCwwKSIvPjx1c2UgeGxpbms6aHJlZj0iI2JkIiB0cmFuc2Zvcm09Im1hdHJpeCgwLjA2MDYxNzM1Mjk1OTQ0MzUyNCwwLDAsMC4wNjA2MTczNTI5NTk0NDM1MjQsMTA3Ljc3NzY1MzU2MTg5MDU5LDApIi8+PC9nPjxwYXRoIGlkPSJiZSIgZD0iTTAgNGw3Mi0yNjVoMjhMMjggNEgwIi8+PHBhdGggaWQ9ImJmIiBkPSJNMTA4IDBINzBMMS0xOTBoMzRMODktMjVsNTYtMTY1aDM0Ii8+PHBhdGggaWQ9ImJnIiBkPSJNMTQxLTM2QzEyNi0xNSAxMTAgNSA3MyA0IDM3IDMgMTUtMTcgMTUtNTNjLTEtNjQgNjMtNjMgMTI1LTYzIDMtMzUtOS01NC00MS01NC0yNCAxLTQxIDctNDIgMzFsLTMzLTNjNS0zNyAzMy01MiA3Ni01MiA0NSAwIDcyIDIwIDcyIDY0djgyYy0xIDIwIDcgMzIgMjggMjd2MjBjLTMxIDktNjEtMi01OS0zNXpNNDgtNTNjMCAyMCAxMiAzMyAzMiAzMyA0MS0zIDYzLTI5IDYwLTc0LTQzIDItOTItNS05MiA0MSIvPjxwYXRoIGlkPSJiaCIgZD0iTTExNC0xNjNDMzYtMTc5IDYxLTcyIDU3IDBIMjVsLTEtMTkwaDMwYzEgMTItMSAyOSAyIDM5IDYtMjcgMjMtNDkgNTgtNDF2MjkiLz48cGF0aCBpZD0iYmkiIGQ9Ik0yNCAwdi0yNjFoMzJWMEgyNCIvPjxwYXRoIGlkPSJiaiIgZD0iTTExNS0xOTRjNTMgMCA2OSAzOSA3MCA5OCAwIDY2LTIzIDEwMC03MCAxMDBDODQgMyA2Ni03IDU2LTMwTDU0IDBIMjNsMS0yNjFoMzJ2MTAxYzEwLTIzIDI4LTM0IDU5LTM0em0tOCAxNzRjNDAgMCA0NS0zNCA0NS03NSAwLTQwLTUtNzUtNDUtNzQtNDIgMC01MSAzMi01MSA3NiAwIDQzIDEwIDczIDUxIDczIi8+PHBhdGggaWQ9ImJrIiBkPSJNMjEwLTE2OWMtNjcgMy0zOCAxMDUtNDQgMTY5aC0zMXYtMTIxYzAtMjktNS01MC0zNS00OEMzNC0xNjUgNjItNjUgNTYgMEgyNWwtMS0xOTBoMzBjMSAxMC0xIDI0IDIgMzIgMTAtNDQgOTktNTAgMTA3IDAgMTEtMjEgMjctMzUgNTgtMzYgODUtMiA0NyAxMTkgNTUgMTk0aC0zMXYtMTIxYzAtMjktNS00OS0zNS00OCIvPjxwYXRoIGlkPSJibCIgZD0iTTE3Ny0xOTBDMTY3LTY1IDIxOCAxMDMgNjcgNzFjLTIzLTYtMzgtMjAtNDQtNDNsMzItNWMxNSA0NyAxMDAgMzIgODktMjh2LTMwQzEzMy0xNCAxMTUgMSA4MyAxIDI5IDEgMTUtNDAgMTUtOTVjMC01NiAxNi05NyA3MS05OCAyOS0xIDQ4IDE2IDU5IDM1IDEtMTAgMC0yMyAyLTMyaDMwek05NC0yMmMzNiAwIDUwLTMyIDUwLTczIDAtNDItMTQtNzUtNTAtNzUtMzkgMC00NiAzNC00NiA3NXM2IDczIDQ2IDczIi8+PHBhdGggaWQ9ImJtIiBkPSJNMTAwLTE5NGM2MyAwIDg2IDQyIDg0IDEwNkg0OWMwIDQwIDE0IDY3IDUzIDY4IDI2IDEgNDMtMTIgNDktMjlsMjggOGMtMTEgMjgtMzcgNDUtNzcgNDVDNDQgNCAxNC0zMyAxNS05NmMxLTYxIDI2LTk4IDg1LTk4em01MiA4MWM2LTYwLTc2LTc3LTk3LTI4LTMgNy02IDE3LTYgMjhoMTAzIi8+PHBhdGggaWQ9ImJuIiBkPSJNMTM1LTE0M2MtMy0zNC04Ni0zOC04NyAwIDE1IDUzIDExNSAxMiAxMTkgOTBTMTcgMjEgMTAtNDVsMjgtNWM0IDM2IDk3IDQ1IDk4IDAtMTAtNTYtMTEzLTE1LTExOC05MC00LTU3IDgyLTYzIDEyMi00MiAxMiA3IDIxIDE5IDI0IDM1Ii8+PGcgaWQ9IlEiPjx1c2UgeGxpbms6aHJlZj0iI2JlIiB0cmFuc2Zvcm09Im1hdHJpeCgwLjA2MDYxNzM1Mjk1OTQ0MzUyNCwwLDAsMC4wNjA2MTczNTI5NTk0NDM1MjQsMCwwKSIvPjx1c2UgeGxpbms6aHJlZj0iI2JmIiB0cmFuc2Zvcm09Im1hdHJpeCgwLjA2MDYxNzM1Mjk1OTQ0MzUyNCwwLDAsMC4wNjA2MTczNTI5NTk0NDM1MjQsNi4wNjE3MzUyOTU5NDQzNTIsMCkiLz48dXNlIHhsaW5rOmhyZWY9IiNiZyIgdHJhbnNmb3JtPSJtYXRyaXgoMC4wNjA2MTczNTI5NTk0NDM1MjQsMCwwLDAuMDYwNjE3MzUyOTU5NDQzNTI0LDE2Ljk3Mjg1ODgyODY0NDE4NSwwKSIvPjx1c2UgeGxpbms6aHJlZj0iI2JoIiB0cmFuc2Zvcm09Im1hdHJpeCgwLjA2MDYxNzM1Mjk1OTQ0MzUyNCwwLDAsMC4wNjA2MTczNTI5NTk0NDM1MjQsMjkuMDk2MzI5NDIwNTMyODg2LDApIi8+PHVzZSB4bGluazpocmVmPSIjYmUiIHRyYW5zZm9ybT0ibWF0cml4KDAuMDYwNjE3MzUyOTU5NDQzNTI0LDAsMCwwLjA2MDYxNzM1Mjk1OTQ0MzUyNCwzNi4zMDk3OTQ0MjI3MDY2NjYsMCkiLz48dXNlIHhsaW5rOmhyZWY9IiNiaSIgdHJhbnNmb3JtPSJtYXRyaXgoMC4wNjA2MTczNTI5NTk0NDM1MjQsMCwwLDAuMDYwNjE3MzUyOTU5NDQzNTI0LDQyLjM3MTUyOTcxODY1MTAyLDApIi8+PHVzZSB4bGluazpocmVmPSIjYmMiIHRyYW5zZm9ybT0ibWF0cml4KDAuMDYwNjE3MzUyOTU5NDQzNTI0LDAsMCwwLjA2MDYxNzM1Mjk1OTQ0MzUyNCw0Ny4xNjAzMDA2MDI0NDcwNiwwKSIvPjx1c2UgeGxpbms6aHJlZj0iI2JqIiB0cmFuc2Zvcm09Im1hdHJpeCgwLjA2MDYxNzM1Mjk1OTQ0MzUyNCwwLDAsMC4wNjA2MTczNTI5NTk0NDM1MjQsNTEuOTQ5MDcxNDg2MjQzMSwwKSIvPjx1c2UgeGxpbms6aHJlZj0iI2JlIiB0cmFuc2Zvcm09Im1hdHJpeCgwLjA2MDYxNzM1Mjk1OTQ0MzUyNCwwLDAsMC4wNjA2MTczNTI5NTk0NDM1MjQsNjQuMDcyNTQyMDc4MTMxOCwwKSIvPjx1c2UgeGxpbms6aHJlZj0iI2JpIiB0cmFuc2Zvcm09Im1hdHJpeCgwLjA2MDYxNzM1Mjk1OTQ0MzUyNCwwLDAsMC4wNjA2MTczNTI5NTk0NDM1MjQsNzAuMTM0Mjc3Mzc0MDc2MTUsMCkiLz48dXNlIHhsaW5rOmhyZWY9IiNiYyIgdHJhbnNmb3JtPSJtYXRyaXgoMC4wNjA2MTczNTI5NTk0NDM1MjQsMCwwLDAuMDYwNjE3MzUyOTU5NDQzNTI0LDc0LjkyMzA0ODI1Nzg3MjE4LDApIi8+PHVzZSB4bGluazpocmVmPSIjYmoiIHRyYW5zZm9ybT0ibWF0cml4KDAuMDYwNjE3MzUyOTU5NDQzNTI0LDAsMCwwLjA2MDYxNzM1Mjk1OTQ0MzUyNCw3OS43MTE4MTkxNDE2NjgyMywwKSIvPjx1c2UgeGxpbms6aHJlZj0iI2JmIiB0cmFuc2Zvcm09Im1hdHJpeCgwLjA2MDYxNzM1Mjk1OTQ0MzUyNCwwLDAsMC4wNjA2MTczNTI5NTk0NDM1MjQsOTEuODM1Mjg5NzMzNTU2OTMsMCkiLz48dXNlIHhsaW5rOmhyZWY9IiNiYyIgdHJhbnNmb3JtPSJtYXRyaXgoMC4wNjA2MTczNTI5NTk0NDM1MjQsMCwwLDAuMDYwNjE3MzUyOTU5NDQzNTI0LDEwMi43NDY0MTMyNjYyNTY3OCwwKSIvPjx1c2UgeGxpbms6aHJlZj0iI2JoIiB0cmFuc2Zvcm09Im1hdHJpeCgwLjA2MDYxNzM1Mjk1OTQ0MzUyNCwwLDAsMC4wNjA2MTczNTI5NTk0NDM1MjQsMTA3LjUzNTE4NDE1MDA1MjgxLDApIi8+PHVzZSB4bGluazpocmVmPSIjYmEiIHRyYW5zZm9ybT0ibWF0cml4KDAuMDYwNjE3MzUyOTU5NDQzNTI0LDAsMCwwLjA2MDYxNzM1Mjk1OTQ0MzUyNCwxMTQuNzQ4NjQ5MTUyMjI2NTksMCkiLz48dXNlIHhsaW5rOmhyZWY9IiNiZSIgdHJhbnNmb3JtPSJtYXRyaXgoMC4wNjA2MTczNTI5NTk0NDM1MjQsMCwwLDAuMDYwNjE3MzUyOTU5NDQzNTI0LDEyMC44MTAzODQ0NDgxNzA5NSwwKSIvPjx1c2UgeGxpbms6aHJlZj0iI2JjIiB0cmFuc2Zvcm09Im1hdHJpeCgwLjA2MDYxNzM1Mjk1OTQ0MzUyNCwwLDAsMC4wNjA2MTczNTI5NTk0NDM1MjQsMTI2Ljg3MjExOTc0NDExNTMsMCkiLz48dXNlIHhsaW5rOmhyZWY9IiNiayIgdHJhbnNmb3JtPSJtYXRyaXgoMC4wNjA2MTczNTI5NTk0NDM1MjQsMCwwLDAuMDYwNjE3MzUyOTU5NDQzNTI0LDEzMS42NjA4OTA2Mjc5MTEzMywwKSIvPjx1c2UgeGxpbms6aHJlZj0iI2JnIiB0cmFuc2Zvcm09Im1hdHJpeCgwLjA2MDYxNzM1Mjk1OTQ0MzUyNCwwLDAsMC4wNjA2MTczNTI5NTk0NDM1MjQsMTQ5Ljc4NTQ3OTE2Mjc4NDk1LDApIi8+PHVzZSB4bGluazpocmVmPSIjYmwiIHRyYW5zZm9ybT0ibWF0cml4KDAuMDYwNjE3MzUyOTU5NDQzNTI0LDAsMCwwLjA2MDYxNzM1Mjk1OTQ0MzUyNCwxNjEuOTA4OTQ5NzU0NjczNjQsMCkiLz48dXNlIHhsaW5rOmhyZWY9IiNibSIgdHJhbnNmb3JtPSJtYXRyaXgoMC4wNjA2MTczNTI5NTk0NDM1MjQsMCwwLDAuMDYwNjE3MzUyOTU5NDQzNTI0LDE3NC4wMzI0MjAzNDY1NjIzMywwKSIvPjx1c2UgeGxpbms6aHJlZj0iI2JuIiB0cmFuc2Zvcm09Im1hdHJpeCgwLjA2MDYxNzM1Mjk1OTQ0MzUyNCwwLDAsMC4wNjA2MTczNTI5NTk0NDM1MjQsMTg2LjE1NTg5MDkzODQ1MTAyLDApIi8+PC9nPjxwYXR0ZXJuIGhlaWdodD0iMTUwLjQ4IiB3aWR0aD0iMjk0Ljk1IiB5PSI3MDAiIHg9IjI1MzQuMzYiIHBhdHRlcm5Vbml0cz0idXNlclNwYWNlT25Vc2UiIGlkPSJSIj48dXNlIHRyYW5zZm9ybT0idHJhbnNsYXRlKDAsIDApIHNjYWxlKDI5LjQ5NTI5OTYzMDQzMTE1NSwxNS4wNDg0MjQyNTIyMzY0MjYpIiB4bGluazpocmVmPSIjYVYiLz48L3BhdHRlcm4+PGxpbmVhckdyYWRpZW50IHkyPSI4MzQuNDgiIHgyPSIyNTU5LjU4IiB5MT0iNzAwIiB4MT0iMjU1OS41OCIgaWQ9IlMiIGdyYWRpZW50VW5pdHM9InVzZXJTcGFjZU9uVXNlIj48c3RvcCBzdG9wLWNvbG9yPSIjZjllNmE1IiBvZmZzZXQ9IjAlIi8+PHN0b3Agc3RvcC1jb2xvcj0iI2ZmZWNhOSIgb2Zmc2V0PSIzMCUiLz48c3RvcCBzdG9wLWNvbG9yPSIjZmZlY2E5IiBvZmZzZXQ9IjEwMCUiLz48L2xpbmVhckdyYWRpZW50PjxnIGlkPSJUIj48dXNlIHhsaW5rOmhyZWY9IiNhVyIgdHJhbnNmb3JtPSJtYXRyaXgoMC4wNjA2MTczNTI5NTk0NDM1MjQsMCwwLDAuMDYwNjE3MzUyOTU5NDQzNTI0LDAsMCkiLz48dXNlIHhsaW5rOmhyZWY9IiNhWCIgdHJhbnNmb3JtPSJtYXRyaXgoMC4wNjA2MTczNTI5NTk0NDM1MjQsMCwwLDAuMDYwNjE3MzUyOTU5NDQzNTI0LDE4LjEyNDU4ODUzNDg3MzYxLDApIi8+PHVzZSB4bGluazpocmVmPSIjYVkiIHRyYW5zZm9ybT0ibWF0cml4KDAuMDYwNjE3MzUyOTU5NDQzNTI0LDAsMCwwLjA2MDYxNzM1Mjk1OTQ0MzUyNCwzMC4yNDgwNTkxMjY3NjIzMTgsMCkiLz48dXNlIHhsaW5rOmhyZWY9IiNhWiIgdHJhbnNmb3JtPSJtYXRyaXgoMC4wNjA2MTczNTI5NTk0NDM1MjQsMCwwLDAuMDYwNjE3MzUyOTU5NDQzNTI0LDQyLjM3MTUyOTcxODY1MTAyLDApIi8+PHVzZSB4bGluazpocmVmPSIjYmEiIHRyYW5zZm9ybT0ibWF0cml4KDAuMDYwNjE3MzUyOTU5NDQzNTI0LDAsMCwwLjA2MDYxNzM1Mjk1OTQ0MzUyNCw1NC40OTUwMDAzMTA1Mzk3MiwwKSIvPjx1c2UgeGxpbms6aHJlZj0iI2JiIiB0cmFuc2Zvcm09Im1hdHJpeCgwLjA2MDYxNzM1Mjk1OTQ0MzUyNCwwLDAsMC4wNjA2MTczNTI5NTk0NDM1MjQsNjAuNTU2NzM1NjA2NDg0MDc1LDApIi8+PHVzZSB4bGluazpocmVmPSIjYVgiIHRyYW5zZm9ybT0ibWF0cml4KDAuMDYwNjE3MzUyOTU5NDQzNTI0LDAsMCwwLjA2MDYxNzM1Mjk1OTQ0MzUyNCw3Mi42ODAyMDYxOTgzNzI3NywwKSIvPjx1c2UgeGxpbms6aHJlZj0iI2JjIiB0cmFuc2Zvcm09Im1hdHJpeCgwLjA2MDYxNzM1Mjk1OTQ0MzUyNCwwLDAsMC4wNjA2MTczNTI5NTk0NDM1MjQsODQuODAzNjc2NzkwMjYxNDksMCkiLz48dXNlIHhsaW5rOmhyZWY9IiNhWiIgdHJhbnNmb3JtPSJtYXRyaXgoMC4wNjA2MTczNTI5NTk0NDM1MjQsMCwwLDAuMDYwNjE3MzUyOTU5NDQzNTI0LDg5LjU5MjQ0NzY3NDA1NzUyLDApIi8+PHVzZSB4bGluazpocmVmPSIjYmEiIHRyYW5zZm9ybT0ibWF0cml4KDAuMDYwNjE3MzUyOTU5NDQzNTI0LDAsMCwwLjA2MDYxNzM1Mjk1OTQ0MzUyNCwxMDEuNzE1OTE4MjY1OTQ2MjQsMCkiLz48dXNlIHhsaW5rOmhyZWY9IiNiZCIgdHJhbnNmb3JtPSJtYXRyaXgoMC4wNjA2MTczNTI5NTk0NDM1MjQsMCwwLDAuMDYwNjE3MzUyOTU5NDQzNTI0LDEwNy43Nzc2NTM1NjE4OTA1OSwwKSIvPjwvZz48dXNlIGlkPSJVIiB4bGluazpocmVmPSIjYmUiIHRyYW5zZm9ybT0ibWF0cml4KDAuMDYwNjE3MzUyOTU5NDQzNTI0LDAsMCwwLjA2MDYxNzM1Mjk1OTQ0MzUyNCwwLDApIi8+PHBhdHRlcm4gaGVpZ2h0PSIxNTAuMjMiIHdpZHRoPSIyOTQuNDUiIHk9IjM0MCIgeD0iMjUzNC44MiIgcGF0dGVyblVuaXRzPSJ1c2VyU3BhY2VPblVzZSIgaWQ9IlYiPjx1c2UgdHJhbnNmb3JtPSJ0cmFuc2xhdGUoMCwgMCkgc2NhbGUoMjkuNDQ1MDM5MTE3NjY1NjUsMTUuMDIyNzgxNDcwODg3OTcyKSIgeGxpbms6aHJlZj0iI2FWIi8+PC9wYXR0ZXJuPjxsaW5lYXJHcmFkaWVudCB5Mj0iNDc0LjI1IiB4Mj0iMjU2MCIgeTE9IjM0MCIgeDE9IjI1NjAiIGlkPSJXIiBncmFkaWVudFVuaXRzPSJ1c2VyU3BhY2VPblVzZSI+PHN0b3Agc3RvcC1jb2xvcj0iI2Y5ZTZhNSIgb2Zmc2V0PSIwJSIvPjxzdG9wIHN0b3AtY29sb3I9IiNmZmVjYTkiIG9mZnNldD0iMzAlIi8+PHN0b3Agc3RvcC1jb2xvcj0iI2ZmZWNhOSIgb2Zmc2V0PSIxMDAlIi8+PC9saW5lYXJHcmFkaWVudD48ZyBpZD0iWCI+PHVzZSB4bGluazpocmVmPSIjYVciIHRyYW5zZm9ybT0ibWF0cml4KDAuMDYwMjcyMDk2MTM2NDgzOTEsMCwwLDAuMDYwMjcyMDk2MTM2NDgzOTEsMCwwKSIvPjx1c2UgeGxpbms6aHJlZj0iI2FYIiB0cmFuc2Zvcm09Im1hdHJpeCgwLjA2MDI3MjA5NjEzNjQ4MzkxLDAsMCwwLjA2MDI3MjA5NjEzNjQ4MzkxLDE4LjAyMTM1Njc0NDgwODY5LDApIi8+PHVzZSB4bGluazpocmVmPSIjYVkiIHRyYW5zZm9ybT0ibWF0cml4KDAuMDYwMjcyMDk2MTM2NDgzOTEsMCwwLDAuMDYwMjcyMDk2MTM2NDgzOTEsMzAuMDc1Nzc1OTcyMTA1NDcyLDApIi8+PHVzZSB4bGluazpocmVmPSIjYVoiIHRyYW5zZm9ybT0ibWF0cml4KDAuMDYwMjcyMDk2MTM2NDgzOTEsMCwwLDAuMDYwMjcyMDk2MTM2NDgzOTEsNDIuMTMwMTk1MTk5NDAyMjUsMCkiLz48dXNlIHhsaW5rOmhyZWY9IiNiYSIgdHJhbnNmb3JtPSJtYXRyaXgoMC4wNjAyNzIwOTYxMzY0ODM5MSwwLDAsMC4wNjAyNzIwOTYxMzY0ODM5MSw1NC4xODQ2MTQ0MjY2OTkwMywwKSIvPjx1c2UgeGxpbms6aHJlZj0iI2JiIiB0cmFuc2Zvcm09Im1hdHJpeCgwLjA2MDI3MjA5NjEzNjQ4MzkxLDAsMCwwLjA2MDI3MjA5NjEzNjQ4MzkxLDYwLjIxMTgyNDA0MDM0NzQyLDApIi8+PHVzZSB4bGluazpocmVmPSIjYVgiIHRyYW5zZm9ybT0ibWF0cml4KDAuMDYwMjcyMDk2MTM2NDgzOTEsMCwwLDAuMDYwMjcyMDk2MTM2NDgzOTEsNzIuMjY2MjQzMjY3NjQ0MiwwKSIvPjx1c2UgeGxpbms6aHJlZj0iI2JjIiB0cmFuc2Zvcm09Im1hdHJpeCgwLjA2MDI3MjA5NjEzNjQ4MzkxLDAsMCwwLjA2MDI3MjA5NjEzNjQ4MzkxLDg0LjMyMDY2MjQ5NDk0MDk5LDApIi8+PHVzZSB4bGluazpocmVmPSIjYVoiIHRyYW5zZm9ybT0ibWF0cml4KDAuMDYwMjcyMDk2MTM2NDgzOTEsMCwwLDAuMDYwMjcyMDk2MTM2NDgzOTEsODkuMDgyMTU4MDg5NzIzMjIsMCkiLz48dXNlIHhsaW5rOmhyZWY9IiNiYSIgdHJhbnNmb3JtPSJtYXRyaXgoMC4wNjAyNzIwOTYxMzY0ODM5MSwwLDAsMC4wNjAyNzIwOTYxMzY0ODM5MSwxMDEuMTM2NTc3MzE3MDIwMDEsMCkiLz48dXNlIHhsaW5rOmhyZWY9IiNiZCIgdHJhbnNmb3JtPSJtYXRyaXgoMC4wNjAyNzIwOTYxMzY0ODM5MSwwLDAsMC4wNjAyNzIwOTYxMzY0ODM5MSwxMDcuMTYzNzg2OTMwNjY4NCwwKSIvPjwvZz48cGF0aCBpZD0iYm8iIGQ9Ik05Ni0xNjljLTQwIDAtNDggMzMtNDggNzNzOSA3NSA0OCA3NWMyNCAwIDQxLTE0IDQzLTM4bDMyIDJjLTYgMzctMzEgNjEtNzQgNjEtNTkgMC03Ni00MS04Mi05OS0xMC05MyAxMDEtMTMxIDE0Ny02NCA0IDcgNSAxNCA3IDIybC0zMiAzYy00LTIxLTE2LTM1LTQxLTM1Ii8+PHBhdGggaWQ9ImJwIiBkPSJNMTA2LTE2OUMzNC0xNjkgNjItNjcgNTcgMEgyNXYtMjYxaDMybC0xIDEwM2MxMi0yMSAyOC0zNiA2MS0zNiA4OSAwIDUzIDExNiA2MCAxOTRoLTMydi0xMjFjMi0zMi04LTQ5LTM5LTQ4Ii8+PHBhdGggaWQ9ImJxIiBkPSJNODUtMTk0YzMxIDAgNDggMTMgNjAgMzNsLTEtMTAwaDMybDEgMjYxaC0zMGMtMi0xMCAwLTIzLTMtMzFDMTM0LTggMTE2IDQgODUgNCAzMiA0IDE2LTM1IDE1LTk0YzAtNjYgMjMtMTAwIDcwLTEwMHptOSAyNGMtNDAgMC00NiAzNC00NiA3NSAwIDQwIDYgNzQgNDUgNzQgNDIgMCA1MS0zMiA1MS03NiAwLTQyLTktNzQtNTAtNzMiLz48cGF0aCBpZD0iYnIiIGQ9Ik0xNDMgMEw3OS04NyA1Ni02OFYwSDI0di0yNjFoMzJ2MTYzbDgzLTkyaDM3bC03NyA4MkwxODEgMGgtMzgiLz48ZyBpZD0iWSI+PHVzZSB4bGluazpocmVmPSIjYmUiIHRyYW5zZm9ybT0ibWF0cml4KDAuMDYwMjcyMDk2MTM2NDgzOTEsMCwwLDAuMDYwMjcyMDk2MTM2NDgzOTEsMCwwKSIvPjx1c2UgeGxpbms6aHJlZj0iI2JvIiB0cmFuc2Zvcm09Im1hdHJpeCgwLjA2MDI3MjA5NjEzNjQ4MzkxLDAsMCwwLjA2MDI3MjA5NjEzNjQ4MzkxLDYuMDI3MjA5NjEzNjQ4MzkxLDApIi8+PHVzZSB4bGluazpocmVmPSIjYm0iIHRyYW5zZm9ybT0ibWF0cml4KDAuMDYwMjcyMDk2MTM2NDgzOTEsMCwwLDAuMDYwMjcyMDk2MTM2NDgzOTEsMTYuODc2MTg2OTE4MjE1NDk1LDApIi8+PHVzZSB4bGluazpocmVmPSIjYmIiIHRyYW5zZm9ybT0ibWF0cml4KDAuMDYwMjcyMDk2MTM2NDgzOTEsMCwwLDAuMDYwMjcyMDk2MTM2NDgzOTEsMjguOTMwNjA2MTQ1NTEyMjc1LDApIi8+PHVzZSB4bGluazpocmVmPSIjYnAiIHRyYW5zZm9ybT0ibWF0cml4KDAuMDYwMjcyMDk2MTM2NDgzOTEsMCwwLDAuMDYwMjcyMDk2MTM2NDgzOTEsNDAuOTg1MDI1MzcyODA5MDU1LDApIi8+PHVzZSB4bGluazpocmVmPSIjYnEiIHRyYW5zZm9ybT0ibWF0cml4KDAuMDYwMjcyMDk2MTM2NDgzOTEsMCwwLDAuMDYwMjcyMDk2MTM2NDgzOTEsNTMuMDM5NDQ0NjAwMTA1ODMsMCkiLz48dXNlIHhsaW5rOmhyZWY9IiNiYyIgdHJhbnNmb3JtPSJtYXRyaXgoMC4wNjAyNzIwOTYxMzY0ODM5MSwwLDAsMC4wNjAyNzIwOTYxMzY0ODM5MSw2NS4wOTM4NjM4Mjc0MDI2MSwwKSIvPjx1c2UgeGxpbms6aHJlZj0iI2JuIiB0cmFuc2Zvcm09Im1hdHJpeCgwLjA2MDI3MjA5NjEzNjQ4MzkxLDAsMCwwLjA2MDI3MjA5NjEzNjQ4MzkxLDY5Ljg1NTM1OTQyMjE4NDg1LDApIi8+PHVzZSB4bGluazpocmVmPSIjYnIiIHRyYW5zZm9ybT0ibWF0cml4KDAuMDYwMjcyMDk2MTM2NDgzOTEsMCwwLDAuMDYwMjcyMDk2MTM2NDgzOTEsODAuNzA0MzM2NzI2NzUxOTUsMCkiLz48dXNlIHhsaW5rOmhyZWY9IiNibiIgdHJhbnNmb3JtPSJtYXRyaXgoMC4wNjAyNzIwOTYxMzY0ODM5MSwwLDAsMC4wNjAyNzIwOTYxMzY0ODM5MSw5MS41NTMzMTQwMzEzMTkwNiwwKSIvPjwvZz48cGF0aCBpZD0iYnMiIGQ9Ik0xODUtMTg5Yy01LTQ4LTEyMy01NC0xMjQgMiAxNCA3NSAxNTggMTQgMTYzIDExOSAzIDc4LTEyMSA4Ny0xNzUgNTUtMTctMTAtMjgtMjYtMzMtNDZsMzMtN2M1IDU2IDE0MSA2MyAxNDEtMSAwLTc4LTE1NS0xNC0xNjItMTE4LTUtODIgMTQ1LTg0IDE3OS0zNCA1IDcgOCAxNiAxMSAyNSIvPjxnIGlkPSJaIj48dXNlIHhsaW5rOmhyZWY9IiNicyIgdHJhbnNmb3JtPSJtYXRyaXgoMC4xNDgxNDgxNDgxNDgxNDgxNywwLDAsMC4xNDgxNDgxNDgxNDgxNDgxNywwLDApIi8+PHVzZSB4bGluazpocmVmPSIjYmEiIHRyYW5zZm9ybT0ibWF0cml4KDAuMTQ4MTQ4MTQ4MTQ4MTQ4MTcsMCwwLDAuMTQ4MTQ4MTQ4MTQ4MTQ4MTcsMzUuNTU1NTU1NTU1NTU1NTYsMCkiLz48dXNlIHhsaW5rOmhyZWY9IiNhWCIgdHJhbnNmb3JtPSJtYXRyaXgoMC4xNDgxNDgxNDgxNDgxNDgxNywwLDAsMC4xNDgxNDgxNDgxNDgxNDgxNyw1MC4zNzAzNzAzNzAzNzAzNzQsMCkiLz48dXNlIHhsaW5rOmhyZWY9IiNiaCIgdHJhbnNmb3JtPSJtYXRyaXgoMC4xNDgxNDgxNDgxNDgxNDgxNywwLDAsMC4xNDgxNDgxNDgxNDgxNDgxNyw4MCwwKSIvPjx1c2UgeGxpbms6aHJlZj0iI2JnIiB0cmFuc2Zvcm09Im1hdHJpeCgwLjE0ODE0ODE0ODE0ODE0ODE3LDAsMCwwLjE0ODE0ODE0ODE0ODE0ODE3LDk3LjYyOTYyOTYyOTYyOTYyLDApIi8+PHVzZSB4bGluazpocmVmPSIjYmwiIHRyYW5zZm9ybT0ibWF0cml4KDAuMTQ4MTQ4MTQ4MTQ4MTQ4MTcsMCwwLDAuMTQ4MTQ4MTQ4MTQ4MTQ4MTcsMTI3LjI1OTI1OTI1OTI1OTI1LDApIi8+PHVzZSB4bGluazpocmVmPSIjYm0iIHRyYW5zZm9ybT0ibWF0cml4KDAuMTQ4MTQ4MTQ4MTQ4MTQ4MTcsMCwwLDAuMTQ4MTQ4MTQ4MTQ4MTQ4MTcsMTU2Ljg4ODg4ODg4ODg4ODksMCkiLz48L2c+PHBhdGggaWQ9ImJ0IiBkPSJNMTM3IDBoLTM0TDItMjQ4aDM1bDgzIDIxOCA4My0yMThoMzYiLz48cGF0aCBpZD0iYnUiIGQ9Ik05IDB2LTI0bDExNi0xNDJIMTZ2LTI0aDE0NHYyNEw0NC0yNGgxMjNWMEg5Ii8+PGcgaWQ9ImFhIj48dXNlIHhsaW5rOmhyZWY9IiNidCIgdHJhbnNmb3JtPSJtYXRyaXgoMC4xNDgxNDgxNDgxNDgxNDgxNywwLDAsMC4xNDgxNDgxNDgxNDgxNDgxNywwLDApIi8+PHVzZSB4bGluazpocmVmPSIjYmMiIHRyYW5zZm9ybT0ibWF0cml4KDAuMTQ4MTQ4MTQ4MTQ4MTQ4MTcsMCwwLDAuMTQ4MTQ4MTQ4MTQ4MTQ4MTcsMzQuNTE4NTE4NTE4NTE4NTIsMCkiLz48dXNlIHhsaW5rOmhyZWY9IiNiaCIgdHJhbnNmb3JtPSJtYXRyaXgoMC4xNDgxNDgxNDgxNDgxNDgxNywwLDAsMC4xNDgxNDgxNDgxNDgxNDgxNyw0Ni4yMjIyMjIyMjIyMjIyMywwKSIvPjx1c2UgeGxpbms6aHJlZj0iI2JhIiB0cmFuc2Zvcm09Im1hdHJpeCgwLjE0ODE0ODE0ODE0ODE0ODE3LDAsMCwwLjE0ODE0ODE0ODE0ODE0ODE3LDYzLjg1MTg1MTg1MTg1MTg2LDApIi8+PHVzZSB4bGluazpocmVmPSIjYVkiIHRyYW5zZm9ybT0ibWF0cml4KDAuMTQ4MTQ4MTQ4MTQ4MTQ4MTcsMCwwLDAuMTQ4MTQ4MTQ4MTQ4MTQ4MTcsNzguNjY2NjY2NjY2NjY2NywwKSIvPjx1c2UgeGxpbms6aHJlZj0iI2JnIiB0cmFuc2Zvcm09Im1hdHJpeCgwLjE0ODE0ODE0ODE0ODE0ODE3LDAsMCwwLjE0ODE0ODE0ODE0ODE0ODE3LDEwOC4yOTYyOTYyOTYyOTYzLDApIi8+PHVzZSB4bGluazpocmVmPSIjYmkiIHRyYW5zZm9ybT0ibWF0cml4KDAuMTQ4MTQ4MTQ4MTQ4MTQ4MTcsMCwwLDAuMTQ4MTQ4MTQ4MTQ4MTQ4MTcsMTM3LjkyNTkyNTkyNTkyNTk1LDApIi8+PHVzZSB4bGluazpocmVmPSIjYmMiIHRyYW5zZm9ybT0ibWF0cml4KDAuMTQ4MTQ4MTQ4MTQ4MTQ4MTcsMCwwLDAuMTQ4MTQ4MTQ4MTQ4MTQ4MTcsMTQ5LjYyOTYyOTYyOTYyOTY1LDApIi8+PHVzZSB4bGluazpocmVmPSIjYnUiIHRyYW5zZm9ybT0ibWF0cml4KDAuMTQ4MTQ4MTQ4MTQ4MTQ4MTcsMCwwLDAuMTQ4MTQ4MTQ4MTQ4MTQ4MTcsMTYxLjMzMzMzMzMzMzMzMzM0LDApIi8+PHVzZSB4bGluazpocmVmPSIjYmciIHRyYW5zZm9ybT0ibWF0cml4KDAuMTQ4MTQ4MTQ4MTQ4MTQ4MTcsMCwwLDAuMTQ4MTQ4MTQ4MTQ4MTQ4MTcsMTg4LDApIi8+PHVzZSB4bGluazpocmVmPSIjYmEiIHRyYW5zZm9ybT0ibWF0cml4KDAuMTQ4MTQ4MTQ4MTQ4MTQ4MTcsMCwwLDAuMTQ4MTQ4MTQ4MTQ4MTQ4MTcsMjE3LjYyOTYyOTYyOTYyOTYyLDApIi8+PHVzZSB4bGluazpocmVmPSIjYmMiIHRyYW5zZm9ybT0ibWF0cml4KDAuMTQ4MTQ4MTQ4MTQ4MTQ4MTcsMCwwLDAuMTQ4MTQ4MTQ4MTQ4MTQ4MTcsMjMyLjQ0NDQ0NDQ0NDQ0NDQzLDApIi8+PHVzZSB4bGluazpocmVmPSIjYVgiIHRyYW5zZm9ybT0ibWF0cml4KDAuMTQ4MTQ4MTQ4MTQ4MTQ4MTcsMCwwLDAuMTQ4MTQ4MTQ4MTQ4MTQ4MTcsMjQ0LjE0ODE0ODE0ODE0ODEyLDApIi8+PHVzZSB4bGluazpocmVmPSIjYVoiIHRyYW5zZm9ybT0ibWF0cml4KDAuMTQ4MTQ4MTQ4MTQ4MTQ4MTcsMCwwLDAuMTQ4MTQ4MTQ4MTQ4MTQ4MTcsMjczLjc3Nzc3Nzc3Nzc3Nzc3LDApIi8+PC9nPjxnIGlkPSJhYiI+PHVzZSB4bGluazpocmVmPSIjYmMiIHRyYW5zZm9ybT0ibWF0cml4KDAuMTQ4MTQ4MTQ4MTQ4MTQ4MTcsMCwwLDAuMTQ4MTQ4MTQ4MTQ4MTQ4MTcsMCwwKSIvPjx1c2UgeGxpbms6aHJlZj0iI2FaIiB0cmFuc2Zvcm09Im1hdHJpeCgwLjE0ODE0ODE0ODE0ODE0ODE3LDAsMCwwLjE0ODE0ODE0ODE0ODE0ODE3LDExLjcwMzcwMzcwMzcwMzcwNiwwKSIvPjwvZz48ZyBpZD0iYWMiPjx1c2UgeGxpbms6aHJlZj0iI2JzIiB0cmFuc2Zvcm09Im1hdHJpeCgwLjE0ODE0ODE0ODE0ODE0ODE3LDAsMCwwLjE0ODE0ODE0ODE0ODE0ODE3LDAsMCkiLz48dXNlIHhsaW5rOmhyZWY9IiNiYSIgdHJhbnNmb3JtPSJtYXRyaXgoMC4xNDgxNDgxNDgxNDgxNDgxNywwLDAsMC4xNDgxNDgxNDgxNDgxNDgxNywzNS41NTU1NTU1NTU1NTU1NiwwKSIvPjx1c2UgeGxpbms6aHJlZj0iI2JnIiB0cmFuc2Zvcm09Im1hdHJpeCgwLjE0ODE0ODE0ODE0ODE0ODE3LDAsMCwwLjE0ODE0ODE0ODE0ODE0ODE3LDUwLjM3MDM3MDM3MDM3MDM3NCwwKSIvPjx1c2UgeGxpbms6aHJlZj0iI2JsIiB0cmFuc2Zvcm09Im1hdHJpeCgwLjE0ODE0ODE0ODE0ODE0ODE3LDAsMCwwLjE0ODE0ODE0ODE0ODE0ODE3LDgwLDApIi8+PHVzZSB4bGluazpocmVmPSIjYmMiIHRyYW5zZm9ybT0ibWF0cml4KDAuMTQ4MTQ4MTQ4MTQ4MTQ4MTcsMCwwLDAuMTQ4MTQ4MTQ4MTQ4MTQ4MTcsMTA5LjYyOTYyOTYyOTYyOTYzLDApIi8+PHVzZSB4bGluazpocmVmPSIjYVoiIHRyYW5zZm9ybT0ibWF0cml4KDAuMTQ4MTQ4MTQ4MTQ4MTQ4MTcsMCwwLDAuMTQ4MTQ4MTQ4MTQ4MTQ4MTcsMTIxLjMzMzMzMzMzMzMzMzM0LDApIi8+PHVzZSB4bGluazpocmVmPSIjYmwiIHRyYW5zZm9ybT0ibWF0cml4KDAuMTQ4MTQ4MTQ4MTQ4MTQ4MTcsMCwwLDAuMTQ4MTQ4MTQ4MTQ4MTQ4MTcsMTUwLjk2Mjk2Mjk2Mjk2MywwKSIvPjwvZz48cGF0aCBpZD0iYnYiIGQ9Ik0xOTAgMEw1OC0yMTEgNTkgMEgzMHYtMjQ4aDM5TDIwMi0zNWwtMi0yMTNoMzFWMGgtNDEiLz48ZyBpZD0iYWQiPjx1c2UgeGxpbms6aHJlZj0iI2J2IiB0cmFuc2Zvcm09Im1hdHJpeCgwLjE0ODE0ODE0ODE0ODE0ODE3LDAsMCwwLjE0ODE0ODE0ODE0ODE0ODE3LDAsMCkiLz48dXNlIHhsaW5rOmhyZWY9IiNhWCIgdHJhbnNmb3JtPSJtYXRyaXgoMC4xNDgxNDgxNDgxNDgxNDgxNywwLDAsMC4xNDgxNDgxNDgxNDgxNDgxNywzOC4zNzAzNzAzNzAzNzAzNzQsMCkiLz48dXNlIHhsaW5rOmhyZWY9IiNicSIgdHJhbnNmb3JtPSJtYXRyaXgoMC4xNDgxNDgxNDgxNDgxNDgxNywwLDAsMC4xNDgxNDgxNDgxNDgxNDgxNyw2OCwwKSIvPjx1c2UgeGxpbms6aHJlZj0iI2JtIiB0cmFuc2Zvcm09Im1hdHJpeCgwLjE0ODE0ODE0ODE0ODE0ODE3LDAsMCwwLjE0ODE0ODE0ODE0ODE0ODE3LDk3LjYyOTYyOTYyOTYyOTYyLDApIi8+PC9nPjwvZGVmcz48L2c+PC9zdmc+;" vertex="1" parent="1">
          <mxGeometry width="1200" height="477" as="geometry" />
        </mxCell>
      </root>
    </mxGraphModel>
  </diagram>
</mxfile>
